  0
SECTION
  2
HEADER
  9
$ANGBASE
  50
0.0
  9
$ANGDIR
  70
1
  9
$MEASUREMENT
  70
1
  0
ENDSEC
  0
SECTION
  2
TABLES
  0
TABLE
  2
LTYPE
  70
4
  0
LTYPE
  5
40F
  2
CONTINUOUS
  70
0
  3
Solid line
  72
65
  73
0
  40
0.0
  0
LTYPE
  5
410
  2
DASHDOT
 70
0
  3
Dash Dot ____ _ ____ _
 72
65
 73
4
 40
2.0
 49
1.25
 49
-0.25
 49
0.25
 49
-0.25
  0
LTYPE
  5
411
  2
DASHED
 70
0
  3
Dashed __ __ __ __ __
 72
65
 73
2
 40
0.75
 49
0.5
 49
-0.25
  0
LTYPE
  5
43B
  2
DOTTED
 70
0
  3
Dotted .  .  .  .
 72
65
 73
2
 40
0.2
 49
0.0
 49
-0.2
  0
ENDTAB
  0
TABLE
  2
STYLE
  70
4
  0
STYLE
  2
KICAD
  70
0
  40
0
  41
1
  42
1
  50
0
  71
0
  3
isocp.shx
  0
STYLE
  2
KICADB
  70
0
  40
0
  41
1
  42
1
  50
0
  71
0
  3
isocp.shx
  0
STYLE
  2
KICADI
  70
0
  40
0
  41
1
  42
1
  50
15
  71
0
  3
isocp.shx
  0
STYLE
  2
KICADBI
  70
0
  40
0
  41
1
  42
1
  50
15
  71
0
  3
isocp.shx
  0
ENDTAB
  0
TABLE
  2
LAYER
  70
1
  0
LAYER
  2
BLACK
  70
0
  62
7
  6
CONTINUOUS
  0
ENDTAB
  0
ENDSEC
  0
SECTION
  2
ENTITIES
0
LINE
8
BLACK
6
CONTINUOUS
10
163.209
20
-95.1332
11
163.245
21
-95.1612
0
LINE
8
BLACK
6
CONTINUOUS
10
163.245
20
-95.1612
11
165.045
21
-98.2788
0
LINE
8
BLACK
6
CONTINUOUS
10
165.045
20
-98.2788
11
165.051
21
-98.3244
0
LINE
8
BLACK
6
CONTINUOUS
10
165.051
20
-98.3244
11
165.023
21
-98.3608
0
LINE
8
BLACK
6
CONTINUOUS
10
165.023
20
-98.3608
11
162.339
21
-99.9108
0
LINE
8
BLACK
6
CONTINUOUS
10
162.339
20
-99.9108
11
162.293
21
-99.9168
0
LINE
8
BLACK
6
CONTINUOUS
10
162.293
20
-99.9168
11
162.257
21
-99.8888
0
LINE
8
BLACK
6
CONTINUOUS
10
162.257
20
-99.8888
11
162.257
21
-99.8888
0
LINE
8
BLACK
6
CONTINUOUS
10
162.257
20
-99.8888
11
160.457
21
-96.7712
0
LINE
8
BLACK
6
CONTINUOUS
10
160.457
20
-96.7712
11
160.451
21
-96.7256
0
LINE
8
BLACK
6
CONTINUOUS
10
160.451
20
-96.7256
11
160.479
21
-96.6892
0
LINE
8
BLACK
6
CONTINUOUS
10
160.479
20
-96.6892
11
160.479
21
-96.6892
0
LINE
8
BLACK
6
CONTINUOUS
10
160.479
20
-96.6892
11
163.163
21
-95.1392
0
LINE
8
BLACK
6
CONTINUOUS
10
163.163
20
-95.1392
11
163.163
21
-95.1392
0
LINE
8
BLACK
6
CONTINUOUS
10
163.163
20
-95.1392
11
163.209
21
-95.1332
0
LINE
8
BLACK
6
CONTINUOUS
10
160.591
20
-96.7631
11
162.331
21
-99.7769
0
LINE
8
BLACK
6
CONTINUOUS
10
162.331
20
-99.7769
11
164.911
21
-98.2869
0
LINE
8
BLACK
6
CONTINUOUS
10
164.911
20
-98.2869
11
163.171
21
-95.2731
0
LINE
8
BLACK
6
CONTINUOUS
10
163.171
20
-95.2731
11
160.591
21
-96.7631
0
LINE
8
BLACK
6
CONTINUOUS
10
191.711
20
-93.9731
11
191.739
21
-94.0096
0
LINE
8
BLACK
6
CONTINUOUS
10
191.739
20
-94.0096
11
192.542
21
-97.0039
0
LINE
8
BLACK
6
CONTINUOUS
10
192.542
20
-97.0039
11
192.536
21
-97.0495
0
LINE
8
BLACK
6
CONTINUOUS
10
192.536
20
-97.0495
11
192.499
21
-97.0774
0
LINE
8
BLACK
6
CONTINUOUS
10
192.499
20
-97.0774
11
189.022
21
-98.0092
0
LINE
8
BLACK
6
CONTINUOUS
10
189.022
20
-98.0092
11
188.976
21
-98.0032
0
LINE
8
BLACK
6
CONTINUOUS
10
188.976
20
-98.0032
11
188.948
21
-97.9667
0
LINE
8
BLACK
6
CONTINUOUS
10
188.948
20
-97.9667
11
188.948
21
-97.9667
0
LINE
8
BLACK
6
CONTINUOUS
10
188.948
20
-97.9667
11
188.146
21
-94.9724
0
LINE
8
BLACK
6
CONTINUOUS
10
188.146
20
-94.9724
11
188.152
21
-94.9268
0
LINE
8
BLACK
6
CONTINUOUS
10
188.152
20
-94.9268
11
188.189
21
-94.8989
0
LINE
8
BLACK
6
CONTINUOUS
10
188.189
20
-94.8989
11
191.666
21
-93.9671
0
LINE
8
BLACK
6
CONTINUOUS
10
191.666
20
-93.9671
11
191.711
21
-93.9731
0
LINE
8
BLACK
6
CONTINUOUS
10
188.278
20
-94.9993
11
189.049
21
-97.8777
0
LINE
8
BLACK
6
CONTINUOUS
10
189.049
20
-97.8777
11
192.41
21
-96.977
0
LINE
8
BLACK
6
CONTINUOUS
10
192.41
20
-96.977
11
191.639
21
-94.0986
0
LINE
8
BLACK
6
CONTINUOUS
10
191.639
20
-94.0986
11
188.278
21
-94.9993
0
LINE
8
BLACK
6
CONTINUOUS
10
211.907
20
-91.795
11
211.95
21
-91.8126
0
LINE
8
BLACK
6
CONTINUOUS
10
211.95
20
-91.8126
11
211.968
21
-91.855
0
LINE
8
BLACK
6
CONTINUOUS
10
211.968
20
-91.855
11
211.968
21
-94.955
0
LINE
8
BLACK
6
CONTINUOUS
10
211.968
20
-94.955
11
211.95
21
-94.9974
0
LINE
8
BLACK
6
CONTINUOUS
10
211.95
20
-94.9974
11
211.907
21
-95.015
0
LINE
8
BLACK
6
CONTINUOUS
10
211.907
20
-95.015
11
208.308
21
-95.015
0
LINE
8
BLACK
6
CONTINUOUS
10
208.308
20
-95.015
11
208.265
21
-94.9974
0
LINE
8
BLACK
6
CONTINUOUS
10
208.265
20
-94.9974
11
208.248
21
-94.955
0
LINE
8
BLACK
6
CONTINUOUS
10
208.248
20
-94.955
11
208.248
21
-91.855
0
LINE
8
BLACK
6
CONTINUOUS
10
208.248
20
-91.855
11
208.265
21
-91.8126
0
LINE
8
BLACK
6
CONTINUOUS
10
208.265
20
-91.8126
11
208.308
21
-91.795
0
LINE
8
BLACK
6
CONTINUOUS
10
208.308
20
-91.795
11
211.907
21
-91.795
0
LINE
8
BLACK
6
CONTINUOUS
10
208.367
20
-91.915
11
208.367
21
-94.895
0
LINE
8
BLACK
6
CONTINUOUS
10
208.367
20
-94.895
11
211.847
21
-94.895
0
LINE
8
BLACK
6
CONTINUOUS
10
211.847
20
-94.895
11
211.847
21
-91.915
0
LINE
8
BLACK
6
CONTINUOUS
10
211.847
20
-91.915
11
208.367
21
-91.915
0
LINE
8
BLACK
6
CONTINUOUS
10
177.836
20
-86.9337
11
178.125
21
-86.9912
0
LINE
8
BLACK
6
CONTINUOUS
10
178.125
20
-86.9912
11
178.404
21
-87.0858
0
LINE
8
BLACK
6
CONTINUOUS
10
178.404
20
-87.0858
11
178.667
21
-87.2159
0
LINE
8
BLACK
6
CONTINUOUS
10
178.667
20
-87.2159
11
178.912
21
-87.3795
0
LINE
8
BLACK
6
CONTINUOUS
10
178.912
20
-87.3795
11
179.133
21
-87.5735
0
LINE
8
BLACK
6
CONTINUOUS
10
179.133
20
-87.5735
11
179.328
21
-87.7948
0
LINE
8
BLACK
6
CONTINUOUS
10
179.328
20
-87.7948
11
179.491
21
-88.0395
0
LINE
8
BLACK
6
CONTINUOUS
10
179.491
20
-88.0395
11
179.621
21
-88.3035
0
LINE
8
BLACK
6
CONTINUOUS
10
179.621
20
-88.3035
11
179.716
21
-88.5822
0
LINE
8
BLACK
6
CONTINUOUS
10
179.716
20
-88.5822
11
179.773
21
-88.8708
0
LINE
8
BLACK
6
CONTINUOUS
10
179.773
20
-88.8708
11
179.792
21
-89.1645
0
LINE
8
BLACK
6
CONTINUOUS
10
179.792
20
-89.1645
11
179.773
21
-89.4582
0
LINE
8
BLACK
6
CONTINUOUS
10
179.773
20
-89.4582
11
179.716
21
-89.7468
0
LINE
8
BLACK
6
CONTINUOUS
10
179.716
20
-89.7468
11
179.621
21
-90.0255
0
LINE
8
BLACK
6
CONTINUOUS
10
179.621
20
-90.0255
11
179.491
21
-90.2895
0
LINE
8
BLACK
6
CONTINUOUS
10
179.491
20
-90.2895
11
179.328
21
-90.5342
0
LINE
8
BLACK
6
CONTINUOUS
10
179.328
20
-90.5342
11
179.133
21
-90.7555
0
LINE
8
BLACK
6
CONTINUOUS
10
179.133
20
-90.7555
11
178.912
21
-90.9495
0
LINE
8
BLACK
6
CONTINUOUS
10
178.912
20
-90.9495
11
178.667
21
-91.1131
0
LINE
8
BLACK
6
CONTINUOUS
10
178.667
20
-91.1131
11
178.404
21
-91.2432
0
LINE
8
BLACK
6
CONTINUOUS
10
178.404
20
-91.2432
11
178.125
21
-91.3378
0
LINE
8
BLACK
6
CONTINUOUS
10
178.125
20
-91.3378
11
177.836
21
-91.3953
0
LINE
8
BLACK
6
CONTINUOUS
10
177.836
20
-91.3953
11
177.542
21
-91.4145
0
LINE
8
BLACK
6
CONTINUOUS
10
177.542
20
-91.4145
11
177.249
21
-91.3953
0
LINE
8
BLACK
6
CONTINUOUS
10
177.249
20
-91.3953
11
176.96
21
-91.3378
0
LINE
8
BLACK
6
CONTINUOUS
10
176.96
20
-91.3378
11
176.681
21
-91.2432
0
LINE
8
BLACK
6
CONTINUOUS
10
176.681
20
-91.2432
11
176.417
21
-91.1131
0
LINE
8
BLACK
6
CONTINUOUS
10
176.417
20
-91.1131
11
176.173
21
-90.9495
0
LINE
8
BLACK
6
CONTINUOUS
10
176.173
20
-90.9495
11
175.952
21
-90.7555
0
LINE
8
BLACK
6
CONTINUOUS
10
175.952
20
-90.7555
11
175.757
21
-90.5342
0
LINE
8
BLACK
6
CONTINUOUS
10
175.757
20
-90.5342
11
175.594
21
-90.2895
0
LINE
8
BLACK
6
CONTINUOUS
10
175.594
20
-90.2895
11
175.464
21
-90.0255
0
LINE
8
BLACK
6
CONTINUOUS
10
175.464
20
-90.0255
11
175.369
21
-89.7468
0
LINE
8
BLACK
6
CONTINUOUS
10
175.369
20
-89.7468
11
175.312
21
-89.4582
0
LINE
8
BLACK
6
CONTINUOUS
10
175.312
20
-89.4582
11
175.292
21
-89.1645
0
LINE
8
BLACK
6
CONTINUOUS
10
175.292
20
-89.1645
11
175.312
21
-88.8708
0
LINE
8
BLACK
6
CONTINUOUS
10
175.312
20
-88.8708
11
175.369
21
-88.5822
0
LINE
8
BLACK
6
CONTINUOUS
10
175.369
20
-88.5822
11
175.464
21
-88.3035
0
LINE
8
BLACK
6
CONTINUOUS
10
175.464
20
-88.3035
11
175.594
21
-88.0395
0
LINE
8
BLACK
6
CONTINUOUS
10
175.594
20
-88.0395
11
175.757
21
-87.7948
0
LINE
8
BLACK
6
CONTINUOUS
10
175.757
20
-87.7948
11
175.952
21
-87.5735
0
LINE
8
BLACK
6
CONTINUOUS
10
175.952
20
-87.5735
11
176.173
21
-87.3795
0
LINE
8
BLACK
6
CONTINUOUS
10
176.173
20
-87.3795
11
176.417
21
-87.2159
0
LINE
8
BLACK
6
CONTINUOUS
10
176.417
20
-87.2159
11
176.681
21
-87.0858
0
LINE
8
BLACK
6
CONTINUOUS
10
176.681
20
-87.0858
11
176.96
21
-86.9912
0
LINE
8
BLACK
6
CONTINUOUS
10
176.96
20
-86.9912
11
177.249
21
-86.9337
0
LINE
8
BLACK
6
CONTINUOUS
10
177.249
20
-86.9337
11
177.542
21
-86.9145
0
LINE
8
BLACK
6
CONTINUOUS
10
177.542
20
-86.9145
11
177.836
21
-86.9337
0
LINE
8
BLACK
6
CONTINUOUS
10
175.507
20
-89.4443
11
175.564
21
-89.7189
0
LINE
8
BLACK
6
CONTINUOUS
10
175.564
20
-89.7189
11
175.658
21
-89.9831
0
LINE
8
BLACK
6
CONTINUOUS
10
175.658
20
-89.9831
11
175.787
21
-90.2321
0
LINE
8
BLACK
6
CONTINUOUS
10
175.787
20
-90.2321
11
175.949
21
-90.4613
0
LINE
8
BLACK
6
CONTINUOUS
10
175.949
20
-90.4613
11
176.14
21
-90.6662
0
LINE
8
BLACK
6
CONTINUOUS
10
176.14
20
-90.6662
11
176.358
21
-90.8432
0
LINE
8
BLACK
6
CONTINUOUS
10
176.358
20
-90.8432
11
176.597
21
-90.9889
0
LINE
8
BLACK
6
CONTINUOUS
10
176.597
20
-90.9889
11
176.854
21
-91.1006
0
LINE
8
BLACK
6
CONTINUOUS
10
176.854
20
-91.1006
11
177.124
21
-91.1763
0
LINE
8
BLACK
6
CONTINUOUS
10
177.124
20
-91.1763
11
177.402
21
-91.2145
0
LINE
8
BLACK
6
CONTINUOUS
10
177.402
20
-91.2145
11
177.683
21
-91.2145
0
LINE
8
BLACK
6
CONTINUOUS
10
177.683
20
-91.2145
11
177.961
21
-91.1763
0
LINE
8
BLACK
6
CONTINUOUS
10
177.961
20
-91.1763
11
178.231
21
-91.1006
0
LINE
8
BLACK
6
CONTINUOUS
10
178.231
20
-91.1006
11
178.488
21
-90.9889
0
LINE
8
BLACK
6
CONTINUOUS
10
178.488
20
-90.9889
11
178.727
21
-90.8432
0
LINE
8
BLACK
6
CONTINUOUS
10
178.727
20
-90.8432
11
178.945
21
-90.6662
0
LINE
8
BLACK
6
CONTINUOUS
10
178.945
20
-90.6662
11
179.136
21
-90.4613
0
LINE
8
BLACK
6
CONTINUOUS
10
179.136
20
-90.4613
11
179.298
21
-90.2321
0
LINE
8
BLACK
6
CONTINUOUS
10
179.298
20
-90.2321
11
179.427
21
-89.9831
0
LINE
8
BLACK
6
CONTINUOUS
10
179.427
20
-89.9831
11
179.521
21
-89.7189
0
LINE
8
BLACK
6
CONTINUOUS
10
179.521
20
-89.7189
11
179.578
21
-89.4443
0
LINE
8
BLACK
6
CONTINUOUS
10
179.578
20
-89.4443
11
179.597
21
-89.1645
0
LINE
8
BLACK
6
CONTINUOUS
10
179.597
20
-89.1645
11
179.578
21
-88.8847
0
LINE
8
BLACK
6
CONTINUOUS
10
179.578
20
-88.8847
11
179.521
21
-88.6101
0
LINE
8
BLACK
6
CONTINUOUS
10
179.521
20
-88.6101
11
179.427
21
-88.3459
0
LINE
8
BLACK
6
CONTINUOUS
10
179.427
20
-88.3459
11
179.298
21
-88.0969
0
LINE
8
BLACK
6
CONTINUOUS
10
179.298
20
-88.0969
11
179.136
21
-87.8677
0
LINE
8
BLACK
6
CONTINUOUS
10
179.136
20
-87.8677
11
178.945
21
-87.6628
0
LINE
8
BLACK
6
CONTINUOUS
10
178.945
20
-87.6628
11
178.727
21
-87.4858
0
LINE
8
BLACK
6
CONTINUOUS
10
178.727
20
-87.4858
11
178.488
21
-87.3401
0
LINE
8
BLACK
6
CONTINUOUS
10
178.488
20
-87.3401
11
178.231
21
-87.2284
0
LINE
8
BLACK
6
CONTINUOUS
10
178.231
20
-87.2284
11
177.961
21
-87.1527
0
LINE
8
BLACK
6
CONTINUOUS
10
177.961
20
-87.1527
11
177.683
21
-87.1145
0
LINE
8
BLACK
6
CONTINUOUS
10
177.683
20
-87.1145
11
177.402
21
-87.1145
0
LINE
8
BLACK
6
CONTINUOUS
10
177.402
20
-87.1145
11
177.124
21
-87.1527
0
LINE
8
BLACK
6
CONTINUOUS
10
177.124
20
-87.1527
11
176.854
21
-87.2284
0
LINE
8
BLACK
6
CONTINUOUS
10
176.854
20
-87.2284
11
176.597
21
-87.3401
0
LINE
8
BLACK
6
CONTINUOUS
10
176.597
20
-87.3401
11
176.358
21
-87.4858
0
LINE
8
BLACK
6
CONTINUOUS
10
176.358
20
-87.4858
11
176.14
21
-87.6628
0
LINE
8
BLACK
6
CONTINUOUS
10
176.14
20
-87.6628
11
175.949
21
-87.8677
0
LINE
8
BLACK
6
CONTINUOUS
10
175.949
20
-87.8677
11
175.787
21
-88.0969
0
LINE
8
BLACK
6
CONTINUOUS
10
175.787
20
-88.0969
11
175.658
21
-88.3459
0
LINE
8
BLACK
6
CONTINUOUS
10
175.658
20
-88.3459
11
175.564
21
-88.6101
0
LINE
8
BLACK
6
CONTINUOUS
10
175.564
20
-88.6101
11
175.507
21
-88.8847
0
LINE
8
BLACK
6
CONTINUOUS
10
175.507
20
-88.8847
11
175.488
21
-89.1645
0
LINE
8
BLACK
6
CONTINUOUS
10
175.488
20
-89.1645
11
175.507
21
-89.4443
0
LINE
8
BLACK
6
CONTINUOUS
10
154.874
20
-81.7465
11
155.063
21
-81.8198
0
LINE
8
BLACK
6
CONTINUOUS
10
155.063
20
-81.8198
11
155.235
21
-81.9267
0
LINE
8
BLACK
6
CONTINUOUS
10
155.235
20
-81.9267
11
155.385
21
-82.0634
0
LINE
8
BLACK
6
CONTINUOUS
10
155.385
20
-82.0634
11
155.508
21
-82.2254
0
LINE
8
BLACK
6
CONTINUOUS
10
155.508
20
-82.2254
11
155.598
21
-82.4071
0
LINE
8
BLACK
6
CONTINUOUS
10
155.598
20
-82.4071
11
155.654
21
-82.6024
0
LINE
8
BLACK
6
CONTINUOUS
10
155.654
20
-82.6024
11
155.672
21
-82.8045
0
LINE
8
BLACK
6
CONTINUOUS
10
155.672
20
-82.8045
11
155.654
21
-83.0066
0
LINE
8
BLACK
6
CONTINUOUS
10
155.654
20
-83.0066
11
155.598
21
-83.2019
0
LINE
8
BLACK
6
CONTINUOUS
10
155.598
20
-83.2019
11
155.508
21
-83.3836
0
LINE
8
BLACK
6
CONTINUOUS
10
155.508
20
-83.3836
11
155.385
21
-83.5456
0
LINE
8
BLACK
6
CONTINUOUS
10
155.385
20
-83.5456
11
155.235
21
-83.6823
0
LINE
8
BLACK
6
CONTINUOUS
10
155.235
20
-83.6823
11
155.063
21
-83.7892
0
LINE
8
BLACK
6
CONTINUOUS
10
155.063
20
-83.7892
11
154.874
21
-83.8625
0
LINE
8
BLACK
6
CONTINUOUS
10
154.874
20
-83.8625
11
154.674
21
-83.8998
0
LINE
8
BLACK
6
CONTINUOUS
10
154.674
20
-83.8998
11
154.471
21
-83.8998
0
LINE
8
BLACK
6
CONTINUOUS
10
154.471
20
-83.8998
11
154.271
21
-83.8625
0
LINE
8
BLACK
6
CONTINUOUS
10
154.271
20
-83.8625
11
154.082
21
-83.7892
0
LINE
8
BLACK
6
CONTINUOUS
10
154.082
20
-83.7892
11
153.91
21
-83.6823
0
LINE
8
BLACK
6
CONTINUOUS
10
153.91
20
-83.6823
11
153.76
21
-83.5456
0
LINE
8
BLACK
6
CONTINUOUS
10
153.76
20
-83.5456
11
153.637
21
-83.3836
0
LINE
8
BLACK
6
CONTINUOUS
10
153.637
20
-83.3836
11
153.547
21
-83.2019
0
LINE
8
BLACK
6
CONTINUOUS
10
153.547
20
-83.2019
11
153.491
21
-83.0066
0
LINE
8
BLACK
6
CONTINUOUS
10
153.491
20
-83.0066
11
153.472
21
-82.8045
0
LINE
8
BLACK
6
CONTINUOUS
10
153.472
20
-82.8045
11
153.491
21
-82.6024
0
LINE
8
BLACK
6
CONTINUOUS
10
153.491
20
-82.6024
11
153.547
21
-82.4071
0
LINE
8
BLACK
6
CONTINUOUS
10
153.547
20
-82.4071
11
153.637
21
-82.2254
0
LINE
8
BLACK
6
CONTINUOUS
10
153.637
20
-82.2254
11
153.76
21
-82.0634
0
LINE
8
BLACK
6
CONTINUOUS
10
153.76
20
-82.0634
11
153.91
21
-81.9267
0
LINE
8
BLACK
6
CONTINUOUS
10
153.91
20
-81.9267
11
154.082
21
-81.8198
0
LINE
8
BLACK
6
CONTINUOUS
10
154.082
20
-81.8198
11
154.271
21
-81.7465
0
LINE
8
BLACK
6
CONTINUOUS
10
154.271
20
-81.7465
11
154.471
21
-81.7092
0
LINE
8
BLACK
6
CONTINUOUS
10
154.471
20
-81.7092
11
154.674
21
-81.7092
0
LINE
8
BLACK
6
CONTINUOUS
10
154.674
20
-81.7092
11
154.874
21
-81.7465
0
LINE
8
BLACK
6
CONTINUOUS
10
153.687
20
-82.9927
11
153.746
21
-83.1726
0
LINE
8
BLACK
6
CONTINUOUS
10
153.746
20
-83.1726
11
153.84
21
-83.3364
0
LINE
8
BLACK
6
CONTINUOUS
10
153.84
20
-83.3364
11
153.967
21
-83.477
0
LINE
8
BLACK
6
CONTINUOUS
10
153.967
20
-83.477
11
154.12
21
-83.5882
0
LINE
8
BLACK
6
CONTINUOUS
10
154.12
20
-83.5882
11
154.293
21
-83.6652
0
LINE
8
BLACK
6
CONTINUOUS
10
154.293
20
-83.6652
11
154.478
21
-83.7045
0
LINE
8
BLACK
6
CONTINUOUS
10
154.478
20
-83.7045
11
154.667
21
-83.7045
0
LINE
8
BLACK
6
CONTINUOUS
10
154.667
20
-83.7045
11
154.852
21
-83.6652
0
LINE
8
BLACK
6
CONTINUOUS
10
154.852
20
-83.6652
11
155.025
21
-83.5882
0
LINE
8
BLACK
6
CONTINUOUS
10
155.025
20
-83.5882
11
155.178
21
-83.477
0
LINE
8
BLACK
6
CONTINUOUS
10
155.178
20
-83.477
11
155.305
21
-83.3364
0
LINE
8
BLACK
6
CONTINUOUS
10
155.305
20
-83.3364
11
155.399
21
-83.1726
0
LINE
8
BLACK
6
CONTINUOUS
10
155.399
20
-83.1726
11
155.458
21
-82.9927
0
LINE
8
BLACK
6
CONTINUOUS
10
155.458
20
-82.9927
11
155.477
21
-82.8045
0
LINE
8
BLACK
6
CONTINUOUS
10
155.477
20
-82.8045
11
155.458
21
-82.6163
0
LINE
8
BLACK
6
CONTINUOUS
10
155.458
20
-82.6163
11
155.399
21
-82.4364
0
LINE
8
BLACK
6
CONTINUOUS
10
155.399
20
-82.4364
11
155.305
21
-82.2726
0
LINE
8
BLACK
6
CONTINUOUS
10
155.305
20
-82.2726
11
155.178
21
-82.132
0
LINE
8
BLACK
6
CONTINUOUS
10
155.178
20
-82.132
11
155.025
21
-82.0208
0
LINE
8
BLACK
6
CONTINUOUS
10
155.025
20
-82.0208
11
154.852
21
-81.9438
0
LINE
8
BLACK
6
CONTINUOUS
10
154.852
20
-81.9438
11
154.667
21
-81.9045
0
LINE
8
BLACK
6
CONTINUOUS
10
154.667
20
-81.9045
11
154.478
21
-81.9045
0
LINE
8
BLACK
6
CONTINUOUS
10
154.478
20
-81.9045
11
154.293
21
-81.9438
0
LINE
8
BLACK
6
CONTINUOUS
10
154.293
20
-81.9438
11
154.12
21
-82.0208
0
LINE
8
BLACK
6
CONTINUOUS
10
154.12
20
-82.0208
11
153.967
21
-82.132
0
LINE
8
BLACK
6
CONTINUOUS
10
153.967
20
-82.132
11
153.84
21
-82.2726
0
LINE
8
BLACK
6
CONTINUOUS
10
153.84
20
-82.2726
11
153.746
21
-82.4364
0
LINE
8
BLACK
6
CONTINUOUS
10
153.746
20
-82.4364
11
153.687
21
-82.6163
0
LINE
8
BLACK
6
CONTINUOUS
10
153.687
20
-82.6163
11
153.668
21
-82.8045
0
LINE
8
BLACK
6
CONTINUOUS
10
153.668
20
-82.8045
11
153.687
21
-82.9927
0
LINE
8
BLACK
6
CONTINUOUS
10
224.403
20
-79.3192
11
224.691
21
-79.3767
0
LINE
8
BLACK
6
CONTINUOUS
10
224.691
20
-79.3767
11
224.97
21
-79.4713
0
LINE
8
BLACK
6
CONTINUOUS
10
224.97
20
-79.4713
11
225.234
21
-79.6014
0
LINE
8
BLACK
6
CONTINUOUS
10
225.234
20
-79.6014
11
225.479
21
-79.765
0
LINE
8
BLACK
6
CONTINUOUS
10
225.479
20
-79.765
11
225.7
21
-79.959
0
LINE
8
BLACK
6
CONTINUOUS
10
225.7
20
-79.959
11
225.894
21
-80.1803
0
LINE
8
BLACK
6
CONTINUOUS
10
225.894
20
-80.1803
11
226.058
21
-80.425
0
LINE
8
BLACK
6
CONTINUOUS
10
226.058
20
-80.425
11
226.188
21
-80.689
0
LINE
8
BLACK
6
CONTINUOUS
10
226.188
20
-80.689
11
226.282
21
-80.9677
0
LINE
8
BLACK
6
CONTINUOUS
10
226.282
20
-80.9677
11
226.34
21
-81.2563
0
LINE
8
BLACK
6
CONTINUOUS
10
226.34
20
-81.2563
11
226.359
21
-81.55
0
LINE
8
BLACK
6
CONTINUOUS
10
226.359
20
-81.55
11
226.34
21
-81.8437
0
LINE
8
BLACK
6
CONTINUOUS
10
226.34
20
-81.8437
11
226.282
21
-82.1323
0
LINE
8
BLACK
6
CONTINUOUS
10
226.282
20
-82.1323
11
226.188
21
-82.411
0
LINE
8
BLACK
6
CONTINUOUS
10
226.188
20
-82.411
11
226.058
21
-82.675
0
LINE
8
BLACK
6
CONTINUOUS
10
226.058
20
-82.675
11
225.894
21
-82.9197
0
LINE
8
BLACK
6
CONTINUOUS
10
225.894
20
-82.9197
11
225.7
21
-83.141
0
LINE
8
BLACK
6
CONTINUOUS
10
225.7
20
-83.141
11
225.479
21
-83.335
0
LINE
8
BLACK
6
CONTINUOUS
10
225.479
20
-83.335
11
225.234
21
-83.4986
0
LINE
8
BLACK
6
CONTINUOUS
10
225.234
20
-83.4986
11
224.97
21
-83.6287
0
LINE
8
BLACK
6
CONTINUOUS
10
224.97
20
-83.6287
11
224.691
21
-83.7233
0
LINE
8
BLACK
6
CONTINUOUS
10
224.691
20
-83.7233
11
224.403
21
-83.7808
0
LINE
8
BLACK
6
CONTINUOUS
10
224.403
20
-83.7808
11
224.109
21
-83.8
0
LINE
8
BLACK
6
CONTINUOUS
10
224.109
20
-83.8
11
223.815
21
-83.7808
0
LINE
8
BLACK
6
CONTINUOUS
10
223.815
20
-83.7808
11
223.527
21
-83.7233
0
LINE
8
BLACK
6
CONTINUOUS
10
223.527
20
-83.7233
11
223.248
21
-83.6287
0
LINE
8
BLACK
6
CONTINUOUS
10
223.248
20
-83.6287
11
222.984
21
-83.4986
0
LINE
8
BLACK
6
CONTINUOUS
10
222.984
20
-83.4986
11
222.739
21
-83.335
0
LINE
8
BLACK
6
CONTINUOUS
10
222.739
20
-83.335
11
222.518
21
-83.141
0
LINE
8
BLACK
6
CONTINUOUS
10
222.518
20
-83.141
11
222.324
21
-82.9197
0
LINE
8
BLACK
6
CONTINUOUS
10
222.324
20
-82.9197
11
222.16
21
-82.675
0
LINE
8
BLACK
6
CONTINUOUS
10
222.16
20
-82.675
11
222.03
21
-82.411
0
LINE
8
BLACK
6
CONTINUOUS
10
222.03
20
-82.411
11
221.936
21
-82.1323
0
LINE
8
BLACK
6
CONTINUOUS
10
221.936
20
-82.1323
11
221.878
21
-81.8437
0
LINE
8
BLACK
6
CONTINUOUS
10
221.878
20
-81.8437
11
221.859
21
-81.55
0
LINE
8
BLACK
6
CONTINUOUS
10
221.859
20
-81.55
11
221.878
21
-81.2563
0
LINE
8
BLACK
6
CONTINUOUS
10
221.878
20
-81.2563
11
221.936
21
-80.9677
0
LINE
8
BLACK
6
CONTINUOUS
10
221.936
20
-80.9677
11
222.03
21
-80.689
0
LINE
8
BLACK
6
CONTINUOUS
10
222.03
20
-80.689
11
222.16
21
-80.425
0
LINE
8
BLACK
6
CONTINUOUS
10
222.16
20
-80.425
11
222.324
21
-80.1803
0
LINE
8
BLACK
6
CONTINUOUS
10
222.324
20
-80.1803
11
222.518
21
-79.959
0
LINE
8
BLACK
6
CONTINUOUS
10
222.518
20
-79.959
11
222.739
21
-79.765
0
LINE
8
BLACK
6
CONTINUOUS
10
222.739
20
-79.765
11
222.984
21
-79.6014
0
LINE
8
BLACK
6
CONTINUOUS
10
222.984
20
-79.6014
11
223.248
21
-79.4713
0
LINE
8
BLACK
6
CONTINUOUS
10
223.248
20
-79.4713
11
223.527
21
-79.3767
0
LINE
8
BLACK
6
CONTINUOUS
10
223.527
20
-79.3767
11
223.815
21
-79.3192
0
LINE
8
BLACK
6
CONTINUOUS
10
223.815
20
-79.3192
11
224.109
21
-79.3
0
LINE
8
BLACK
6
CONTINUOUS
10
224.109
20
-79.3
11
224.403
21
-79.3192
0
LINE
8
BLACK
6
CONTINUOUS
10
222.073
20
-81.8298
11
222.13
21
-82.1044
0
LINE
8
BLACK
6
CONTINUOUS
10
222.13
20
-82.1044
11
222.224
21
-82.3686
0
LINE
8
BLACK
6
CONTINUOUS
10
222.224
20
-82.3686
11
222.353
21
-82.6176
0
LINE
8
BLACK
6
CONTINUOUS
10
222.353
20
-82.6176
11
222.515
21
-82.8468
0
LINE
8
BLACK
6
CONTINUOUS
10
222.515
20
-82.8468
11
222.706
21
-83.0517
0
LINE
8
BLACK
6
CONTINUOUS
10
222.706
20
-83.0517
11
222.924
21
-83.2287
0
LINE
8
BLACK
6
CONTINUOUS
10
222.924
20
-83.2287
11
223.164
21
-83.3744
0
LINE
8
BLACK
6
CONTINUOUS
10
223.164
20
-83.3744
11
223.421
21
-83.4861
0
LINE
8
BLACK
6
CONTINUOUS
10
223.421
20
-83.4861
11
223.691
21
-83.5618
0
LINE
8
BLACK
6
CONTINUOUS
10
223.691
20
-83.5618
11
223.969
21
-83.6
0
LINE
8
BLACK
6
CONTINUOUS
10
223.969
20
-83.6
11
224.249
21
-83.6
0
LINE
8
BLACK
6
CONTINUOUS
10
224.249
20
-83.6
11
224.527
21
-83.5618
0
LINE
8
BLACK
6
CONTINUOUS
10
224.527
20
-83.5618
11
224.797
21
-83.4861
0
LINE
8
BLACK
6
CONTINUOUS
10
224.797
20
-83.4861
11
225.054
21
-83.3744
0
LINE
8
BLACK
6
CONTINUOUS
10
225.054
20
-83.3744
11
225.294
21
-83.2287
0
LINE
8
BLACK
6
CONTINUOUS
10
225.294
20
-83.2287
11
225.512
21
-83.0517
0
LINE
8
BLACK
6
CONTINUOUS
10
225.512
20
-83.0517
11
225.703
21
-82.8468
0
LINE
8
BLACK
6
CONTINUOUS
10
225.703
20
-82.8468
11
225.865
21
-82.6176
0
LINE
8
BLACK
6
CONTINUOUS
10
225.865
20
-82.6176
11
225.994
21
-82.3686
0
LINE
8
BLACK
6
CONTINUOUS
10
225.994
20
-82.3686
11
226.088
21
-82.1044
0
LINE
8
BLACK
6
CONTINUOUS
10
226.088
20
-82.1044
11
226.145
21
-81.8298
0
LINE
8
BLACK
6
CONTINUOUS
10
226.145
20
-81.8298
11
226.164
21
-81.55
0
LINE
8
BLACK
6
CONTINUOUS
10
226.164
20
-81.55
11
226.145
21
-81.2702
0
LINE
8
BLACK
6
CONTINUOUS
10
226.145
20
-81.2702
11
226.088
21
-80.9956
0
LINE
8
BLACK
6
CONTINUOUS
10
226.088
20
-80.9956
11
225.994
21
-80.7314
0
LINE
8
BLACK
6
CONTINUOUS
10
225.994
20
-80.7314
11
225.865
21
-80.4824
0
LINE
8
BLACK
6
CONTINUOUS
10
225.865
20
-80.4824
11
225.703
21
-80.2532
0
LINE
8
BLACK
6
CONTINUOUS
10
225.703
20
-80.2532
11
225.512
21
-80.0483
0
LINE
8
BLACK
6
CONTINUOUS
10
225.512
20
-80.0483
11
225.294
21
-79.8713
0
LINE
8
BLACK
6
CONTINUOUS
10
225.294
20
-79.8713
11
225.054
21
-79.7256
0
LINE
8
BLACK
6
CONTINUOUS
10
225.054
20
-79.7256
11
224.797
21
-79.6139
0
LINE
8
BLACK
6
CONTINUOUS
10
224.797
20
-79.6139
11
224.527
21
-79.5382
0
LINE
8
BLACK
6
CONTINUOUS
10
224.527
20
-79.5382
11
224.249
21
-79.5
0
LINE
8
BLACK
6
CONTINUOUS
10
224.249
20
-79.5
11
223.969
21
-79.5
0
LINE
8
BLACK
6
CONTINUOUS
10
223.969
20
-79.5
11
223.691
21
-79.5382
0
LINE
8
BLACK
6
CONTINUOUS
10
223.691
20
-79.5382
11
223.421
21
-79.6139
0
LINE
8
BLACK
6
CONTINUOUS
10
223.421
20
-79.6139
11
223.164
21
-79.7256
0
LINE
8
BLACK
6
CONTINUOUS
10
223.164
20
-79.7256
11
222.924
21
-79.8713
0
LINE
8
BLACK
6
CONTINUOUS
10
222.924
20
-79.8713
11
222.706
21
-80.0483
0
LINE
8
BLACK
6
CONTINUOUS
10
222.706
20
-80.0483
11
222.515
21
-80.2532
0
LINE
8
BLACK
6
CONTINUOUS
10
222.515
20
-80.2532
11
222.353
21
-80.4824
0
LINE
8
BLACK
6
CONTINUOUS
10
222.353
20
-80.4824
11
222.224
21
-80.7314
0
LINE
8
BLACK
6
CONTINUOUS
10
222.224
20
-80.7314
11
222.13
21
-80.9956
0
LINE
8
BLACK
6
CONTINUOUS
10
222.13
20
-80.9956
11
222.073
21
-81.2702
0
LINE
8
BLACK
6
CONTINUOUS
10
222.073
20
-81.2702
11
222.054
21
-81.55
0
LINE
8
BLACK
6
CONTINUOUS
10
222.054
20
-81.55
11
222.073
21
-81.8298
0
LINE
8
BLACK
6
CONTINUOUS
10
259.407
20
-76.92
11
259.45
21
-76.9376
0
LINE
8
BLACK
6
CONTINUOUS
10
259.45
20
-76.9376
11
259.467
21
-76.98
0
LINE
8
BLACK
6
CONTINUOUS
10
259.467
20
-76.98
11
259.467
21
-80.08
0
LINE
8
BLACK
6
CONTINUOUS
10
259.467
20
-80.08
11
259.45
21
-80.1224
0
LINE
8
BLACK
6
CONTINUOUS
10
259.45
20
-80.1224
11
259.407
21
-80.14
0
LINE
8
BLACK
6
CONTINUOUS
10
259.407
20
-80.14
11
255.807
21
-80.14
0
LINE
8
BLACK
6
CONTINUOUS
10
255.807
20
-80.14
11
255.765
21
-80.1224
0
LINE
8
BLACK
6
CONTINUOUS
10
255.765
20
-80.1224
11
255.748
21
-80.08
0
LINE
8
BLACK
6
CONTINUOUS
10
255.748
20
-80.08
11
255.748
21
-76.98
0
LINE
8
BLACK
6
CONTINUOUS
10
255.748
20
-76.98
11
255.765
21
-76.9376
0
LINE
8
BLACK
6
CONTINUOUS
10
255.765
20
-76.9376
11
255.807
21
-76.92
0
LINE
8
BLACK
6
CONTINUOUS
10
255.807
20
-76.92
11
259.407
21
-76.92
0
LINE
8
BLACK
6
CONTINUOUS
10
255.867
20
-77.04
11
255.867
21
-80.02
0
LINE
8
BLACK
6
CONTINUOUS
10
255.867
20
-80.02
11
259.347
21
-80.02
0
LINE
8
BLACK
6
CONTINUOUS
10
259.347
20
-80.02
11
259.347
21
-77.04
0
LINE
8
BLACK
6
CONTINUOUS
10
259.347
20
-77.04
11
255.867
21
-77.04
0
LINE
8
BLACK
6
CONTINUOUS
10
278.407
20
-76.92
11
278.45
21
-76.9376
0
LINE
8
BLACK
6
CONTINUOUS
10
278.45
20
-76.9376
11
278.467
21
-76.98
0
LINE
8
BLACK
6
CONTINUOUS
10
278.467
20
-76.98
11
278.467
21
-80.08
0
LINE
8
BLACK
6
CONTINUOUS
10
278.467
20
-80.08
11
278.45
21
-80.1224
0
LINE
8
BLACK
6
CONTINUOUS
10
278.45
20
-80.1224
11
278.407
21
-80.14
0
LINE
8
BLACK
6
CONTINUOUS
10
278.407
20
-80.14
11
274.808
21
-80.14
0
LINE
8
BLACK
6
CONTINUOUS
10
274.808
20
-80.14
11
274.765
21
-80.1224
0
LINE
8
BLACK
6
CONTINUOUS
10
274.765
20
-80.1224
11
274.748
21
-80.08
0
LINE
8
BLACK
6
CONTINUOUS
10
274.748
20
-80.08
11
274.748
21
-76.98
0
LINE
8
BLACK
6
CONTINUOUS
10
274.748
20
-76.98
11
274.765
21
-76.9376
0
LINE
8
BLACK
6
CONTINUOUS
10
274.765
20
-76.9376
11
274.808
21
-76.92
0
LINE
8
BLACK
6
CONTINUOUS
10
274.808
20
-76.92
11
278.407
21
-76.92
0
LINE
8
BLACK
6
CONTINUOUS
10
274.868
20
-77.04
11
274.868
21
-80.02
0
LINE
8
BLACK
6
CONTINUOUS
10
274.868
20
-80.02
11
278.347
21
-80.02
0
LINE
8
BLACK
6
CONTINUOUS
10
278.347
20
-80.02
11
278.347
21
-77.04
0
LINE
8
BLACK
6
CONTINUOUS
10
278.347
20
-77.04
11
274.868
21
-77.04
0
LINE
8
BLACK
6
CONTINUOUS
10
183.407
20
-74.545
11
183.45
21
-74.5626
0
LINE
8
BLACK
6
CONTINUOUS
10
183.45
20
-74.5626
11
183.468
21
-74.605
0
LINE
8
BLACK
6
CONTINUOUS
10
183.468
20
-74.605
11
183.468
21
-77.705
0
LINE
8
BLACK
6
CONTINUOUS
10
183.468
20
-77.705
11
183.45
21
-77.7474
0
LINE
8
BLACK
6
CONTINUOUS
10
183.45
20
-77.7474
11
183.407
21
-77.765
0
LINE
8
BLACK
6
CONTINUOUS
10
183.407
20
-77.765
11
179.808
21
-77.765
0
LINE
8
BLACK
6
CONTINUOUS
10
179.808
20
-77.765
11
179.765
21
-77.7474
0
LINE
8
BLACK
6
CONTINUOUS
10
179.765
20
-77.7474
11
179.748
21
-77.705
0
LINE
8
BLACK
6
CONTINUOUS
10
179.748
20
-77.705
11
179.748
21
-74.605
0
LINE
8
BLACK
6
CONTINUOUS
10
179.748
20
-74.605
11
179.765
21
-74.5626
0
LINE
8
BLACK
6
CONTINUOUS
10
179.765
20
-74.5626
11
179.808
21
-74.545
0
LINE
8
BLACK
6
CONTINUOUS
10
179.808
20
-74.545
11
183.407
21
-74.545
0
LINE
8
BLACK
6
CONTINUOUS
10
179.867
20
-74.665
11
179.867
21
-77.645
0
LINE
8
BLACK
6
CONTINUOUS
10
179.867
20
-77.645
11
183.347
21
-77.645
0
LINE
8
BLACK
6
CONTINUOUS
10
183.347
20
-77.645
11
183.347
21
-74.665
0
LINE
8
BLACK
6
CONTINUOUS
10
183.347
20
-74.665
11
179.867
21
-74.665
0
LINE
8
BLACK
6
CONTINUOUS
10
202.407
20
-72.17
11
202.45
21
-72.1876
0
LINE
8
BLACK
6
CONTINUOUS
10
202.45
20
-72.1876
11
202.468
21
-72.23
0
LINE
8
BLACK
6
CONTINUOUS
10
202.468
20
-72.23
11
202.468
21
-75.33
0
LINE
8
BLACK
6
CONTINUOUS
10
202.468
20
-75.33
11
202.45
21
-75.3724
0
LINE
8
BLACK
6
CONTINUOUS
10
202.45
20
-75.3724
11
202.407
21
-75.39
0
LINE
8
BLACK
6
CONTINUOUS
10
202.407
20
-75.39
11
198.808
21
-75.39
0
LINE
8
BLACK
6
CONTINUOUS
10
198.808
20
-75.39
11
198.765
21
-75.3724
0
LINE
8
BLACK
6
CONTINUOUS
10
198.765
20
-75.3724
11
198.748
21
-75.33
0
LINE
8
BLACK
6
CONTINUOUS
10
198.748
20
-75.33
11
198.748
21
-72.23
0
LINE
8
BLACK
6
CONTINUOUS
10
198.748
20
-72.23
11
198.765
21
-72.1876
0
LINE
8
BLACK
6
CONTINUOUS
10
198.765
20
-72.1876
11
198.808
21
-72.17
0
LINE
8
BLACK
6
CONTINUOUS
10
198.808
20
-72.17
11
202.407
21
-72.17
0
LINE
8
BLACK
6
CONTINUOUS
10
198.867
20
-72.29
11
198.867
21
-75.27
0
LINE
8
BLACK
6
CONTINUOUS
10
198.867
20
-75.27
11
202.347
21
-75.27
0
LINE
8
BLACK
6
CONTINUOUS
10
202.347
20
-75.27
11
202.347
21
-72.29
0
LINE
8
BLACK
6
CONTINUOUS
10
202.347
20
-72.29
11
198.867
21
-72.29
0
LINE
8
BLACK
6
CONTINUOUS
10
240.407
20
-72.17
11
240.45
21
-72.1876
0
LINE
8
BLACK
6
CONTINUOUS
10
240.45
20
-72.1876
11
240.468
21
-72.23
0
LINE
8
BLACK
6
CONTINUOUS
10
240.468
20
-72.23
11
240.468
21
-75.33
0
LINE
8
BLACK
6
CONTINUOUS
10
240.468
20
-75.33
11
240.45
21
-75.3724
0
LINE
8
BLACK
6
CONTINUOUS
10
240.45
20
-75.3724
11
240.407
21
-75.39
0
LINE
8
BLACK
6
CONTINUOUS
10
240.407
20
-75.39
11
236.807
21
-75.39
0
LINE
8
BLACK
6
CONTINUOUS
10
236.807
20
-75.39
11
236.765
21
-75.3724
0
LINE
8
BLACK
6
CONTINUOUS
10
236.765
20
-75.3724
11
236.748
21
-75.33
0
LINE
8
BLACK
6
CONTINUOUS
10
236.748
20
-75.33
11
236.748
21
-72.23
0
LINE
8
BLACK
6
CONTINUOUS
10
236.748
20
-72.23
11
236.765
21
-72.1876
0
LINE
8
BLACK
6
CONTINUOUS
10
236.765
20
-72.1876
11
236.807
21
-72.17
0
LINE
8
BLACK
6
CONTINUOUS
10
236.807
20
-72.17
11
240.407
21
-72.17
0
LINE
8
BLACK
6
CONTINUOUS
10
236.867
20
-72.29
11
236.867
21
-75.27
0
LINE
8
BLACK
6
CONTINUOUS
10
236.867
20
-75.27
11
240.347
21
-75.27
0
LINE
8
BLACK
6
CONTINUOUS
10
240.347
20
-75.27
11
240.347
21
-72.29
0
LINE
8
BLACK
6
CONTINUOUS
10
240.347
20
-72.29
11
236.867
21
-72.29
0
LINE
8
BLACK
6
CONTINUOUS
10
169.306
20
-73.2255
11
169.495
21
-73.2988
0
LINE
8
BLACK
6
CONTINUOUS
10
169.495
20
-73.2988
11
169.667
21
-73.4057
0
LINE
8
BLACK
6
CONTINUOUS
10
169.667
20
-73.4057
11
169.817
21
-73.5424
0
LINE
8
BLACK
6
CONTINUOUS
10
169.817
20
-73.5424
11
169.94
21
-73.7044
0
LINE
8
BLACK
6
CONTINUOUS
10
169.94
20
-73.7044
11
170.03
21
-73.8861
0
LINE
8
BLACK
6
CONTINUOUS
10
170.03
20
-73.8861
11
170.086
21
-74.0814
0
LINE
8
BLACK
6
CONTINUOUS
10
170.086
20
-74.0814
11
170.105
21
-74.2835
0
LINE
8
BLACK
6
CONTINUOUS
10
170.105
20
-74.2835
11
170.086
21
-74.4856
0
LINE
8
BLACK
6
CONTINUOUS
10
170.086
20
-74.4856
11
170.03
21
-74.6809
0
LINE
8
BLACK
6
CONTINUOUS
10
170.03
20
-74.6809
11
169.94
21
-74.8626
0
LINE
8
BLACK
6
CONTINUOUS
10
169.94
20
-74.8626
11
169.817
21
-75.0246
0
LINE
8
BLACK
6
CONTINUOUS
10
169.817
20
-75.0246
11
169.667
21
-75.1613
0
LINE
8
BLACK
6
CONTINUOUS
10
169.667
20
-75.1613
11
169.495
21
-75.2682
0
LINE
8
BLACK
6
CONTINUOUS
10
169.495
20
-75.2682
11
169.306
21
-75.3415
0
LINE
8
BLACK
6
CONTINUOUS
10
169.306
20
-75.3415
11
169.106
21
-75.3788
0
LINE
8
BLACK
6
CONTINUOUS
10
169.106
20
-75.3788
11
168.903
21
-75.3788
0
LINE
8
BLACK
6
CONTINUOUS
10
168.903
20
-75.3788
11
168.703
21
-75.3415
0
LINE
8
BLACK
6
CONTINUOUS
10
168.703
20
-75.3415
11
168.514
21
-75.2682
0
LINE
8
BLACK
6
CONTINUOUS
10
168.514
20
-75.2682
11
168.342
21
-75.1613
0
LINE
8
BLACK
6
CONTINUOUS
10
168.342
20
-75.1613
11
168.192
21
-75.0246
0
LINE
8
BLACK
6
CONTINUOUS
10
168.192
20
-75.0246
11
168.069
21
-74.8626
0
LINE
8
BLACK
6
CONTINUOUS
10
168.069
20
-74.8626
11
167.979
21
-74.6809
0
LINE
8
BLACK
6
CONTINUOUS
10
167.979
20
-74.6809
11
167.923
21
-74.4856
0
LINE
8
BLACK
6
CONTINUOUS
10
167.923
20
-74.4856
11
167.904
21
-74.2835
0
LINE
8
BLACK
6
CONTINUOUS
10
167.904
20
-74.2835
11
167.923
21
-74.0814
0
LINE
8
BLACK
6
CONTINUOUS
10
167.923
20
-74.0814
11
167.979
21
-73.8861
0
LINE
8
BLACK
6
CONTINUOUS
10
167.979
20
-73.8861
11
168.069
21
-73.7044
0
LINE
8
BLACK
6
CONTINUOUS
10
168.069
20
-73.7044
11
168.192
21
-73.5424
0
LINE
8
BLACK
6
CONTINUOUS
10
168.192
20
-73.5424
11
168.342
21
-73.4057
0
LINE
8
BLACK
6
CONTINUOUS
10
168.342
20
-73.4057
11
168.514
21
-73.2988
0
LINE
8
BLACK
6
CONTINUOUS
10
168.514
20
-73.2988
11
168.703
21
-73.2255
0
LINE
8
BLACK
6
CONTINUOUS
10
168.703
20
-73.2255
11
168.903
21
-73.1882
0
LINE
8
BLACK
6
CONTINUOUS
10
168.903
20
-73.1882
11
169.106
21
-73.1882
0
LINE
8
BLACK
6
CONTINUOUS
10
169.106
20
-73.1882
11
169.306
21
-73.2255
0
LINE
8
BLACK
6
CONTINUOUS
10
168.119
20
-74.4717
11
168.178
21
-74.6516
0
LINE
8
BLACK
6
CONTINUOUS
10
168.178
20
-74.6516
11
168.272
21
-74.8154
0
LINE
8
BLACK
6
CONTINUOUS
10
168.272
20
-74.8154
11
168.399
21
-74.956
0
LINE
8
BLACK
6
CONTINUOUS
10
168.399
20
-74.956
11
168.552
21
-75.0672
0
LINE
8
BLACK
6
CONTINUOUS
10
168.552
20
-75.0672
11
168.725
21
-75.1442
0
LINE
8
BLACK
6
CONTINUOUS
10
168.725
20
-75.1442
11
168.91
21
-75.1835
0
LINE
8
BLACK
6
CONTINUOUS
10
168.91
20
-75.1835
11
169.099
21
-75.1835
0
LINE
8
BLACK
6
CONTINUOUS
10
169.099
20
-75.1835
11
169.284
21
-75.1442
0
LINE
8
BLACK
6
CONTINUOUS
10
169.284
20
-75.1442
11
169.457
21
-75.0672
0
LINE
8
BLACK
6
CONTINUOUS
10
169.457
20
-75.0672
11
169.61
21
-74.956
0
LINE
8
BLACK
6
CONTINUOUS
10
169.61
20
-74.956
11
169.737
21
-74.8154
0
LINE
8
BLACK
6
CONTINUOUS
10
169.737
20
-74.8154
11
169.831
21
-74.6516
0
LINE
8
BLACK
6
CONTINUOUS
10
169.831
20
-74.6516
11
169.89
21
-74.4717
0
LINE
8
BLACK
6
CONTINUOUS
10
169.89
20
-74.4717
11
169.909
21
-74.2835
0
LINE
8
BLACK
6
CONTINUOUS
10
169.909
20
-74.2835
11
169.89
21
-74.0953
0
LINE
8
BLACK
6
CONTINUOUS
10
169.89
20
-74.0953
11
169.831
21
-73.9154
0
LINE
8
BLACK
6
CONTINUOUS
10
169.831
20
-73.9154
11
169.737
21
-73.7516
0
LINE
8
BLACK
6
CONTINUOUS
10
169.737
20
-73.7516
11
169.61
21
-73.611
0
LINE
8
BLACK
6
CONTINUOUS
10
169.61
20
-73.611
11
169.457
21
-73.4998
0
LINE
8
BLACK
6
CONTINUOUS
10
169.457
20
-73.4998
11
169.284
21
-73.4228
0
LINE
8
BLACK
6
CONTINUOUS
10
169.284
20
-73.4228
11
169.099
21
-73.3835
0
LINE
8
BLACK
6
CONTINUOUS
10
169.099
20
-73.3835
11
168.91
21
-73.3835
0
LINE
8
BLACK
6
CONTINUOUS
10
168.91
20
-73.3835
11
168.725
21
-73.4228
0
LINE
8
BLACK
6
CONTINUOUS
10
168.725
20
-73.4228
11
168.552
21
-73.4998
0
LINE
8
BLACK
6
CONTINUOUS
10
168.552
20
-73.4998
11
168.399
21
-73.611
0
LINE
8
BLACK
6
CONTINUOUS
10
168.399
20
-73.611
11
168.272
21
-73.7516
0
LINE
8
BLACK
6
CONTINUOUS
10
168.272
20
-73.7516
11
168.178
21
-73.9154
0
LINE
8
BLACK
6
CONTINUOUS
10
168.178
20
-73.9154
11
168.119
21
-74.0953
0
LINE
8
BLACK
6
CONTINUOUS
10
168.119
20
-74.0953
11
168.1
21
-74.2835
0
LINE
8
BLACK
6
CONTINUOUS
10
168.1
20
-74.2835
11
168.119
21
-74.4717
0
LINE
8
BLACK
6
CONTINUOUS
10
221.407
20
-69.795
11
221.45
21
-69.8126
0
LINE
8
BLACK
6
CONTINUOUS
10
221.45
20
-69.8126
11
221.468
21
-69.855
0
LINE
8
BLACK
6
CONTINUOUS
10
221.468
20
-69.855
11
221.468
21
-72.955
0
LINE
8
BLACK
6
CONTINUOUS
10
221.468
20
-72.955
11
221.45
21
-72.9974
0
LINE
8
BLACK
6
CONTINUOUS
10
221.45
20
-72.9974
11
221.407
21
-73.015
0
LINE
8
BLACK
6
CONTINUOUS
10
221.407
20
-73.015
11
217.807
21
-73.015
0
LINE
8
BLACK
6
CONTINUOUS
10
217.807
20
-73.015
11
217.765
21
-72.9974
0
LINE
8
BLACK
6
CONTINUOUS
10
217.765
20
-72.9974
11
217.748
21
-72.955
0
LINE
8
BLACK
6
CONTINUOUS
10
217.748
20
-72.955
11
217.748
21
-69.855
0
LINE
8
BLACK
6
CONTINUOUS
10
217.748
20
-69.855
11
217.765
21
-69.8126
0
LINE
8
BLACK
6
CONTINUOUS
10
217.765
20
-69.8126
11
217.807
21
-69.795
0
LINE
8
BLACK
6
CONTINUOUS
10
217.807
20
-69.795
11
221.407
21
-69.795
0
LINE
8
BLACK
6
CONTINUOUS
10
217.867
20
-69.915
11
217.867
21
-72.895
0
LINE
8
BLACK
6
CONTINUOUS
10
217.867
20
-72.895
11
221.347
21
-72.895
0
LINE
8
BLACK
6
CONTINUOUS
10
221.347
20
-72.895
11
221.347
21
-69.915
0
LINE
8
BLACK
6
CONTINUOUS
10
221.347
20
-69.915
11
217.867
21
-69.915
0
LINE
8
BLACK
6
CONTINUOUS
10
267.56
20
-62.0787
11
267.848
21
-62.1362
0
LINE
8
BLACK
6
CONTINUOUS
10
267.848
20
-62.1362
11
268.127
21
-62.2308
0
LINE
8
BLACK
6
CONTINUOUS
10
268.127
20
-62.2308
11
268.391
21
-62.3609
0
LINE
8
BLACK
6
CONTINUOUS
10
268.391
20
-62.3609
11
268.636
21
-62.5245
0
LINE
8
BLACK
6
CONTINUOUS
10
268.636
20
-62.5245
11
268.857
21
-62.7185
0
LINE
8
BLACK
6
CONTINUOUS
10
268.857
20
-62.7185
11
269.051
21
-62.9398
0
LINE
8
BLACK
6
CONTINUOUS
10
269.051
20
-62.9398
11
269.215
21
-63.1845
0
LINE
8
BLACK
6
CONTINUOUS
10
269.215
20
-63.1845
11
269.345
21
-63.4485
0
LINE
8
BLACK
6
CONTINUOUS
10
269.345
20
-63.4485
11
269.439
21
-63.7272
0
LINE
8
BLACK
6
CONTINUOUS
10
269.439
20
-63.7272
11
269.497
21
-64.0158
0
LINE
8
BLACK
6
CONTINUOUS
10
269.497
20
-64.0158
11
269.516
21
-64.3095
0
LINE
8
BLACK
6
CONTINUOUS
10
269.516
20
-64.3095
11
269.497
21
-64.6032
0
LINE
8
BLACK
6
CONTINUOUS
10
269.497
20
-64.6032
11
269.439
21
-64.8918
0
LINE
8
BLACK
6
CONTINUOUS
10
269.439
20
-64.8918
11
269.345
21
-65.1705
0
LINE
8
BLACK
6
CONTINUOUS
10
269.345
20
-65.1705
11
269.215
21
-65.4345
0
LINE
8
BLACK
6
CONTINUOUS
10
269.215
20
-65.4345
11
269.051
21
-65.6792
0
LINE
8
BLACK
6
CONTINUOUS
10
269.051
20
-65.6792
11
268.857
21
-65.9005
0
LINE
8
BLACK
6
CONTINUOUS
10
268.857
20
-65.9005
11
268.636
21
-66.0945
0
LINE
8
BLACK
6
CONTINUOUS
10
268.636
20
-66.0945
11
268.391
21
-66.2581
0
LINE
8
BLACK
6
CONTINUOUS
10
268.391
20
-66.2581
11
268.127
21
-66.3882
0
LINE
8
BLACK
6
CONTINUOUS
10
268.127
20
-66.3882
11
267.848
21
-66.4828
0
LINE
8
BLACK
6
CONTINUOUS
10
267.848
20
-66.4828
11
267.56
21
-66.5403
0
LINE
8
BLACK
6
CONTINUOUS
10
267.56
20
-66.5403
11
267.266
21
-66.5595
0
LINE
8
BLACK
6
CONTINUOUS
10
267.266
20
-66.5595
11
266.972
21
-66.5403
0
LINE
8
BLACK
6
CONTINUOUS
10
266.972
20
-66.5403
11
266.684
21
-66.4828
0
LINE
8
BLACK
6
CONTINUOUS
10
266.684
20
-66.4828
11
266.405
21
-66.3882
0
LINE
8
BLACK
6
CONTINUOUS
10
266.405
20
-66.3882
11
266.141
21
-66.2581
0
LINE
8
BLACK
6
CONTINUOUS
10
266.141
20
-66.2581
11
265.896
21
-66.0945
0
LINE
8
BLACK
6
CONTINUOUS
10
265.896
20
-66.0945
11
265.675
21
-65.9005
0
LINE
8
BLACK
6
CONTINUOUS
10
265.675
20
-65.9005
11
265.481
21
-65.6792
0
LINE
8
BLACK
6
CONTINUOUS
10
265.481
20
-65.6792
11
265.317
21
-65.4345
0
LINE
8
BLACK
6
CONTINUOUS
10
265.317
20
-65.4345
11
265.187
21
-65.1705
0
LINE
8
BLACK
6
CONTINUOUS
10
265.187
20
-65.1705
11
265.093
21
-64.8918
0
LINE
8
BLACK
6
CONTINUOUS
10
265.093
20
-64.8918
11
265.035
21
-64.6032
0
LINE
8
BLACK
6
CONTINUOUS
10
265.035
20
-64.6032
11
265.016
21
-64.3095
0
LINE
8
BLACK
6
CONTINUOUS
10
265.016
20
-64.3095
11
265.035
21
-64.0158
0
LINE
8
BLACK
6
CONTINUOUS
10
265.035
20
-64.0158
11
265.093
21
-63.7272
0
LINE
8
BLACK
6
CONTINUOUS
10
265.093
20
-63.7272
11
265.187
21
-63.4485
0
LINE
8
BLACK
6
CONTINUOUS
10
265.187
20
-63.4485
11
265.317
21
-63.1845
0
LINE
8
BLACK
6
CONTINUOUS
10
265.317
20
-63.1845
11
265.481
21
-62.9398
0
LINE
8
BLACK
6
CONTINUOUS
10
265.481
20
-62.9398
11
265.675
21
-62.7185
0
LINE
8
BLACK
6
CONTINUOUS
10
265.675
20
-62.7185
11
265.896
21
-62.5245
0
LINE
8
BLACK
6
CONTINUOUS
10
265.896
20
-62.5245
11
266.141
21
-62.3609
0
LINE
8
BLACK
6
CONTINUOUS
10
266.141
20
-62.3609
11
266.405
21
-62.2308
0
LINE
8
BLACK
6
CONTINUOUS
10
266.405
20
-62.2308
11
266.684
21
-62.1362
0
LINE
8
BLACK
6
CONTINUOUS
10
266.684
20
-62.1362
11
266.972
21
-62.0787
0
LINE
8
BLACK
6
CONTINUOUS
10
266.972
20
-62.0787
11
267.266
21
-62.0595
0
LINE
8
BLACK
6
CONTINUOUS
10
267.266
20
-62.0595
11
267.56
21
-62.0787
0
LINE
8
BLACK
6
CONTINUOUS
10
265.23
20
-64.5893
11
265.287
21
-64.8639
0
LINE
8
BLACK
6
CONTINUOUS
10
265.287
20
-64.8639
11
265.381
21
-65.1281
0
LINE
8
BLACK
6
CONTINUOUS
10
265.381
20
-65.1281
11
265.51
21
-65.3771
0
LINE
8
BLACK
6
CONTINUOUS
10
265.51
20
-65.3771
11
265.672
21
-65.6063
0
LINE
8
BLACK
6
CONTINUOUS
10
265.672
20
-65.6063
11
265.863
21
-65.8112
0
LINE
8
BLACK
6
CONTINUOUS
10
265.863
20
-65.8112
11
266.081
21
-65.9882
0
LINE
8
BLACK
6
CONTINUOUS
10
266.081
20
-65.9882
11
266.321
21
-66.1339
0
LINE
8
BLACK
6
CONTINUOUS
10
266.321
20
-66.1339
11
266.578
21
-66.2456
0
LINE
8
BLACK
6
CONTINUOUS
10
266.578
20
-66.2456
11
266.848
21
-66.3213
0
LINE
8
BLACK
6
CONTINUOUS
10
266.848
20
-66.3213
11
267.126
21
-66.3595
0
LINE
8
BLACK
6
CONTINUOUS
10
267.126
20
-66.3595
11
267.406
21
-66.3595
0
LINE
8
BLACK
6
CONTINUOUS
10
267.406
20
-66.3595
11
267.684
21
-66.3213
0
LINE
8
BLACK
6
CONTINUOUS
10
267.684
20
-66.3213
11
267.954
21
-66.2456
0
LINE
8
BLACK
6
CONTINUOUS
10
267.954
20
-66.2456
11
268.211
21
-66.1339
0
LINE
8
BLACK
6
CONTINUOUS
10
268.211
20
-66.1339
11
268.451
21
-65.9882
0
LINE
8
BLACK
6
CONTINUOUS
10
268.451
20
-65.9882
11
268.669
21
-65.8112
0
LINE
8
BLACK
6
CONTINUOUS
10
268.669
20
-65.8112
11
268.86
21
-65.6063
0
LINE
8
BLACK
6
CONTINUOUS
10
268.86
20
-65.6063
11
269.022
21
-65.3771
0
LINE
8
BLACK
6
CONTINUOUS
10
269.022
20
-65.3771
11
269.151
21
-65.1281
0
LINE
8
BLACK
6
CONTINUOUS
10
269.151
20
-65.1281
11
269.245
21
-64.8639
0
LINE
8
BLACK
6
CONTINUOUS
10
269.245
20
-64.8639
11
269.302
21
-64.5893
0
LINE
8
BLACK
6
CONTINUOUS
10
269.302
20
-64.5893
11
269.321
21
-64.3095
0
LINE
8
BLACK
6
CONTINUOUS
10
269.321
20
-64.3095
11
269.302
21
-64.0297
0
LINE
8
BLACK
6
CONTINUOUS
10
269.302
20
-64.0297
11
269.245
21
-63.7551
0
LINE
8
BLACK
6
CONTINUOUS
10
269.245
20
-63.7551
11
269.151
21
-63.4909
0
LINE
8
BLACK
6
CONTINUOUS
10
269.151
20
-63.4909
11
269.022
21
-63.2419
0
LINE
8
BLACK
6
CONTINUOUS
10
269.022
20
-63.2419
11
268.86
21
-63.0127
0
LINE
8
BLACK
6
CONTINUOUS
10
268.86
20
-63.0127
11
268.669
21
-62.8078
0
LINE
8
BLACK
6
CONTINUOUS
10
268.669
20
-62.8078
11
268.451
21
-62.6308
0
LINE
8
BLACK
6
CONTINUOUS
10
268.451
20
-62.6308
11
268.211
21
-62.4851
0
LINE
8
BLACK
6
CONTINUOUS
10
268.211
20
-62.4851
11
267.954
21
-62.3734
0
LINE
8
BLACK
6
CONTINUOUS
10
267.954
20
-62.3734
11
267.684
21
-62.2977
0
LINE
8
BLACK
6
CONTINUOUS
10
267.684
20
-62.2977
11
267.406
21
-62.2595
0
LINE
8
BLACK
6
CONTINUOUS
10
267.406
20
-62.2595
11
267.126
21
-62.2595
0
LINE
8
BLACK
6
CONTINUOUS
10
267.126
20
-62.2595
11
266.848
21
-62.2977
0
LINE
8
BLACK
6
CONTINUOUS
10
266.848
20
-62.2977
11
266.578
21
-62.3734
0
LINE
8
BLACK
6
CONTINUOUS
10
266.578
20
-62.3734
11
266.321
21
-62.4851
0
LINE
8
BLACK
6
CONTINUOUS
10
266.321
20
-62.4851
11
266.081
21
-62.6308
0
LINE
8
BLACK
6
CONTINUOUS
10
266.081
20
-62.6308
11
265.863
21
-62.8078
0
LINE
8
BLACK
6
CONTINUOUS
10
265.863
20
-62.8078
11
265.672
21
-63.0127
0
LINE
8
BLACK
6
CONTINUOUS
10
265.672
20
-63.0127
11
265.51
21
-63.2419
0
LINE
8
BLACK
6
CONTINUOUS
10
265.51
20
-63.2419
11
265.381
21
-63.4909
0
LINE
8
BLACK
6
CONTINUOUS
10
265.381
20
-63.4909
11
265.287
21
-63.7551
0
LINE
8
BLACK
6
CONTINUOUS
10
265.287
20
-63.7551
11
265.23
21
-64.0297
0
LINE
8
BLACK
6
CONTINUOUS
10
265.23
20
-64.0297
11
265.211
21
-64.3095
0
LINE
8
BLACK
6
CONTINUOUS
10
265.211
20
-64.3095
11
265.23
21
-64.5893
0
LINE
8
BLACK
6
CONTINUOUS
10
259.407
20
-57.92
11
259.45
21
-57.9376
0
LINE
8
BLACK
6
CONTINUOUS
10
259.45
20
-57.9376
11
259.467
21
-57.98
0
LINE
8
BLACK
6
CONTINUOUS
10
259.467
20
-57.98
11
259.467
21
-61.08
0
LINE
8
BLACK
6
CONTINUOUS
10
259.467
20
-61.08
11
259.45
21
-61.1224
0
LINE
8
BLACK
6
CONTINUOUS
10
259.45
20
-61.1224
11
259.407
21
-61.14
0
LINE
8
BLACK
6
CONTINUOUS
10
259.407
20
-61.14
11
255.807
21
-61.14
0
LINE
8
BLACK
6
CONTINUOUS
10
255.807
20
-61.14
11
255.765
21
-61.1224
0
LINE
8
BLACK
6
CONTINUOUS
10
255.765
20
-61.1224
11
255.748
21
-61.08
0
LINE
8
BLACK
6
CONTINUOUS
10
255.748
20
-61.08
11
255.748
21
-57.98
0
LINE
8
BLACK
6
CONTINUOUS
10
255.748
20
-57.98
11
255.765
21
-57.9376
0
LINE
8
BLACK
6
CONTINUOUS
10
255.765
20
-57.9376
11
255.807
21
-57.92
0
LINE
8
BLACK
6
CONTINUOUS
10
255.807
20
-57.92
11
259.407
21
-57.92
0
LINE
8
BLACK
6
CONTINUOUS
10
255.867
20
-58.04
11
255.867
21
-61.02
0
LINE
8
BLACK
6
CONTINUOUS
10
255.867
20
-61.02
11
259.347
21
-61.02
0
LINE
8
BLACK
6
CONTINUOUS
10
259.347
20
-61.02
11
259.347
21
-58.04
0
LINE
8
BLACK
6
CONTINUOUS
10
259.347
20
-58.04
11
255.867
21
-58.04
0
LINE
8
BLACK
6
CONTINUOUS
10
278.407
20
-57.92
11
278.45
21
-57.9376
0
LINE
8
BLACK
6
CONTINUOUS
10
278.45
20
-57.9376
11
278.467
21
-57.98
0
LINE
8
BLACK
6
CONTINUOUS
10
278.467
20
-57.98
11
278.467
21
-61.08
0
LINE
8
BLACK
6
CONTINUOUS
10
278.467
20
-61.08
11
278.45
21
-61.1224
0
LINE
8
BLACK
6
CONTINUOUS
10
278.45
20
-61.1224
11
278.407
21
-61.14
0
LINE
8
BLACK
6
CONTINUOUS
10
278.407
20
-61.14
11
274.808
21
-61.14
0
LINE
8
BLACK
6
CONTINUOUS
10
274.808
20
-61.14
11
274.765
21
-61.1224
0
LINE
8
BLACK
6
CONTINUOUS
10
274.765
20
-61.1224
11
274.748
21
-61.08
0
LINE
8
BLACK
6
CONTINUOUS
10
274.748
20
-61.08
11
274.748
21
-57.98
0
LINE
8
BLACK
6
CONTINUOUS
10
274.748
20
-57.98
11
274.765
21
-57.9376
0
LINE
8
BLACK
6
CONTINUOUS
10
274.765
20
-57.9376
11
274.808
21
-57.92
0
LINE
8
BLACK
6
CONTINUOUS
10
274.808
20
-57.92
11
278.407
21
-57.92
0
LINE
8
BLACK
6
CONTINUOUS
10
274.868
20
-58.04
11
274.868
21
-61.02
0
LINE
8
BLACK
6
CONTINUOUS
10
274.868
20
-61.02
11
278.347
21
-61.02
0
LINE
8
BLACK
6
CONTINUOUS
10
278.347
20
-61.02
11
278.347
21
-58.04
0
LINE
8
BLACK
6
CONTINUOUS
10
278.347
20
-58.04
11
274.868
21
-58.04
0
LINE
8
BLACK
6
CONTINUOUS
10
183.407
20
-55.545
11
183.45
21
-55.5626
0
LINE
8
BLACK
6
CONTINUOUS
10
183.45
20
-55.5626
11
183.468
21
-55.605
0
LINE
8
BLACK
6
CONTINUOUS
10
183.468
20
-55.605
11
183.468
21
-58.705
0
LINE
8
BLACK
6
CONTINUOUS
10
183.468
20
-58.705
11
183.45
21
-58.7474
0
LINE
8
BLACK
6
CONTINUOUS
10
183.45
20
-58.7474
11
183.407
21
-58.765
0
LINE
8
BLACK
6
CONTINUOUS
10
183.407
20
-58.765
11
179.808
21
-58.765
0
LINE
8
BLACK
6
CONTINUOUS
10
179.808
20
-58.765
11
179.765
21
-58.7474
0
LINE
8
BLACK
6
CONTINUOUS
10
179.765
20
-58.7474
11
179.748
21
-58.705
0
LINE
8
BLACK
6
CONTINUOUS
10
179.748
20
-58.705
11
179.748
21
-55.605
0
LINE
8
BLACK
6
CONTINUOUS
10
179.748
20
-55.605
11
179.765
21
-55.5626
0
LINE
8
BLACK
6
CONTINUOUS
10
179.765
20
-55.5626
11
179.808
21
-55.545
0
LINE
8
BLACK
6
CONTINUOUS
10
179.808
20
-55.545
11
183.407
21
-55.545
0
LINE
8
BLACK
6
CONTINUOUS
10
179.867
20
-55.665
11
179.867
21
-58.645
0
LINE
8
BLACK
6
CONTINUOUS
10
179.867
20
-58.645
11
183.347
21
-58.645
0
LINE
8
BLACK
6
CONTINUOUS
10
183.347
20
-58.645
11
183.347
21
-55.665
0
LINE
8
BLACK
6
CONTINUOUS
10
183.347
20
-55.665
11
179.867
21
-55.665
0
LINE
8
BLACK
6
CONTINUOUS
10
202.407
20
-53.17
11
202.45
21
-53.1876
0
LINE
8
BLACK
6
CONTINUOUS
10
202.45
20
-53.1876
11
202.468
21
-53.23
0
LINE
8
BLACK
6
CONTINUOUS
10
202.468
20
-53.23
11
202.468
21
-56.33
0
LINE
8
BLACK
6
CONTINUOUS
10
202.468
20
-56.33
11
202.45
21
-56.3724
0
LINE
8
BLACK
6
CONTINUOUS
10
202.45
20
-56.3724
11
202.407
21
-56.39
0
LINE
8
BLACK
6
CONTINUOUS
10
202.407
20
-56.39
11
198.808
21
-56.39
0
LINE
8
BLACK
6
CONTINUOUS
10
198.808
20
-56.39
11
198.765
21
-56.3724
0
LINE
8
BLACK
6
CONTINUOUS
10
198.765
20
-56.3724
11
198.748
21
-56.33
0
LINE
8
BLACK
6
CONTINUOUS
10
198.748
20
-56.33
11
198.748
21
-53.23
0
LINE
8
BLACK
6
CONTINUOUS
10
198.748
20
-53.23
11
198.765
21
-53.1876
0
LINE
8
BLACK
6
CONTINUOUS
10
198.765
20
-53.1876
11
198.808
21
-53.17
0
LINE
8
BLACK
6
CONTINUOUS
10
198.808
20
-53.17
11
202.407
21
-53.17
0
LINE
8
BLACK
6
CONTINUOUS
10
198.867
20
-53.29
11
198.867
21
-56.27
0
LINE
8
BLACK
6
CONTINUOUS
10
198.867
20
-56.27
11
202.347
21
-56.27
0
LINE
8
BLACK
6
CONTINUOUS
10
202.347
20
-56.27
11
202.347
21
-53.29
0
LINE
8
BLACK
6
CONTINUOUS
10
202.347
20
-53.29
11
198.867
21
-53.29
0
LINE
8
BLACK
6
CONTINUOUS
10
240.407
20
-53.17
11
240.45
21
-53.1876
0
LINE
8
BLACK
6
CONTINUOUS
10
240.45
20
-53.1876
11
240.468
21
-53.23
0
LINE
8
BLACK
6
CONTINUOUS
10
240.468
20
-53.23
11
240.468
21
-56.33
0
LINE
8
BLACK
6
CONTINUOUS
10
240.468
20
-56.33
11
240.45
21
-56.3724
0
LINE
8
BLACK
6
CONTINUOUS
10
240.45
20
-56.3724
11
240.407
21
-56.39
0
LINE
8
BLACK
6
CONTINUOUS
10
240.407
20
-56.39
11
236.807
21
-56.39
0
LINE
8
BLACK
6
CONTINUOUS
10
236.807
20
-56.39
11
236.765
21
-56.3724
0
LINE
8
BLACK
6
CONTINUOUS
10
236.765
20
-56.3724
11
236.748
21
-56.33
0
LINE
8
BLACK
6
CONTINUOUS
10
236.748
20
-56.33
11
236.748
21
-53.23
0
LINE
8
BLACK
6
CONTINUOUS
10
236.748
20
-53.23
11
236.765
21
-53.1876
0
LINE
8
BLACK
6
CONTINUOUS
10
236.765
20
-53.1876
11
236.807
21
-53.17
0
LINE
8
BLACK
6
CONTINUOUS
10
236.807
20
-53.17
11
240.407
21
-53.17
0
LINE
8
BLACK
6
CONTINUOUS
10
236.867
20
-53.29
11
236.867
21
-56.27
0
LINE
8
BLACK
6
CONTINUOUS
10
236.867
20
-56.27
11
240.347
21
-56.27
0
LINE
8
BLACK
6
CONTINUOUS
10
240.347
20
-56.27
11
240.347
21
-53.29
0
LINE
8
BLACK
6
CONTINUOUS
10
240.347
20
-53.29
11
236.867
21
-53.29
0
LINE
8
BLACK
6
CONTINUOUS
10
221.407
20
-50.795
11
221.45
21
-50.8126
0
LINE
8
BLACK
6
CONTINUOUS
10
221.45
20
-50.8126
11
221.468
21
-50.855
0
LINE
8
BLACK
6
CONTINUOUS
10
221.468
20
-50.855
11
221.468
21
-53.955
0
LINE
8
BLACK
6
CONTINUOUS
10
221.468
20
-53.955
11
221.45
21
-53.9974
0
LINE
8
BLACK
6
CONTINUOUS
10
221.45
20
-53.9974
11
221.407
21
-54.015
0
LINE
8
BLACK
6
CONTINUOUS
10
221.407
20
-54.015
11
217.807
21
-54.015
0
LINE
8
BLACK
6
CONTINUOUS
10
217.807
20
-54.015
11
217.765
21
-53.9974
0
LINE
8
BLACK
6
CONTINUOUS
10
217.765
20
-53.9974
11
217.748
21
-53.955
0
LINE
8
BLACK
6
CONTINUOUS
10
217.748
20
-53.955
11
217.748
21
-50.855
0
LINE
8
BLACK
6
CONTINUOUS
10
217.748
20
-50.855
11
217.765
21
-50.8126
0
LINE
8
BLACK
6
CONTINUOUS
10
217.765
20
-50.8126
11
217.807
21
-50.795
0
LINE
8
BLACK
6
CONTINUOUS
10
217.807
20
-50.795
11
221.407
21
-50.795
0
LINE
8
BLACK
6
CONTINUOUS
10
217.867
20
-50.915
11
217.867
21
-53.895
0
LINE
8
BLACK
6
CONTINUOUS
10
217.867
20
-53.895
11
221.347
21
-53.895
0
LINE
8
BLACK
6
CONTINUOUS
10
221.347
20
-53.895
11
221.347
21
-50.915
0
LINE
8
BLACK
6
CONTINUOUS
10
221.347
20
-50.915
11
217.867
21
-50.915
0
LINE
8
BLACK
6
CONTINUOUS
10
267.56
20
-43.0787
11
267.848
21
-43.1362
0
LINE
8
BLACK
6
CONTINUOUS
10
267.848
20
-43.1362
11
268.127
21
-43.2308
0
LINE
8
BLACK
6
CONTINUOUS
10
268.127
20
-43.2308
11
268.391
21
-43.3609
0
LINE
8
BLACK
6
CONTINUOUS
10
268.391
20
-43.3609
11
268.636
21
-43.5245
0
LINE
8
BLACK
6
CONTINUOUS
10
268.636
20
-43.5245
11
268.857
21
-43.7185
0
LINE
8
BLACK
6
CONTINUOUS
10
268.857
20
-43.7185
11
269.051
21
-43.9398
0
LINE
8
BLACK
6
CONTINUOUS
10
269.051
20
-43.9398
11
269.215
21
-44.1845
0
LINE
8
BLACK
6
CONTINUOUS
10
269.215
20
-44.1845
11
269.345
21
-44.4485
0
LINE
8
BLACK
6
CONTINUOUS
10
269.345
20
-44.4485
11
269.439
21
-44.7272
0
LINE
8
BLACK
6
CONTINUOUS
10
269.439
20
-44.7272
11
269.497
21
-45.0158
0
LINE
8
BLACK
6
CONTINUOUS
10
269.497
20
-45.0158
11
269.516
21
-45.3095
0
LINE
8
BLACK
6
CONTINUOUS
10
269.516
20
-45.3095
11
269.497
21
-45.6032
0
LINE
8
BLACK
6
CONTINUOUS
10
269.497
20
-45.6032
11
269.439
21
-45.8918
0
LINE
8
BLACK
6
CONTINUOUS
10
269.439
20
-45.8918
11
269.345
21
-46.1705
0
LINE
8
BLACK
6
CONTINUOUS
10
269.345
20
-46.1705
11
269.215
21
-46.4345
0
LINE
8
BLACK
6
CONTINUOUS
10
269.215
20
-46.4345
11
269.051
21
-46.6792
0
LINE
8
BLACK
6
CONTINUOUS
10
269.051
20
-46.6792
11
268.857
21
-46.9005
0
LINE
8
BLACK
6
CONTINUOUS
10
268.857
20
-46.9005
11
268.636
21
-47.0945
0
LINE
8
BLACK
6
CONTINUOUS
10
268.636
20
-47.0945
11
268.391
21
-47.2581
0
LINE
8
BLACK
6
CONTINUOUS
10
268.391
20
-47.2581
11
268.127
21
-47.3882
0
LINE
8
BLACK
6
CONTINUOUS
10
268.127
20
-47.3882
11
267.848
21
-47.4828
0
LINE
8
BLACK
6
CONTINUOUS
10
267.848
20
-47.4828
11
267.56
21
-47.5403
0
LINE
8
BLACK
6
CONTINUOUS
10
267.56
20
-47.5403
11
267.266
21
-47.5595
0
LINE
8
BLACK
6
CONTINUOUS
10
267.266
20
-47.5595
11
266.972
21
-47.5403
0
LINE
8
BLACK
6
CONTINUOUS
10
266.972
20
-47.5403
11
266.684
21
-47.4828
0
LINE
8
BLACK
6
CONTINUOUS
10
266.684
20
-47.4828
11
266.405
21
-47.3882
0
LINE
8
BLACK
6
CONTINUOUS
10
266.405
20
-47.3882
11
266.141
21
-47.2581
0
LINE
8
BLACK
6
CONTINUOUS
10
266.141
20
-47.2581
11
265.896
21
-47.0945
0
LINE
8
BLACK
6
CONTINUOUS
10
265.896
20
-47.0945
11
265.675
21
-46.9005
0
LINE
8
BLACK
6
CONTINUOUS
10
265.675
20
-46.9005
11
265.481
21
-46.6792
0
LINE
8
BLACK
6
CONTINUOUS
10
265.481
20
-46.6792
11
265.317
21
-46.4345
0
LINE
8
BLACK
6
CONTINUOUS
10
265.317
20
-46.4345
11
265.187
21
-46.1705
0
LINE
8
BLACK
6
CONTINUOUS
10
265.187
20
-46.1705
11
265.093
21
-45.8918
0
LINE
8
BLACK
6
CONTINUOUS
10
265.093
20
-45.8918
11
265.035
21
-45.6032
0
LINE
8
BLACK
6
CONTINUOUS
10
265.035
20
-45.6032
11
265.016
21
-45.3095
0
LINE
8
BLACK
6
CONTINUOUS
10
265.016
20
-45.3095
11
265.035
21
-45.0158
0
LINE
8
BLACK
6
CONTINUOUS
10
265.035
20
-45.0158
11
265.093
21
-44.7272
0
LINE
8
BLACK
6
CONTINUOUS
10
265.093
20
-44.7272
11
265.187
21
-44.4485
0
LINE
8
BLACK
6
CONTINUOUS
10
265.187
20
-44.4485
11
265.317
21
-44.1845
0
LINE
8
BLACK
6
CONTINUOUS
10
265.317
20
-44.1845
11
265.481
21
-43.9398
0
LINE
8
BLACK
6
CONTINUOUS
10
265.481
20
-43.9398
11
265.675
21
-43.7185
0
LINE
8
BLACK
6
CONTINUOUS
10
265.675
20
-43.7185
11
265.896
21
-43.5245
0
LINE
8
BLACK
6
CONTINUOUS
10
265.896
20
-43.5245
11
266.141
21
-43.3609
0
LINE
8
BLACK
6
CONTINUOUS
10
266.141
20
-43.3609
11
266.405
21
-43.2308
0
LINE
8
BLACK
6
CONTINUOUS
10
266.405
20
-43.2308
11
266.684
21
-43.1362
0
LINE
8
BLACK
6
CONTINUOUS
10
266.684
20
-43.1362
11
266.972
21
-43.0787
0
LINE
8
BLACK
6
CONTINUOUS
10
266.972
20
-43.0787
11
267.266
21
-43.0595
0
LINE
8
BLACK
6
CONTINUOUS
10
267.266
20
-43.0595
11
267.56
21
-43.0787
0
LINE
8
BLACK
6
CONTINUOUS
10
265.23
20
-45.5893
11
265.287
21
-45.8639
0
LINE
8
BLACK
6
CONTINUOUS
10
265.287
20
-45.8639
11
265.381
21
-46.1281
0
LINE
8
BLACK
6
CONTINUOUS
10
265.381
20
-46.1281
11
265.51
21
-46.3771
0
LINE
8
BLACK
6
CONTINUOUS
10
265.51
20
-46.3771
11
265.672
21
-46.6063
0
LINE
8
BLACK
6
CONTINUOUS
10
265.672
20
-46.6063
11
265.863
21
-46.8112
0
LINE
8
BLACK
6
CONTINUOUS
10
265.863
20
-46.8112
11
266.081
21
-46.9882
0
LINE
8
BLACK
6
CONTINUOUS
10
266.081
20
-46.9882
11
266.321
21
-47.1339
0
LINE
8
BLACK
6
CONTINUOUS
10
266.321
20
-47.1339
11
266.578
21
-47.2456
0
LINE
8
BLACK
6
CONTINUOUS
10
266.578
20
-47.2456
11
266.848
21
-47.3213
0
LINE
8
BLACK
6
CONTINUOUS
10
266.848
20
-47.3213
11
267.126
21
-47.3595
0
LINE
8
BLACK
6
CONTINUOUS
10
267.126
20
-47.3595
11
267.406
21
-47.3595
0
LINE
8
BLACK
6
CONTINUOUS
10
267.406
20
-47.3595
11
267.684
21
-47.3213
0
LINE
8
BLACK
6
CONTINUOUS
10
267.684
20
-47.3213
11
267.954
21
-47.2456
0
LINE
8
BLACK
6
CONTINUOUS
10
267.954
20
-47.2456
11
268.211
21
-47.1339
0
LINE
8
BLACK
6
CONTINUOUS
10
268.211
20
-47.1339
11
268.451
21
-46.9882
0
LINE
8
BLACK
6
CONTINUOUS
10
268.451
20
-46.9882
11
268.669
21
-46.8112
0
LINE
8
BLACK
6
CONTINUOUS
10
268.669
20
-46.8112
11
268.86
21
-46.6063
0
LINE
8
BLACK
6
CONTINUOUS
10
268.86
20
-46.6063
11
269.022
21
-46.3771
0
LINE
8
BLACK
6
CONTINUOUS
10
269.022
20
-46.3771
11
269.151
21
-46.1281
0
LINE
8
BLACK
6
CONTINUOUS
10
269.151
20
-46.1281
11
269.245
21
-45.8639
0
LINE
8
BLACK
6
CONTINUOUS
10
269.245
20
-45.8639
11
269.302
21
-45.5893
0
LINE
8
BLACK
6
CONTINUOUS
10
269.302
20
-45.5893
11
269.321
21
-45.3095
0
LINE
8
BLACK
6
CONTINUOUS
10
269.321
20
-45.3095
11
269.302
21
-45.0297
0
LINE
8
BLACK
6
CONTINUOUS
10
269.302
20
-45.0297
11
269.245
21
-44.7551
0
LINE
8
BLACK
6
CONTINUOUS
10
269.245
20
-44.7551
11
269.151
21
-44.4909
0
LINE
8
BLACK
6
CONTINUOUS
10
269.151
20
-44.4909
11
269.022
21
-44.2419
0
LINE
8
BLACK
6
CONTINUOUS
10
269.022
20
-44.2419
11
268.86
21
-44.0127
0
LINE
8
BLACK
6
CONTINUOUS
10
268.86
20
-44.0127
11
268.669
21
-43.8078
0
LINE
8
BLACK
6
CONTINUOUS
10
268.669
20
-43.8078
11
268.451
21
-43.6308
0
LINE
8
BLACK
6
CONTINUOUS
10
268.451
20
-43.6308
11
268.211
21
-43.4851
0
LINE
8
BLACK
6
CONTINUOUS
10
268.211
20
-43.4851
11
267.954
21
-43.3734
0
LINE
8
BLACK
6
CONTINUOUS
10
267.954
20
-43.3734
11
267.684
21
-43.2977
0
LINE
8
BLACK
6
CONTINUOUS
10
267.684
20
-43.2977
11
267.406
21
-43.2595
0
LINE
8
BLACK
6
CONTINUOUS
10
267.406
20
-43.2595
11
267.126
21
-43.2595
0
LINE
8
BLACK
6
CONTINUOUS
10
267.126
20
-43.2595
11
266.848
21
-43.2977
0
LINE
8
BLACK
6
CONTINUOUS
10
266.848
20
-43.2977
11
266.578
21
-43.3734
0
LINE
8
BLACK
6
CONTINUOUS
10
266.578
20
-43.3734
11
266.321
21
-43.4851
0
LINE
8
BLACK
6
CONTINUOUS
10
266.321
20
-43.4851
11
266.081
21
-43.6308
0
LINE
8
BLACK
6
CONTINUOUS
10
266.081
20
-43.6308
11
265.863
21
-43.8078
0
LINE
8
BLACK
6
CONTINUOUS
10
265.863
20
-43.8078
11
265.672
21
-44.0127
0
LINE
8
BLACK
6
CONTINUOUS
10
265.672
20
-44.0127
11
265.51
21
-44.2419
0
LINE
8
BLACK
6
CONTINUOUS
10
265.51
20
-44.2419
11
265.381
21
-44.4909
0
LINE
8
BLACK
6
CONTINUOUS
10
265.381
20
-44.4909
11
265.287
21
-44.7551
0
LINE
8
BLACK
6
CONTINUOUS
10
265.287
20
-44.7551
11
265.23
21
-45.0297
0
LINE
8
BLACK
6
CONTINUOUS
10
265.23
20
-45.0297
11
265.211
21
-45.3095
0
LINE
8
BLACK
6
CONTINUOUS
10
265.211
20
-45.3095
11
265.23
21
-45.5893
0
LINE
8
BLACK
6
CONTINUOUS
10
191.592
20
-39.5642
11
191.881
21
-39.6217
0
LINE
8
BLACK
6
CONTINUOUS
10
191.881
20
-39.6217
11
192.16
21
-39.7163
0
LINE
8
BLACK
6
CONTINUOUS
10
192.16
20
-39.7163
11
192.423
21
-39.8464
0
LINE
8
BLACK
6
CONTINUOUS
10
192.423
20
-39.8464
11
192.668
21
-40.01
0
LINE
8
BLACK
6
CONTINUOUS
10
192.668
20
-40.01
11
192.889
21
-40.204
0
LINE
8
BLACK
6
CONTINUOUS
10
192.889
20
-40.204
11
193.084
21
-40.4253
0
LINE
8
BLACK
6
CONTINUOUS
10
193.084
20
-40.4253
11
193.247
21
-40.67
0
LINE
8
BLACK
6
CONTINUOUS
10
193.247
20
-40.67
11
193.377
21
-40.934
0
LINE
8
BLACK
6
CONTINUOUS
10
193.377
20
-40.934
11
193.472
21
-41.2127
0
LINE
8
BLACK
6
CONTINUOUS
10
193.472
20
-41.2127
11
193.529
21
-41.5013
0
LINE
8
BLACK
6
CONTINUOUS
10
193.529
20
-41.5013
11
193.548
21
-41.795
0
LINE
8
BLACK
6
CONTINUOUS
10
193.548
20
-41.795
11
193.529
21
-42.0887
0
LINE
8
BLACK
6
CONTINUOUS
10
193.529
20
-42.0887
11
193.472
21
-42.3773
0
LINE
8
BLACK
6
CONTINUOUS
10
193.472
20
-42.3773
11
193.377
21
-42.656
0
LINE
8
BLACK
6
CONTINUOUS
10
193.377
20
-42.656
11
193.247
21
-42.92
0
LINE
8
BLACK
6
CONTINUOUS
10
193.247
20
-42.92
11
193.084
21
-43.1647
0
LINE
8
BLACK
6
CONTINUOUS
10
193.084
20
-43.1647
11
192.889
21
-43.386
0
LINE
8
BLACK
6
CONTINUOUS
10
192.889
20
-43.386
11
192.668
21
-43.58
0
LINE
8
BLACK
6
CONTINUOUS
10
192.668
20
-43.58
11
192.423
21
-43.7436
0
LINE
8
BLACK
6
CONTINUOUS
10
192.423
20
-43.7436
11
192.16
21
-43.8737
0
LINE
8
BLACK
6
CONTINUOUS
10
192.16
20
-43.8737
11
191.881
21
-43.9683
0
LINE
8
BLACK
6
CONTINUOUS
10
191.881
20
-43.9683
11
191.592
21
-44.0258
0
LINE
8
BLACK
6
CONTINUOUS
10
191.592
20
-44.0258
11
191.298
21
-44.045
0
LINE
8
BLACK
6
CONTINUOUS
10
191.298
20
-44.045
11
191.005
21
-44.0258
0
LINE
8
BLACK
6
CONTINUOUS
10
191.005
20
-44.0258
11
190.716
21
-43.9683
0
LINE
8
BLACK
6
CONTINUOUS
10
190.716
20
-43.9683
11
190.437
21
-43.8737
0
LINE
8
BLACK
6
CONTINUOUS
10
190.437
20
-43.8737
11
190.173
21
-43.7436
0
LINE
8
BLACK
6
CONTINUOUS
10
190.173
20
-43.7436
11
189.929
21
-43.58
0
LINE
8
BLACK
6
CONTINUOUS
10
189.929
20
-43.58
11
189.708
21
-43.386
0
LINE
8
BLACK
6
CONTINUOUS
10
189.708
20
-43.386
11
189.513
21
-43.1647
0
LINE
8
BLACK
6
CONTINUOUS
10
189.513
20
-43.1647
11
189.35
21
-42.92
0
LINE
8
BLACK
6
CONTINUOUS
10
189.35
20
-42.92
11
189.22
21
-42.656
0
LINE
8
BLACK
6
CONTINUOUS
10
189.22
20
-42.656
11
189.125
21
-42.3773
0
LINE
8
BLACK
6
CONTINUOUS
10
189.125
20
-42.3773
11
189.068
21
-42.0887
0
LINE
8
BLACK
6
CONTINUOUS
10
189.068
20
-42.0887
11
189.048
21
-41.795
0
LINE
8
BLACK
6
CONTINUOUS
10
189.048
20
-41.795
11
189.068
21
-41.5013
0
LINE
8
BLACK
6
CONTINUOUS
10
189.068
20
-41.5013
11
189.125
21
-41.2127
0
LINE
8
BLACK
6
CONTINUOUS
10
189.125
20
-41.2127
11
189.22
21
-40.934
0
LINE
8
BLACK
6
CONTINUOUS
10
189.22
20
-40.934
11
189.35
21
-40.67
0
LINE
8
BLACK
6
CONTINUOUS
10
189.35
20
-40.67
11
189.513
21
-40.4253
0
LINE
8
BLACK
6
CONTINUOUS
10
189.513
20
-40.4253
11
189.708
21
-40.204
0
LINE
8
BLACK
6
CONTINUOUS
10
189.708
20
-40.204
11
189.929
21
-40.01
0
LINE
8
BLACK
6
CONTINUOUS
10
189.929
20
-40.01
11
190.173
21
-39.8464
0
LINE
8
BLACK
6
CONTINUOUS
10
190.173
20
-39.8464
11
190.437
21
-39.7163
0
LINE
8
BLACK
6
CONTINUOUS
10
190.437
20
-39.7163
11
190.716
21
-39.6217
0
LINE
8
BLACK
6
CONTINUOUS
10
190.716
20
-39.6217
11
191.005
21
-39.5642
0
LINE
8
BLACK
6
CONTINUOUS
10
191.005
20
-39.5642
11
191.298
21
-39.545
0
LINE
8
BLACK
6
CONTINUOUS
10
191.298
20
-39.545
11
191.592
21
-39.5642
0
LINE
8
BLACK
6
CONTINUOUS
10
189.263
20
-42.0748
11
189.32
21
-42.3494
0
LINE
8
BLACK
6
CONTINUOUS
10
189.32
20
-42.3494
11
189.414
21
-42.6136
0
LINE
8
BLACK
6
CONTINUOUS
10
189.414
20
-42.6136
11
189.543
21
-42.8626
0
LINE
8
BLACK
6
CONTINUOUS
10
189.543
20
-42.8626
11
189.705
21
-43.0918
0
LINE
8
BLACK
6
CONTINUOUS
10
189.705
20
-43.0918
11
189.896
21
-43.2967
0
LINE
8
BLACK
6
CONTINUOUS
10
189.896
20
-43.2967
11
190.114
21
-43.4737
0
LINE
8
BLACK
6
CONTINUOUS
10
190.114
20
-43.4737
11
190.353
21
-43.6194
0
LINE
8
BLACK
6
CONTINUOUS
10
190.353
20
-43.6194
11
190.61
21
-43.7311
0
LINE
8
BLACK
6
CONTINUOUS
10
190.61
20
-43.7311
11
190.88
21
-43.8068
0
LINE
8
BLACK
6
CONTINUOUS
10
190.88
20
-43.8068
11
191.158
21
-43.845
0
LINE
8
BLACK
6
CONTINUOUS
10
191.158
20
-43.845
11
191.439
21
-43.845
0
LINE
8
BLACK
6
CONTINUOUS
10
191.439
20
-43.845
11
191.717
21
-43.8068
0
LINE
8
BLACK
6
CONTINUOUS
10
191.717
20
-43.8068
11
191.987
21
-43.7311
0
LINE
8
BLACK
6
CONTINUOUS
10
191.987
20
-43.7311
11
192.244
21
-43.6194
0
LINE
8
BLACK
6
CONTINUOUS
10
192.244
20
-43.6194
11
192.483
21
-43.4737
0
LINE
8
BLACK
6
CONTINUOUS
10
192.483
20
-43.4737
11
192.701
21
-43.2967
0
LINE
8
BLACK
6
CONTINUOUS
10
192.701
20
-43.2967
11
192.892
21
-43.0918
0
LINE
8
BLACK
6
CONTINUOUS
10
192.892
20
-43.0918
11
193.054
21
-42.8626
0
LINE
8
BLACK
6
CONTINUOUS
10
193.054
20
-42.8626
11
193.183
21
-42.6136
0
LINE
8
BLACK
6
CONTINUOUS
10
193.183
20
-42.6136
11
193.277
21
-42.3494
0
LINE
8
BLACK
6
CONTINUOUS
10
193.277
20
-42.3494
11
193.334
21
-42.0748
0
LINE
8
BLACK
6
CONTINUOUS
10
193.334
20
-42.0748
11
193.353
21
-41.795
0
LINE
8
BLACK
6
CONTINUOUS
10
193.353
20
-41.795
11
193.334
21
-41.5152
0
LINE
8
BLACK
6
CONTINUOUS
10
193.334
20
-41.5152
11
193.277
21
-41.2406
0
LINE
8
BLACK
6
CONTINUOUS
10
193.277
20
-41.2406
11
193.183
21
-40.9764
0
LINE
8
BLACK
6
CONTINUOUS
10
193.183
20
-40.9764
11
193.054
21
-40.7274
0
LINE
8
BLACK
6
CONTINUOUS
10
193.054
20
-40.7274
11
192.892
21
-40.4982
0
LINE
8
BLACK
6
CONTINUOUS
10
192.892
20
-40.4982
11
192.701
21
-40.2933
0
LINE
8
BLACK
6
CONTINUOUS
10
192.701
20
-40.2933
11
192.483
21
-40.1163
0
LINE
8
BLACK
6
CONTINUOUS
10
192.483
20
-40.1163
11
192.244
21
-39.9706
0
LINE
8
BLACK
6
CONTINUOUS
10
192.244
20
-39.9706
11
191.987
21
-39.8589
0
LINE
8
BLACK
6
CONTINUOUS
10
191.987
20
-39.8589
11
191.717
21
-39.7832
0
LINE
8
BLACK
6
CONTINUOUS
10
191.717
20
-39.7832
11
191.439
21
-39.745
0
LINE
8
BLACK
6
CONTINUOUS
10
191.439
20
-39.745
11
191.158
21
-39.745
0
LINE
8
BLACK
6
CONTINUOUS
10
191.158
20
-39.745
11
190.88
21
-39.7832
0
LINE
8
BLACK
6
CONTINUOUS
10
190.88
20
-39.7832
11
190.61
21
-39.8589
0
LINE
8
BLACK
6
CONTINUOUS
10
190.61
20
-39.8589
11
190.353
21
-39.9706
0
LINE
8
BLACK
6
CONTINUOUS
10
190.353
20
-39.9706
11
190.114
21
-40.1163
0
LINE
8
BLACK
6
CONTINUOUS
10
190.114
20
-40.1163
11
189.896
21
-40.2933
0
LINE
8
BLACK
6
CONTINUOUS
10
189.896
20
-40.2933
11
189.705
21
-40.4982
0
LINE
8
BLACK
6
CONTINUOUS
10
189.705
20
-40.4982
11
189.543
21
-40.7274
0
LINE
8
BLACK
6
CONTINUOUS
10
189.543
20
-40.7274
11
189.414
21
-40.9764
0
LINE
8
BLACK
6
CONTINUOUS
10
189.414
20
-40.9764
11
189.32
21
-41.2406
0
LINE
8
BLACK
6
CONTINUOUS
10
189.32
20
-41.2406
11
189.263
21
-41.5152
0
LINE
8
BLACK
6
CONTINUOUS
10
189.263
20
-41.5152
11
189.244
21
-41.795
0
LINE
8
BLACK
6
CONTINUOUS
10
189.244
20
-41.795
11
189.263
21
-42.0748
0
LINE
8
BLACK
6
CONTINUOUS
10
259.407
20
-38.92
11
259.45
21
-38.9376
0
LINE
8
BLACK
6
CONTINUOUS
10
259.45
20
-38.9376
11
259.467
21
-38.98
0
LINE
8
BLACK
6
CONTINUOUS
10
259.467
20
-38.98
11
259.467
21
-42.08
0
LINE
8
BLACK
6
CONTINUOUS
10
259.467
20
-42.08
11
259.45
21
-42.1224
0
LINE
8
BLACK
6
CONTINUOUS
10
259.45
20
-42.1224
11
259.407
21
-42.14
0
LINE
8
BLACK
6
CONTINUOUS
10
259.407
20
-42.14
11
255.807
21
-42.14
0
LINE
8
BLACK
6
CONTINUOUS
10
255.807
20
-42.14
11
255.765
21
-42.1224
0
LINE
8
BLACK
6
CONTINUOUS
10
255.765
20
-42.1224
11
255.748
21
-42.08
0
LINE
8
BLACK
6
CONTINUOUS
10
255.748
20
-42.08
11
255.748
21
-38.98
0
LINE
8
BLACK
6
CONTINUOUS
10
255.748
20
-38.98
11
255.765
21
-38.9376
0
LINE
8
BLACK
6
CONTINUOUS
10
255.765
20
-38.9376
11
255.807
21
-38.92
0
LINE
8
BLACK
6
CONTINUOUS
10
255.807
20
-38.92
11
259.407
21
-38.92
0
LINE
8
BLACK
6
CONTINUOUS
10
255.867
20
-39.04
11
255.867
21
-42.02
0
LINE
8
BLACK
6
CONTINUOUS
10
255.867
20
-42.02
11
259.347
21
-42.02
0
LINE
8
BLACK
6
CONTINUOUS
10
259.347
20
-42.02
11
259.347
21
-39.04
0
LINE
8
BLACK
6
CONTINUOUS
10
259.347
20
-39.04
11
255.867
21
-39.04
0
LINE
8
BLACK
6
CONTINUOUS
10
278.407
20
-38.92
11
278.45
21
-38.9376
0
LINE
8
BLACK
6
CONTINUOUS
10
278.45
20
-38.9376
11
278.467
21
-38.98
0
LINE
8
BLACK
6
CONTINUOUS
10
278.467
20
-38.98
11
278.467
21
-42.08
0
LINE
8
BLACK
6
CONTINUOUS
10
278.467
20
-42.08
11
278.45
21
-42.1224
0
LINE
8
BLACK
6
CONTINUOUS
10
278.45
20
-42.1224
11
278.407
21
-42.14
0
LINE
8
BLACK
6
CONTINUOUS
10
278.407
20
-42.14
11
274.808
21
-42.14
0
LINE
8
BLACK
6
CONTINUOUS
10
274.808
20
-42.14
11
274.765
21
-42.1224
0
LINE
8
BLACK
6
CONTINUOUS
10
274.765
20
-42.1224
11
274.748
21
-42.08
0
LINE
8
BLACK
6
CONTINUOUS
10
274.748
20
-42.08
11
274.748
21
-38.98
0
LINE
8
BLACK
6
CONTINUOUS
10
274.748
20
-38.98
11
274.765
21
-38.9376
0
LINE
8
BLACK
6
CONTINUOUS
10
274.765
20
-38.9376
11
274.808
21
-38.92
0
LINE
8
BLACK
6
CONTINUOUS
10
274.808
20
-38.92
11
278.407
21
-38.92
0
LINE
8
BLACK
6
CONTINUOUS
10
274.868
20
-39.04
11
274.868
21
-42.02
0
LINE
8
BLACK
6
CONTINUOUS
10
274.868
20
-42.02
11
278.347
21
-42.02
0
LINE
8
BLACK
6
CONTINUOUS
10
278.347
20
-42.02
11
278.347
21
-39.04
0
LINE
8
BLACK
6
CONTINUOUS
10
278.347
20
-39.04
11
274.868
21
-39.04
0
LINE
8
BLACK
6
CONTINUOUS
10
183.407
20
-36.545
11
183.45
21
-36.5626
0
LINE
8
BLACK
6
CONTINUOUS
10
183.45
20
-36.5626
11
183.468
21
-36.605
0
LINE
8
BLACK
6
CONTINUOUS
10
183.468
20
-36.605
11
183.468
21
-39.705
0
LINE
8
BLACK
6
CONTINUOUS
10
183.468
20
-39.705
11
183.45
21
-39.7474
0
LINE
8
BLACK
6
CONTINUOUS
10
183.45
20
-39.7474
11
183.407
21
-39.765
0
LINE
8
BLACK
6
CONTINUOUS
10
183.407
20
-39.765
11
179.808
21
-39.765
0
LINE
8
BLACK
6
CONTINUOUS
10
179.808
20
-39.765
11
179.765
21
-39.7474
0
LINE
8
BLACK
6
CONTINUOUS
10
179.765
20
-39.7474
11
179.748
21
-39.705
0
LINE
8
BLACK
6
CONTINUOUS
10
179.748
20
-39.705
11
179.748
21
-36.605
0
LINE
8
BLACK
6
CONTINUOUS
10
179.748
20
-36.605
11
179.765
21
-36.5626
0
LINE
8
BLACK
6
CONTINUOUS
10
179.765
20
-36.5626
11
179.808
21
-36.545
0
LINE
8
BLACK
6
CONTINUOUS
10
179.808
20
-36.545
11
183.407
21
-36.545
0
LINE
8
BLACK
6
CONTINUOUS
10
179.867
20
-36.665
11
179.867
21
-39.645
0
LINE
8
BLACK
6
CONTINUOUS
10
179.867
20
-39.645
11
183.347
21
-39.645
0
LINE
8
BLACK
6
CONTINUOUS
10
183.347
20
-39.645
11
183.347
21
-36.665
0
LINE
8
BLACK
6
CONTINUOUS
10
183.347
20
-36.665
11
179.867
21
-36.665
0
LINE
8
BLACK
6
CONTINUOUS
10
202.407
20
-34.17
11
202.45
21
-34.1876
0
LINE
8
BLACK
6
CONTINUOUS
10
202.45
20
-34.1876
11
202.468
21
-34.23
0
LINE
8
BLACK
6
CONTINUOUS
10
202.468
20
-34.23
11
202.468
21
-37.33
0
LINE
8
BLACK
6
CONTINUOUS
10
202.468
20
-37.33
11
202.45
21
-37.3724
0
LINE
8
BLACK
6
CONTINUOUS
10
202.45
20
-37.3724
11
202.407
21
-37.39
0
LINE
8
BLACK
6
CONTINUOUS
10
202.407
20
-37.39
11
198.808
21
-37.39
0
LINE
8
BLACK
6
CONTINUOUS
10
198.808
20
-37.39
11
198.765
21
-37.3724
0
LINE
8
BLACK
6
CONTINUOUS
10
198.765
20
-37.3724
11
198.748
21
-37.33
0
LINE
8
BLACK
6
CONTINUOUS
10
198.748
20
-37.33
11
198.748
21
-34.23
0
LINE
8
BLACK
6
CONTINUOUS
10
198.748
20
-34.23
11
198.765
21
-34.1876
0
LINE
8
BLACK
6
CONTINUOUS
10
198.765
20
-34.1876
11
198.808
21
-34.17
0
LINE
8
BLACK
6
CONTINUOUS
10
198.808
20
-34.17
11
202.407
21
-34.17
0
LINE
8
BLACK
6
CONTINUOUS
10
198.867
20
-34.29
11
198.867
21
-37.27
0
LINE
8
BLACK
6
CONTINUOUS
10
198.867
20
-37.27
11
202.347
21
-37.27
0
LINE
8
BLACK
6
CONTINUOUS
10
202.347
20
-37.27
11
202.347
21
-34.29
0
LINE
8
BLACK
6
CONTINUOUS
10
202.347
20
-34.29
11
198.867
21
-34.29
0
LINE
8
BLACK
6
CONTINUOUS
10
240.407
20
-34.17
11
240.45
21
-34.1876
0
LINE
8
BLACK
6
CONTINUOUS
10
240.45
20
-34.1876
11
240.468
21
-34.23
0
LINE
8
BLACK
6
CONTINUOUS
10
240.468
20
-34.23
11
240.468
21
-37.33
0
LINE
8
BLACK
6
CONTINUOUS
10
240.468
20
-37.33
11
240.45
21
-37.3724
0
LINE
8
BLACK
6
CONTINUOUS
10
240.45
20
-37.3724
11
240.407
21
-37.39
0
LINE
8
BLACK
6
CONTINUOUS
10
240.407
20
-37.39
11
236.807
21
-37.39
0
LINE
8
BLACK
6
CONTINUOUS
10
236.807
20
-37.39
11
236.765
21
-37.3724
0
LINE
8
BLACK
6
CONTINUOUS
10
236.765
20
-37.3724
11
236.748
21
-37.33
0
LINE
8
BLACK
6
CONTINUOUS
10
236.748
20
-37.33
11
236.748
21
-34.23
0
LINE
8
BLACK
6
CONTINUOUS
10
236.748
20
-34.23
11
236.765
21
-34.1876
0
LINE
8
BLACK
6
CONTINUOUS
10
236.765
20
-34.1876
11
236.807
21
-34.17
0
LINE
8
BLACK
6
CONTINUOUS
10
236.807
20
-34.17
11
240.407
21
-34.17
0
LINE
8
BLACK
6
CONTINUOUS
10
236.867
20
-34.29
11
236.867
21
-37.27
0
LINE
8
BLACK
6
CONTINUOUS
10
236.867
20
-37.27
11
240.347
21
-37.27
0
LINE
8
BLACK
6
CONTINUOUS
10
240.347
20
-37.27
11
240.347
21
-34.29
0
LINE
8
BLACK
6
CONTINUOUS
10
240.347
20
-34.29
11
236.867
21
-34.29
0
LINE
8
BLACK
6
CONTINUOUS
10
221.407
20
-31.795
11
221.45
21
-31.8126
0
LINE
8
BLACK
6
CONTINUOUS
10
221.45
20
-31.8126
11
221.468
21
-31.855
0
LINE
8
BLACK
6
CONTINUOUS
10
221.468
20
-31.855
11
221.468
21
-34.955
0
LINE
8
BLACK
6
CONTINUOUS
10
221.468
20
-34.955
11
221.45
21
-34.9974
0
LINE
8
BLACK
6
CONTINUOUS
10
221.45
20
-34.9974
11
221.407
21
-35.015
0
LINE
8
BLACK
6
CONTINUOUS
10
221.407
20
-35.015
11
217.807
21
-35.015
0
LINE
8
BLACK
6
CONTINUOUS
10
217.807
20
-35.015
11
217.765
21
-34.9974
0
LINE
8
BLACK
6
CONTINUOUS
10
217.765
20
-34.9974
11
217.748
21
-34.955
0
LINE
8
BLACK
6
CONTINUOUS
10
217.748
20
-34.955
11
217.748
21
-31.855
0
LINE
8
BLACK
6
CONTINUOUS
10
217.748
20
-31.855
11
217.765
21
-31.8126
0
LINE
8
BLACK
6
CONTINUOUS
10
217.765
20
-31.8126
11
217.807
21
-31.795
0
LINE
8
BLACK
6
CONTINUOUS
10
217.807
20
-31.795
11
221.407
21
-31.795
0
LINE
8
BLACK
6
CONTINUOUS
10
217.867
20
-31.915
11
217.867
21
-34.895
0
LINE
8
BLACK
6
CONTINUOUS
10
217.867
20
-34.895
11
221.347
21
-34.895
0
LINE
8
BLACK
6
CONTINUOUS
10
221.347
20
-34.895
11
221.347
21
-31.915
0
LINE
8
BLACK
6
CONTINUOUS
10
221.347
20
-31.915
11
217.867
21
-31.915
0
LINE
8
BLACK
6
CONTINUOUS
10
228.183
20
-19.6978
11
228.316
21
-19.7128
0
LINE
8
BLACK
6
CONTINUOUS
10
228.316
20
-19.7128
11
228.443
21
-19.7571
0
LINE
8
BLACK
6
CONTINUOUS
10
228.443
20
-19.7571
11
228.557
21
-19.8285
0
LINE
8
BLACK
6
CONTINUOUS
10
228.557
20
-19.8285
11
228.652
21
-19.9233
0
LINE
8
BLACK
6
CONTINUOUS
10
228.652
20
-19.9233
11
228.723
21
-20.0369
0
LINE
8
BLACK
6
CONTINUOUS
10
228.723
20
-20.0369
11
228.768
21
-20.1636
0
LINE
8
BLACK
6
CONTINUOUS
10
228.768
20
-20.1636
11
228.783
21
-20.2969
0
LINE
8
BLACK
6
CONTINUOUS
10
228.783
20
-20.2969
11
228.783
21
-20.2969
0
LINE
8
BLACK
6
CONTINUOUS
10
228.783
20
-20.2969
11
228.785
21
-21.5488
0
LINE
8
BLACK
6
CONTINUOUS
10
228.785
20
-21.5488
11
228.785
21
-21.5488
0
LINE
8
BLACK
6
CONTINUOUS
10
228.785
20
-21.5488
11
228.785
21
-21.6014
0
LINE
8
BLACK
6
CONTINUOUS
10
228.785
20
-21.6014
11
228.812
21
-21.703
0
LINE
8
BLACK
6
CONTINUOUS
10
228.812
20
-21.703
11
228.865
21
-21.7941
0
LINE
8
BLACK
6
CONTINUOUS
10
228.865
20
-21.7941
11
228.939
21
-21.8684
0
LINE
8
BLACK
6
CONTINUOUS
10
228.939
20
-21.8684
11
229.031
21
-21.921
0
LINE
8
BLACK
6
CONTINUOUS
10
229.031
20
-21.921
11
229.132
21
-21.9482
0
LINE
8
BLACK
6
CONTINUOUS
10
229.132
20
-21.9482
11
229.185
21
-21.9482
0
LINE
8
BLACK
6
CONTINUOUS
10
229.185
20
-21.9482
11
236.296
21
-21.9482
0
LINE
8
BLACK
6
CONTINUOUS
10
236.296
20
-21.9482
11
236.296
21
-21.9482
0
LINE
8
BLACK
6
CONTINUOUS
10
236.296
20
-21.9482
11
236.296
21
-21.9482
0
LINE
8
BLACK
6
CONTINUOUS
10
236.296
20
-21.9482
11
247.184
21
-21.9498
0
LINE
8
BLACK
6
CONTINUOUS
10
247.184
20
-21.9498
11
247.184
21
-21.9498
0
LINE
8
BLACK
6
CONTINUOUS
10
247.184
20
-21.9498
11
247.318
21
-21.9648
0
LINE
8
BLACK
6
CONTINUOUS
10
247.318
20
-21.9648
11
247.444
21
-22.0092
0
LINE
8
BLACK
6
CONTINUOUS
10
247.444
20
-22.0092
11
247.558
21
-22.0807
0
LINE
8
BLACK
6
CONTINUOUS
10
247.558
20
-22.0807
11
247.653
21
-22.1757
0
LINE
8
BLACK
6
CONTINUOUS
10
247.653
20
-22.1757
11
247.725
21
-22.2895
0
LINE
8
BLACK
6
CONTINUOUS
10
247.725
20
-22.2895
11
247.769
21
-22.4163
0
LINE
8
BLACK
6
CONTINUOUS
10
247.769
20
-22.4163
11
247.784
21
-22.5498
0
LINE
8
BLACK
6
CONTINUOUS
10
247.784
20
-22.5498
11
247.784
21
-26.298
0
LINE
8
BLACK
6
CONTINUOUS
10
247.784
20
-26.298
11
247.784
21
-26.298
0
LINE
8
BLACK
6
CONTINUOUS
10
247.784
20
-26.298
11
247.784
21
-26.3507
0
LINE
8
BLACK
6
CONTINUOUS
10
247.784
20
-26.3507
11
247.811
21
-26.4524
0
LINE
8
BLACK
6
CONTINUOUS
10
247.811
20
-26.4524
11
247.864
21
-26.5436
0
LINE
8
BLACK
6
CONTINUOUS
10
247.864
20
-26.5436
11
247.938
21
-26.6181
0
LINE
8
BLACK
6
CONTINUOUS
10
247.938
20
-26.6181
11
248.03
21
-26.6707
0
LINE
8
BLACK
6
CONTINUOUS
10
248.03
20
-26.6707
11
248.131
21
-26.698
0
LINE
8
BLACK
6
CONTINUOUS
10
248.131
20
-26.698
11
248.184
21
-26.698
0
LINE
8
BLACK
6
CONTINUOUS
10
248.184
20
-26.698
11
285.183
21
-26.6998
0
LINE
8
BLACK
6
CONTINUOUS
10
285.183
20
-26.6998
11
285.317
21
-26.7148
0
LINE
8
BLACK
6
CONTINUOUS
10
285.317
20
-26.7148
11
285.443
21
-26.7592
0
LINE
8
BLACK
6
CONTINUOUS
10
285.443
20
-26.7592
11
285.557
21
-26.8307
0
LINE
8
BLACK
6
CONTINUOUS
10
285.557
20
-26.8307
11
285.652
21
-26.9257
0
LINE
8
BLACK
6
CONTINUOUS
10
285.652
20
-26.9257
11
285.724
21
-27.0395
0
LINE
8
BLACK
6
CONTINUOUS
10
285.724
20
-27.0395
11
285.768
21
-27.1663
0
LINE
8
BLACK
6
CONTINUOUS
10
285.768
20
-27.1663
11
285.783
21
-27.2998
0
LINE
8
BLACK
6
CONTINUOUS
10
285.783
20
-27.2998
11
285.783
21
-27.2998
0
LINE
8
BLACK
6
CONTINUOUS
10
285.783
20
-27.2998
11
285.785
21
-82.5496
0
LINE
8
BLACK
6
CONTINUOUS
10
285.785
20
-82.5496
11
285.77
21
-82.6831
0
LINE
8
BLACK
6
CONTINUOUS
10
285.77
20
-82.6831
11
285.725
21
-82.8099
0
LINE
8
BLACK
6
CONTINUOUS
10
285.725
20
-82.8099
11
285.654
21
-82.9237
0
LINE
8
BLACK
6
CONTINUOUS
10
285.654
20
-82.9237
11
285.559
21
-83.0187
0
LINE
8
BLACK
6
CONTINUOUS
10
285.559
20
-83.0187
11
285.445
21
-83.0902
0
LINE
8
BLACK
6
CONTINUOUS
10
285.445
20
-83.0902
11
285.318
21
-83.1346
0
LINE
8
BLACK
6
CONTINUOUS
10
285.318
20
-83.1346
11
285.185
21
-83.1496
0
LINE
8
BLACK
6
CONTINUOUS
10
285.185
20
-83.1496
11
279.066
21
-83.1498
0
LINE
8
BLACK
6
CONTINUOUS
10
279.066
20
-83.1498
11
279.066
21
-83.1498
0
LINE
8
BLACK
6
CONTINUOUS
10
279.066
20
-83.1498
11
279.066
21
-83.1498
0
LINE
8
BLACK
6
CONTINUOUS
10
279.066
20
-83.1498
11
236.316
21
-83.1506
0
LINE
8
BLACK
6
CONTINUOUS
10
236.316
20
-83.1506
11
236.316
21
-83.1506
0
LINE
8
BLACK
6
CONTINUOUS
10
236.316
20
-83.1506
11
236.316
21
-83.1506
0
LINE
8
BLACK
6
CONTINUOUS
10
236.316
20
-83.1506
11
230.191
21
-83.1496
0
LINE
8
BLACK
6
CONTINUOUS
10
230.191
20
-83.1496
11
230.191
21
-83.1496
0
LINE
8
BLACK
6
CONTINUOUS
10
230.191
20
-83.1496
11
230.143
21
-83.1496
0
LINE
8
BLACK
6
CONTINUOUS
10
230.143
20
-83.1496
11
230.052
21
-83.1717
0
LINE
8
BLACK
6
CONTINUOUS
10
230.052
20
-83.1717
11
229.967
21
-83.2145
0
LINE
8
BLACK
6
CONTINUOUS
10
229.967
20
-83.2145
11
229.895
21
-83.2758
0
LINE
8
BLACK
6
CONTINUOUS
10
229.895
20
-83.2758
11
229.867
21
-83.3139
0
LINE
8
BLACK
6
CONTINUOUS
10
229.867
20
-83.3139
11
229.867
21
-83.3139
0
LINE
8
BLACK
6
CONTINUOUS
10
229.867
20
-83.3139
11
219.413
21
-97.6495
0
LINE
8
BLACK
6
CONTINUOUS
10
219.413
20
-97.6495
11
219.413
21
-97.6495
0
LINE
8
BLACK
6
CONTINUOUS
10
219.413
20
-97.6495
11
219.332
21
-97.7399
0
LINE
8
BLACK
6
CONTINUOUS
10
219.332
20
-97.7399
11
219.234
21
-97.8122
0
LINE
8
BLACK
6
CONTINUOUS
10
219.234
20
-97.8122
11
219.124
21
-97.8632
0
LINE
8
BLACK
6
CONTINUOUS
10
219.124
20
-97.8632
11
219.006
21
-97.891
0
LINE
8
BLACK
6
CONTINUOUS
10
219.006
20
-97.891
11
219.006
21
-97.891
0
LINE
8
BLACK
6
CONTINUOUS
10
219.006
20
-97.891
11
181.821
21
-102.728
0
LINE
8
BLACK
6
CONTINUOUS
10
181.821
20
-102.728
11
181.821
21
-102.728
0
LINE
8
BLACK
6
CONTINUOUS
10
181.821
20
-102.728
11
181.821
21
-102.728
0
LINE
8
BLACK
6
CONTINUOUS
10
181.821
20
-102.728
11
181.821
21
-102.728
0
LINE
8
BLACK
6
CONTINUOUS
10
181.821
20
-102.728
11
181.795
21
-102.731
0
LINE
8
BLACK
6
CONTINUOUS
10
181.795
20
-102.731
11
181.744
21
-102.745
0
LINE
8
BLACK
6
CONTINUOUS
10
181.744
20
-102.745
11
181.695
21
-102.765
0
LINE
8
BLACK
6
CONTINUOUS
10
181.695
20
-102.765
11
181.672
21
-102.778
0
LINE
8
BLACK
6
CONTINUOUS
10
181.672
20
-102.778
11
181.672
21
-102.778
0
LINE
8
BLACK
6
CONTINUOUS
10
181.672
20
-102.778
11
181.672
21
-102.778
0
LINE
8
BLACK
6
CONTINUOUS
10
181.672
20
-102.778
11
166.515
21
-111.538
0
LINE
8
BLACK
6
CONTINUOUS
10
166.515
20
-111.538
11
166.515
21
-111.538
0
LINE
8
BLACK
6
CONTINUOUS
10
166.515
20
-111.538
11
166.392
21
-111.591
0
LINE
8
BLACK
6
CONTINUOUS
10
166.392
20
-111.591
11
166.259
21
-111.616
0
LINE
8
BLACK
6
CONTINUOUS
10
166.259
20
-111.616
11
166.125
21
-111.611
0
LINE
8
BLACK
6
CONTINUOUS
10
166.125
20
-111.611
11
165.995
21
-111.577
0
LINE
8
BLACK
6
CONTINUOUS
10
165.995
20
-111.577
11
165.876
21
-111.514
0
LINE
8
BLACK
6
CONTINUOUS
10
165.876
20
-111.514
11
165.775
21
-111.426
0
LINE
8
BLACK
6
CONTINUOUS
10
165.775
20
-111.426
11
165.695
21
-111.318
0
LINE
8
BLACK
6
CONTINUOUS
10
165.695
20
-111.318
11
165.695
21
-111.318
0
LINE
8
BLACK
6
CONTINUOUS
10
165.695
20
-111.318
11
165.695
21
-111.318
0
LINE
8
BLACK
6
CONTINUOUS
10
165.695
20
-111.318
11
165.695
21
-111.318
0
LINE
8
BLACK
6
CONTINUOUS
10
165.695
20
-111.318
11
151.914
21
-87.4227
0
LINE
8
BLACK
6
CONTINUOUS
10
151.914
20
-87.4227
11
151.914
21
-87.4227
0
LINE
8
BLACK
6
CONTINUOUS
10
151.914
20
-87.4227
11
151.914
21
-87.4227
0
LINE
8
BLACK
6
CONTINUOUS
10
151.914
20
-87.4227
11
151.914
21
-87.4227
0
LINE
8
BLACK
6
CONTINUOUS
10
151.914
20
-87.4227
11
151.87
21
-87.328
0
LINE
8
BLACK
6
CONTINUOUS
10
151.87
20
-87.328
11
151.843
21
-87.2271
0
LINE
8
BLACK
6
CONTINUOUS
10
151.843
20
-87.2271
11
151.834
21
-87.1231
0
LINE
8
BLACK
6
CONTINUOUS
10
151.834
20
-87.1231
11
151.833
21
-87.123
0
LINE
8
BLACK
6
CONTINUOUS
10
151.833
20
-87.123
11
151.833
21
-27.298
0
LINE
8
BLACK
6
CONTINUOUS
10
151.833
20
-27.298
11
151.833
21
-27.298
0
LINE
8
BLACK
6
CONTINUOUS
10
151.833
20
-27.298
11
151.849
21
-27.1645
0
LINE
8
BLACK
6
CONTINUOUS
10
151.849
20
-27.1645
11
151.893
21
-27.0377
0
LINE
8
BLACK
6
CONTINUOUS
10
151.893
20
-27.0377
11
151.964
21
-26.9239
0
LINE
8
BLACK
6
CONTINUOUS
10
151.964
20
-26.9239
11
152.059
21
-26.8289
0
LINE
8
BLACK
6
CONTINUOUS
10
152.059
20
-26.8289
11
152.173
21
-26.7574
0
LINE
8
BLACK
6
CONTINUOUS
10
152.173
20
-26.7574
11
152.3
21
-26.713
0
LINE
8
BLACK
6
CONTINUOUS
10
152.3
20
-26.713
11
152.434
21
-26.698
0
LINE
8
BLACK
6
CONTINUOUS
10
152.434
20
-26.698
11
172.183
21
-26.6998
0
LINE
8
BLACK
6
CONTINUOUS
10
172.183
20
-26.6998
11
172.183
21
-26.6998
0
LINE
8
BLACK
6
CONTINUOUS
10
172.183
20
-26.6998
11
172.236
21
-26.6998
0
LINE
8
BLACK
6
CONTINUOUS
10
172.236
20
-26.6998
11
172.338
21
-26.6726
0
LINE
8
BLACK
6
CONTINUOUS
10
172.338
20
-26.6726
11
172.429
21
-26.6201
0
LINE
8
BLACK
6
CONTINUOUS
10
172.429
20
-26.6201
11
172.503
21
-26.5457
0
LINE
8
BLACK
6
CONTINUOUS
10
172.503
20
-26.5457
11
172.556
21
-26.4546
0
LINE
8
BLACK
6
CONTINUOUS
10
172.556
20
-26.4546
11
172.583
21
-26.353
0
LINE
8
BLACK
6
CONTINUOUS
10
172.583
20
-26.353
11
172.583
21
-26.3004
0
LINE
8
BLACK
6
CONTINUOUS
10
172.583
20
-26.3004
11
172.583
21
-26.3004
0
LINE
8
BLACK
6
CONTINUOUS
10
172.583
20
-26.3004
11
172.586
21
-25.0466
0
LINE
8
BLACK
6
CONTINUOUS
10
172.586
20
-25.0466
11
172.586
21
-25.0466
0
LINE
8
BLACK
6
CONTINUOUS
10
172.586
20
-25.0466
11
172.601
21
-24.9133
0
LINE
8
BLACK
6
CONTINUOUS
10
172.601
20
-24.9133
11
172.645
21
-24.7867
0
LINE
8
BLACK
6
CONTINUOUS
10
172.645
20
-24.7867
11
172.717
21
-24.6731
0
LINE
8
BLACK
6
CONTINUOUS
10
172.717
20
-24.6731
11
172.812
21
-24.5782
0
LINE
8
BLACK
6
CONTINUOUS
10
172.812
20
-24.5782
11
172.925
21
-24.5069
0
LINE
8
BLACK
6
CONTINUOUS
10
172.925
20
-24.5069
11
173.052
21
-24.4626
0
LINE
8
BLACK
6
CONTINUOUS
10
173.052
20
-24.4626
11
173.185
21
-24.4476
0
LINE
8
BLACK
6
CONTINUOUS
10
173.185
20
-24.4476
11
173.186
21
-24.4476
0
LINE
8
BLACK
6
CONTINUOUS
10
173.186
20
-24.4476
11
191.184
21
-24.4476
0
LINE
8
BLACK
6
CONTINUOUS
10
191.184
20
-24.4476
11
191.237
21
-24.4476
0
LINE
8
BLACK
6
CONTINUOUS
10
191.237
20
-24.4476
11
191.339
21
-24.4203
0
LINE
8
BLACK
6
CONTINUOUS
10
191.339
20
-24.4203
11
191.43
21
-24.3677
0
LINE
8
BLACK
6
CONTINUOUS
10
191.43
20
-24.3677
11
191.505
21
-24.2932
0
LINE
8
BLACK
6
CONTINUOUS
10
191.505
20
-24.2932
11
191.557
21
-24.202
0
LINE
8
BLACK
6
CONTINUOUS
10
191.557
20
-24.202
11
191.584
21
-24.1003
0
LINE
8
BLACK
6
CONTINUOUS
10
191.584
20
-24.1003
11
191.584
21
-24.0476
0
LINE
8
BLACK
6
CONTINUOUS
10
191.584
20
-24.0476
11
191.584
21
-22.5482
0
LINE
8
BLACK
6
CONTINUOUS
10
191.584
20
-22.5482
11
191.6
21
-22.4147
0
LINE
8
BLACK
6
CONTINUOUS
10
191.6
20
-22.4147
11
191.644
21
-22.2879
0
LINE
8
BLACK
6
CONTINUOUS
10
191.644
20
-22.2879
11
191.715
21
-22.1741
0
LINE
8
BLACK
6
CONTINUOUS
10
191.715
20
-22.1741
11
191.81
21
-22.0791
0
LINE
8
BLACK
6
CONTINUOUS
10
191.81
20
-22.0791
11
191.924
21
-22.0076
0
LINE
8
BLACK
6
CONTINUOUS
10
191.924
20
-22.0076
11
192.051
21
-21.9632
0
LINE
8
BLACK
6
CONTINUOUS
10
192.051
20
-21.9632
11
192.184
21
-21.9482
0
LINE
8
BLACK
6
CONTINUOUS
10
192.184
20
-21.9482
11
198.306
21
-21.9482
0
LINE
8
BLACK
6
CONTINUOUS
10
198.306
20
-21.9482
11
198.311
21
-21.9498
0
LINE
8
BLACK
6
CONTINUOUS
10
198.311
20
-21.9498
11
210.184
21
-21.9498
0
LINE
8
BLACK
6
CONTINUOUS
10
210.184
20
-21.9498
11
210.237
21
-21.9498
0
LINE
8
BLACK
6
CONTINUOUS
10
210.237
20
-21.9498
11
210.338
21
-21.9225
0
LINE
8
BLACK
6
CONTINUOUS
10
210.338
20
-21.9225
11
210.43
21
-21.8699
0
LINE
8
BLACK
6
CONTINUOUS
10
210.43
20
-21.8699
11
210.504
21
-21.7954
0
LINE
8
BLACK
6
CONTINUOUS
10
210.504
20
-21.7954
11
210.557
21
-21.7042
0
LINE
8
BLACK
6
CONTINUOUS
10
210.557
20
-21.7042
11
210.584
21
-21.6025
0
LINE
8
BLACK
6
CONTINUOUS
10
210.584
20
-21.6025
11
210.584
21
-21.5498
0
LINE
8
BLACK
6
CONTINUOUS
10
210.584
20
-21.5498
11
210.584
21
-20.2978
0
LINE
8
BLACK
6
CONTINUOUS
10
210.584
20
-20.2978
11
210.584
21
-20.2978
0
LINE
8
BLACK
6
CONTINUOUS
10
210.584
20
-20.2978
11
210.599
21
-20.1643
0
LINE
8
BLACK
6
CONTINUOUS
10
210.599
20
-20.1643
11
210.643
21
-20.0375
0
LINE
8
BLACK
6
CONTINUOUS
10
210.643
20
-20.0375
11
210.715
21
-19.9237
0
LINE
8
BLACK
6
CONTINUOUS
10
210.715
20
-19.9237
11
210.81
21
-19.8287
0
LINE
8
BLACK
6
CONTINUOUS
10
210.81
20
-19.8287
11
210.924
21
-19.7572
0
LINE
8
BLACK
6
CONTINUOUS
10
210.924
20
-19.7572
11
211.05
21
-19.7128
0
LINE
8
BLACK
6
CONTINUOUS
10
211.05
20
-19.7128
11
211.184
21
-19.6978
0
LINE
8
BLACK
6
CONTINUOUS
10
211.184
20
-19.6978
11
228.183
21
-19.6978
0
LINE
8
BLACK
6
CONTINUOUS
10
228.183
20
-19.8978
11
228.183
21
-19.8978
0
LINE
8
BLACK
6
CONTINUOUS
10
228.183
20
-19.8978
11
228.183
21
-19.8978
0
LINE
8
BLACK
6
CONTINUOUS
10
228.183
20
-19.8978
11
211.184
21
-19.8978
0
LINE
8
BLACK
6
CONTINUOUS
10
211.184
20
-19.8978
11
211.131
21
-19.8978
0
LINE
8
BLACK
6
CONTINUOUS
10
211.131
20
-19.8978
11
211.03
21
-19.9251
0
LINE
8
BLACK
6
CONTINUOUS
10
211.03
20
-19.9251
11
210.938
21
-19.9777
0
LINE
8
BLACK
6
CONTINUOUS
10
210.938
20
-19.9777
11
210.864
21
-20.0522
0
LINE
8
BLACK
6
CONTINUOUS
10
210.864
20
-20.0522
11
210.811
21
-20.1434
0
LINE
8
BLACK
6
CONTINUOUS
10
210.811
20
-20.1434
11
210.784
21
-20.2451
0
LINE
8
BLACK
6
CONTINUOUS
10
210.784
20
-20.2451
11
210.784
21
-20.2978
0
LINE
8
BLACK
6
CONTINUOUS
10
210.784
20
-20.2978
11
210.784
21
-20.2978
0
LINE
8
BLACK
6
CONTINUOUS
10
210.784
20
-20.2978
11
210.784
21
-21.5498
0
LINE
8
BLACK
6
CONTINUOUS
10
210.784
20
-21.5498
11
210.769
21
-21.6833
0
LINE
8
BLACK
6
CONTINUOUS
10
210.769
20
-21.6833
11
210.724
21
-21.8101
0
LINE
8
BLACK
6
CONTINUOUS
10
210.724
20
-21.8101
11
210.653
21
-21.9239
0
LINE
8
BLACK
6
CONTINUOUS
10
210.653
20
-21.9239
11
210.558
21
-22.0189
0
LINE
8
BLACK
6
CONTINUOUS
10
210.558
20
-22.0189
11
210.444
21
-22.0904
0
LINE
8
BLACK
6
CONTINUOUS
10
210.444
20
-22.0904
11
210.317
21
-22.1348
0
LINE
8
BLACK
6
CONTINUOUS
10
210.317
20
-22.1348
11
210.184
21
-22.1498
0
LINE
8
BLACK
6
CONTINUOUS
10
210.184
20
-22.1498
11
198.306
21
-22.1498
0
LINE
8
BLACK
6
CONTINUOUS
10
198.306
20
-22.1498
11
198.301
21
-22.1482
0
LINE
8
BLACK
6
CONTINUOUS
10
198.301
20
-22.1482
11
192.184
21
-22.1482
0
LINE
8
BLACK
6
CONTINUOUS
10
192.184
20
-22.1482
11
192.132
21
-22.1482
0
LINE
8
BLACK
6
CONTINUOUS
10
192.132
20
-22.1482
11
192.03
21
-22.1755
0
LINE
8
BLACK
6
CONTINUOUS
10
192.03
20
-22.1755
11
191.939
21
-22.2281
0
LINE
8
BLACK
6
CONTINUOUS
10
191.939
20
-22.2281
11
191.864
21
-22.3026
0
LINE
8
BLACK
6
CONTINUOUS
10
191.864
20
-22.3026
11
191.812
21
-22.3938
0
LINE
8
BLACK
6
CONTINUOUS
10
191.812
20
-22.3938
11
191.784
21
-22.4955
0
LINE
8
BLACK
6
CONTINUOUS
10
191.784
20
-22.4955
11
191.784
21
-22.5482
0
LINE
8
BLACK
6
CONTINUOUS
10
191.784
20
-22.5482
11
191.784
21
-22.5482
0
LINE
8
BLACK
6
CONTINUOUS
10
191.784
20
-22.5482
11
191.784
21
-24.0476
0
LINE
8
BLACK
6
CONTINUOUS
10
191.784
20
-24.0476
11
191.784
21
-24.0476
0
LINE
8
BLACK
6
CONTINUOUS
10
191.784
20
-24.0476
11
191.769
21
-24.1811
0
LINE
8
BLACK
6
CONTINUOUS
10
191.769
20
-24.1811
11
191.725
21
-24.3079
0
LINE
8
BLACK
6
CONTINUOUS
10
191.725
20
-24.3079
11
191.654
21
-24.4217
0
LINE
8
BLACK
6
CONTINUOUS
10
191.654
20
-24.4217
11
191.559
21
-24.5167
0
LINE
8
BLACK
6
CONTINUOUS
10
191.559
20
-24.5167
11
191.445
21
-24.5882
0
LINE
8
BLACK
6
CONTINUOUS
10
191.445
20
-24.5882
11
191.318
21
-24.6326
0
LINE
8
BLACK
6
CONTINUOUS
10
191.318
20
-24.6326
11
191.184
21
-24.6476
0
LINE
8
BLACK
6
CONTINUOUS
10
191.184
20
-24.6476
11
173.186
21
-24.6476
0
LINE
8
BLACK
6
CONTINUOUS
10
173.186
20
-24.6476
11
173.186
21
-24.6476
0
LINE
8
BLACK
6
CONTINUOUS
10
173.186
20
-24.6476
11
173.133
21
-24.6476
0
LINE
8
BLACK
6
CONTINUOUS
10
173.133
20
-24.6476
11
173.031
21
-24.6748
0
LINE
8
BLACK
6
CONTINUOUS
10
173.031
20
-24.6748
11
172.94
21
-24.7274
0
LINE
8
BLACK
6
CONTINUOUS
10
172.94
20
-24.7274
11
172.866
21
-24.8017
0
LINE
8
BLACK
6
CONTINUOUS
10
172.866
20
-24.8017
11
172.813
21
-24.8928
0
LINE
8
BLACK
6
CONTINUOUS
10
172.813
20
-24.8928
11
172.786
21
-24.9944
0
LINE
8
BLACK
6
CONTINUOUS
10
172.786
20
-24.9944
11
172.786
21
-25.047
0
LINE
8
BLACK
6
CONTINUOUS
10
172.786
20
-25.047
11
172.786
21
-25.047
0
LINE
8
BLACK
6
CONTINUOUS
10
172.786
20
-25.047
11
172.783
21
-26.3008
0
LINE
8
BLACK
6
CONTINUOUS
10
172.783
20
-26.3008
11
172.783
21
-26.3008
0
LINE
8
BLACK
6
CONTINUOUS
10
172.783
20
-26.3008
11
172.768
21
-26.4341
0
LINE
8
BLACK
6
CONTINUOUS
10
172.768
20
-26.4341
11
172.724
21
-26.5608
0
LINE
8
BLACK
6
CONTINUOUS
10
172.724
20
-26.5608
11
172.652
21
-26.6743
0
LINE
8
BLACK
6
CONTINUOUS
10
172.652
20
-26.6743
11
172.557
21
-26.7692
0
LINE
8
BLACK
6
CONTINUOUS
10
172.557
20
-26.7692
11
172.444
21
-26.8405
0
LINE
8
BLACK
6
CONTINUOUS
10
172.444
20
-26.8405
11
172.317
21
-26.8848
0
LINE
8
BLACK
6
CONTINUOUS
10
172.317
20
-26.8848
11
172.183
21
-26.8998
0
LINE
8
BLACK
6
CONTINUOUS
10
172.183
20
-26.8998
11
172.183
21
-26.8998
0
LINE
8
BLACK
6
CONTINUOUS
10
172.183
20
-26.8998
11
152.434
21
-26.898
0
LINE
8
BLACK
6
CONTINUOUS
10
152.434
20
-26.898
11
152.381
21
-26.898
0
LINE
8
BLACK
6
CONTINUOUS
10
152.381
20
-26.898
11
152.279
21
-26.9252
0
LINE
8
BLACK
6
CONTINUOUS
10
152.279
20
-26.9252
11
152.188
21
-26.9779
0
LINE
8
BLACK
6
CONTINUOUS
10
152.188
20
-26.9779
11
152.113
21
-27.0524
0
LINE
8
BLACK
6
CONTINUOUS
10
152.113
20
-27.0524
11
152.061
21
-27.1436
0
LINE
8
BLACK
6
CONTINUOUS
10
152.061
20
-27.1436
11
152.034
21
-27.2453
0
LINE
8
BLACK
6
CONTINUOUS
10
152.034
20
-27.2453
11
152.034
21
-27.298
0
LINE
8
BLACK
6
CONTINUOUS
10
152.034
20
-27.298
11
152.034
21
-87.123
0
LINE
8
BLACK
6
CONTINUOUS
10
152.034
20
-87.123
11
152.033
21
-87.123
0
LINE
8
BLACK
6
CONTINUOUS
10
152.033
20
-87.123
11
152.034
21
-87.123
0
LINE
8
BLACK
6
CONTINUOUS
10
152.034
20
-87.123
11
152.034
21
-87.123
0
LINE
8
BLACK
6
CONTINUOUS
10
152.034
20
-87.123
11
152.034
21
-87.158
0
LINE
8
BLACK
6
CONTINUOUS
10
152.034
20
-87.158
11
152.046
21
-87.2268
0
LINE
8
BLACK
6
CONTINUOUS
10
152.046
20
-87.2268
11
152.07
21
-87.2925
0
LINE
8
BLACK
6
CONTINUOUS
10
152.07
20
-87.2925
11
152.087
21
-87.3228
0
LINE
8
BLACK
6
CONTINUOUS
10
152.087
20
-87.3228
11
152.087
21
-87.3228
0
LINE
8
BLACK
6
CONTINUOUS
10
152.087
20
-87.3228
11
165.868
21
-111.218
0
LINE
8
BLACK
6
CONTINUOUS
10
165.868
20
-111.218
11
165.868
21
-111.218
0
LINE
8
BLACK
6
CONTINUOUS
10
165.868
20
-111.218
11
165.894
21
-111.264
0
LINE
8
BLACK
6
CONTINUOUS
10
165.894
20
-111.264
11
165.969
21
-111.338
0
LINE
8
BLACK
6
CONTINUOUS
10
165.969
20
-111.338
11
166.06
21
-111.391
0
LINE
8
BLACK
6
CONTINUOUS
10
166.06
20
-111.391
11
166.162
21
-111.418
0
LINE
8
BLACK
6
CONTINUOUS
10
166.162
20
-111.418
11
166.267
21
-111.418
0
LINE
8
BLACK
6
CONTINUOUS
10
166.267
20
-111.418
11
166.369
21
-111.391
0
LINE
8
BLACK
6
CONTINUOUS
10
166.369
20
-111.391
11
166.415
21
-111.364
0
LINE
8
BLACK
6
CONTINUOUS
10
166.415
20
-111.364
11
166.415
21
-111.364
0
LINE
8
BLACK
6
CONTINUOUS
10
166.415
20
-111.364
11
166.415
21
-111.364
0
LINE
8
BLACK
6
CONTINUOUS
10
166.415
20
-111.364
11
181.572
21
-102.605
0
LINE
8
BLACK
6
CONTINUOUS
10
181.572
20
-102.605
11
181.572
21
-102.605
0
LINE
8
BLACK
6
CONTINUOUS
10
181.572
20
-102.605
11
181.643
21
-102.57
0
LINE
8
BLACK
6
CONTINUOUS
10
181.643
20
-102.57
11
181.718
21
-102.545
0
LINE
8
BLACK
6
CONTINUOUS
10
181.718
20
-102.545
11
181.795
21
-102.529
0
LINE
8
BLACK
6
CONTINUOUS
10
181.795
20
-102.529
11
181.795
21
-102.529
0
LINE
8
BLACK
6
CONTINUOUS
10
181.795
20
-102.529
11
218.98
21
-97.6927
0
LINE
8
BLACK
6
CONTINUOUS
10
218.98
20
-97.6927
11
218.98
21
-97.6927
0
LINE
8
BLACK
6
CONTINUOUS
10
218.98
20
-97.6927
11
218.98
21
-97.6927
0
LINE
8
BLACK
6
CONTINUOUS
10
218.98
20
-97.6927
11
218.98
21
-97.6926
0
LINE
8
BLACK
6
CONTINUOUS
10
218.98
20
-97.6926
11
219.02
21
-97.6874
0
LINE
8
BLACK
6
CONTINUOUS
10
219.02
20
-97.6874
11
219.097
21
-97.6609
0
LINE
8
BLACK
6
CONTINUOUS
10
219.097
20
-97.6609
11
219.167
21
-97.6193
0
LINE
8
BLACK
6
CONTINUOUS
10
219.167
20
-97.6193
11
219.228
21
-97.5646
0
LINE
8
BLACK
6
CONTINUOUS
10
219.228
20
-97.5646
11
219.252
21
-97.5317
0
LINE
8
BLACK
6
CONTINUOUS
10
219.252
20
-97.5317
11
219.252
21
-97.5317
0
LINE
8
BLACK
6
CONTINUOUS
10
219.252
20
-97.5317
11
219.252
21
-97.5317
0
LINE
8
BLACK
6
CONTINUOUS
10
219.252
20
-97.5317
11
219.252
21
-97.5317
0
LINE
8
BLACK
6
CONTINUOUS
10
219.252
20
-97.5317
11
229.706
21
-83.1961
0
LINE
8
BLACK
6
CONTINUOUS
10
229.706
20
-83.1961
11
229.706
21
-83.1961
0
LINE
8
BLACK
6
CONTINUOUS
10
229.706
20
-83.1961
11
229.706
21
-83.1961
0
LINE
8
BLACK
6
CONTINUOUS
10
229.706
20
-83.1961
11
229.781
21
-83.1116
0
LINE
8
BLACK
6
CONTINUOUS
10
229.781
20
-83.1116
11
229.87
21
-83.0426
0
LINE
8
BLACK
6
CONTINUOUS
10
229.87
20
-83.0426
11
229.97
21
-82.9916
0
LINE
8
BLACK
6
CONTINUOUS
10
229.97
20
-82.9916
11
230.078
21
-82.9602
0
LINE
8
BLACK
6
CONTINUOUS
10
230.078
20
-82.9602
11
230.191
21
-82.9496
0
LINE
8
BLACK
6
CONTINUOUS
10
230.191
20
-82.9496
11
230.191
21
-82.9496
0
LINE
8
BLACK
6
CONTINUOUS
10
230.191
20
-82.9496
11
230.191
21
-82.9496
0
LINE
8
BLACK
6
CONTINUOUS
10
230.191
20
-82.9496
11
230.191
21
-82.9496
0
LINE
8
BLACK
6
CONTINUOUS
10
230.191
20
-82.9496
11
236.316
21
-82.9506
0
LINE
8
BLACK
6
CONTINUOUS
10
236.316
20
-82.9506
11
279.066
21
-82.9498
0
LINE
8
BLACK
6
CONTINUOUS
10
279.066
20
-82.9498
11
279.066
21
-82.9498
0
LINE
8
BLACK
6
CONTINUOUS
10
279.066
20
-82.9498
11
285.185
21
-82.9496
0
LINE
8
BLACK
6
CONTINUOUS
10
285.185
20
-82.9496
11
285.238
21
-82.9496
0
LINE
8
BLACK
6
CONTINUOUS
10
285.238
20
-82.9496
11
285.339
21
-82.9223
0
LINE
8
BLACK
6
CONTINUOUS
10
285.339
20
-82.9223
11
285.431
21
-82.8697
0
LINE
8
BLACK
6
CONTINUOUS
10
285.431
20
-82.8697
11
285.505
21
-82.7952
0
LINE
8
BLACK
6
CONTINUOUS
10
285.505
20
-82.7952
11
285.558
21
-82.704
0
LINE
8
BLACK
6
CONTINUOUS
10
285.558
20
-82.704
11
285.585
21
-82.6022
0
LINE
8
BLACK
6
CONTINUOUS
10
285.585
20
-82.6022
11
285.585
21
-82.5496
0
LINE
8
BLACK
6
CONTINUOUS
10
285.585
20
-82.5496
11
285.585
21
-82.5496
0
LINE
8
BLACK
6
CONTINUOUS
10
285.585
20
-82.5496
11
285.583
21
-27.2998
0
LINE
8
BLACK
6
CONTINUOUS
10
285.583
20
-27.2998
11
285.583
21
-27.2471
0
LINE
8
BLACK
6
CONTINUOUS
10
285.583
20
-27.2471
11
285.556
21
-27.1454
0
LINE
8
BLACK
6
CONTINUOUS
10
285.556
20
-27.1454
11
285.503
21
-27.0542
0
LINE
8
BLACK
6
CONTINUOUS
10
285.503
20
-27.0542
11
285.429
21
-26.9797
0
LINE
8
BLACK
6
CONTINUOUS
10
285.429
20
-26.9797
11
285.338
21
-26.9271
0
LINE
8
BLACK
6
CONTINUOUS
10
285.338
20
-26.9271
11
285.236
21
-26.8998
0
LINE
8
BLACK
6
CONTINUOUS
10
285.236
20
-26.8998
11
285.183
21
-26.8998
0
LINE
8
BLACK
6
CONTINUOUS
10
285.183
20
-26.8998
11
248.184
21
-26.898
0
LINE
8
BLACK
6
CONTINUOUS
10
248.184
20
-26.898
11
248.05
21
-26.883
0
LINE
8
BLACK
6
CONTINUOUS
10
248.05
20
-26.883
11
247.924
21
-26.8386
0
LINE
8
BLACK
6
CONTINUOUS
10
247.924
20
-26.8386
11
247.81
21
-26.7671
0
LINE
8
BLACK
6
CONTINUOUS
10
247.81
20
-26.7671
11
247.715
21
-26.6721
0
LINE
8
BLACK
6
CONTINUOUS
10
247.715
20
-26.6721
11
247.643
21
-26.5583
0
LINE
8
BLACK
6
CONTINUOUS
10
247.643
20
-26.5583
11
247.599
21
-26.4315
0
LINE
8
BLACK
6
CONTINUOUS
10
247.599
20
-26.4315
11
247.584
21
-26.298
0
LINE
8
BLACK
6
CONTINUOUS
10
247.584
20
-26.298
11
247.584
21
-26.298
0
LINE
8
BLACK
6
CONTINUOUS
10
247.584
20
-26.298
11
247.584
21
-22.5498
0
LINE
8
BLACK
6
CONTINUOUS
10
247.584
20
-22.5498
11
247.584
21
-22.4971
0
LINE
8
BLACK
6
CONTINUOUS
10
247.584
20
-22.4971
11
247.557
21
-22.3954
0
LINE
8
BLACK
6
CONTINUOUS
10
247.557
20
-22.3954
11
247.504
21
-22.3042
0
LINE
8
BLACK
6
CONTINUOUS
10
247.504
20
-22.3042
11
247.43
21
-22.2297
0
LINE
8
BLACK
6
CONTINUOUS
10
247.43
20
-22.2297
11
247.338
21
-22.1771
0
LINE
8
BLACK
6
CONTINUOUS
10
247.338
20
-22.1771
11
247.237
21
-22.1498
0
LINE
8
BLACK
6
CONTINUOUS
10
247.237
20
-22.1498
11
247.184
21
-22.1498
0
LINE
8
BLACK
6
CONTINUOUS
10
247.184
20
-22.1498
11
247.184
21
-22.1498
0
LINE
8
BLACK
6
CONTINUOUS
10
247.184
20
-22.1498
11
247.184
21
-22.1498
0
LINE
8
BLACK
6
CONTINUOUS
10
247.184
20
-22.1498
11
236.296
21
-22.1482
0
LINE
8
BLACK
6
CONTINUOUS
10
236.296
20
-22.1482
11
229.185
21
-22.1482
0
LINE
8
BLACK
6
CONTINUOUS
10
229.185
20
-22.1482
11
229.051
21
-22.1332
0
LINE
8
BLACK
6
CONTINUOUS
10
229.051
20
-22.1332
11
228.925
21
-22.0889
0
LINE
8
BLACK
6
CONTINUOUS
10
228.925
20
-22.0889
11
228.811
21
-22.0175
0
LINE
8
BLACK
6
CONTINUOUS
10
228.811
20
-22.0175
11
228.716
21
-21.9227
0
LINE
8
BLACK
6
CONTINUOUS
10
228.716
20
-21.9227
11
228.644
21
-21.8091
0
LINE
8
BLACK
6
CONTINUOUS
10
228.644
20
-21.8091
11
228.6
21
-21.6824
0
LINE
8
BLACK
6
CONTINUOUS
10
228.6
20
-21.6824
11
228.585
21
-21.5491
0
LINE
8
BLACK
6
CONTINUOUS
10
228.585
20
-21.5491
11
228.585
21
-21.5491
0
LINE
8
BLACK
6
CONTINUOUS
10
228.585
20
-21.5491
11
228.583
21
-20.2972
0
LINE
8
BLACK
6
CONTINUOUS
10
228.583
20
-20.2972
11
228.583
21
-20.2972
0
LINE
8
BLACK
6
CONTINUOUS
10
228.583
20
-20.2972
11
228.583
21
-20.2446
0
LINE
8
BLACK
6
CONTINUOUS
10
228.583
20
-20.2446
11
228.556
21
-20.143
0
LINE
8
BLACK
6
CONTINUOUS
10
228.556
20
-20.143
11
228.503
21
-20.0519
0
LINE
8
BLACK
6
CONTINUOUS
10
228.503
20
-20.0519
11
228.428
21
-19.9776
0
LINE
8
BLACK
6
CONTINUOUS
10
228.428
20
-19.9776
11
228.337
21
-19.925
0
LINE
8
BLACK
6
CONTINUOUS
10
228.337
20
-19.925
11
228.236
21
-19.8978
0
LINE
8
BLACK
6
CONTINUOUS
10
228.236
20
-19.8978
11
228.183
21
-19.8978
0
LINE
8
BLACK
6
CONTINUOUS
10
133.559
20
-95.1442
11
136.243
21
-96.6942
0
LINE
8
BLACK
6
CONTINUOUS
10
136.243
20
-96.6942
11
136.271
21
-96.7306
0
LINE
8
BLACK
6
CONTINUOUS
10
136.271
20
-96.7306
11
136.271
21
-96.7306
0
LINE
8
BLACK
6
CONTINUOUS
10
136.271
20
-96.7306
11
136.265
21
-96.7762
0
LINE
8
BLACK
6
CONTINUOUS
10
136.265
20
-96.7762
11
134.465
21
-99.8938
0
LINE
8
BLACK
6
CONTINUOUS
10
134.465
20
-99.8938
11
134.429
21
-99.9218
0
LINE
8
BLACK
6
CONTINUOUS
10
134.429
20
-99.9218
11
134.383
21
-99.9158
0
LINE
8
BLACK
6
CONTINUOUS
10
134.383
20
-99.9158
11
134.383
21
-99.9158
0
LINE
8
BLACK
6
CONTINUOUS
10
134.383
20
-99.9158
11
131.699
21
-98.3658
0
LINE
8
BLACK
6
CONTINUOUS
10
131.699
20
-98.3658
11
131.671
21
-98.3294
0
LINE
8
BLACK
6
CONTINUOUS
10
131.671
20
-98.3294
11
131.677
21
-98.2838
0
LINE
8
BLACK
6
CONTINUOUS
10
131.677
20
-98.2838
11
131.677
21
-98.2838
0
LINE
8
BLACK
6
CONTINUOUS
10
131.677
20
-98.2838
11
133.477
21
-95.1662
0
LINE
8
BLACK
6
CONTINUOUS
10
133.477
20
-95.1662
11
133.513
21
-95.1382
0
LINE
8
BLACK
6
CONTINUOUS
10
133.513
20
-95.1382
11
133.559
21
-95.1442
0
LINE
8
BLACK
6
CONTINUOUS
10
131.811
20
-98.2919
11
134.391
21
-99.7819
0
LINE
8
BLACK
6
CONTINUOUS
10
134.391
20
-99.7819
11
136.131
21
-96.7681
0
LINE
8
BLACK
6
CONTINUOUS
10
136.131
20
-96.7681
11
133.551
21
-95.2781
0
LINE
8
BLACK
6
CONTINUOUS
10
133.551
20
-95.2781
11
131.811
21
-98.2919
0
LINE
8
BLACK
6
CONTINUOUS
10
108.533
20
-94.9039
11
108.57
21
-94.9318
0
LINE
8
BLACK
6
CONTINUOUS
10
108.57
20
-94.9318
11
108.576
21
-94.9774
0
LINE
8
BLACK
6
CONTINUOUS
10
108.576
20
-94.9774
11
107.774
21
-97.9717
0
LINE
8
BLACK
6
CONTINUOUS
10
107.774
20
-97.9717
11
107.746
21
-98.0082
0
LINE
8
BLACK
6
CONTINUOUS
10
107.746
20
-98.0082
11
107.7
21
-98.0142
0
LINE
8
BLACK
6
CONTINUOUS
10
107.7
20
-98.0142
11
104.223
21
-97.0824
0
LINE
8
BLACK
6
CONTINUOUS
10
104.223
20
-97.0824
11
104.186
21
-97.0545
0
LINE
8
BLACK
6
CONTINUOUS
10
104.186
20
-97.0545
11
104.18
21
-97.0089
0
LINE
8
BLACK
6
CONTINUOUS
10
104.18
20
-97.0089
11
104.983
21
-94.0146
0
LINE
8
BLACK
6
CONTINUOUS
10
104.983
20
-94.0146
11
105.011
21
-93.9781
0
LINE
8
BLACK
6
CONTINUOUS
10
105.011
20
-93.9781
11
105.056
21
-93.9721
0
LINE
8
BLACK
6
CONTINUOUS
10
105.056
20
-93.9721
11
108.533
21
-94.9039
0
LINE
8
BLACK
6
CONTINUOUS
10
104.312
20
-96.982
11
107.673
21
-97.8827
0
LINE
8
BLACK
6
CONTINUOUS
10
107.673
20
-97.8827
11
108.444
21
-95.0043
0
LINE
8
BLACK
6
CONTINUOUS
10
108.444
20
-95.0043
11
105.083
21
-94.1036
0
LINE
8
BLACK
6
CONTINUOUS
10
105.083
20
-94.1036
11
104.312
21
-96.982
0
LINE
8
BLACK
6
CONTINUOUS
10
88.4075
20
-91.795
11
88.4499
21
-91.8126
0
LINE
8
BLACK
6
CONTINUOUS
10
88.4499
20
-91.8126
11
88.4675
21
-91.855
0
LINE
8
BLACK
6
CONTINUOUS
10
88.4675
20
-91.855
11
88.4675
21
-94.955
0
LINE
8
BLACK
6
CONTINUOUS
10
88.4675
20
-94.955
11
88.4499
21
-94.9974
0
LINE
8
BLACK
6
CONTINUOUS
10
88.4499
20
-94.9974
11
88.4075
21
-95.015
0
LINE
8
BLACK
6
CONTINUOUS
10
88.4075
20
-95.015
11
84.8075
21
-95.015
0
LINE
8
BLACK
6
CONTINUOUS
10
84.8075
20
-95.015
11
84.7651
21
-94.9974
0
LINE
8
BLACK
6
CONTINUOUS
10
84.7651
20
-94.9974
11
84.7475
21
-94.955
0
LINE
8
BLACK
6
CONTINUOUS
10
84.7475
20
-94.955
11
84.7475
21
-94.955
0
LINE
8
BLACK
6
CONTINUOUS
10
84.7475
20
-94.955
11
84.7475
21
-91.855
0
LINE
8
BLACK
6
CONTINUOUS
10
84.7475
20
-91.855
11
84.7651
21
-91.8126
0
LINE
8
BLACK
6
CONTINUOUS
10
84.7651
20
-91.8126
11
84.8075
21
-91.795
0
LINE
8
BLACK
6
CONTINUOUS
10
84.8075
20
-91.795
11
88.4075
21
-91.795
0
LINE
8
BLACK
6
CONTINUOUS
10
84.8675
20
-91.915
11
84.8675
21
-94.895
0
LINE
8
BLACK
6
CONTINUOUS
10
84.8675
20
-94.895
11
88.3475
21
-94.895
0
LINE
8
BLACK
6
CONTINUOUS
10
88.3475
20
-94.895
11
88.3475
21
-91.915
0
LINE
8
BLACK
6
CONTINUOUS
10
88.3475
20
-91.915
11
84.8675
21
-91.915
0
LINE
8
BLACK
6
CONTINUOUS
10
119.654
20
-86.8002
11
119.942
21
-86.8576
0
LINE
8
BLACK
6
CONTINUOUS
10
119.942
20
-86.8576
11
120.221
21
-86.9522
0
LINE
8
BLACK
6
CONTINUOUS
10
120.221
20
-86.9522
11
120.485
21
-87.0824
0
LINE
8
BLACK
6
CONTINUOUS
10
120.485
20
-87.0824
11
120.73
21
-87.2459
0
LINE
8
BLACK
6
CONTINUOUS
10
120.73
20
-87.2459
11
120.951
21
-87.4399
0
LINE
8
BLACK
6
CONTINUOUS
10
120.951
20
-87.4399
11
121.145
21
-87.6612
0
LINE
8
BLACK
6
CONTINUOUS
10
121.145
20
-87.6612
11
121.308
21
-87.9059
0
LINE
8
BLACK
6
CONTINUOUS
10
121.308
20
-87.9059
11
121.439
21
-88.1699
0
LINE
8
BLACK
6
CONTINUOUS
10
121.439
20
-88.1699
11
121.533
21
-88.4486
0
LINE
8
BLACK
6
CONTINUOUS
10
121.533
20
-88.4486
11
121.591
21
-88.7372
0
LINE
8
BLACK
6
CONTINUOUS
10
121.591
20
-88.7372
11
121.61
21
-89.0309
0
LINE
8
BLACK
6
CONTINUOUS
10
121.61
20
-89.0309
11
121.591
21
-89.3246
0
LINE
8
BLACK
6
CONTINUOUS
10
121.591
20
-89.3246
11
121.533
21
-89.6133
0
LINE
8
BLACK
6
CONTINUOUS
10
121.533
20
-89.6133
11
121.439
21
-89.892
0
LINE
8
BLACK
6
CONTINUOUS
10
121.439
20
-89.892
11
121.308
21
-90.1559
0
LINE
8
BLACK
6
CONTINUOUS
10
121.308
20
-90.1559
11
121.145
21
-90.4006
0
LINE
8
BLACK
6
CONTINUOUS
10
121.145
20
-90.4006
11
120.951
21
-90.6219
0
LINE
8
BLACK
6
CONTINUOUS
10
120.951
20
-90.6219
11
120.73
21
-90.816
0
LINE
8
BLACK
6
CONTINUOUS
10
120.73
20
-90.816
11
120.485
21
-90.9795
0
LINE
8
BLACK
6
CONTINUOUS
10
120.485
20
-90.9795
11
120.221
21
-91.1096
0
LINE
8
BLACK
6
CONTINUOUS
10
120.221
20
-91.1096
11
119.942
21
-91.2042
0
LINE
8
BLACK
6
CONTINUOUS
10
119.942
20
-91.2042
11
119.654
21
-91.2617
0
LINE
8
BLACK
6
CONTINUOUS
10
119.654
20
-91.2617
11
119.36
21
-91.2809
0
LINE
8
BLACK
6
CONTINUOUS
10
119.36
20
-91.2809
11
119.066
21
-91.2617
0
LINE
8
BLACK
6
CONTINUOUS
10
119.066
20
-91.2617
11
118.778
21
-91.2042
0
LINE
8
BLACK
6
CONTINUOUS
10
118.778
20
-91.2042
11
118.499
21
-91.1096
0
LINE
8
BLACK
6
CONTINUOUS
10
118.499
20
-91.1096
11
118.235
21
-90.9795
0
LINE
8
BLACK
6
CONTINUOUS
10
118.235
20
-90.9795
11
117.99
21
-90.816
0
LINE
8
BLACK
6
CONTINUOUS
10
117.99
20
-90.816
11
117.769
21
-90.6219
0
LINE
8
BLACK
6
CONTINUOUS
10
117.769
20
-90.6219
11
117.575
21
-90.4006
0
LINE
8
BLACK
6
CONTINUOUS
10
117.575
20
-90.4006
11
117.411
21
-90.1559
0
LINE
8
BLACK
6
CONTINUOUS
10
117.411
20
-90.1559
11
117.281
21
-89.892
0
LINE
8
BLACK
6
CONTINUOUS
10
117.281
20
-89.892
11
117.187
21
-89.6133
0
LINE
8
BLACK
6
CONTINUOUS
10
117.187
20
-89.6133
11
117.129
21
-89.3246
0
LINE
8
BLACK
6
CONTINUOUS
10
117.129
20
-89.3246
11
117.11
21
-89.0309
0
LINE
8
BLACK
6
CONTINUOUS
10
117.11
20
-89.0309
11
117.129
21
-88.7372
0
LINE
8
BLACK
6
CONTINUOUS
10
117.129
20
-88.7372
11
117.187
21
-88.4486
0
LINE
8
BLACK
6
CONTINUOUS
10
117.187
20
-88.4486
11
117.281
21
-88.1699
0
LINE
8
BLACK
6
CONTINUOUS
10
117.281
20
-88.1699
11
117.411
21
-87.9059
0
LINE
8
BLACK
6
CONTINUOUS
10
117.411
20
-87.9059
11
117.575
21
-87.6612
0
LINE
8
BLACK
6
CONTINUOUS
10
117.575
20
-87.6612
11
117.769
21
-87.4399
0
LINE
8
BLACK
6
CONTINUOUS
10
117.769
20
-87.4399
11
117.99
21
-87.2459
0
LINE
8
BLACK
6
CONTINUOUS
10
117.99
20
-87.2459
11
118.235
21
-87.0824
0
LINE
8
BLACK
6
CONTINUOUS
10
118.235
20
-87.0824
11
118.499
21
-86.9522
0
LINE
8
BLACK
6
CONTINUOUS
10
118.499
20
-86.9522
11
118.778
21
-86.8576
0
LINE
8
BLACK
6
CONTINUOUS
10
118.778
20
-86.8576
11
119.066
21
-86.8002
0
LINE
8
BLACK
6
CONTINUOUS
10
119.066
20
-86.8002
11
119.36
21
-86.7809
0
LINE
8
BLACK
6
CONTINUOUS
10
119.36
20
-86.7809
11
119.654
21
-86.8002
0
LINE
8
BLACK
6
CONTINUOUS
10
117.324
20
-89.3107
11
117.381
21
-89.5853
0
LINE
8
BLACK
6
CONTINUOUS
10
117.381
20
-89.5853
11
117.475
21
-89.8495
0
LINE
8
BLACK
6
CONTINUOUS
10
117.475
20
-89.8495
11
117.604
21
-90.0986
0
LINE
8
BLACK
6
CONTINUOUS
10
117.604
20
-90.0986
11
117.766
21
-90.3277
0
LINE
8
BLACK
6
CONTINUOUS
10
117.766
20
-90.3277
11
117.957
21
-90.5326
0
LINE
8
BLACK
6
CONTINUOUS
10
117.957
20
-90.5326
11
118.175
21
-90.7096
0
LINE
8
BLACK
6
CONTINUOUS
10
118.175
20
-90.7096
11
118.415
21
-90.8553
0
LINE
8
BLACK
6
CONTINUOUS
10
118.415
20
-90.8553
11
118.672
21
-90.9671
0
LINE
8
BLACK
6
CONTINUOUS
10
118.672
20
-90.9671
11
118.942
21
-91.0427
0
LINE
8
BLACK
6
CONTINUOUS
10
118.942
20
-91.0427
11
119.22
21
-91.0809
0
LINE
8
BLACK
6
CONTINUOUS
10
119.22
20
-91.0809
11
119.5
21
-91.0809
0
LINE
8
BLACK
6
CONTINUOUS
10
119.5
20
-91.0809
11
119.778
21
-91.0427
0
LINE
8
BLACK
6
CONTINUOUS
10
119.778
20
-91.0427
11
120.048
21
-90.9671
0
LINE
8
BLACK
6
CONTINUOUS
10
120.048
20
-90.9671
11
120.305
21
-90.8553
0
LINE
8
BLACK
6
CONTINUOUS
10
120.305
20
-90.8553
11
120.545
21
-90.7096
0
LINE
8
BLACK
6
CONTINUOUS
10
120.545
20
-90.7096
11
120.762
21
-90.5326
0
LINE
8
BLACK
6
CONTINUOUS
10
120.762
20
-90.5326
11
120.954
21
-90.3277
0
LINE
8
BLACK
6
CONTINUOUS
10
120.954
20
-90.3277
11
121.116
21
-90.0986
0
LINE
8
BLACK
6
CONTINUOUS
10
121.116
20
-90.0986
11
121.245
21
-89.8495
0
LINE
8
BLACK
6
CONTINUOUS
10
121.245
20
-89.8495
11
121.338
21
-89.5853
0
LINE
8
BLACK
6
CONTINUOUS
10
121.338
20
-89.5853
11
121.396
21
-89.3107
0
LINE
8
BLACK
6
CONTINUOUS
10
121.396
20
-89.3107
11
121.415
21
-89.0309
0
LINE
8
BLACK
6
CONTINUOUS
10
121.415
20
-89.0309
11
121.396
21
-88.7511
0
LINE
8
BLACK
6
CONTINUOUS
10
121.396
20
-88.7511
11
121.338
21
-88.4765
0
LINE
8
BLACK
6
CONTINUOUS
10
121.338
20
-88.4765
11
121.245
21
-88.2123
0
LINE
8
BLACK
6
CONTINUOUS
10
121.245
20
-88.2123
11
121.116
21
-87.9633
0
LINE
8
BLACK
6
CONTINUOUS
10
121.116
20
-87.9633
11
120.954
21
-87.7342
0
LINE
8
BLACK
6
CONTINUOUS
10
120.954
20
-87.7342
11
120.762
21
-87.5292
0
LINE
8
BLACK
6
CONTINUOUS
10
120.762
20
-87.5292
11
120.545
21
-87.3522
0
LINE
8
BLACK
6
CONTINUOUS
10
120.545
20
-87.3522
11
120.305
21
-87.2065
0
LINE
8
BLACK
6
CONTINUOUS
10
120.305
20
-87.2065
11
120.048
21
-87.0948
0
LINE
8
BLACK
6
CONTINUOUS
10
120.048
20
-87.0948
11
119.778
21
-87.0191
0
LINE
8
BLACK
6
CONTINUOUS
10
119.778
20
-87.0191
11
119.5
21
-86.9809
0
LINE
8
BLACK
6
CONTINUOUS
10
119.5
20
-86.9809
11
119.22
21
-86.9809
0
LINE
8
BLACK
6
CONTINUOUS
10
119.22
20
-86.9809
11
118.942
21
-87.0191
0
LINE
8
BLACK
6
CONTINUOUS
10
118.942
20
-87.0191
11
118.672
21
-87.0948
0
LINE
8
BLACK
6
CONTINUOUS
10
118.672
20
-87.0948
11
118.415
21
-87.2065
0
LINE
8
BLACK
6
CONTINUOUS
10
118.415
20
-87.2065
11
118.175
21
-87.3522
0
LINE
8
BLACK
6
CONTINUOUS
10
118.175
20
-87.3522
11
117.957
21
-87.5292
0
LINE
8
BLACK
6
CONTINUOUS
10
117.957
20
-87.5292
11
117.766
21
-87.7342
0
LINE
8
BLACK
6
CONTINUOUS
10
117.766
20
-87.7342
11
117.604
21
-87.9633
0
LINE
8
BLACK
6
CONTINUOUS
10
117.604
20
-87.9633
11
117.475
21
-88.2123
0
LINE
8
BLACK
6
CONTINUOUS
10
117.475
20
-88.2123
11
117.381
21
-88.4765
0
LINE
8
BLACK
6
CONTINUOUS
10
117.381
20
-88.4765
11
117.324
21
-88.7511
0
LINE
8
BLACK
6
CONTINUOUS
10
117.324
20
-88.7511
11
117.305
21
-89.0309
0
LINE
8
BLACK
6
CONTINUOUS
10
117.305
20
-89.0309
11
117.324
21
-89.3107
0
LINE
8
BLACK
6
CONTINUOUS
10
142.631
20
-81.6129
11
142.82
21
-81.6862
0
LINE
8
BLACK
6
CONTINUOUS
10
142.82
20
-81.6862
11
142.993
21
-81.7931
0
LINE
8
BLACK
6
CONTINUOUS
10
142.993
20
-81.7931
11
143.143
21
-81.9299
0
LINE
8
BLACK
6
CONTINUOUS
10
143.143
20
-81.9299
11
143.265
21
-82.0918
0
LINE
8
BLACK
6
CONTINUOUS
10
143.265
20
-82.0918
11
143.356
21
-82.2736
0
LINE
8
BLACK
6
CONTINUOUS
10
143.356
20
-82.2736
11
143.411
21
-82.4688
0
LINE
8
BLACK
6
CONTINUOUS
10
143.411
20
-82.4688
11
143.43
21
-82.6709
0
LINE
8
BLACK
6
CONTINUOUS
10
143.43
20
-82.6709
11
143.411
21
-82.873
0
LINE
8
BLACK
6
CONTINUOUS
10
143.411
20
-82.873
11
143.356
21
-83.0683
0
LINE
8
BLACK
6
CONTINUOUS
10
143.356
20
-83.0683
11
143.265
21
-83.25
0
LINE
8
BLACK
6
CONTINUOUS
10
143.265
20
-83.25
11
143.143
21
-83.412
0
LINE
8
BLACK
6
CONTINUOUS
10
143.143
20
-83.412
11
142.993
21
-83.5487
0
LINE
8
BLACK
6
CONTINUOUS
10
142.993
20
-83.5487
11
142.82
21
-83.6556
0
LINE
8
BLACK
6
CONTINUOUS
10
142.82
20
-83.6556
11
142.631
21
-83.7289
0
LINE
8
BLACK
6
CONTINUOUS
10
142.631
20
-83.7289
11
142.431
21
-83.7662
0
LINE
8
BLACK
6
CONTINUOUS
10
142.431
20
-83.7662
11
142.228
21
-83.7662
0
LINE
8
BLACK
6
CONTINUOUS
10
142.228
20
-83.7662
11
142.029
21
-83.7289
0
LINE
8
BLACK
6
CONTINUOUS
10
142.029
20
-83.7289
11
141.84
21
-83.6556
0
LINE
8
BLACK
6
CONTINUOUS
10
141.84
20
-83.6556
11
141.667
21
-83.5487
0
LINE
8
BLACK
6
CONTINUOUS
10
141.667
20
-83.5487
11
141.517
21
-83.412
0
LINE
8
BLACK
6
CONTINUOUS
10
141.517
20
-83.412
11
141.395
21
-83.25
0
LINE
8
BLACK
6
CONTINUOUS
10
141.395
20
-83.25
11
141.304
21
-83.0683
0
LINE
8
BLACK
6
CONTINUOUS
10
141.304
20
-83.0683
11
141.249
21
-82.873
0
LINE
8
BLACK
6
CONTINUOUS
10
141.249
20
-82.873
11
141.23
21
-82.6709
0
LINE
8
BLACK
6
CONTINUOUS
10
141.23
20
-82.6709
11
141.249
21
-82.4688
0
LINE
8
BLACK
6
CONTINUOUS
10
141.249
20
-82.4688
11
141.304
21
-82.2736
0
LINE
8
BLACK
6
CONTINUOUS
10
141.304
20
-82.2736
11
141.395
21
-82.0918
0
LINE
8
BLACK
6
CONTINUOUS
10
141.395
20
-82.0918
11
141.517
21
-81.9299
0
LINE
8
BLACK
6
CONTINUOUS
10
141.517
20
-81.9299
11
141.667
21
-81.7931
0
LINE
8
BLACK
6
CONTINUOUS
10
141.667
20
-81.7931
11
141.84
21
-81.6862
0
LINE
8
BLACK
6
CONTINUOUS
10
141.84
20
-81.6862
11
142.029
21
-81.6129
0
LINE
8
BLACK
6
CONTINUOUS
10
142.029
20
-81.6129
11
142.228
21
-81.5756
0
LINE
8
BLACK
6
CONTINUOUS
10
142.228
20
-81.5756
11
142.431
21
-81.5756
0
LINE
8
BLACK
6
CONTINUOUS
10
142.431
20
-81.5756
11
142.631
21
-81.6129
0
LINE
8
BLACK
6
CONTINUOUS
10
141.445
20
-82.8591
11
141.503
21
-83.039
0
LINE
8
BLACK
6
CONTINUOUS
10
141.503
20
-83.039
11
141.598
21
-83.2028
0
LINE
8
BLACK
6
CONTINUOUS
10
141.598
20
-83.2028
11
141.724
21
-83.3434
0
LINE
8
BLACK
6
CONTINUOUS
10
141.724
20
-83.3434
11
141.877
21
-83.4546
0
LINE
8
BLACK
6
CONTINUOUS
10
141.877
20
-83.4546
11
142.05
21
-83.5316
0
LINE
8
BLACK
6
CONTINUOUS
10
142.05
20
-83.5316
11
142.235
21
-83.5709
0
LINE
8
BLACK
6
CONTINUOUS
10
142.235
20
-83.5709
11
142.424
21
-83.5709
0
LINE
8
BLACK
6
CONTINUOUS
10
142.424
20
-83.5709
11
142.61
21
-83.5316
0
LINE
8
BLACK
6
CONTINUOUS
10
142.61
20
-83.5316
11
142.782
21
-83.4546
0
LINE
8
BLACK
6
CONTINUOUS
10
142.782
20
-83.4546
11
142.935
21
-83.3434
0
LINE
8
BLACK
6
CONTINUOUS
10
142.935
20
-83.3434
11
143.062
21
-83.2028
0
LINE
8
BLACK
6
CONTINUOUS
10
143.062
20
-83.2028
11
143.157
21
-83.039
0
LINE
8
BLACK
6
CONTINUOUS
10
143.157
20
-83.039
11
143.215
21
-82.8591
0
LINE
8
BLACK
6
CONTINUOUS
10
143.215
20
-82.8591
11
143.235
21
-82.6709
0
LINE
8
BLACK
6
CONTINUOUS
10
143.235
20
-82.6709
11
143.215
21
-82.4828
0
LINE
8
BLACK
6
CONTINUOUS
10
143.215
20
-82.4828
11
143.157
21
-82.3028
0
LINE
8
BLACK
6
CONTINUOUS
10
143.157
20
-82.3028
11
143.062
21
-82.139
0
LINE
8
BLACK
6
CONTINUOUS
10
143.062
20
-82.139
11
142.935
21
-81.9984
0
LINE
8
BLACK
6
CONTINUOUS
10
142.935
20
-81.9984
11
142.782
21
-81.8872
0
LINE
8
BLACK
6
CONTINUOUS
10
142.782
20
-81.8872
11
142.61
21
-81.8103
0
LINE
8
BLACK
6
CONTINUOUS
10
142.61
20
-81.8103
11
142.424
21
-81.7709
0
LINE
8
BLACK
6
CONTINUOUS
10
142.424
20
-81.7709
11
142.235
21
-81.7709
0
LINE
8
BLACK
6
CONTINUOUS
10
142.235
20
-81.7709
11
142.05
21
-81.8103
0
LINE
8
BLACK
6
CONTINUOUS
10
142.05
20
-81.8103
11
141.877
21
-81.8872
0
LINE
8
BLACK
6
CONTINUOUS
10
141.877
20
-81.8872
11
141.724
21
-81.9984
0
LINE
8
BLACK
6
CONTINUOUS
10
141.724
20
-81.9984
11
141.598
21
-82.139
0
LINE
8
BLACK
6
CONTINUOUS
10
141.598
20
-82.139
11
141.503
21
-82.3028
0
LINE
8
BLACK
6
CONTINUOUS
10
141.503
20
-82.3028
11
141.445
21
-82.4828
0
LINE
8
BLACK
6
CONTINUOUS
10
141.445
20
-82.4828
11
141.425
21
-82.6709
0
LINE
8
BLACK
6
CONTINUOUS
10
141.425
20
-82.6709
11
141.445
21
-82.8591
0
LINE
8
BLACK
6
CONTINUOUS
10
73.0871
20
-79.1857
11
73.3757
21
-79.2431
0
LINE
8
BLACK
6
CONTINUOUS
10
73.3757
20
-79.2431
11
73.6544
21
-79.3377
0
LINE
8
BLACK
6
CONTINUOUS
10
73.6544
20
-79.3377
11
73.9184
21
-79.4679
0
LINE
8
BLACK
6
CONTINUOUS
10
73.9184
20
-79.4679
11
74.1631
21
-79.6314
0
LINE
8
BLACK
6
CONTINUOUS
10
74.1631
20
-79.6314
11
74.3844
21
-79.8254
0
LINE
8
BLACK
6
CONTINUOUS
10
74.3844
20
-79.8254
11
74.5784
21
-80.0467
0
LINE
8
BLACK
6
CONTINUOUS
10
74.5784
20
-80.0467
11
74.742
21
-80.2914
0
LINE
8
BLACK
6
CONTINUOUS
10
74.742
20
-80.2914
11
74.8721
21
-80.5554
0
LINE
8
BLACK
6
CONTINUOUS
10
74.8721
20
-80.5554
11
74.9667
21
-80.8341
0
LINE
8
BLACK
6
CONTINUOUS
10
74.9667
20
-80.8341
11
75.0242
21
-81.1227
0
LINE
8
BLACK
6
CONTINUOUS
10
75.0242
20
-81.1227
11
75.0434
21
-81.4164
0
LINE
8
BLACK
6
CONTINUOUS
10
75.0434
20
-81.4164
11
75.0242
21
-81.7101
0
LINE
8
BLACK
6
CONTINUOUS
10
75.0242
20
-81.7101
11
74.9667
21
-81.9988
0
LINE
8
BLACK
6
CONTINUOUS
10
74.9667
20
-81.9988
11
74.8721
21
-82.2775
0
LINE
8
BLACK
6
CONTINUOUS
10
74.8721
20
-82.2775
11
74.742
21
-82.5414
0
LINE
8
BLACK
6
CONTINUOUS
10
74.742
20
-82.5414
11
74.5784
21
-82.7861
0
LINE
8
BLACK
6
CONTINUOUS
10
74.5784
20
-82.7861
11
74.3844
21
-83.0074
0
LINE
8
BLACK
6
CONTINUOUS
10
74.3844
20
-83.0074
11
74.1631
21
-83.2015
0
LINE
8
BLACK
6
CONTINUOUS
10
74.1631
20
-83.2015
11
73.9184
21
-83.365
0
LINE
8
BLACK
6
CONTINUOUS
10
73.9184
20
-83.365
11
73.6544
21
-83.4951
0
LINE
8
BLACK
6
CONTINUOUS
10
73.6544
20
-83.4951
11
73.3757
21
-83.5897
0
LINE
8
BLACK
6
CONTINUOUS
10
73.3757
20
-83.5897
11
73.0871
21
-83.6472
0
LINE
8
BLACK
6
CONTINUOUS
10
73.0871
20
-83.6472
11
72.7934
21
-83.6664
0
LINE
8
BLACK
6
CONTINUOUS
10
72.7934
20
-83.6664
11
72.4997
21
-83.6472
0
LINE
8
BLACK
6
CONTINUOUS
10
72.4997
20
-83.6472
11
72.2111
21
-83.5897
0
LINE
8
BLACK
6
CONTINUOUS
10
72.2111
20
-83.5897
11
71.9324
21
-83.4951
0
LINE
8
BLACK
6
CONTINUOUS
10
71.9324
20
-83.4951
11
71.6684
21
-83.365
0
LINE
8
BLACK
6
CONTINUOUS
10
71.6684
20
-83.365
11
71.4237
21
-83.2015
0
LINE
8
BLACK
6
CONTINUOUS
10
71.4237
20
-83.2015
11
71.2024
21
-83.0074
0
LINE
8
BLACK
6
CONTINUOUS
10
71.2024
20
-83.0074
11
71.0084
21
-82.7861
0
LINE
8
BLACK
6
CONTINUOUS
10
71.0084
20
-82.7861
11
70.8448
21
-82.5414
0
LINE
8
BLACK
6
CONTINUOUS
10
70.8448
20
-82.5414
11
70.7147
21
-82.2775
0
LINE
8
BLACK
6
CONTINUOUS
10
70.7147
20
-82.2775
11
70.6201
21
-81.9988
0
LINE
8
BLACK
6
CONTINUOUS
10
70.6201
20
-81.9988
11
70.5626
21
-81.7101
0
LINE
8
BLACK
6
CONTINUOUS
10
70.5626
20
-81.7101
11
70.5434
21
-81.4164
0
LINE
8
BLACK
6
CONTINUOUS
10
70.5434
20
-81.4164
11
70.5626
21
-81.1227
0
LINE
8
BLACK
6
CONTINUOUS
10
70.5626
20
-81.1227
11
70.6201
21
-80.8341
0
LINE
8
BLACK
6
CONTINUOUS
10
70.6201
20
-80.8341
11
70.7147
21
-80.5554
0
LINE
8
BLACK
6
CONTINUOUS
10
70.7147
20
-80.5554
11
70.8448
21
-80.2914
0
LINE
8
BLACK
6
CONTINUOUS
10
70.8448
20
-80.2914
11
71.0084
21
-80.0467
0
LINE
8
BLACK
6
CONTINUOUS
10
71.0084
20
-80.0467
11
71.2024
21
-79.8254
0
LINE
8
BLACK
6
CONTINUOUS
10
71.2024
20
-79.8254
11
71.4237
21
-79.6314
0
LINE
8
BLACK
6
CONTINUOUS
10
71.4237
20
-79.6314
11
71.6684
21
-79.4679
0
LINE
8
BLACK
6
CONTINUOUS
10
71.6684
20
-79.4679
11
71.9324
21
-79.3377
0
LINE
8
BLACK
6
CONTINUOUS
10
71.9324
20
-79.3377
11
72.2111
21
-79.2431
0
LINE
8
BLACK
6
CONTINUOUS
10
72.2111
20
-79.2431
11
72.4997
21
-79.1857
0
LINE
8
BLACK
6
CONTINUOUS
10
72.4997
20
-79.1857
11
72.7934
21
-79.1664
0
LINE
8
BLACK
6
CONTINUOUS
10
72.7934
20
-79.1664
11
73.0871
21
-79.1857
0
LINE
8
BLACK
6
CONTINUOUS
10
70.7577
20
-81.6962
11
70.8148
21
-81.9708
0
LINE
8
BLACK
6
CONTINUOUS
10
70.8148
20
-81.9708
11
70.9087
21
-82.235
0
LINE
8
BLACK
6
CONTINUOUS
10
70.9087
20
-82.235
11
71.0377
21
-82.4841
0
LINE
8
BLACK
6
CONTINUOUS
10
71.0377
20
-82.4841
11
71.1995
21
-82.7132
0
LINE
8
BLACK
6
CONTINUOUS
10
71.1995
20
-82.7132
11
71.3909
21
-82.9181
0
LINE
8
BLACK
6
CONTINUOUS
10
71.3909
20
-82.9181
11
71.6084
21
-83.0951
0
LINE
8
BLACK
6
CONTINUOUS
10
71.6084
20
-83.0951
11
71.8481
21
-83.2408
0
LINE
8
BLACK
6
CONTINUOUS
10
71.8481
20
-83.2408
11
72.1053
21
-83.3526
0
LINE
8
BLACK
6
CONTINUOUS
10
72.1053
20
-83.3526
11
72.3753
21
-83.4282
0
LINE
8
BLACK
6
CONTINUOUS
10
72.3753
20
-83.4282
11
72.6532
21
-83.4664
0
LINE
8
BLACK
6
CONTINUOUS
10
72.6532
20
-83.4664
11
72.9336
21
-83.4664
0
LINE
8
BLACK
6
CONTINUOUS
10
72.9336
20
-83.4664
11
73.2115
21
-83.4282
0
LINE
8
BLACK
6
CONTINUOUS
10
73.2115
20
-83.4282
11
73.4815
21
-83.3526
0
LINE
8
BLACK
6
CONTINUOUS
10
73.4815
20
-83.3526
11
73.7387
21
-83.2408
0
LINE
8
BLACK
6
CONTINUOUS
10
73.7387
20
-83.2408
11
73.9784
21
-83.0951
0
LINE
8
BLACK
6
CONTINUOUS
10
73.9784
20
-83.0951
11
74.1959
21
-82.9181
0
LINE
8
BLACK
6
CONTINUOUS
10
74.1959
20
-82.9181
11
74.3873
21
-82.7132
0
LINE
8
BLACK
6
CONTINUOUS
10
74.3873
20
-82.7132
11
74.5491
21
-82.4841
0
LINE
8
BLACK
6
CONTINUOUS
10
74.5491
20
-82.4841
11
74.6781
21
-82.235
0
LINE
8
BLACK
6
CONTINUOUS
10
74.6781
20
-82.235
11
74.772
21
-81.9708
0
LINE
8
BLACK
6
CONTINUOUS
10
74.772
20
-81.9708
11
74.8291
21
-81.6962
0
LINE
8
BLACK
6
CONTINUOUS
10
74.8291
20
-81.6962
11
74.8482
21
-81.4164
0
LINE
8
BLACK
6
CONTINUOUS
10
74.8482
20
-81.4164
11
74.8291
21
-81.1366
0
LINE
8
BLACK
6
CONTINUOUS
10
74.8291
20
-81.1366
11
74.772
21
-80.862
0
LINE
8
BLACK
6
CONTINUOUS
10
74.772
20
-80.862
11
74.6781
21
-80.5978
0
LINE
8
BLACK
6
CONTINUOUS
10
74.6781
20
-80.5978
11
74.5491
21
-80.3488
0
LINE
8
BLACK
6
CONTINUOUS
10
74.5491
20
-80.3488
11
74.3873
21
-80.1197
0
LINE
8
BLACK
6
CONTINUOUS
10
74.3873
20
-80.1197
11
74.1959
21
-79.9147
0
LINE
8
BLACK
6
CONTINUOUS
10
74.1959
20
-79.9147
11
73.9784
21
-79.7377
0
LINE
8
BLACK
6
CONTINUOUS
10
73.9784
20
-79.7377
11
73.7387
21
-79.592
0
LINE
8
BLACK
6
CONTINUOUS
10
73.7387
20
-79.592
11
73.4815
21
-79.4803
0
LINE
8
BLACK
6
CONTINUOUS
10
73.4815
20
-79.4803
11
73.2115
21
-79.4046
0
LINE
8
BLACK
6
CONTINUOUS
10
73.2115
20
-79.4046
11
72.9336
21
-79.3664
0
LINE
8
BLACK
6
CONTINUOUS
10
72.9336
20
-79.3664
11
72.6532
21
-79.3664
0
LINE
8
BLACK
6
CONTINUOUS
10
72.6532
20
-79.3664
11
72.3753
21
-79.4046
0
LINE
8
BLACK
6
CONTINUOUS
10
72.3753
20
-79.4046
11
72.1053
21
-79.4803
0
LINE
8
BLACK
6
CONTINUOUS
10
72.1053
20
-79.4803
11
71.8481
21
-79.592
0
LINE
8
BLACK
6
CONTINUOUS
10
71.8481
20
-79.592
11
71.6084
21
-79.7377
0
LINE
8
BLACK
6
CONTINUOUS
10
71.6084
20
-79.7377
11
71.3909
21
-79.9147
0
LINE
8
BLACK
6
CONTINUOUS
10
71.3909
20
-79.9147
11
71.1995
21
-80.1197
0
LINE
8
BLACK
6
CONTINUOUS
10
71.1995
20
-80.1197
11
71.0377
21
-80.3488
0
LINE
8
BLACK
6
CONTINUOUS
10
71.0377
20
-80.3488
11
70.9087
21
-80.5978
0
LINE
8
BLACK
6
CONTINUOUS
10
70.9087
20
-80.5978
11
70.8148
21
-80.862
0
LINE
8
BLACK
6
CONTINUOUS
10
70.8148
20
-80.862
11
70.7577
21
-81.1366
0
LINE
8
BLACK
6
CONTINUOUS
10
70.7577
20
-81.1366
11
70.7386
21
-81.4164
0
LINE
8
BLACK
6
CONTINUOUS
10
70.7386
20
-81.4164
11
70.7577
21
-81.6962
0
LINE
8
BLACK
6
CONTINUOUS
10
21.9075
20
-76.92
11
21.9499
21
-76.9376
0
LINE
8
BLACK
6
CONTINUOUS
10
21.9499
20
-76.9376
11
21.9675
21
-76.98
0
LINE
8
BLACK
6
CONTINUOUS
10
21.9675
20
-76.98
11
21.9675
21
-80.08
0
LINE
8
BLACK
6
CONTINUOUS
10
21.9675
20
-80.08
11
21.9499
21
-80.1224
0
LINE
8
BLACK
6
CONTINUOUS
10
21.9499
20
-80.1224
11
21.9075
21
-80.14
0
LINE
8
BLACK
6
CONTINUOUS
10
21.9075
20
-80.14
11
18.3075
21
-80.14
0
LINE
8
BLACK
6
CONTINUOUS
10
18.3075
20
-80.14
11
18.2651
21
-80.1224
0
LINE
8
BLACK
6
CONTINUOUS
10
18.2651
20
-80.1224
11
18.2475
21
-80.08
0
LINE
8
BLACK
6
CONTINUOUS
10
18.2475
20
-80.08
11
18.2475
21
-76.98
0
LINE
8
BLACK
6
CONTINUOUS
10
18.2475
20
-76.98
11
18.2651
21
-76.9376
0
LINE
8
BLACK
6
CONTINUOUS
10
18.2651
20
-76.9376
11
18.3075
21
-76.92
0
LINE
8
BLACK
6
CONTINUOUS
10
18.3075
20
-76.92
11
21.9075
21
-76.92
0
LINE
8
BLACK
6
CONTINUOUS
10
18.3675
20
-77.04
11
18.3675
21
-80.02
0
LINE
8
BLACK
6
CONTINUOUS
10
18.3675
20
-80.02
11
21.8475
21
-80.02
0
LINE
8
BLACK
6
CONTINUOUS
10
21.8475
20
-80.02
11
21.8475
21
-77.04
0
LINE
8
BLACK
6
CONTINUOUS
10
21.8475
20
-77.04
11
18.3675
21
-77.04
0
LINE
8
BLACK
6
CONTINUOUS
10
40.9075
20
-76.92
11
40.9499
21
-76.9376
0
LINE
8
BLACK
6
CONTINUOUS
10
40.9499
20
-76.9376
11
40.9675
21
-76.98
0
LINE
8
BLACK
6
CONTINUOUS
10
40.9675
20
-76.98
11
40.9675
21
-80.08
0
LINE
8
BLACK
6
CONTINUOUS
10
40.9675
20
-80.08
11
40.9499
21
-80.1224
0
LINE
8
BLACK
6
CONTINUOUS
10
40.9499
20
-80.1224
11
40.9075
21
-80.14
0
LINE
8
BLACK
6
CONTINUOUS
10
40.9075
20
-80.14
11
37.3075
21
-80.14
0
LINE
8
BLACK
6
CONTINUOUS
10
37.3075
20
-80.14
11
37.2651
21
-80.1224
0
LINE
8
BLACK
6
CONTINUOUS
10
37.2651
20
-80.1224
11
37.2475
21
-80.08
0
LINE
8
BLACK
6
CONTINUOUS
10
37.2475
20
-80.08
11
37.2475
21
-76.98
0
LINE
8
BLACK
6
CONTINUOUS
10
37.2475
20
-76.98
11
37.2651
21
-76.9376
0
LINE
8
BLACK
6
CONTINUOUS
10
37.2651
20
-76.9376
11
37.3075
21
-76.92
0
LINE
8
BLACK
6
CONTINUOUS
10
37.3075
20
-76.92
11
40.9075
21
-76.92
0
LINE
8
BLACK
6
CONTINUOUS
10
37.3675
20
-77.04
11
37.3675
21
-80.02
0
LINE
8
BLACK
6
CONTINUOUS
10
37.3675
20
-80.02
11
40.8475
21
-80.02
0
LINE
8
BLACK
6
CONTINUOUS
10
40.8475
20
-80.02
11
40.8475
21
-77.04
0
LINE
8
BLACK
6
CONTINUOUS
10
40.8475
20
-77.04
11
37.3675
21
-77.04
0
LINE
8
BLACK
6
CONTINUOUS
10
116.907
20
-74.545
11
116.95
21
-74.5626
0
LINE
8
BLACK
6
CONTINUOUS
10
116.95
20
-74.5626
11
116.968
21
-74.605
0
LINE
8
BLACK
6
CONTINUOUS
10
116.968
20
-74.605
11
116.968
21
-77.705
0
LINE
8
BLACK
6
CONTINUOUS
10
116.968
20
-77.705
11
116.95
21
-77.7474
0
LINE
8
BLACK
6
CONTINUOUS
10
116.95
20
-77.7474
11
116.907
21
-77.765
0
LINE
8
BLACK
6
CONTINUOUS
10
116.907
20
-77.765
11
113.307
21
-77.765
0
LINE
8
BLACK
6
CONTINUOUS
10
113.307
20
-77.765
11
113.265
21
-77.7474
0
LINE
8
BLACK
6
CONTINUOUS
10
113.265
20
-77.7474
11
113.247
21
-77.705
0
LINE
8
BLACK
6
CONTINUOUS
10
113.247
20
-77.705
11
113.247
21
-77.705
0
LINE
8
BLACK
6
CONTINUOUS
10
113.247
20
-77.705
11
113.247
21
-74.605
0
LINE
8
BLACK
6
CONTINUOUS
10
113.247
20
-74.605
11
113.265
21
-74.5626
0
LINE
8
BLACK
6
CONTINUOUS
10
113.265
20
-74.5626
11
113.307
21
-74.545
0
LINE
8
BLACK
6
CONTINUOUS
10
113.307
20
-74.545
11
116.907
21
-74.545
0
LINE
8
BLACK
6
CONTINUOUS
10
113.367
20
-74.665
11
113.367
21
-77.645
0
LINE
8
BLACK
6
CONTINUOUS
10
113.367
20
-77.645
11
116.847
21
-77.645
0
LINE
8
BLACK
6
CONTINUOUS
10
116.847
20
-77.645
11
116.847
21
-74.665
0
LINE
8
BLACK
6
CONTINUOUS
10
116.847
20
-74.665
11
113.367
21
-74.665
0
LINE
8
BLACK
6
CONTINUOUS
10
59.9075
20
-72.17
11
59.9499
21
-72.1876
0
LINE
8
BLACK
6
CONTINUOUS
10
59.9499
20
-72.1876
11
59.9675
21
-72.23
0
LINE
8
BLACK
6
CONTINUOUS
10
59.9675
20
-72.23
11
59.9675
21
-75.33
0
LINE
8
BLACK
6
CONTINUOUS
10
59.9675
20
-75.33
11
59.9499
21
-75.3724
0
LINE
8
BLACK
6
CONTINUOUS
10
59.9499
20
-75.3724
11
59.9075
21
-75.39
0
LINE
8
BLACK
6
CONTINUOUS
10
59.9075
20
-75.39
11
56.3075
21
-75.39
0
LINE
8
BLACK
6
CONTINUOUS
10
56.3075
20
-75.39
11
56.2651
21
-75.3724
0
LINE
8
BLACK
6
CONTINUOUS
10
56.2651
20
-75.3724
11
56.2475
21
-75.33
0
LINE
8
BLACK
6
CONTINUOUS
10
56.2475
20
-75.33
11
56.2475
21
-72.23
0
LINE
8
BLACK
6
CONTINUOUS
10
56.2475
20
-72.23
11
56.2651
21
-72.1876
0
LINE
8
BLACK
6
CONTINUOUS
10
56.2651
20
-72.1876
11
56.3075
21
-72.17
0
LINE
8
BLACK
6
CONTINUOUS
10
56.3075
20
-72.17
11
59.9075
21
-72.17
0
LINE
8
BLACK
6
CONTINUOUS
10
56.3675
20
-72.29
11
56.3675
21
-75.27
0
LINE
8
BLACK
6
CONTINUOUS
10
56.3675
20
-75.27
11
59.8475
21
-75.27
0
LINE
8
BLACK
6
CONTINUOUS
10
59.8475
20
-75.27
11
59.8475
21
-72.29
0
LINE
8
BLACK
6
CONTINUOUS
10
59.8475
20
-72.29
11
56.3675
21
-72.29
0
LINE
8
BLACK
6
CONTINUOUS
10
97.9075
20
-72.17
11
97.9499
21
-72.1876
0
LINE
8
BLACK
6
CONTINUOUS
10
97.9499
20
-72.1876
11
97.9675
21
-72.23
0
LINE
8
BLACK
6
CONTINUOUS
10
97.9675
20
-72.23
11
97.9675
21
-75.33
0
LINE
8
BLACK
6
CONTINUOUS
10
97.9675
20
-75.33
11
97.9499
21
-75.3724
0
LINE
8
BLACK
6
CONTINUOUS
10
97.9499
20
-75.3724
11
97.9075
21
-75.39
0
LINE
8
BLACK
6
CONTINUOUS
10
97.9075
20
-75.39
11
94.3075
21
-75.39
0
LINE
8
BLACK
6
CONTINUOUS
10
94.3075
20
-75.39
11
94.2651
21
-75.3724
0
LINE
8
BLACK
6
CONTINUOUS
10
94.2651
20
-75.3724
11
94.2475
21
-75.33
0
LINE
8
BLACK
6
CONTINUOUS
10
94.2475
20
-75.33
11
94.2475
21
-75.33
0
LINE
8
BLACK
6
CONTINUOUS
10
94.2475
20
-75.33
11
94.2475
21
-72.23
0
LINE
8
BLACK
6
CONTINUOUS
10
94.2475
20
-72.23
11
94.2651
21
-72.1876
0
LINE
8
BLACK
6
CONTINUOUS
10
94.2651
20
-72.1876
11
94.3075
21
-72.17
0
LINE
8
BLACK
6
CONTINUOUS
10
94.3075
20
-72.17
11
97.9075
21
-72.17
0
LINE
8
BLACK
6
CONTINUOUS
10
94.3675
20
-72.29
11
94.3675
21
-75.27
0
LINE
8
BLACK
6
CONTINUOUS
10
94.3675
20
-75.27
11
97.8475
21
-75.27
0
LINE
8
BLACK
6
CONTINUOUS
10
97.8475
20
-75.27
11
97.8475
21
-72.29
0
LINE
8
BLACK
6
CONTINUOUS
10
97.8475
20
-72.29
11
94.3675
21
-72.29
0
LINE
8
BLACK
6
CONTINUOUS
10
128.199
20
-73.0919
11
128.388
21
-73.1652
0
LINE
8
BLACK
6
CONTINUOUS
10
128.388
20
-73.1652
11
128.561
21
-73.2721
0
LINE
8
BLACK
6
CONTINUOUS
10
128.561
20
-73.2721
11
128.711
21
-73.4089
0
LINE
8
BLACK
6
CONTINUOUS
10
128.711
20
-73.4089
11
128.833
21
-73.5708
0
LINE
8
BLACK
6
CONTINUOUS
10
128.833
20
-73.5708
11
128.924
21
-73.7525
0
LINE
8
BLACK
6
CONTINUOUS
10
128.924
20
-73.7525
11
128.979
21
-73.9478
0
LINE
8
BLACK
6
CONTINUOUS
10
128.979
20
-73.9478
11
128.998
21
-74.1499
0
LINE
8
BLACK
6
CONTINUOUS
10
128.998
20
-74.1499
11
128.979
21
-74.352
0
LINE
8
BLACK
6
CONTINUOUS
10
128.979
20
-74.352
11
128.924
21
-74.5473
0
LINE
8
BLACK
6
CONTINUOUS
10
128.924
20
-74.5473
11
128.833
21
-74.729
0
LINE
8
BLACK
6
CONTINUOUS
10
128.833
20
-74.729
11
128.711
21
-74.891
0
LINE
8
BLACK
6
CONTINUOUS
10
128.711
20
-74.891
11
128.561
21
-75.0277
0
LINE
8
BLACK
6
CONTINUOUS
10
128.561
20
-75.0277
11
128.388
21
-75.1346
0
LINE
8
BLACK
6
CONTINUOUS
10
128.388
20
-75.1346
11
128.199
21
-75.2079
0
LINE
8
BLACK
6
CONTINUOUS
10
128.199
20
-75.2079
11
127.999
21
-75.2452
0
LINE
8
BLACK
6
CONTINUOUS
10
127.999
20
-75.2452
11
127.796
21
-75.2452
0
LINE
8
BLACK
6
CONTINUOUS
10
127.796
20
-75.2452
11
127.597
21
-75.2079
0
LINE
8
BLACK
6
CONTINUOUS
10
127.597
20
-75.2079
11
127.408
21
-75.1346
0
LINE
8
BLACK
6
CONTINUOUS
10
127.408
20
-75.1346
11
127.235
21
-75.0277
0
LINE
8
BLACK
6
CONTINUOUS
10
127.235
20
-75.0277
11
127.085
21
-74.891
0
LINE
8
BLACK
6
CONTINUOUS
10
127.085
20
-74.891
11
126.963
21
-74.729
0
LINE
8
BLACK
6
CONTINUOUS
10
126.963
20
-74.729
11
126.872
21
-74.5473
0
LINE
8
BLACK
6
CONTINUOUS
10
126.872
20
-74.5473
11
126.817
21
-74.352
0
LINE
8
BLACK
6
CONTINUOUS
10
126.817
20
-74.352
11
126.798
21
-74.1499
0
LINE
8
BLACK
6
CONTINUOUS
10
126.798
20
-74.1499
11
126.817
21
-73.9478
0
LINE
8
BLACK
6
CONTINUOUS
10
126.817
20
-73.9478
11
126.872
21
-73.7525
0
LINE
8
BLACK
6
CONTINUOUS
10
126.872
20
-73.7525
11
126.963
21
-73.5708
0
LINE
8
BLACK
6
CONTINUOUS
10
126.963
20
-73.5708
11
127.085
21
-73.4089
0
LINE
8
BLACK
6
CONTINUOUS
10
127.085
20
-73.4089
11
127.235
21
-73.2721
0
LINE
8
BLACK
6
CONTINUOUS
10
127.235
20
-73.2721
11
127.408
21
-73.1652
0
LINE
8
BLACK
6
CONTINUOUS
10
127.408
20
-73.1652
11
127.597
21
-73.0919
0
LINE
8
BLACK
6
CONTINUOUS
10
127.597
20
-73.0919
11
127.796
21
-73.0546
0
LINE
8
BLACK
6
CONTINUOUS
10
127.796
20
-73.0546
11
127.999
21
-73.0546
0
LINE
8
BLACK
6
CONTINUOUS
10
127.999
20
-73.0546
11
128.199
21
-73.0919
0
LINE
8
BLACK
6
CONTINUOUS
10
127.013
20
-74.3381
11
127.071
21
-74.518
0
LINE
8
BLACK
6
CONTINUOUS
10
127.071
20
-74.518
11
127.166
21
-74.6818
0
LINE
8
BLACK
6
CONTINUOUS
10
127.166
20
-74.6818
11
127.292
21
-74.8224
0
LINE
8
BLACK
6
CONTINUOUS
10
127.292
20
-74.8224
11
127.445
21
-74.9336
0
LINE
8
BLACK
6
CONTINUOUS
10
127.445
20
-74.9336
11
127.618
21
-75.0106
0
LINE
8
BLACK
6
CONTINUOUS
10
127.618
20
-75.0106
11
127.803
21
-75.0499
0
LINE
8
BLACK
6
CONTINUOUS
10
127.803
20
-75.0499
11
127.992
21
-75.0499
0
LINE
8
BLACK
6
CONTINUOUS
10
127.992
20
-75.0499
11
128.178
21
-75.0106
0
LINE
8
BLACK
6
CONTINUOUS
10
128.178
20
-75.0106
11
128.35
21
-74.9336
0
LINE
8
BLACK
6
CONTINUOUS
10
128.35
20
-74.9336
11
128.503
21
-74.8224
0
LINE
8
BLACK
6
CONTINUOUS
10
128.503
20
-74.8224
11
128.63
21
-74.6818
0
LINE
8
BLACK
6
CONTINUOUS
10
128.63
20
-74.6818
11
128.725
21
-74.518
0
LINE
8
BLACK
6
CONTINUOUS
10
128.725
20
-74.518
11
128.783
21
-74.3381
0
LINE
8
BLACK
6
CONTINUOUS
10
128.783
20
-74.3381
11
128.803
21
-74.1499
0
LINE
8
BLACK
6
CONTINUOUS
10
128.803
20
-74.1499
11
128.783
21
-73.9618
0
LINE
8
BLACK
6
CONTINUOUS
10
128.783
20
-73.9618
11
128.725
21
-73.7818
0
LINE
8
BLACK
6
CONTINUOUS
10
128.725
20
-73.7818
11
128.63
21
-73.618
0
LINE
8
BLACK
6
CONTINUOUS
10
128.63
20
-73.618
11
128.503
21
-73.4774
0
LINE
8
BLACK
6
CONTINUOUS
10
128.503
20
-73.4774
11
128.35
21
-73.3662
0
LINE
8
BLACK
6
CONTINUOUS
10
128.35
20
-73.3662
11
128.178
21
-73.2893
0
LINE
8
BLACK
6
CONTINUOUS
10
128.178
20
-73.2893
11
127.992
21
-73.2499
0
LINE
8
BLACK
6
CONTINUOUS
10
127.992
20
-73.2499
11
127.803
21
-73.2499
0
LINE
8
BLACK
6
CONTINUOUS
10
127.803
20
-73.2499
11
127.618
21
-73.2893
0
LINE
8
BLACK
6
CONTINUOUS
10
127.618
20
-73.2893
11
127.445
21
-73.3662
0
LINE
8
BLACK
6
CONTINUOUS
10
127.445
20
-73.3662
11
127.292
21
-73.4774
0
LINE
8
BLACK
6
CONTINUOUS
10
127.292
20
-73.4774
11
127.166
21
-73.618
0
LINE
8
BLACK
6
CONTINUOUS
10
127.166
20
-73.618
11
127.071
21
-73.7818
0
LINE
8
BLACK
6
CONTINUOUS
10
127.071
20
-73.7818
11
127.013
21
-73.9618
0
LINE
8
BLACK
6
CONTINUOUS
10
127.013
20
-73.9618
11
126.993
21
-74.1499
0
LINE
8
BLACK
6
CONTINUOUS
10
126.993
20
-74.1499
11
127.013
21
-74.3381
0
LINE
8
BLACK
6
CONTINUOUS
10
78.9075
20
-69.795
11
78.9499
21
-69.8126
0
LINE
8
BLACK
6
CONTINUOUS
10
78.9499
20
-69.8126
11
78.9675
21
-69.855
0
LINE
8
BLACK
6
CONTINUOUS
10
78.9675
20
-69.855
11
78.9675
21
-72.955
0
LINE
8
BLACK
6
CONTINUOUS
10
78.9675
20
-72.955
11
78.9499
21
-72.9974
0
LINE
8
BLACK
6
CONTINUOUS
10
78.9499
20
-72.9974
11
78.9075
21
-73.015
0
LINE
8
BLACK
6
CONTINUOUS
10
78.9075
20
-73.015
11
75.3075
21
-73.015
0
LINE
8
BLACK
6
CONTINUOUS
10
75.3075
20
-73.015
11
75.2651
21
-72.9974
0
LINE
8
BLACK
6
CONTINUOUS
10
75.2651
20
-72.9974
11
75.2475
21
-72.955
0
LINE
8
BLACK
6
CONTINUOUS
10
75.2475
20
-72.955
11
75.2475
21
-72.955
0
LINE
8
BLACK
6
CONTINUOUS
10
75.2475
20
-72.955
11
75.2475
21
-69.855
0
LINE
8
BLACK
6
CONTINUOUS
10
75.2475
20
-69.855
11
75.2651
21
-69.8126
0
LINE
8
BLACK
6
CONTINUOUS
10
75.2651
20
-69.8126
11
75.3075
21
-69.795
0
LINE
8
BLACK
6
CONTINUOUS
10
75.3075
20
-69.795
11
78.9075
21
-69.795
0
LINE
8
BLACK
6
CONTINUOUS
10
75.3675
20
-69.915
11
75.3675
21
-72.895
0
LINE
8
BLACK
6
CONTINUOUS
10
75.3675
20
-72.895
11
78.8475
21
-72.895
0
LINE
8
BLACK
6
CONTINUOUS
10
78.8475
20
-72.895
11
78.8475
21
-69.915
0
LINE
8
BLACK
6
CONTINUOUS
10
78.8475
20
-69.915
11
75.3675
21
-69.915
0
LINE
8
BLACK
6
CONTINUOUS
10
29.9301
20
-61.9452
11
30.2187
21
-62.0026
0
LINE
8
BLACK
6
CONTINUOUS
10
30.2187
20
-62.0026
11
30.4974
21
-62.0972
0
LINE
8
BLACK
6
CONTINUOUS
10
30.4974
20
-62.0972
11
30.7614
21
-62.2274
0
LINE
8
BLACK
6
CONTINUOUS
10
30.7614
20
-62.2274
11
31.0061
21
-62.3909
0
LINE
8
BLACK
6
CONTINUOUS
10
31.0061
20
-62.3909
11
31.2274
21
-62.5849
0
LINE
8
BLACK
6
CONTINUOUS
10
31.2274
20
-62.5849
11
31.4214
21
-62.8062
0
LINE
8
BLACK
6
CONTINUOUS
10
31.4214
20
-62.8062
11
31.585
21
-63.0509
0
LINE
8
BLACK
6
CONTINUOUS
10
31.585
20
-63.0509
11
31.7151
21
-63.3149
0
LINE
8
BLACK
6
CONTINUOUS
10
31.7151
20
-63.3149
11
31.8097
21
-63.5936
0
LINE
8
BLACK
6
CONTINUOUS
10
31.8097
20
-63.5936
11
31.8672
21
-63.8822
0
LINE
8
BLACK
6
CONTINUOUS
10
31.8672
20
-63.8822
11
31.8864
21
-64.1759
0
LINE
8
BLACK
6
CONTINUOUS
10
31.8864
20
-64.1759
11
31.8672
21
-64.4696
0
LINE
8
BLACK
6
CONTINUOUS
10
31.8672
20
-64.4696
11
31.8097
21
-64.7583
0
LINE
8
BLACK
6
CONTINUOUS
10
31.8097
20
-64.7583
11
31.7151
21
-65.037
0
LINE
8
BLACK
6
CONTINUOUS
10
31.7151
20
-65.037
11
31.585
21
-65.3009
0
LINE
8
BLACK
6
CONTINUOUS
10
31.585
20
-65.3009
11
31.4214
21
-65.5456
0
LINE
8
BLACK
6
CONTINUOUS
10
31.4214
20
-65.5456
11
31.2274
21
-65.7669
0
LINE
8
BLACK
6
CONTINUOUS
10
31.2274
20
-65.7669
11
31.0061
21
-65.961
0
LINE
8
BLACK
6
CONTINUOUS
10
31.0061
20
-65.961
11
30.7614
21
-66.1245
0
LINE
8
BLACK
6
CONTINUOUS
10
30.7614
20
-66.1245
11
30.4974
21
-66.2546
0
LINE
8
BLACK
6
CONTINUOUS
10
30.4974
20
-66.2546
11
30.2187
21
-66.3492
0
LINE
8
BLACK
6
CONTINUOUS
10
30.2187
20
-66.3492
11
29.9301
21
-66.4067
0
LINE
8
BLACK
6
CONTINUOUS
10
29.9301
20
-66.4067
11
29.6364
21
-66.4259
0
LINE
8
BLACK
6
CONTINUOUS
10
29.6364
20
-66.4259
11
29.3427
21
-66.4067
0
LINE
8
BLACK
6
CONTINUOUS
10
29.3427
20
-66.4067
11
29.0541
21
-66.3492
0
LINE
8
BLACK
6
CONTINUOUS
10
29.0541
20
-66.3492
11
28.7754
21
-66.2546
0
LINE
8
BLACK
6
CONTINUOUS
10
28.7754
20
-66.2546
11
28.5114
21
-66.1245
0
LINE
8
BLACK
6
CONTINUOUS
10
28.5114
20
-66.1245
11
28.2667
21
-65.961
0
LINE
8
BLACK
6
CONTINUOUS
10
28.2667
20
-65.961
11
28.0454
21
-65.7669
0
LINE
8
BLACK
6
CONTINUOUS
10
28.0454
20
-65.7669
11
27.8514
21
-65.5456
0
LINE
8
BLACK
6
CONTINUOUS
10
27.8514
20
-65.5456
11
27.6878
21
-65.3009
0
LINE
8
BLACK
6
CONTINUOUS
10
27.6878
20
-65.3009
11
27.5577
21
-65.037
0
LINE
8
BLACK
6
CONTINUOUS
10
27.5577
20
-65.037
11
27.4631
21
-64.7583
0
LINE
8
BLACK
6
CONTINUOUS
10
27.4631
20
-64.7583
11
27.4056
21
-64.4696
0
LINE
8
BLACK
6
CONTINUOUS
10
27.4056
20
-64.4696
11
27.3864
21
-64.1759
0
LINE
8
BLACK
6
CONTINUOUS
10
27.3864
20
-64.1759
11
27.4056
21
-63.8822
0
LINE
8
BLACK
6
CONTINUOUS
10
27.4056
20
-63.8822
11
27.4631
21
-63.5936
0
LINE
8
BLACK
6
CONTINUOUS
10
27.4631
20
-63.5936
11
27.5577
21
-63.3149
0
LINE
8
BLACK
6
CONTINUOUS
10
27.5577
20
-63.3149
11
27.6878
21
-63.0509
0
LINE
8
BLACK
6
CONTINUOUS
10
27.6878
20
-63.0509
11
27.8514
21
-62.8062
0
LINE
8
BLACK
6
CONTINUOUS
10
27.8514
20
-62.8062
11
28.0454
21
-62.5849
0
LINE
8
BLACK
6
CONTINUOUS
10
28.0454
20
-62.5849
11
28.2667
21
-62.3909
0
LINE
8
BLACK
6
CONTINUOUS
10
28.2667
20
-62.3909
11
28.5114
21
-62.2274
0
LINE
8
BLACK
6
CONTINUOUS
10
28.5114
20
-62.2274
11
28.7754
21
-62.0972
0
LINE
8
BLACK
6
CONTINUOUS
10
28.7754
20
-62.0972
11
29.0541
21
-62.0026
0
LINE
8
BLACK
6
CONTINUOUS
10
29.0541
20
-62.0026
11
29.3427
21
-61.9452
0
LINE
8
BLACK
6
CONTINUOUS
10
29.3427
20
-61.9452
11
29.6364
21
-61.9259
0
LINE
8
BLACK
6
CONTINUOUS
10
29.6364
20
-61.9259
11
29.9301
21
-61.9452
0
LINE
8
BLACK
6
CONTINUOUS
10
27.6007
20
-64.4557
11
27.6578
21
-64.7303
0
LINE
8
BLACK
6
CONTINUOUS
10
27.6578
20
-64.7303
11
27.7517
21
-64.9945
0
LINE
8
BLACK
6
CONTINUOUS
10
27.7517
20
-64.9945
11
27.8807
21
-65.2436
0
LINE
8
BLACK
6
CONTINUOUS
10
27.8807
20
-65.2436
11
28.0425
21
-65.4727
0
LINE
8
BLACK
6
CONTINUOUS
10
28.0425
20
-65.4727
11
28.2339
21
-65.6776
0
LINE
8
BLACK
6
CONTINUOUS
10
28.2339
20
-65.6776
11
28.4514
21
-65.8546
0
LINE
8
BLACK
6
CONTINUOUS
10
28.4514
20
-65.8546
11
28.6911
21
-66.0003
0
LINE
8
BLACK
6
CONTINUOUS
10
28.6911
20
-66.0003
11
28.9483
21
-66.1121
0
LINE
8
BLACK
6
CONTINUOUS
10
28.9483
20
-66.1121
11
29.2183
21
-66.1877
0
LINE
8
BLACK
6
CONTINUOUS
10
29.2183
20
-66.1877
11
29.4962
21
-66.2259
0
LINE
8
BLACK
6
CONTINUOUS
10
29.4962
20
-66.2259
11
29.7766
21
-66.2259
0
LINE
8
BLACK
6
CONTINUOUS
10
29.7766
20
-66.2259
11
30.0545
21
-66.1877
0
LINE
8
BLACK
6
CONTINUOUS
10
30.0545
20
-66.1877
11
30.3245
21
-66.1121
0
LINE
8
BLACK
6
CONTINUOUS
10
30.3245
20
-66.1121
11
30.5817
21
-66.0003
0
LINE
8
BLACK
6
CONTINUOUS
10
30.5817
20
-66.0003
11
30.8214
21
-65.8546
0
LINE
8
BLACK
6
CONTINUOUS
10
30.8214
20
-65.8546
11
31.0389
21
-65.6776
0
LINE
8
BLACK
6
CONTINUOUS
10
31.0389
20
-65.6776
11
31.2303
21
-65.4727
0
LINE
8
BLACK
6
CONTINUOUS
10
31.2303
20
-65.4727
11
31.3921
21
-65.2436
0
LINE
8
BLACK
6
CONTINUOUS
10
31.3921
20
-65.2436
11
31.5211
21
-64.9945
0
LINE
8
BLACK
6
CONTINUOUS
10
31.5211
20
-64.9945
11
31.615
21
-64.7303
0
LINE
8
BLACK
6
CONTINUOUS
10
31.615
20
-64.7303
11
31.6721
21
-64.4557
0
LINE
8
BLACK
6
CONTINUOUS
10
31.6721
20
-64.4557
11
31.6912
21
-64.1759
0
LINE
8
BLACK
6
CONTINUOUS
10
31.6912
20
-64.1759
11
31.6721
21
-63.8961
0
LINE
8
BLACK
6
CONTINUOUS
10
31.6721
20
-63.8961
11
31.615
21
-63.6215
0
LINE
8
BLACK
6
CONTINUOUS
10
31.615
20
-63.6215
11
31.5211
21
-63.3573
0
LINE
8
BLACK
6
CONTINUOUS
10
31.5211
20
-63.3573
11
31.3921
21
-63.1083
0
LINE
8
BLACK
6
CONTINUOUS
10
31.3921
20
-63.1083
11
31.2303
21
-62.8792
0
LINE
8
BLACK
6
CONTINUOUS
10
31.2303
20
-62.8792
11
31.0389
21
-62.6742
0
LINE
8
BLACK
6
CONTINUOUS
10
31.0389
20
-62.6742
11
30.8214
21
-62.4972
0
LINE
8
BLACK
6
CONTINUOUS
10
30.8214
20
-62.4972
11
30.5817
21
-62.3515
0
LINE
8
BLACK
6
CONTINUOUS
10
30.5817
20
-62.3515
11
30.3245
21
-62.2398
0
LINE
8
BLACK
6
CONTINUOUS
10
30.3245
20
-62.2398
11
30.0545
21
-62.1641
0
LINE
8
BLACK
6
CONTINUOUS
10
30.0545
20
-62.1641
11
29.7766
21
-62.1259
0
LINE
8
BLACK
6
CONTINUOUS
10
29.7766
20
-62.1259
11
29.4962
21
-62.1259
0
LINE
8
BLACK
6
CONTINUOUS
10
29.4962
20
-62.1259
11
29.2183
21
-62.1641
0
LINE
8
BLACK
6
CONTINUOUS
10
29.2183
20
-62.1641
11
28.9483
21
-62.2398
0
LINE
8
BLACK
6
CONTINUOUS
10
28.9483
20
-62.2398
11
28.6911
21
-62.3515
0
LINE
8
BLACK
6
CONTINUOUS
10
28.6911
20
-62.3515
11
28.4514
21
-62.4972
0
LINE
8
BLACK
6
CONTINUOUS
10
28.4514
20
-62.4972
11
28.2339
21
-62.6742
0
LINE
8
BLACK
6
CONTINUOUS
10
28.2339
20
-62.6742
11
28.0425
21
-62.8792
0
LINE
8
BLACK
6
CONTINUOUS
10
28.0425
20
-62.8792
11
27.8807
21
-63.1083
0
LINE
8
BLACK
6
CONTINUOUS
10
27.8807
20
-63.1083
11
27.7517
21
-63.3573
0
LINE
8
BLACK
6
CONTINUOUS
10
27.7517
20
-63.3573
11
27.6578
21
-63.6215
0
LINE
8
BLACK
6
CONTINUOUS
10
27.6578
20
-63.6215
11
27.6007
21
-63.8961
0
LINE
8
BLACK
6
CONTINUOUS
10
27.6007
20
-63.8961
11
27.5816
21
-64.1759
0
LINE
8
BLACK
6
CONTINUOUS
10
27.5816
20
-64.1759
11
27.6007
21
-64.4557
0
LINE
8
BLACK
6
CONTINUOUS
10
21.9075
20
-57.92
11
21.9499
21
-57.9376
0
LINE
8
BLACK
6
CONTINUOUS
10
21.9499
20
-57.9376
11
21.9675
21
-57.98
0
LINE
8
BLACK
6
CONTINUOUS
10
21.9675
20
-57.98
11
21.9675
21
-61.08
0
LINE
8
BLACK
6
CONTINUOUS
10
21.9675
20
-61.08
11
21.9499
21
-61.1224
0
LINE
8
BLACK
6
CONTINUOUS
10
21.9499
20
-61.1224
11
21.9075
21
-61.14
0
LINE
8
BLACK
6
CONTINUOUS
10
21.9075
20
-61.14
11
18.3075
21
-61.14
0
LINE
8
BLACK
6
CONTINUOUS
10
18.3075
20
-61.14
11
18.2651
21
-61.1224
0
LINE
8
BLACK
6
CONTINUOUS
10
18.2651
20
-61.1224
11
18.2475
21
-61.08
0
LINE
8
BLACK
6
CONTINUOUS
10
18.2475
20
-61.08
11
18.2475
21
-57.98
0
LINE
8
BLACK
6
CONTINUOUS
10
18.2475
20
-57.98
11
18.2651
21
-57.9376
0
LINE
8
BLACK
6
CONTINUOUS
10
18.2651
20
-57.9376
11
18.3075
21
-57.92
0
LINE
8
BLACK
6
CONTINUOUS
10
18.3075
20
-57.92
11
21.9075
21
-57.92
0
LINE
8
BLACK
6
CONTINUOUS
10
18.3675
20
-58.04
11
18.3675
21
-61.02
0
LINE
8
BLACK
6
CONTINUOUS
10
18.3675
20
-61.02
11
21.8475
21
-61.02
0
LINE
8
BLACK
6
CONTINUOUS
10
21.8475
20
-61.02
11
21.8475
21
-58.04
0
LINE
8
BLACK
6
CONTINUOUS
10
21.8475
20
-58.04
11
18.3675
21
-58.04
0
LINE
8
BLACK
6
CONTINUOUS
10
40.9075
20
-57.92
11
40.9499
21
-57.9376
0
LINE
8
BLACK
6
CONTINUOUS
10
40.9499
20
-57.9376
11
40.9675
21
-57.98
0
LINE
8
BLACK
6
CONTINUOUS
10
40.9675
20
-57.98
11
40.9675
21
-61.08
0
LINE
8
BLACK
6
CONTINUOUS
10
40.9675
20
-61.08
11
40.9499
21
-61.1224
0
LINE
8
BLACK
6
CONTINUOUS
10
40.9499
20
-61.1224
11
40.9075
21
-61.14
0
LINE
8
BLACK
6
CONTINUOUS
10
40.9075
20
-61.14
11
37.3075
21
-61.14
0
LINE
8
BLACK
6
CONTINUOUS
10
37.3075
20
-61.14
11
37.2651
21
-61.1224
0
LINE
8
BLACK
6
CONTINUOUS
10
37.2651
20
-61.1224
11
37.2475
21
-61.08
0
LINE
8
BLACK
6
CONTINUOUS
10
37.2475
20
-61.08
11
37.2475
21
-57.98
0
LINE
8
BLACK
6
CONTINUOUS
10
37.2475
20
-57.98
11
37.2651
21
-57.9376
0
LINE
8
BLACK
6
CONTINUOUS
10
37.2651
20
-57.9376
11
37.3075
21
-57.92
0
LINE
8
BLACK
6
CONTINUOUS
10
37.3075
20
-57.92
11
40.9075
21
-57.92
0
LINE
8
BLACK
6
CONTINUOUS
10
37.3675
20
-58.04
11
37.3675
21
-61.02
0
LINE
8
BLACK
6
CONTINUOUS
10
37.3675
20
-61.02
11
40.8475
21
-61.02
0
LINE
8
BLACK
6
CONTINUOUS
10
40.8475
20
-61.02
11
40.8475
21
-58.04
0
LINE
8
BLACK
6
CONTINUOUS
10
40.8475
20
-58.04
11
37.3675
21
-58.04
0
LINE
8
BLACK
6
CONTINUOUS
10
116.907
20
-55.545
11
116.95
21
-55.5626
0
LINE
8
BLACK
6
CONTINUOUS
10
116.95
20
-55.5626
11
116.968
21
-55.605
0
LINE
8
BLACK
6
CONTINUOUS
10
116.968
20
-55.605
11
116.968
21
-58.705
0
LINE
8
BLACK
6
CONTINUOUS
10
116.968
20
-58.705
11
116.95
21
-58.7474
0
LINE
8
BLACK
6
CONTINUOUS
10
116.95
20
-58.7474
11
116.907
21
-58.765
0
LINE
8
BLACK
6
CONTINUOUS
10
116.907
20
-58.765
11
113.307
21
-58.765
0
LINE
8
BLACK
6
CONTINUOUS
10
113.307
20
-58.765
11
113.265
21
-58.7474
0
LINE
8
BLACK
6
CONTINUOUS
10
113.265
20
-58.7474
11
113.247
21
-58.705
0
LINE
8
BLACK
6
CONTINUOUS
10
113.247
20
-58.705
11
113.247
21
-58.705
0
LINE
8
BLACK
6
CONTINUOUS
10
113.247
20
-58.705
11
113.247
21
-55.605
0
LINE
8
BLACK
6
CONTINUOUS
10
113.247
20
-55.605
11
113.265
21
-55.5626
0
LINE
8
BLACK
6
CONTINUOUS
10
113.265
20
-55.5626
11
113.307
21
-55.545
0
LINE
8
BLACK
6
CONTINUOUS
10
113.307
20
-55.545
11
116.907
21
-55.545
0
LINE
8
BLACK
6
CONTINUOUS
10
113.367
20
-55.665
11
113.367
21
-58.645
0
LINE
8
BLACK
6
CONTINUOUS
10
113.367
20
-58.645
11
116.847
21
-58.645
0
LINE
8
BLACK
6
CONTINUOUS
10
116.847
20
-58.645
11
116.847
21
-55.665
0
LINE
8
BLACK
6
CONTINUOUS
10
116.847
20
-55.665
11
113.367
21
-55.665
0
LINE
8
BLACK
6
CONTINUOUS
10
59.9075
20
-53.17
11
59.9499
21
-53.1876
0
LINE
8
BLACK
6
CONTINUOUS
10
59.9499
20
-53.1876
11
59.9675
21
-53.23
0
LINE
8
BLACK
6
CONTINUOUS
10
59.9675
20
-53.23
11
59.9675
21
-56.33
0
LINE
8
BLACK
6
CONTINUOUS
10
59.9675
20
-56.33
11
59.9499
21
-56.3724
0
LINE
8
BLACK
6
CONTINUOUS
10
59.9499
20
-56.3724
11
59.9075
21
-56.39
0
LINE
8
BLACK
6
CONTINUOUS
10
59.9075
20
-56.39
11
56.3075
21
-56.39
0
LINE
8
BLACK
6
CONTINUOUS
10
56.3075
20
-56.39
11
56.2651
21
-56.3724
0
LINE
8
BLACK
6
CONTINUOUS
10
56.2651
20
-56.3724
11
56.2475
21
-56.33
0
LINE
8
BLACK
6
CONTINUOUS
10
56.2475
20
-56.33
11
56.2475
21
-53.23
0
LINE
8
BLACK
6
CONTINUOUS
10
56.2475
20
-53.23
11
56.2651
21
-53.1876
0
LINE
8
BLACK
6
CONTINUOUS
10
56.2651
20
-53.1876
11
56.3075
21
-53.17
0
LINE
8
BLACK
6
CONTINUOUS
10
56.3075
20
-53.17
11
59.9075
21
-53.17
0
LINE
8
BLACK
6
CONTINUOUS
10
56.3675
20
-53.29
11
56.3675
21
-56.27
0
LINE
8
BLACK
6
CONTINUOUS
10
56.3675
20
-56.27
11
59.8475
21
-56.27
0
LINE
8
BLACK
6
CONTINUOUS
10
59.8475
20
-56.27
11
59.8475
21
-53.29
0
LINE
8
BLACK
6
CONTINUOUS
10
59.8475
20
-53.29
11
56.3675
21
-53.29
0
LINE
8
BLACK
6
CONTINUOUS
10
97.9075
20
-53.17
11
97.9499
21
-53.1876
0
LINE
8
BLACK
6
CONTINUOUS
10
97.9499
20
-53.1876
11
97.9675
21
-53.23
0
LINE
8
BLACK
6
CONTINUOUS
10
97.9675
20
-53.23
11
97.9675
21
-56.33
0
LINE
8
BLACK
6
CONTINUOUS
10
97.9675
20
-56.33
11
97.9499
21
-56.3724
0
LINE
8
BLACK
6
CONTINUOUS
10
97.9499
20
-56.3724
11
97.9075
21
-56.39
0
LINE
8
BLACK
6
CONTINUOUS
10
97.9075
20
-56.39
11
94.3075
21
-56.39
0
LINE
8
BLACK
6
CONTINUOUS
10
94.3075
20
-56.39
11
94.2651
21
-56.3724
0
LINE
8
BLACK
6
CONTINUOUS
10
94.2651
20
-56.3724
11
94.2475
21
-56.33
0
LINE
8
BLACK
6
CONTINUOUS
10
94.2475
20
-56.33
11
94.2475
21
-56.33
0
LINE
8
BLACK
6
CONTINUOUS
10
94.2475
20
-56.33
11
94.2475
21
-53.23
0
LINE
8
BLACK
6
CONTINUOUS
10
94.2475
20
-53.23
11
94.2651
21
-53.1876
0
LINE
8
BLACK
6
CONTINUOUS
10
94.2651
20
-53.1876
11
94.3075
21
-53.17
0
LINE
8
BLACK
6
CONTINUOUS
10
94.3075
20
-53.17
11
97.9075
21
-53.17
0
LINE
8
BLACK
6
CONTINUOUS
10
94.3675
20
-53.29
11
94.3675
21
-56.27
0
LINE
8
BLACK
6
CONTINUOUS
10
94.3675
20
-56.27
11
97.8475
21
-56.27
0
LINE
8
BLACK
6
CONTINUOUS
10
97.8475
20
-56.27
11
97.8475
21
-53.29
0
LINE
8
BLACK
6
CONTINUOUS
10
97.8475
20
-53.29
11
94.3675
21
-53.29
0
LINE
8
BLACK
6
CONTINUOUS
10
78.9075
20
-50.795
11
78.9499
21
-50.8126
0
LINE
8
BLACK
6
CONTINUOUS
10
78.9499
20
-50.8126
11
78.9675
21
-50.855
0
LINE
8
BLACK
6
CONTINUOUS
10
78.9675
20
-50.855
11
78.9675
21
-53.955
0
LINE
8
BLACK
6
CONTINUOUS
10
78.9675
20
-53.955
11
78.9499
21
-53.9974
0
LINE
8
BLACK
6
CONTINUOUS
10
78.9499
20
-53.9974
11
78.9075
21
-54.015
0
LINE
8
BLACK
6
CONTINUOUS
10
78.9075
20
-54.015
11
75.3075
21
-54.015
0
LINE
8
BLACK
6
CONTINUOUS
10
75.3075
20
-54.015
11
75.2651
21
-53.9974
0
LINE
8
BLACK
6
CONTINUOUS
10
75.2651
20
-53.9974
11
75.2475
21
-53.955
0
LINE
8
BLACK
6
CONTINUOUS
10
75.2475
20
-53.955
11
75.2475
21
-53.955
0
LINE
8
BLACK
6
CONTINUOUS
10
75.2475
20
-53.955
11
75.2475
21
-50.855
0
LINE
8
BLACK
6
CONTINUOUS
10
75.2475
20
-50.855
11
75.2651
21
-50.8126
0
LINE
8
BLACK
6
CONTINUOUS
10
75.2651
20
-50.8126
11
75.3075
21
-50.795
0
LINE
8
BLACK
6
CONTINUOUS
10
75.3075
20
-50.795
11
78.9075
21
-50.795
0
LINE
8
BLACK
6
CONTINUOUS
10
75.3675
20
-50.915
11
75.3675
21
-53.895
0
LINE
8
BLACK
6
CONTINUOUS
10
75.3675
20
-53.895
11
78.8475
21
-53.895
0
LINE
8
BLACK
6
CONTINUOUS
10
78.8475
20
-53.895
11
78.8475
21
-50.915
0
LINE
8
BLACK
6
CONTINUOUS
10
78.8475
20
-50.915
11
75.3675
21
-50.915
0
LINE
8
BLACK
6
CONTINUOUS
10
29.9301
20
-42.9452
11
30.2187
21
-43.0026
0
LINE
8
BLACK
6
CONTINUOUS
10
30.2187
20
-43.0026
11
30.4974
21
-43.0972
0
LINE
8
BLACK
6
CONTINUOUS
10
30.4974
20
-43.0972
11
30.7614
21
-43.2274
0
LINE
8
BLACK
6
CONTINUOUS
10
30.7614
20
-43.2274
11
31.0061
21
-43.3909
0
LINE
8
BLACK
6
CONTINUOUS
10
31.0061
20
-43.3909
11
31.2274
21
-43.5849
0
LINE
8
BLACK
6
CONTINUOUS
10
31.2274
20
-43.5849
11
31.4214
21
-43.8062
0
LINE
8
BLACK
6
CONTINUOUS
10
31.4214
20
-43.8062
11
31.585
21
-44.0509
0
LINE
8
BLACK
6
CONTINUOUS
10
31.585
20
-44.0509
11
31.7151
21
-44.3149
0
LINE
8
BLACK
6
CONTINUOUS
10
31.7151
20
-44.3149
11
31.8097
21
-44.5936
0
LINE
8
BLACK
6
CONTINUOUS
10
31.8097
20
-44.5936
11
31.8672
21
-44.8822
0
LINE
8
BLACK
6
CONTINUOUS
10
31.8672
20
-44.8822
11
31.8864
21
-45.1759
0
LINE
8
BLACK
6
CONTINUOUS
10
31.8864
20
-45.1759
11
31.8672
21
-45.4696
0
LINE
8
BLACK
6
CONTINUOUS
10
31.8672
20
-45.4696
11
31.8097
21
-45.7583
0
LINE
8
BLACK
6
CONTINUOUS
10
31.8097
20
-45.7583
11
31.7151
21
-46.037
0
LINE
8
BLACK
6
CONTINUOUS
10
31.7151
20
-46.037
11
31.585
21
-46.3009
0
LINE
8
BLACK
6
CONTINUOUS
10
31.585
20
-46.3009
11
31.4214
21
-46.5456
0
LINE
8
BLACK
6
CONTINUOUS
10
31.4214
20
-46.5456
11
31.2274
21
-46.7669
0
LINE
8
BLACK
6
CONTINUOUS
10
31.2274
20
-46.7669
11
31.0061
21
-46.961
0
LINE
8
BLACK
6
CONTINUOUS
10
31.0061
20
-46.961
11
30.7614
21
-47.1245
0
LINE
8
BLACK
6
CONTINUOUS
10
30.7614
20
-47.1245
11
30.4974
21
-47.2546
0
LINE
8
BLACK
6
CONTINUOUS
10
30.4974
20
-47.2546
11
30.2187
21
-47.3492
0
LINE
8
BLACK
6
CONTINUOUS
10
30.2187
20
-47.3492
11
29.9301
21
-47.4067
0
LINE
8
BLACK
6
CONTINUOUS
10
29.9301
20
-47.4067
11
29.6364
21
-47.4259
0
LINE
8
BLACK
6
CONTINUOUS
10
29.6364
20
-47.4259
11
29.3427
21
-47.4067
0
LINE
8
BLACK
6
CONTINUOUS
10
29.3427
20
-47.4067
11
29.0541
21
-47.3492
0
LINE
8
BLACK
6
CONTINUOUS
10
29.0541
20
-47.3492
11
28.7754
21
-47.2546
0
LINE
8
BLACK
6
CONTINUOUS
10
28.7754
20
-47.2546
11
28.5114
21
-47.1245
0
LINE
8
BLACK
6
CONTINUOUS
10
28.5114
20
-47.1245
11
28.2667
21
-46.961
0
LINE
8
BLACK
6
CONTINUOUS
10
28.2667
20
-46.961
11
28.0454
21
-46.7669
0
LINE
8
BLACK
6
CONTINUOUS
10
28.0454
20
-46.7669
11
27.8514
21
-46.5456
0
LINE
8
BLACK
6
CONTINUOUS
10
27.8514
20
-46.5456
11
27.6878
21
-46.3009
0
LINE
8
BLACK
6
CONTINUOUS
10
27.6878
20
-46.3009
11
27.5577
21
-46.037
0
LINE
8
BLACK
6
CONTINUOUS
10
27.5577
20
-46.037
11
27.4631
21
-45.7583
0
LINE
8
BLACK
6
CONTINUOUS
10
27.4631
20
-45.7583
11
27.4056
21
-45.4696
0
LINE
8
BLACK
6
CONTINUOUS
10
27.4056
20
-45.4696
11
27.3864
21
-45.1759
0
LINE
8
BLACK
6
CONTINUOUS
10
27.3864
20
-45.1759
11
27.4056
21
-44.8822
0
LINE
8
BLACK
6
CONTINUOUS
10
27.4056
20
-44.8822
11
27.4631
21
-44.5936
0
LINE
8
BLACK
6
CONTINUOUS
10
27.4631
20
-44.5936
11
27.5577
21
-44.3149
0
LINE
8
BLACK
6
CONTINUOUS
10
27.5577
20
-44.3149
11
27.6878
21
-44.0509
0
LINE
8
BLACK
6
CONTINUOUS
10
27.6878
20
-44.0509
11
27.8514
21
-43.8062
0
LINE
8
BLACK
6
CONTINUOUS
10
27.8514
20
-43.8062
11
28.0454
21
-43.5849
0
LINE
8
BLACK
6
CONTINUOUS
10
28.0454
20
-43.5849
11
28.2667
21
-43.3909
0
LINE
8
BLACK
6
CONTINUOUS
10
28.2667
20
-43.3909
11
28.5114
21
-43.2274
0
LINE
8
BLACK
6
CONTINUOUS
10
28.5114
20
-43.2274
11
28.7754
21
-43.0972
0
LINE
8
BLACK
6
CONTINUOUS
10
28.7754
20
-43.0972
11
29.0541
21
-43.0026
0
LINE
8
BLACK
6
CONTINUOUS
10
29.0541
20
-43.0026
11
29.3427
21
-42.9452
0
LINE
8
BLACK
6
CONTINUOUS
10
29.3427
20
-42.9452
11
29.6364
21
-42.9259
0
LINE
8
BLACK
6
CONTINUOUS
10
29.6364
20
-42.9259
11
29.9301
21
-42.9452
0
LINE
8
BLACK
6
CONTINUOUS
10
27.6007
20
-45.4557
11
27.6578
21
-45.7303
0
LINE
8
BLACK
6
CONTINUOUS
10
27.6578
20
-45.7303
11
27.7517
21
-45.9945
0
LINE
8
BLACK
6
CONTINUOUS
10
27.7517
20
-45.9945
11
27.8807
21
-46.2436
0
LINE
8
BLACK
6
CONTINUOUS
10
27.8807
20
-46.2436
11
28.0425
21
-46.4727
0
LINE
8
BLACK
6
CONTINUOUS
10
28.0425
20
-46.4727
11
28.2339
21
-46.6776
0
LINE
8
BLACK
6
CONTINUOUS
10
28.2339
20
-46.6776
11
28.4514
21
-46.8546
0
LINE
8
BLACK
6
CONTINUOUS
10
28.4514
20
-46.8546
11
28.6911
21
-47.0003
0
LINE
8
BLACK
6
CONTINUOUS
10
28.6911
20
-47.0003
11
28.9483
21
-47.1121
0
LINE
8
BLACK
6
CONTINUOUS
10
28.9483
20
-47.1121
11
29.2183
21
-47.1877
0
LINE
8
BLACK
6
CONTINUOUS
10
29.2183
20
-47.1877
11
29.4962
21
-47.2259
0
LINE
8
BLACK
6
CONTINUOUS
10
29.4962
20
-47.2259
11
29.7766
21
-47.2259
0
LINE
8
BLACK
6
CONTINUOUS
10
29.7766
20
-47.2259
11
30.0545
21
-47.1877
0
LINE
8
BLACK
6
CONTINUOUS
10
30.0545
20
-47.1877
11
30.3245
21
-47.1121
0
LINE
8
BLACK
6
CONTINUOUS
10
30.3245
20
-47.1121
11
30.5817
21
-47.0003
0
LINE
8
BLACK
6
CONTINUOUS
10
30.5817
20
-47.0003
11
30.8214
21
-46.8546
0
LINE
8
BLACK
6
CONTINUOUS
10
30.8214
20
-46.8546
11
31.0389
21
-46.6776
0
LINE
8
BLACK
6
CONTINUOUS
10
31.0389
20
-46.6776
11
31.2303
21
-46.4727
0
LINE
8
BLACK
6
CONTINUOUS
10
31.2303
20
-46.4727
11
31.3921
21
-46.2436
0
LINE
8
BLACK
6
CONTINUOUS
10
31.3921
20
-46.2436
11
31.5211
21
-45.9945
0
LINE
8
BLACK
6
CONTINUOUS
10
31.5211
20
-45.9945
11
31.615
21
-45.7303
0
LINE
8
BLACK
6
CONTINUOUS
10
31.615
20
-45.7303
11
31.6721
21
-45.4557
0
LINE
8
BLACK
6
CONTINUOUS
10
31.6721
20
-45.4557
11
31.6912
21
-45.1759
0
LINE
8
BLACK
6
CONTINUOUS
10
31.6912
20
-45.1759
11
31.6721
21
-44.8961
0
LINE
8
BLACK
6
CONTINUOUS
10
31.6721
20
-44.8961
11
31.615
21
-44.6215
0
LINE
8
BLACK
6
CONTINUOUS
10
31.615
20
-44.6215
11
31.5211
21
-44.3573
0
LINE
8
BLACK
6
CONTINUOUS
10
31.5211
20
-44.3573
11
31.3921
21
-44.1083
0
LINE
8
BLACK
6
CONTINUOUS
10
31.3921
20
-44.1083
11
31.2303
21
-43.8792
0
LINE
8
BLACK
6
CONTINUOUS
10
31.2303
20
-43.8792
11
31.0389
21
-43.6742
0
LINE
8
BLACK
6
CONTINUOUS
10
31.0389
20
-43.6742
11
30.8214
21
-43.4972
0
LINE
8
BLACK
6
CONTINUOUS
10
30.8214
20
-43.4972
11
30.5817
21
-43.3515
0
LINE
8
BLACK
6
CONTINUOUS
10
30.5817
20
-43.3515
11
30.3245
21
-43.2398
0
LINE
8
BLACK
6
CONTINUOUS
10
30.3245
20
-43.2398
11
30.0545
21
-43.1641
0
LINE
8
BLACK
6
CONTINUOUS
10
30.0545
20
-43.1641
11
29.7766
21
-43.1259
0
LINE
8
BLACK
6
CONTINUOUS
10
29.7766
20
-43.1259
11
29.4962
21
-43.1259
0
LINE
8
BLACK
6
CONTINUOUS
10
29.4962
20
-43.1259
11
29.2183
21
-43.1641
0
LINE
8
BLACK
6
CONTINUOUS
10
29.2183
20
-43.1641
11
28.9483
21
-43.2398
0
LINE
8
BLACK
6
CONTINUOUS
10
28.9483
20
-43.2398
11
28.6911
21
-43.3515
0
LINE
8
BLACK
6
CONTINUOUS
10
28.6911
20
-43.3515
11
28.4514
21
-43.4972
0
LINE
8
BLACK
6
CONTINUOUS
10
28.4514
20
-43.4972
11
28.2339
21
-43.6742
0
LINE
8
BLACK
6
CONTINUOUS
10
28.2339
20
-43.6742
11
28.0425
21
-43.8792
0
LINE
8
BLACK
6
CONTINUOUS
10
28.0425
20
-43.8792
11
27.8807
21
-44.1083
0
LINE
8
BLACK
6
CONTINUOUS
10
27.8807
20
-44.1083
11
27.7517
21
-44.3573
0
LINE
8
BLACK
6
CONTINUOUS
10
27.7517
20
-44.3573
11
27.6578
21
-44.6215
0
LINE
8
BLACK
6
CONTINUOUS
10
27.6578
20
-44.6215
11
27.6007
21
-44.8961
0
LINE
8
BLACK
6
CONTINUOUS
10
27.6007
20
-44.8961
11
27.5816
21
-45.1759
0
LINE
8
BLACK
6
CONTINUOUS
10
27.5816
20
-45.1759
11
27.6007
21
-45.4557
0
LINE
8
BLACK
6
CONTINUOUS
10
105.898
20
-39.4307
11
106.186
21
-39.4881
0
LINE
8
BLACK
6
CONTINUOUS
10
106.186
20
-39.4881
11
106.465
21
-39.5827
0
LINE
8
BLACK
6
CONTINUOUS
10
106.465
20
-39.5827
11
106.729
21
-39.7129
0
LINE
8
BLACK
6
CONTINUOUS
10
106.729
20
-39.7129
11
106.974
21
-39.8764
0
LINE
8
BLACK
6
CONTINUOUS
10
106.974
20
-39.8764
11
107.195
21
-40.0704
0
LINE
8
BLACK
6
CONTINUOUS
10
107.195
20
-40.0704
11
107.389
21
-40.2917
0
LINE
8
BLACK
6
CONTINUOUS
10
107.389
20
-40.2917
11
107.552
21
-40.5364
0
LINE
8
BLACK
6
CONTINUOUS
10
107.552
20
-40.5364
11
107.683
21
-40.8004
0
LINE
8
BLACK
6
CONTINUOUS
10
107.683
20
-40.8004
11
107.777
21
-41.0791
0
LINE
8
BLACK
6
CONTINUOUS
10
107.777
20
-41.0791
11
107.835
21
-41.3677
0
LINE
8
BLACK
6
CONTINUOUS
10
107.835
20
-41.3677
11
107.854
21
-41.6614
0
LINE
8
BLACK
6
CONTINUOUS
10
107.854
20
-41.6614
11
107.835
21
-41.9551
0
LINE
8
BLACK
6
CONTINUOUS
10
107.835
20
-41.9551
11
107.777
21
-42.2438
0
LINE
8
BLACK
6
CONTINUOUS
10
107.777
20
-42.2438
11
107.683
21
-42.5225
0
LINE
8
BLACK
6
CONTINUOUS
10
107.683
20
-42.5225
11
107.552
21
-42.7864
0
LINE
8
BLACK
6
CONTINUOUS
10
107.552
20
-42.7864
11
107.389
21
-43.0311
0
LINE
8
BLACK
6
CONTINUOUS
10
107.389
20
-43.0311
11
107.195
21
-43.2524
0
LINE
8
BLACK
6
CONTINUOUS
10
107.195
20
-43.2524
11
106.974
21
-43.4465
0
LINE
8
BLACK
6
CONTINUOUS
10
106.974
20
-43.4465
11
106.729
21
-43.61
0
LINE
8
BLACK
6
CONTINUOUS
10
106.729
20
-43.61
11
106.465
21
-43.7401
0
LINE
8
BLACK
6
CONTINUOUS
10
106.465
20
-43.7401
11
106.186
21
-43.8347
0
LINE
8
BLACK
6
CONTINUOUS
10
106.186
20
-43.8347
11
105.898
21
-43.8922
0
LINE
8
BLACK
6
CONTINUOUS
10
105.898
20
-43.8922
11
105.604
21
-43.9114
0
LINE
8
BLACK
6
CONTINUOUS
10
105.604
20
-43.9114
11
105.31
21
-43.8922
0
LINE
8
BLACK
6
CONTINUOUS
10
105.31
20
-43.8922
11
105.022
21
-43.8347
0
LINE
8
BLACK
6
CONTINUOUS
10
105.022
20
-43.8347
11
104.743
21
-43.7401
0
LINE
8
BLACK
6
CONTINUOUS
10
104.743
20
-43.7401
11
104.479
21
-43.61
0
LINE
8
BLACK
6
CONTINUOUS
10
104.479
20
-43.61
11
104.234
21
-43.4465
0
LINE
8
BLACK
6
CONTINUOUS
10
104.234
20
-43.4465
11
104.013
21
-43.2524
0
LINE
8
BLACK
6
CONTINUOUS
10
104.013
20
-43.2524
11
103.819
21
-43.0311
0
LINE
8
BLACK
6
CONTINUOUS
10
103.819
20
-43.0311
11
103.655
21
-42.7864
0
LINE
8
BLACK
6
CONTINUOUS
10
103.655
20
-42.7864
11
103.525
21
-42.5225
0
LINE
8
BLACK
6
CONTINUOUS
10
103.525
20
-42.5225
11
103.431
21
-42.2438
0
LINE
8
BLACK
6
CONTINUOUS
10
103.431
20
-42.2438
11
103.373
21
-41.9551
0
LINE
8
BLACK
6
CONTINUOUS
10
103.373
20
-41.9551
11
103.354
21
-41.6614
0
LINE
8
BLACK
6
CONTINUOUS
10
103.354
20
-41.6614
11
103.373
21
-41.3677
0
LINE
8
BLACK
6
CONTINUOUS
10
103.373
20
-41.3677
11
103.431
21
-41.0791
0
LINE
8
BLACK
6
CONTINUOUS
10
103.431
20
-41.0791
11
103.525
21
-40.8004
0
LINE
8
BLACK
6
CONTINUOUS
10
103.525
20
-40.8004
11
103.655
21
-40.5364
0
LINE
8
BLACK
6
CONTINUOUS
10
103.655
20
-40.5364
11
103.819
21
-40.2917
0
LINE
8
BLACK
6
CONTINUOUS
10
103.819
20
-40.2917
11
104.013
21
-40.0704
0
LINE
8
BLACK
6
CONTINUOUS
10
104.013
20
-40.0704
11
104.234
21
-39.8764
0
LINE
8
BLACK
6
CONTINUOUS
10
104.234
20
-39.8764
11
104.479
21
-39.7129
0
LINE
8
BLACK
6
CONTINUOUS
10
104.479
20
-39.7129
11
104.743
21
-39.5827
0
LINE
8
BLACK
6
CONTINUOUS
10
104.743
20
-39.5827
11
105.022
21
-39.4881
0
LINE
8
BLACK
6
CONTINUOUS
10
105.022
20
-39.4881
11
105.31
21
-39.4307
0
LINE
8
BLACK
6
CONTINUOUS
10
105.31
20
-39.4307
11
105.604
21
-39.4114
0
LINE
8
BLACK
6
CONTINUOUS
10
105.604
20
-39.4114
11
105.898
21
-39.4307
0
LINE
8
BLACK
6
CONTINUOUS
10
103.568
20
-41.9412
11
103.625
21
-42.2158
0
LINE
8
BLACK
6
CONTINUOUS
10
103.625
20
-42.2158
11
103.719
21
-42.48
0
LINE
8
BLACK
6
CONTINUOUS
10
103.719
20
-42.48
11
103.848
21
-42.7291
0
LINE
8
BLACK
6
CONTINUOUS
10
103.848
20
-42.7291
11
104.01
21
-42.9582
0
LINE
8
BLACK
6
CONTINUOUS
10
104.01
20
-42.9582
11
104.201
21
-43.1631
0
LINE
8
BLACK
6
CONTINUOUS
10
104.201
20
-43.1631
11
104.419
21
-43.3401
0
LINE
8
BLACK
6
CONTINUOUS
10
104.419
20
-43.3401
11
104.659
21
-43.4858
0
LINE
8
BLACK
6
CONTINUOUS
10
104.659
20
-43.4858
11
104.916
21
-43.5976
0
LINE
8
BLACK
6
CONTINUOUS
10
104.916
20
-43.5976
11
105.186
21
-43.6732
0
LINE
8
BLACK
6
CONTINUOUS
10
105.186
20
-43.6732
11
105.464
21
-43.7114
0
LINE
8
BLACK
6
CONTINUOUS
10
105.464
20
-43.7114
11
105.744
21
-43.7114
0
LINE
8
BLACK
6
CONTINUOUS
10
105.744
20
-43.7114
11
106.022
21
-43.6732
0
LINE
8
BLACK
6
CONTINUOUS
10
106.022
20
-43.6732
11
106.292
21
-43.5976
0
LINE
8
BLACK
6
CONTINUOUS
10
106.292
20
-43.5976
11
106.549
21
-43.4858
0
LINE
8
BLACK
6
CONTINUOUS
10
106.549
20
-43.4858
11
106.789
21
-43.3401
0
LINE
8
BLACK
6
CONTINUOUS
10
106.789
20
-43.3401
11
107.006
21
-43.1631
0
LINE
8
BLACK
6
CONTINUOUS
10
107.006
20
-43.1631
11
107.198
21
-42.9582
0
LINE
8
BLACK
6
CONTINUOUS
10
107.198
20
-42.9582
11
107.36
21
-42.7291
0
LINE
8
BLACK
6
CONTINUOUS
10
107.36
20
-42.7291
11
107.489
21
-42.48
0
LINE
8
BLACK
6
CONTINUOUS
10
107.489
20
-42.48
11
107.582
21
-42.2158
0
LINE
8
BLACK
6
CONTINUOUS
10
107.582
20
-42.2158
11
107.64
21
-41.9412
0
LINE
8
BLACK
6
CONTINUOUS
10
107.64
20
-41.9412
11
107.659
21
-41.6614
0
LINE
8
BLACK
6
CONTINUOUS
10
107.659
20
-41.6614
11
107.64
21
-41.3816
0
LINE
8
BLACK
6
CONTINUOUS
10
107.64
20
-41.3816
11
107.582
21
-41.107
0
LINE
8
BLACK
6
CONTINUOUS
10
107.582
20
-41.107
11
107.489
21
-40.8428
0
LINE
8
BLACK
6
CONTINUOUS
10
107.489
20
-40.8428
11
107.36
21
-40.5938
0
LINE
8
BLACK
6
CONTINUOUS
10
107.36
20
-40.5938
11
107.198
21
-40.3647
0
LINE
8
BLACK
6
CONTINUOUS
10
107.198
20
-40.3647
11
107.006
21
-40.1597
0
LINE
8
BLACK
6
CONTINUOUS
10
107.006
20
-40.1597
11
106.789
21
-39.9827
0
LINE
8
BLACK
6
CONTINUOUS
10
106.789
20
-39.9827
11
106.549
21
-39.837
0
LINE
8
BLACK
6
CONTINUOUS
10
106.549
20
-39.837
11
106.292
21
-39.7253
0
LINE
8
BLACK
6
CONTINUOUS
10
106.292
20
-39.7253
11
106.022
21
-39.6496
0
LINE
8
BLACK
6
CONTINUOUS
10
106.022
20
-39.6496
11
105.744
21
-39.6114
0
LINE
8
BLACK
6
CONTINUOUS
10
105.744
20
-39.6114
11
105.464
21
-39.6114
0
LINE
8
BLACK
6
CONTINUOUS
10
105.464
20
-39.6114
11
105.186
21
-39.6496
0
LINE
8
BLACK
6
CONTINUOUS
10
105.186
20
-39.6496
11
104.916
21
-39.7253
0
LINE
8
BLACK
6
CONTINUOUS
10
104.916
20
-39.7253
11
104.659
21
-39.837
0
LINE
8
BLACK
6
CONTINUOUS
10
104.659
20
-39.837
11
104.419
21
-39.9827
0
LINE
8
BLACK
6
CONTINUOUS
10
104.419
20
-39.9827
11
104.201
21
-40.1597
0
LINE
8
BLACK
6
CONTINUOUS
10
104.201
20
-40.1597
11
104.01
21
-40.3647
0
LINE
8
BLACK
6
CONTINUOUS
10
104.01
20
-40.3647
11
103.848
21
-40.5938
0
LINE
8
BLACK
6
CONTINUOUS
10
103.848
20
-40.5938
11
103.719
21
-40.8428
0
LINE
8
BLACK
6
CONTINUOUS
10
103.719
20
-40.8428
11
103.625
21
-41.107
0
LINE
8
BLACK
6
CONTINUOUS
10
103.625
20
-41.107
11
103.568
21
-41.3816
0
LINE
8
BLACK
6
CONTINUOUS
10
103.568
20
-41.3816
11
103.549
21
-41.6614
0
LINE
8
BLACK
6
CONTINUOUS
10
103.549
20
-41.6614
11
103.568
21
-41.9412
0
LINE
8
BLACK
6
CONTINUOUS
10
21.9075
20
-38.92
11
21.9499
21
-38.9376
0
LINE
8
BLACK
6
CONTINUOUS
10
21.9499
20
-38.9376
11
21.9675
21
-38.98
0
LINE
8
BLACK
6
CONTINUOUS
10
21.9675
20
-38.98
11
21.9675
21
-42.08
0
LINE
8
BLACK
6
CONTINUOUS
10
21.9675
20
-42.08
11
21.9499
21
-42.1224
0
LINE
8
BLACK
6
CONTINUOUS
10
21.9499
20
-42.1224
11
21.9075
21
-42.14
0
LINE
8
BLACK
6
CONTINUOUS
10
21.9075
20
-42.14
11
18.3075
21
-42.14
0
LINE
8
BLACK
6
CONTINUOUS
10
18.3075
20
-42.14
11
18.2651
21
-42.1224
0
LINE
8
BLACK
6
CONTINUOUS
10
18.2651
20
-42.1224
11
18.2475
21
-42.08
0
LINE
8
BLACK
6
CONTINUOUS
10
18.2475
20
-42.08
11
18.2475
21
-38.98
0
LINE
8
BLACK
6
CONTINUOUS
10
18.2475
20
-38.98
11
18.2651
21
-38.9376
0
LINE
8
BLACK
6
CONTINUOUS
10
18.2651
20
-38.9376
11
18.3075
21
-38.92
0
LINE
8
BLACK
6
CONTINUOUS
10
18.3075
20
-38.92
11
21.9075
21
-38.92
0
LINE
8
BLACK
6
CONTINUOUS
10
18.3675
20
-39.04
11
18.3675
21
-42.02
0
LINE
8
BLACK
6
CONTINUOUS
10
18.3675
20
-42.02
11
21.8475
21
-42.02
0
LINE
8
BLACK
6
CONTINUOUS
10
21.8475
20
-42.02
11
21.8475
21
-39.04
0
LINE
8
BLACK
6
CONTINUOUS
10
21.8475
20
-39.04
11
18.3675
21
-39.04
0
LINE
8
BLACK
6
CONTINUOUS
10
40.9075
20
-38.92
11
40.9499
21
-38.9376
0
LINE
8
BLACK
6
CONTINUOUS
10
40.9499
20
-38.9376
11
40.9675
21
-38.98
0
LINE
8
BLACK
6
CONTINUOUS
10
40.9675
20
-38.98
11
40.9675
21
-42.08
0
LINE
8
BLACK
6
CONTINUOUS
10
40.9675
20
-42.08
11
40.9499
21
-42.1224
0
LINE
8
BLACK
6
CONTINUOUS
10
40.9499
20
-42.1224
11
40.9075
21
-42.14
0
LINE
8
BLACK
6
CONTINUOUS
10
40.9075
20
-42.14
11
37.3075
21
-42.14
0
LINE
8
BLACK
6
CONTINUOUS
10
37.3075
20
-42.14
11
37.2651
21
-42.1224
0
LINE
8
BLACK
6
CONTINUOUS
10
37.2651
20
-42.1224
11
37.2475
21
-42.08
0
LINE
8
BLACK
6
CONTINUOUS
10
37.2475
20
-42.08
11
37.2475
21
-38.98
0
LINE
8
BLACK
6
CONTINUOUS
10
37.2475
20
-38.98
11
37.2651
21
-38.9376
0
LINE
8
BLACK
6
CONTINUOUS
10
37.2651
20
-38.9376
11
37.3075
21
-38.92
0
LINE
8
BLACK
6
CONTINUOUS
10
37.3075
20
-38.92
11
40.9075
21
-38.92
0
LINE
8
BLACK
6
CONTINUOUS
10
37.3675
20
-39.04
11
37.3675
21
-42.02
0
LINE
8
BLACK
6
CONTINUOUS
10
37.3675
20
-42.02
11
40.8475
21
-42.02
0
LINE
8
BLACK
6
CONTINUOUS
10
40.8475
20
-42.02
11
40.8475
21
-39.04
0
LINE
8
BLACK
6
CONTINUOUS
10
40.8475
20
-39.04
11
37.3675
21
-39.04
0
LINE
8
BLACK
6
CONTINUOUS
10
116.907
20
-36.545
11
116.95
21
-36.5626
0
LINE
8
BLACK
6
CONTINUOUS
10
116.95
20
-36.5626
11
116.968
21
-36.605
0
LINE
8
BLACK
6
CONTINUOUS
10
116.968
20
-36.605
11
116.968
21
-39.705
0
LINE
8
BLACK
6
CONTINUOUS
10
116.968
20
-39.705
11
116.95
21
-39.7474
0
LINE
8
BLACK
6
CONTINUOUS
10
116.95
20
-39.7474
11
116.907
21
-39.765
0
LINE
8
BLACK
6
CONTINUOUS
10
116.907
20
-39.765
11
113.307
21
-39.765
0
LINE
8
BLACK
6
CONTINUOUS
10
113.307
20
-39.765
11
113.265
21
-39.7474
0
LINE
8
BLACK
6
CONTINUOUS
10
113.265
20
-39.7474
11
113.247
21
-39.705
0
LINE
8
BLACK
6
CONTINUOUS
10
113.247
20
-39.705
11
113.247
21
-39.705
0
LINE
8
BLACK
6
CONTINUOUS
10
113.247
20
-39.705
11
113.247
21
-36.605
0
LINE
8
BLACK
6
CONTINUOUS
10
113.247
20
-36.605
11
113.265
21
-36.5626
0
LINE
8
BLACK
6
CONTINUOUS
10
113.265
20
-36.5626
11
113.307
21
-36.545
0
LINE
8
BLACK
6
CONTINUOUS
10
113.307
20
-36.545
11
116.907
21
-36.545
0
LINE
8
BLACK
6
CONTINUOUS
10
113.367
20
-36.665
11
113.367
21
-39.645
0
LINE
8
BLACK
6
CONTINUOUS
10
113.367
20
-39.645
11
116.847
21
-39.645
0
LINE
8
BLACK
6
CONTINUOUS
10
116.847
20
-39.645
11
116.847
21
-36.665
0
LINE
8
BLACK
6
CONTINUOUS
10
116.847
20
-36.665
11
113.367
21
-36.665
0
LINE
8
BLACK
6
CONTINUOUS
10
59.9075
20
-34.17
11
59.9499
21
-34.1876
0
LINE
8
BLACK
6
CONTINUOUS
10
59.9499
20
-34.1876
11
59.9675
21
-34.23
0
LINE
8
BLACK
6
CONTINUOUS
10
59.9675
20
-34.23
11
59.9675
21
-37.33
0
LINE
8
BLACK
6
CONTINUOUS
10
59.9675
20
-37.33
11
59.9499
21
-37.3724
0
LINE
8
BLACK
6
CONTINUOUS
10
59.9499
20
-37.3724
11
59.9075
21
-37.39
0
LINE
8
BLACK
6
CONTINUOUS
10
59.9075
20
-37.39
11
56.3075
21
-37.39
0
LINE
8
BLACK
6
CONTINUOUS
10
56.3075
20
-37.39
11
56.2651
21
-37.3724
0
LINE
8
BLACK
6
CONTINUOUS
10
56.2651
20
-37.3724
11
56.2475
21
-37.33
0
LINE
8
BLACK
6
CONTINUOUS
10
56.2475
20
-37.33
11
56.2475
21
-34.23
0
LINE
8
BLACK
6
CONTINUOUS
10
56.2475
20
-34.23
11
56.2651
21
-34.1876
0
LINE
8
BLACK
6
CONTINUOUS
10
56.2651
20
-34.1876
11
56.3075
21
-34.17
0
LINE
8
BLACK
6
CONTINUOUS
10
56.3075
20
-34.17
11
59.9075
21
-34.17
0
LINE
8
BLACK
6
CONTINUOUS
10
56.3675
20
-34.29
11
56.3675
21
-37.27
0
LINE
8
BLACK
6
CONTINUOUS
10
56.3675
20
-37.27
11
59.8475
21
-37.27
0
LINE
8
BLACK
6
CONTINUOUS
10
59.8475
20
-37.27
11
59.8475
21
-34.29
0
LINE
8
BLACK
6
CONTINUOUS
10
59.8475
20
-34.29
11
56.3675
21
-34.29
0
LINE
8
BLACK
6
CONTINUOUS
10
97.9075
20
-34.17
11
97.9499
21
-34.1876
0
LINE
8
BLACK
6
CONTINUOUS
10
97.9499
20
-34.1876
11
97.9675
21
-34.23
0
LINE
8
BLACK
6
CONTINUOUS
10
97.9675
20
-34.23
11
97.9675
21
-37.33
0
LINE
8
BLACK
6
CONTINUOUS
10
97.9675
20
-37.33
11
97.9499
21
-37.3724
0
LINE
8
BLACK
6
CONTINUOUS
10
97.9499
20
-37.3724
11
97.9075
21
-37.39
0
LINE
8
BLACK
6
CONTINUOUS
10
97.9075
20
-37.39
11
94.3075
21
-37.39
0
LINE
8
BLACK
6
CONTINUOUS
10
94.3075
20
-37.39
11
94.2651
21
-37.3724
0
LINE
8
BLACK
6
CONTINUOUS
10
94.2651
20
-37.3724
11
94.2475
21
-37.33
0
LINE
8
BLACK
6
CONTINUOUS
10
94.2475
20
-37.33
11
94.2475
21
-37.33
0
LINE
8
BLACK
6
CONTINUOUS
10
94.2475
20
-37.33
11
94.2475
21
-34.23
0
LINE
8
BLACK
6
CONTINUOUS
10
94.2475
20
-34.23
11
94.2651
21
-34.1876
0
LINE
8
BLACK
6
CONTINUOUS
10
94.2651
20
-34.1876
11
94.3075
21
-34.17
0
LINE
8
BLACK
6
CONTINUOUS
10
94.3075
20
-34.17
11
97.9075
21
-34.17
0
LINE
8
BLACK
6
CONTINUOUS
10
94.3675
20
-34.29
11
94.3675
21
-37.27
0
LINE
8
BLACK
6
CONTINUOUS
10
94.3675
20
-37.27
11
97.8475
21
-37.27
0
LINE
8
BLACK
6
CONTINUOUS
10
97.8475
20
-37.27
11
97.8475
21
-34.29
0
LINE
8
BLACK
6
CONTINUOUS
10
97.8475
20
-34.29
11
94.3675
21
-34.29
0
LINE
8
BLACK
6
CONTINUOUS
10
78.9075
20
-31.795
11
78.9499
21
-31.8126
0
LINE
8
BLACK
6
CONTINUOUS
10
78.9499
20
-31.8126
11
78.9675
21
-31.855
0
LINE
8
BLACK
6
CONTINUOUS
10
78.9675
20
-31.855
11
78.9675
21
-34.955
0
LINE
8
BLACK
6
CONTINUOUS
10
78.9675
20
-34.955
11
78.9499
21
-34.9974
0
LINE
8
BLACK
6
CONTINUOUS
10
78.9499
20
-34.9974
11
78.9075
21
-35.015
0
LINE
8
BLACK
6
CONTINUOUS
10
78.9075
20
-35.015
11
75.3075
21
-35.015
0
LINE
8
BLACK
6
CONTINUOUS
10
75.3075
20
-35.015
11
75.2651
21
-34.9974
0
LINE
8
BLACK
6
CONTINUOUS
10
75.2651
20
-34.9974
11
75.2475
21
-34.955
0
LINE
8
BLACK
6
CONTINUOUS
10
75.2475
20
-34.955
11
75.2475
21
-34.955
0
LINE
8
BLACK
6
CONTINUOUS
10
75.2475
20
-34.955
11
75.2475
21
-31.855
0
LINE
8
BLACK
6
CONTINUOUS
10
75.2475
20
-31.855
11
75.2651
21
-31.8126
0
LINE
8
BLACK
6
CONTINUOUS
10
75.2651
20
-31.8126
11
75.3075
21
-31.795
0
LINE
8
BLACK
6
CONTINUOUS
10
75.3075
20
-31.795
11
78.9075
21
-31.795
0
LINE
8
BLACK
6
CONTINUOUS
10
75.3675
20
-31.915
11
75.3675
21
-34.895
0
LINE
8
BLACK
6
CONTINUOUS
10
75.3675
20
-34.895
11
78.8475
21
-34.895
0
LINE
8
BLACK
6
CONTINUOUS
10
78.8475
20
-34.895
11
78.8475
21
-31.915
0
LINE
8
BLACK
6
CONTINUOUS
10
78.8475
20
-31.915
11
75.3675
21
-31.915
0
LINE
8
BLACK
6
CONTINUOUS
10
68.7194
20
-19.5642
11
85.7185
21
-19.5642
0
LINE
8
BLACK
6
CONTINUOUS
10
85.7185
20
-19.5642
11
85.852
21
-19.5793
0
LINE
8
BLACK
6
CONTINUOUS
10
85.852
20
-19.5793
11
85.9788
21
-19.6236
0
LINE
8
BLACK
6
CONTINUOUS
10
85.9788
20
-19.6236
11
86.0926
21
-19.6951
0
LINE
8
BLACK
6
CONTINUOUS
10
86.0926
20
-19.6951
11
86.1876
21
-19.7901
0
LINE
8
BLACK
6
CONTINUOUS
10
86.1876
20
-19.7901
11
86.2591
21
-19.9039
0
LINE
8
BLACK
6
CONTINUOUS
10
86.2591
20
-19.9039
11
86.3034
21
-20.0307
0
LINE
8
BLACK
6
CONTINUOUS
10
86.3034
20
-20.0307
11
86.3185
21
-20.1641
0
LINE
8
BLACK
6
CONTINUOUS
10
86.3185
20
-20.1641
11
86.3185
21
-20.1642
0
LINE
8
BLACK
6
CONTINUOUS
10
86.3185
20
-20.1642
11
86.3185
21
-21.4162
0
LINE
8
BLACK
6
CONTINUOUS
10
86.3185
20
-21.4162
11
86.3185
21
-21.4163
0
LINE
8
BLACK
6
CONTINUOUS
10
86.3185
20
-21.4163
11
86.3185
21
-21.4689
0
LINE
8
BLACK
6
CONTINUOUS
10
86.3185
20
-21.4689
11
86.3457
21
-21.5706
0
LINE
8
BLACK
6
CONTINUOUS
10
86.3457
20
-21.5706
11
86.3984
21
-21.6618
0
LINE
8
BLACK
6
CONTINUOUS
10
86.3984
20
-21.6618
11
86.4729
21
-21.7363
0
LINE
8
BLACK
6
CONTINUOUS
10
86.4729
20
-21.7363
11
86.5641
21
-21.789
0
LINE
8
BLACK
6
CONTINUOUS
10
86.5641
20
-21.789
11
86.6658
21
-21.8162
0
LINE
8
BLACK
6
CONTINUOUS
10
86.6658
20
-21.8162
11
86.7185
21
-21.8162
0
LINE
8
BLACK
6
CONTINUOUS
10
86.7185
20
-21.8162
11
98.5915
21
-21.8162
0
LINE
8
BLACK
6
CONTINUOUS
10
98.5915
20
-21.8162
11
98.5964
21
-21.8146
0
LINE
8
BLACK
6
CONTINUOUS
10
98.5964
20
-21.8146
11
104.718
21
-21.8146
0
LINE
8
BLACK
6
CONTINUOUS
10
104.718
20
-21.8146
11
104.851
21
-21.8297
0
LINE
8
BLACK
6
CONTINUOUS
10
104.851
20
-21.8297
11
104.978
21
-21.874
0
LINE
8
BLACK
6
CONTINUOUS
10
104.978
20
-21.874
11
105.092
21
-21.9455
0
LINE
8
BLACK
6
CONTINUOUS
10
105.092
20
-21.9455
11
105.187
21
-22.0405
0
LINE
8
BLACK
6
CONTINUOUS
10
105.187
20
-22.0405
11
105.258
21
-22.1543
0
LINE
8
BLACK
6
CONTINUOUS
10
105.258
20
-22.1543
11
105.303
21
-22.2811
0
LINE
8
BLACK
6
CONTINUOUS
10
105.303
20
-22.2811
11
105.318
21
-22.4145
0
LINE
8
BLACK
6
CONTINUOUS
10
105.318
20
-22.4145
11
105.318
21
-22.4146
0
LINE
8
BLACK
6
CONTINUOUS
10
105.318
20
-22.4146
11
105.318
21
-23.914
0
LINE
8
BLACK
6
CONTINUOUS
10
105.318
20
-23.914
11
105.318
21
-23.9141
0
LINE
8
BLACK
6
CONTINUOUS
10
105.318
20
-23.9141
11
105.318
21
-23.9667
0
LINE
8
BLACK
6
CONTINUOUS
10
105.318
20
-23.9667
11
105.345
21
-24.0684
0
LINE
8
BLACK
6
CONTINUOUS
10
105.345
20
-24.0684
11
105.398
21
-24.1596
0
LINE
8
BLACK
6
CONTINUOUS
10
105.398
20
-24.1596
11
105.472
21
-24.2341
0
LINE
8
BLACK
6
CONTINUOUS
10
105.472
20
-24.2341
11
105.564
21
-24.2868
0
LINE
8
BLACK
6
CONTINUOUS
10
105.564
20
-24.2868
11
105.665
21
-24.314
0
LINE
8
BLACK
6
CONTINUOUS
10
105.665
20
-24.314
11
105.718
21
-24.314
0
LINE
8
BLACK
6
CONTINUOUS
10
105.718
20
-24.314
11
123.717
21
-24.314
0
LINE
8
BLACK
6
CONTINUOUS
10
123.717
20
-24.314
11
123.85
21
-24.329
0
LINE
8
BLACK
6
CONTINUOUS
10
123.85
20
-24.329
11
123.977
21
-24.3733
0
LINE
8
BLACK
6
CONTINUOUS
10
123.977
20
-24.3733
11
124.091
21
-24.4447
0
LINE
8
BLACK
6
CONTINUOUS
10
124.091
20
-24.4447
11
124.186
21
-24.5395
0
LINE
8
BLACK
6
CONTINUOUS
10
124.186
20
-24.5395
11
124.257
21
-24.6531
0
LINE
8
BLACK
6
CONTINUOUS
10
124.257
20
-24.6531
11
124.302
21
-24.7797
0
LINE
8
BLACK
6
CONTINUOUS
10
124.302
20
-24.7797
11
124.317
21
-24.913
0
LINE
8
BLACK
6
CONTINUOUS
10
124.317
20
-24.913
11
124.317
21
-24.9131
0
LINE
8
BLACK
6
CONTINUOUS
10
124.317
20
-24.9131
11
124.319
21
-26.1669
0
LINE
8
BLACK
6
CONTINUOUS
10
124.319
20
-26.1669
11
124.319
21
-26.1669
0
LINE
8
BLACK
6
CONTINUOUS
10
124.319
20
-26.1669
11
124.319
21
-26.2195
0
LINE
8
BLACK
6
CONTINUOUS
10
124.319
20
-26.2195
11
124.346
21
-26.3211
0
LINE
8
BLACK
6
CONTINUOUS
10
124.346
20
-26.3211
11
124.399
21
-26.4121
0
LINE
8
BLACK
6
CONTINUOUS
10
124.399
20
-26.4121
11
124.474
21
-26.4865
0
LINE
8
BLACK
6
CONTINUOUS
10
124.474
20
-26.4865
11
124.565
21
-26.539
0
LINE
8
BLACK
6
CONTINUOUS
10
124.565
20
-26.539
11
124.666
21
-26.5662
0
LINE
8
BLACK
6
CONTINUOUS
10
124.666
20
-26.5662
11
124.719
21
-26.5662
0
LINE
8
BLACK
6
CONTINUOUS
10
124.719
20
-26.5662
11
144.469
21
-26.5644
0
LINE
8
BLACK
6
CONTINUOUS
10
144.469
20
-26.5644
11
144.602
21
-26.5794
0
LINE
8
BLACK
6
CONTINUOUS
10
144.602
20
-26.5794
11
144.729
21
-26.6238
0
LINE
8
BLACK
6
CONTINUOUS
10
144.729
20
-26.6238
11
144.843
21
-26.6953
0
LINE
8
BLACK
6
CONTINUOUS
10
144.843
20
-26.6953
11
144.938
21
-26.7903
0
LINE
8
BLACK
6
CONTINUOUS
10
144.938
20
-26.7903
11
145.009
21
-26.9041
0
LINE
8
BLACK
6
CONTINUOUS
10
145.009
20
-26.9041
11
145.054
21
-27.0309
0
LINE
8
BLACK
6
CONTINUOUS
10
145.054
20
-27.0309
11
145.069
21
-27.1643
0
LINE
8
BLACK
6
CONTINUOUS
10
145.069
20
-27.1643
11
145.069
21
-27.1644
0
LINE
8
BLACK
6
CONTINUOUS
10
145.069
20
-27.1644
11
145.069
21
-86.9894
0
LINE
8
BLACK
6
CONTINUOUS
10
145.069
20
-86.9894
11
145.069
21
-86.9894
0
LINE
8
BLACK
6
CONTINUOUS
10
145.069
20
-86.9894
11
145.06
21
-87.0935
0
LINE
8
BLACK
6
CONTINUOUS
10
145.06
20
-87.0935
11
145.033
21
-87.1944
0
LINE
8
BLACK
6
CONTINUOUS
10
145.033
20
-87.1944
11
144.989
21
-87.2891
0
LINE
8
BLACK
6
CONTINUOUS
10
144.989
20
-87.2891
11
144.989
21
-87.2892
0
LINE
8
BLACK
6
CONTINUOUS
10
144.989
20
-87.2892
11
131.208
21
-111.184
0
LINE
8
BLACK
6
CONTINUOUS
10
131.208
20
-111.184
11
131.208
21
-111.184
0
LINE
8
BLACK
6
CONTINUOUS
10
131.208
20
-111.184
11
131.208
21
-111.184
0
LINE
8
BLACK
6
CONTINUOUS
10
131.208
20
-111.184
11
131.208
21
-111.184
0
LINE
8
BLACK
6
CONTINUOUS
10
131.208
20
-111.184
11
131.128
21
-111.292
0
LINE
8
BLACK
6
CONTINUOUS
10
131.128
20
-111.292
11
131.026
21
-111.38
0
LINE
8
BLACK
6
CONTINUOUS
10
131.026
20
-111.38
11
130.907
21
-111.443
0
LINE
8
BLACK
6
CONTINUOUS
10
130.907
20
-111.443
11
130.777
21
-111.478
0
LINE
8
BLACK
6
CONTINUOUS
10
130.777
20
-111.478
11
130.643
21
-111.483
0
LINE
8
BLACK
6
CONTINUOUS
10
130.643
20
-111.483
11
130.511
21
-111.458
0
LINE
8
BLACK
6
CONTINUOUS
10
130.511
20
-111.458
11
130.388
21
-111.404
0
LINE
8
BLACK
6
CONTINUOUS
10
130.388
20
-111.404
11
130.388
21
-111.404
0
LINE
8
BLACK
6
CONTINUOUS
10
130.388
20
-111.404
11
130.388
21
-111.404
0
LINE
8
BLACK
6
CONTINUOUS
10
130.388
20
-111.404
11
130.388
21
-111.404
0
LINE
8
BLACK
6
CONTINUOUS
10
130.388
20
-111.404
11
130.388
21
-111.404
0
LINE
8
BLACK
6
CONTINUOUS
10
130.388
20
-111.404
11
115.23
21
-102.645
0
LINE
8
BLACK
6
CONTINUOUS
10
115.23
20
-102.645
11
115.23
21
-102.645
0
LINE
8
BLACK
6
CONTINUOUS
10
115.23
20
-102.645
11
115.207
21
-102.631
0
LINE
8
BLACK
6
CONTINUOUS
10
115.207
20
-102.631
11
115.159
21
-102.611
0
LINE
8
BLACK
6
CONTINUOUS
10
115.159
20
-102.611
11
115.108
21
-102.598
0
LINE
8
BLACK
6
CONTINUOUS
10
115.108
20
-102.598
11
115.082
21
-102.594
0
LINE
8
BLACK
6
CONTINUOUS
10
115.082
20
-102.594
11
115.082
21
-102.594
0
LINE
8
BLACK
6
CONTINUOUS
10
115.082
20
-102.594
11
77.8967
21
-97.7574
0
LINE
8
BLACK
6
CONTINUOUS
10
77.8967
20
-97.7574
11
77.8967
21
-97.7574
0
LINE
8
BLACK
6
CONTINUOUS
10
77.8967
20
-97.7574
11
77.8966
21
-97.7574
0
LINE
8
BLACK
6
CONTINUOUS
10
77.8966
20
-97.7574
11
77.8966
21
-97.7574
0
LINE
8
BLACK
6
CONTINUOUS
10
77.8966
20
-97.7574
11
77.7784
21
-97.7296
0
LINE
8
BLACK
6
CONTINUOUS
10
77.7784
20
-97.7296
11
77.6682
21
-97.6785
0
LINE
8
BLACK
6
CONTINUOUS
10
77.6682
20
-97.6785
11
77.5705
21
-97.6063
0
LINE
8
BLACK
6
CONTINUOUS
10
77.5705
20
-97.6063
11
77.4895
21
-97.5161
0
LINE
8
BLACK
6
CONTINUOUS
10
77.4895
20
-97.5161
11
77.4893
21
-97.5159
0
LINE
8
BLACK
6
CONTINUOUS
10
77.4893
20
-97.5159
11
77.4893
21
-97.5159
0
LINE
8
BLACK
6
CONTINUOUS
10
77.4893
20
-97.5159
11
77.4893
21
-97.5159
0
LINE
8
BLACK
6
CONTINUOUS
10
77.4893
20
-97.5159
11
67.0349
21
-83.1803
0
LINE
8
BLACK
6
CONTINUOUS
10
67.0349
20
-83.1803
11
67.0349
21
-83.1803
0
LINE
8
BLACK
6
CONTINUOUS
10
67.0349
20
-83.1803
11
67.0349
21
-83.1803
0
LINE
8
BLACK
6
CONTINUOUS
10
67.0349
20
-83.1803
11
67.0349
21
-83.1803
0
LINE
8
BLACK
6
CONTINUOUS
10
67.0349
20
-83.1803
11
67.007
21
-83.1422
0
LINE
8
BLACK
6
CONTINUOUS
10
67.007
20
-83.1422
11
66.9351
21
-83.0809
0
LINE
8
BLACK
6
CONTINUOUS
10
66.9351
20
-83.0809
11
66.8509
21
-83.0381
0
LINE
8
BLACK
6
CONTINUOUS
10
66.8509
20
-83.0381
11
66.759
21
-83.0161
0
LINE
8
BLACK
6
CONTINUOUS
10
66.759
20
-83.0161
11
66.7117
21
-83.016
0
LINE
8
BLACK
6
CONTINUOUS
10
66.7117
20
-83.016
11
66.7117
21
-83.016
0
LINE
8
BLACK
6
CONTINUOUS
10
66.7117
20
-83.016
11
66.7117
21
-83.016
0
LINE
8
BLACK
6
CONTINUOUS
10
66.7117
20
-83.016
11
60.5864
21
-83.017
0
LINE
8
BLACK
6
CONTINUOUS
10
60.5864
20
-83.017
11
60.5864
21
-83.017
0
LINE
8
BLACK
6
CONTINUOUS
10
60.5864
20
-83.017
11
60.5864
21
-83.017
0
LINE
8
BLACK
6
CONTINUOUS
10
60.5864
20
-83.017
11
17.8364
21
-83.0162
0
LINE
8
BLACK
6
CONTINUOUS
10
17.8364
20
-83.0162
11
17.8364
21
-83.0162
0
LINE
8
BLACK
6
CONTINUOUS
10
17.8364
20
-83.0162
11
17.8364
21
-83.0162
0
LINE
8
BLACK
6
CONTINUOUS
10
17.8364
20
-83.0162
11
11.7175
21
-83.016
0
LINE
8
BLACK
6
CONTINUOUS
10
11.7175
20
-83.016
11
11.584
21
-83.001
0
LINE
8
BLACK
6
CONTINUOUS
10
11.584
20
-83.001
11
11.4571
21
-82.9566
0
LINE
8
BLACK
6
CONTINUOUS
10
11.4571
20
-82.9566
11
11.3434
21
-82.8851
0
LINE
8
BLACK
6
CONTINUOUS
10
11.3434
20
-82.8851
11
11.2484
21
-82.7901
0
LINE
8
BLACK
6
CONTINUOUS
10
11.2484
20
-82.7901
11
11.1769
21
-82.6763
0
LINE
8
BLACK
6
CONTINUOUS
10
11.1769
20
-82.6763
11
11.1325
21
-82.5495
0
LINE
8
BLACK
6
CONTINUOUS
10
11.1325
20
-82.5495
11
11.1175
21
-82.416
0
LINE
8
BLACK
6
CONTINUOUS
10
11.1175
20
-82.416
11
11.1175
21
-82.416
0
LINE
8
BLACK
6
CONTINUOUS
10
11.1175
20
-82.416
11
11.1175
21
-82.416
0
LINE
8
BLACK
6
CONTINUOUS
10
11.1175
20
-82.416
11
11.1175
21
-82.416
0
LINE
8
BLACK
6
CONTINUOUS
10
11.1175
20
-82.416
11
11.1193
21
-27.1662
0
LINE
8
BLACK
6
CONTINUOUS
10
11.1193
20
-27.1662
11
11.1193
21
-27.1662
0
LINE
8
BLACK
6
CONTINUOUS
10
11.1193
20
-27.1662
11
11.1343
21
-27.0327
0
LINE
8
BLACK
6
CONTINUOUS
10
11.1343
20
-27.0327
11
11.1787
21
-26.9059
0
LINE
8
BLACK
6
CONTINUOUS
10
11.1787
20
-26.9059
11
11.2502
21
-26.7921
0
LINE
8
BLACK
6
CONTINUOUS
10
11.2502
20
-26.7921
11
11.3452
21
-26.6971
0
LINE
8
BLACK
6
CONTINUOUS
10
11.3452
20
-26.6971
11
11.459
21
-26.6256
0
LINE
8
BLACK
6
CONTINUOUS
10
11.459
20
-26.6256
11
11.5858
21
-26.5812
0
LINE
8
BLACK
6
CONTINUOUS
10
11.5858
20
-26.5812
11
11.7193
21
-26.5662
0
LINE
8
BLACK
6
CONTINUOUS
10
11.7193
20
-26.5662
11
11.7193
21
-26.5662
0
LINE
8
BLACK
6
CONTINUOUS
10
11.7193
20
-26.5662
11
48.7184
21
-26.5644
0
LINE
8
BLACK
6
CONTINUOUS
10
48.7184
20
-26.5644
11
48.7184
21
-26.5644
0
LINE
8
BLACK
6
CONTINUOUS
10
48.7184
20
-26.5644
11
48.7711
21
-26.5644
0
LINE
8
BLACK
6
CONTINUOUS
10
48.7711
20
-26.5644
11
48.8728
21
-26.5371
0
LINE
8
BLACK
6
CONTINUOUS
10
48.8728
20
-26.5371
11
48.964
21
-26.4845
0
LINE
8
BLACK
6
CONTINUOUS
10
48.964
20
-26.4845
11
49.0385
21
-26.41
0
LINE
8
BLACK
6
CONTINUOUS
10
49.0385
20
-26.41
11
49.0911
21
-26.3188
0
LINE
8
BLACK
6
CONTINUOUS
10
49.0911
20
-26.3188
11
49.1184
21
-26.2171
0
LINE
8
BLACK
6
CONTINUOUS
10
49.1184
20
-26.2171
11
49.1184
21
-26.1644
0
LINE
8
BLACK
6
CONTINUOUS
10
49.1184
20
-26.1644
11
49.1184
21
-26.1644
0
LINE
8
BLACK
6
CONTINUOUS
10
49.1184
20
-26.1644
11
49.1184
21
-22.4162
0
LINE
8
BLACK
6
CONTINUOUS
10
49.1184
20
-22.4162
11
49.1184
21
-22.4162
0
LINE
8
BLACK
6
CONTINUOUS
10
49.1184
20
-22.4162
11
49.1334
21
-22.2827
0
LINE
8
BLACK
6
CONTINUOUS
10
49.1334
20
-22.2827
11
49.1778
21
-22.1559
0
LINE
8
BLACK
6
CONTINUOUS
10
49.1778
20
-22.1559
11
49.2493
21
-22.0421
0
LINE
8
BLACK
6
CONTINUOUS
10
49.2493
20
-22.0421
11
49.3443
21
-21.9471
0
LINE
8
BLACK
6
CONTINUOUS
10
49.3443
20
-21.9471
11
49.4581
21
-21.8756
0
LINE
8
BLACK
6
CONTINUOUS
10
49.4581
20
-21.8756
11
49.5849
21
-21.8312
0
LINE
8
BLACK
6
CONTINUOUS
10
49.5849
20
-21.8312
11
49.7184
21
-21.8162
0
LINE
8
BLACK
6
CONTINUOUS
10
49.7184
20
-21.8162
11
49.7184
21
-21.8162
0
LINE
8
BLACK
6
CONTINUOUS
10
49.7184
20
-21.8162
11
60.6064
21
-21.8146
0
LINE
8
BLACK
6
CONTINUOUS
10
60.6064
20
-21.8146
11
60.6064
21
-21.8146
0
LINE
8
BLACK
6
CONTINUOUS
10
60.6064
20
-21.8146
11
60.6064
21
-21.8146
0
LINE
8
BLACK
6
CONTINUOUS
10
60.6064
20
-21.8146
11
67.7176
21
-21.8146
0
LINE
8
BLACK
6
CONTINUOUS
10
67.7176
20
-21.8146
11
67.7176
21
-21.8146
0
LINE
8
BLACK
6
CONTINUOUS
10
67.7176
20
-21.8146
11
67.7702
21
-21.8146
0
LINE
8
BLACK
6
CONTINUOUS
10
67.7702
20
-21.8146
11
67.8719
21
-21.7874
0
LINE
8
BLACK
6
CONTINUOUS
10
67.8719
20
-21.7874
11
67.963
21
-21.7348
0
LINE
8
BLACK
6
CONTINUOUS
10
67.963
20
-21.7348
11
68.0375
21
-21.6605
0
LINE
8
BLACK
6
CONTINUOUS
10
68.0375
20
-21.6605
11
68.0902
21
-21.5694
0
LINE
8
BLACK
6
CONTINUOUS
10
68.0902
20
-21.5694
11
68.1175
21
-21.4678
0
LINE
8
BLACK
6
CONTINUOUS
10
68.1175
20
-21.4678
11
68.1176
21
-21.4152
0
LINE
8
BLACK
6
CONTINUOUS
10
68.1176
20
-21.4152
11
68.1176
21
-21.4152
0
LINE
8
BLACK
6
CONTINUOUS
10
68.1176
20
-21.4152
11
68.1194
21
-20.1634
0
LINE
8
BLACK
6
CONTINUOUS
10
68.1194
20
-20.1634
11
68.1194
21
-20.1633
0
LINE
8
BLACK
6
CONTINUOUS
10
68.1194
20
-20.1633
11
68.1346
21
-20.03
0
LINE
8
BLACK
6
CONTINUOUS
10
68.1346
20
-20.03
11
68.1791
21
-19.9033
0
LINE
8
BLACK
6
CONTINUOUS
10
68.1791
20
-19.9033
11
68.2506
21
-19.7897
0
LINE
8
BLACK
6
CONTINUOUS
10
68.2506
20
-19.7897
11
68.3456
21
-19.6949
0
LINE
8
BLACK
6
CONTINUOUS
10
68.3456
20
-19.6949
11
68.4593
21
-19.6235
0
LINE
8
BLACK
6
CONTINUOUS
10
68.4593
20
-19.6235
11
68.586
21
-19.5792
0
LINE
8
BLACK
6
CONTINUOUS
10
68.586
20
-19.5792
11
68.7194
21
-19.5642
0
LINE
8
BLACK
6
CONTINUOUS
10
68.7194
20
-19.5642
11
68.7194
21
-19.5642
0
LINE
8
BLACK
6
CONTINUOUS
10
68.5651
20
-19.7914
11
68.474
21
-19.844
0
LINE
8
BLACK
6
CONTINUOUS
10
68.474
20
-19.844
11
68.3995
21
-19.9183
0
LINE
8
BLACK
6
CONTINUOUS
10
68.3995
20
-19.9183
11
68.3468
21
-20.0094
0
LINE
8
BLACK
6
CONTINUOUS
10
68.3468
20
-20.0094
11
68.3195
21
-20.111
0
LINE
8
BLACK
6
CONTINUOUS
10
68.3195
20
-20.111
11
68.3194
21
-20.1636
0
LINE
8
BLACK
6
CONTINUOUS
10
68.3194
20
-20.1636
11
68.3194
21
-20.1636
0
LINE
8
BLACK
6
CONTINUOUS
10
68.3194
20
-20.1636
11
68.3194
21
-20.1636
0
LINE
8
BLACK
6
CONTINUOUS
10
68.3194
20
-20.1636
11
68.3176
21
-21.4155
0
LINE
8
BLACK
6
CONTINUOUS
10
68.3176
20
-21.4155
11
68.3176
21
-21.4155
0
LINE
8
BLACK
6
CONTINUOUS
10
68.3176
20
-21.4155
11
68.3176
21
-21.4155
0
LINE
8
BLACK
6
CONTINUOUS
10
68.3176
20
-21.4155
11
68.3176
21
-21.4155
0
LINE
8
BLACK
6
CONTINUOUS
10
68.3176
20
-21.4155
11
68.3024
21
-21.5489
0
LINE
8
BLACK
6
CONTINUOUS
10
68.3024
20
-21.5489
11
68.2579
21
-21.6755
0
LINE
8
BLACK
6
CONTINUOUS
10
68.2579
20
-21.6755
11
68.1864
21
-21.7891
0
LINE
8
BLACK
6
CONTINUOUS
10
68.1864
20
-21.7891
11
68.0914
21
-21.8839
0
LINE
8
BLACK
6
CONTINUOUS
10
68.0914
20
-21.8839
11
67.9777
21
-21.9553
0
LINE
8
BLACK
6
CONTINUOUS
10
67.9777
20
-21.9553
11
67.851
21
-21.9996
0
LINE
8
BLACK
6
CONTINUOUS
10
67.851
20
-21.9996
11
67.7177
21
-22.0146
0
LINE
8
BLACK
6
CONTINUOUS
10
67.7177
20
-22.0146
11
67.7176
21
-22.0146
0
LINE
8
BLACK
6
CONTINUOUS
10
67.7176
20
-22.0146
11
60.6064
21
-22.0146
0
LINE
8
BLACK
6
CONTINUOUS
10
60.6064
20
-22.0146
11
49.7184
21
-22.0162
0
LINE
8
BLACK
6
CONTINUOUS
10
49.7184
20
-22.0162
11
49.7184
21
-22.0162
0
LINE
8
BLACK
6
CONTINUOUS
10
49.7184
20
-22.0162
11
49.7184
21
-22.0162
0
LINE
8
BLACK
6
CONTINUOUS
10
49.7184
20
-22.0162
11
49.7184
21
-22.0162
0
LINE
8
BLACK
6
CONTINUOUS
10
49.7184
20
-22.0162
11
49.7184
21
-22.0162
0
LINE
8
BLACK
6
CONTINUOUS
10
49.7184
20
-22.0162
11
49.6657
21
-22.0162
0
LINE
8
BLACK
6
CONTINUOUS
10
49.6657
20
-22.0162
11
49.564
21
-22.0435
0
LINE
8
BLACK
6
CONTINUOUS
10
49.564
20
-22.0435
11
49.4728
21
-22.0961
0
LINE
8
BLACK
6
CONTINUOUS
10
49.4728
20
-22.0961
11
49.3983
21
-22.1706
0
LINE
8
BLACK
6
CONTINUOUS
10
49.3983
20
-22.1706
11
49.3457
21
-22.2618
0
LINE
8
BLACK
6
CONTINUOUS
10
49.3457
20
-22.2618
11
49.3184
21
-22.3636
0
LINE
8
BLACK
6
CONTINUOUS
10
49.3184
20
-22.3636
11
49.3184
21
-22.4162
0
LINE
8
BLACK
6
CONTINUOUS
10
49.3184
20
-22.4162
11
49.3184
21
-22.4162
0
LINE
8
BLACK
6
CONTINUOUS
10
49.3184
20
-22.4162
11
49.3184
21
-22.4162
0
LINE
8
BLACK
6
CONTINUOUS
10
49.3184
20
-22.4162
11
49.3184
21
-26.1644
0
LINE
8
BLACK
6
CONTINUOUS
10
49.3184
20
-26.1644
11
49.3184
21
-26.1644
0
LINE
8
BLACK
6
CONTINUOUS
10
49.3184
20
-26.1644
11
49.3184
21
-26.1644
0
LINE
8
BLACK
6
CONTINUOUS
10
49.3184
20
-26.1644
11
49.3034
21
-26.2979
0
LINE
8
BLACK
6
CONTINUOUS
10
49.3034
20
-26.2979
11
49.259
21
-26.4247
0
LINE
8
BLACK
6
CONTINUOUS
10
49.259
20
-26.4247
11
49.1875
21
-26.5385
0
LINE
8
BLACK
6
CONTINUOUS
10
49.1875
20
-26.5385
11
49.0925
21
-26.6335
0
LINE
8
BLACK
6
CONTINUOUS
10
49.0925
20
-26.6335
11
48.9787
21
-26.705
0
LINE
8
BLACK
6
CONTINUOUS
10
48.9787
20
-26.705
11
48.8519
21
-26.7494
0
LINE
8
BLACK
6
CONTINUOUS
10
48.8519
20
-26.7494
11
48.7185
21
-26.7644
0
LINE
8
BLACK
6
CONTINUOUS
10
48.7185
20
-26.7644
11
48.7184
21
-26.7644
0
LINE
8
BLACK
6
CONTINUOUS
10
48.7184
20
-26.7644
11
11.7193
21
-26.7662
0
LINE
8
BLACK
6
CONTINUOUS
10
11.7193
20
-26.7662
11
11.7192
21
-26.7662
0
LINE
8
BLACK
6
CONTINUOUS
10
11.7192
20
-26.7662
11
11.6666
21
-26.7662
0
LINE
8
BLACK
6
CONTINUOUS
10
11.6666
20
-26.7662
11
11.5649
21
-26.7935
0
LINE
8
BLACK
6
CONTINUOUS
10
11.5649
20
-26.7935
11
11.4737
21
-26.8461
0
LINE
8
BLACK
6
CONTINUOUS
10
11.4737
20
-26.8461
11
11.3992
21
-26.9206
0
LINE
8
BLACK
6
CONTINUOUS
10
11.3992
20
-26.9206
11
11.3466
21
-27.0118
0
LINE
8
BLACK
6
CONTINUOUS
10
11.3466
20
-27.0118
11
11.3193
21
-27.1135
0
LINE
8
BLACK
6
CONTINUOUS
10
11.3193
20
-27.1135
11
11.3193
21
-27.1662
0
LINE
8
BLACK
6
CONTINUOUS
10
11.3193
20
-27.1662
11
11.3193
21
-27.1662
0
LINE
8
BLACK
6
CONTINUOUS
10
11.3193
20
-27.1662
11
11.3193
21
-27.1662
0
LINE
8
BLACK
6
CONTINUOUS
10
11.3193
20
-27.1662
11
11.3175
21
-82.416
0
LINE
8
BLACK
6
CONTINUOUS
10
11.3175
20
-82.416
11
11.3175
21
-82.4161
0
LINE
8
BLACK
6
CONTINUOUS
10
11.3175
20
-82.4161
11
11.3175
21
-82.4687
0
LINE
8
BLACK
6
CONTINUOUS
10
11.3175
20
-82.4687
11
11.3447
21
-82.5704
0
LINE
8
BLACK
6
CONTINUOUS
10
11.3447
20
-82.5704
11
11.3974
21
-82.6616
0
LINE
8
BLACK
6
CONTINUOUS
10
11.3974
20
-82.6616
11
11.4719
21
-82.7361
0
LINE
8
BLACK
6
CONTINUOUS
10
11.4719
20
-82.7361
11
11.5631
21
-82.7888
0
LINE
8
BLACK
6
CONTINUOUS
10
11.5631
20
-82.7888
11
11.6648
21
-82.816
0
LINE
8
BLACK
6
CONTINUOUS
10
11.6648
20
-82.816
11
11.7175
21
-82.816
0
LINE
8
BLACK
6
CONTINUOUS
10
11.7175
20
-82.816
11
17.8364
21
-82.8162
0
LINE
8
BLACK
6
CONTINUOUS
10
17.8364
20
-82.8162
11
60.5864
21
-82.817
0
LINE
8
BLACK
6
CONTINUOUS
10
60.5864
20
-82.817
11
66.7117
21
-82.816
0
LINE
8
BLACK
6
CONTINUOUS
10
66.7117
20
-82.816
11
66.7117
21
-82.816
0
LINE
8
BLACK
6
CONTINUOUS
10
66.7117
20
-82.816
11
66.7117
21
-82.816
0
LINE
8
BLACK
6
CONTINUOUS
10
66.7117
20
-82.816
11
66.7117
21
-82.816
0
LINE
8
BLACK
6
CONTINUOUS
10
66.7117
20
-82.816
11
66.8239
21
-82.8266
0
LINE
8
BLACK
6
CONTINUOUS
10
66.8239
20
-82.8266
11
66.9322
21
-82.858
0
LINE
8
BLACK
6
CONTINUOUS
10
66.9322
20
-82.858
11
67.0327
21
-82.9091
0
LINE
8
BLACK
6
CONTINUOUS
10
67.0327
20
-82.9091
11
67.1219
21
-82.978
0
LINE
8
BLACK
6
CONTINUOUS
10
67.1219
20
-82.978
11
67.1965
21
-83.0624
0
LINE
8
BLACK
6
CONTINUOUS
10
67.1965
20
-83.0624
11
67.1965
21
-83.0625
0
LINE
8
BLACK
6
CONTINUOUS
10
67.1965
20
-83.0625
11
77.6509
21
-97.3981
0
LINE
8
BLACK
6
CONTINUOUS
10
77.6509
20
-97.3981
11
77.6509
21
-97.3981
0
LINE
8
BLACK
6
CONTINUOUS
10
77.6509
20
-97.3981
11
77.6749
21
-97.431
0
LINE
8
BLACK
6
CONTINUOUS
10
77.6749
20
-97.431
11
77.7351
21
-97.4857
0
LINE
8
BLACK
6
CONTINUOUS
10
77.7351
20
-97.4857
11
77.8052
21
-97.5272
0
LINE
8
BLACK
6
CONTINUOUS
10
77.8052
20
-97.5272
11
77.8821
21
-97.5538
0
LINE
8
BLACK
6
CONTINUOUS
10
77.8821
20
-97.5538
11
77.9225
21
-97.5591
0
LINE
8
BLACK
6
CONTINUOUS
10
77.9225
20
-97.5591
11
115.107
21
-102.396
0
LINE
8
BLACK
6
CONTINUOUS
10
115.107
20
-102.396
11
115.107
21
-102.396
0
LINE
8
BLACK
6
CONTINUOUS
10
115.107
20
-102.396
11
115.107
21
-102.396
0
LINE
8
BLACK
6
CONTINUOUS
10
115.107
20
-102.396
11
115.185
21
-102.411
0
LINE
8
BLACK
6
CONTINUOUS
10
115.185
20
-102.411
11
115.259
21
-102.436
0
LINE
8
BLACK
6
CONTINUOUS
10
115.259
20
-102.436
11
115.33
21
-102.471
0
LINE
8
BLACK
6
CONTINUOUS
10
115.33
20
-102.471
11
115.33
21
-102.471
0
LINE
8
BLACK
6
CONTINUOUS
10
115.33
20
-102.471
11
115.33
21
-102.471
0
LINE
8
BLACK
6
CONTINUOUS
10
115.33
20
-102.471
11
115.33
21
-102.471
0
LINE
8
BLACK
6
CONTINUOUS
10
115.33
20
-102.471
11
130.488
21
-111.231
0
LINE
8
BLACK
6
CONTINUOUS
10
130.488
20
-111.231
11
130.488
21
-111.231
0
LINE
8
BLACK
6
CONTINUOUS
10
130.488
20
-111.231
11
130.533
21
-111.257
0
LINE
8
BLACK
6
CONTINUOUS
10
130.533
20
-111.257
11
130.635
21
-111.285
0
LINE
8
BLACK
6
CONTINUOUS
10
130.635
20
-111.285
11
130.741
21
-111.285
0
LINE
8
BLACK
6
CONTINUOUS
10
130.741
20
-111.285
11
130.842
21
-111.257
0
LINE
8
BLACK
6
CONTINUOUS
10
130.842
20
-111.257
11
130.934
21
-111.205
0
LINE
8
BLACK
6
CONTINUOUS
10
130.934
20
-111.205
11
131.008
21
-111.13
0
LINE
8
BLACK
6
CONTINUOUS
10
131.008
20
-111.13
11
131.034
21
-111.084
0
LINE
8
BLACK
6
CONTINUOUS
10
131.034
20
-111.084
11
131.034
21
-111.084
0
LINE
8
BLACK
6
CONTINUOUS
10
131.034
20
-111.084
11
144.815
21
-87.1892
0
LINE
8
BLACK
6
CONTINUOUS
10
144.815
20
-87.1892
11
144.815
21
-87.1892
0
LINE
8
BLACK
6
CONTINUOUS
10
144.815
20
-87.1892
11
144.815
21
-87.1892
0
LINE
8
BLACK
6
CONTINUOUS
10
144.815
20
-87.1892
11
144.815
21
-87.1892
0
LINE
8
BLACK
6
CONTINUOUS
10
144.815
20
-87.1892
11
144.833
21
-87.1589
0
LINE
8
BLACK
6
CONTINUOUS
10
144.833
20
-87.1589
11
144.857
21
-87.0932
0
LINE
8
BLACK
6
CONTINUOUS
10
144.857
20
-87.0932
11
144.869
21
-87.0244
0
LINE
8
BLACK
6
CONTINUOUS
10
144.869
20
-87.0244
11
144.869
21
-86.9894
0
LINE
8
BLACK
6
CONTINUOUS
10
144.869
20
-86.9894
11
144.869
21
-27.1644
0
LINE
8
BLACK
6
CONTINUOUS
10
144.869
20
-27.1644
11
144.869
21
-27.1644
0
LINE
8
BLACK
6
CONTINUOUS
10
144.869
20
-27.1644
11
144.869
21
-27.1644
0
LINE
8
BLACK
6
CONTINUOUS
10
144.869
20
-27.1644
11
144.869
21
-27.1644
0
LINE
8
BLACK
6
CONTINUOUS
10
144.869
20
-27.1644
11
144.869
21
-27.1117
0
LINE
8
BLACK
6
CONTINUOUS
10
144.869
20
-27.1117
11
144.842
21
-27.01
0
LINE
8
BLACK
6
CONTINUOUS
10
144.842
20
-27.01
11
144.789
21
-26.9188
0
LINE
8
BLACK
6
CONTINUOUS
10
144.789
20
-26.9188
11
144.714
21
-26.8443
0
LINE
8
BLACK
6
CONTINUOUS
10
144.714
20
-26.8443
11
144.623
21
-26.7917
0
LINE
8
BLACK
6
CONTINUOUS
10
144.623
20
-26.7917
11
144.522
21
-26.7644
0
LINE
8
BLACK
6
CONTINUOUS
10
144.522
20
-26.7644
11
144.469
21
-26.7644
0
LINE
8
BLACK
6
CONTINUOUS
10
144.469
20
-26.7644
11
124.719
21
-26.7662
0
LINE
8
BLACK
6
CONTINUOUS
10
124.719
20
-26.7662
11
124.586
21
-26.7512
0
LINE
8
BLACK
6
CONTINUOUS
10
124.586
20
-26.7512
11
124.459
21
-26.7069
0
LINE
8
BLACK
6
CONTINUOUS
10
124.459
20
-26.7069
11
124.345
21
-26.6356
0
LINE
8
BLACK
6
CONTINUOUS
10
124.345
20
-26.6356
11
124.25
21
-26.5408
0
LINE
8
BLACK
6
CONTINUOUS
10
124.25
20
-26.5408
11
124.179
21
-26.4272
0
LINE
8
BLACK
6
CONTINUOUS
10
124.179
20
-26.4272
11
124.134
21
-26.3005
0
LINE
8
BLACK
6
CONTINUOUS
10
124.134
20
-26.3005
11
124.119
21
-26.1672
0
LINE
8
BLACK
6
CONTINUOUS
10
124.119
20
-26.1672
11
124.119
21
-26.1672
0
LINE
8
BLACK
6
CONTINUOUS
10
124.119
20
-26.1672
11
124.119
21
-26.1672
0
LINE
8
BLACK
6
CONTINUOUS
10
124.119
20
-26.1672
11
124.119
21
-26.1672
0
LINE
8
BLACK
6
CONTINUOUS
10
124.119
20
-26.1672
11
124.117
21
-24.9134
0
LINE
8
BLACK
6
CONTINUOUS
10
124.117
20
-24.9134
11
124.117
21
-24.9134
0
LINE
8
BLACK
6
CONTINUOUS
10
124.117
20
-24.9134
11
124.117
21
-24.9134
0
LINE
8
BLACK
6
CONTINUOUS
10
124.117
20
-24.9134
11
124.117
21
-24.9134
0
LINE
8
BLACK
6
CONTINUOUS
10
124.117
20
-24.9134
11
124.117
21
-24.8608
0
LINE
8
BLACK
6
CONTINUOUS
10
124.117
20
-24.8608
11
124.089
21
-24.7592
0
LINE
8
BLACK
6
CONTINUOUS
10
124.089
20
-24.7592
11
124.037
21
-24.6681
0
LINE
8
BLACK
6
CONTINUOUS
10
124.037
20
-24.6681
11
123.962
21
-24.5938
0
LINE
8
BLACK
6
CONTINUOUS
10
123.962
20
-24.5938
11
123.871
21
-24.5412
0
LINE
8
BLACK
6
CONTINUOUS
10
123.871
20
-24.5412
11
123.77
21
-24.514
0
LINE
8
BLACK
6
CONTINUOUS
10
123.77
20
-24.514
11
123.717
21
-24.514
0
LINE
8
BLACK
6
CONTINUOUS
10
123.717
20
-24.514
11
105.718
21
-24.514
0
LINE
8
BLACK
6
CONTINUOUS
10
105.718
20
-24.514
11
105.584
21
-24.499
0
LINE
8
BLACK
6
CONTINUOUS
10
105.584
20
-24.499
11
105.458
21
-24.4546
0
LINE
8
BLACK
6
CONTINUOUS
10
105.458
20
-24.4546
11
105.344
21
-24.3831
0
LINE
8
BLACK
6
CONTINUOUS
10
105.344
20
-24.3831
11
105.249
21
-24.2881
0
LINE
8
BLACK
6
CONTINUOUS
10
105.249
20
-24.2881
11
105.177
21
-24.1744
0
LINE
8
BLACK
6
CONTINUOUS
10
105.177
20
-24.1744
11
105.133
21
-24.0475
0
LINE
8
BLACK
6
CONTINUOUS
10
105.133
20
-24.0475
11
105.118
21
-23.914
0
LINE
8
BLACK
6
CONTINUOUS
10
105.118
20
-23.914
11
105.118
21
-23.914
0
LINE
8
BLACK
6
CONTINUOUS
10
105.118
20
-23.914
11
105.118
21
-23.914
0
LINE
8
BLACK
6
CONTINUOUS
10
105.118
20
-23.914
11
105.118
21
-23.914
0
LINE
8
BLACK
6
CONTINUOUS
10
105.118
20
-23.914
11
105.118
21
-22.4146
0
LINE
8
BLACK
6
CONTINUOUS
10
105.118
20
-22.4146
11
105.118
21
-22.4146
0
LINE
8
BLACK
6
CONTINUOUS
10
105.118
20
-22.4146
11
105.118
21
-22.4146
0
LINE
8
BLACK
6
CONTINUOUS
10
105.118
20
-22.4146
11
105.118
21
-22.4146
0
LINE
8
BLACK
6
CONTINUOUS
10
105.118
20
-22.4146
11
105.118
21
-22.362
0
LINE
8
BLACK
6
CONTINUOUS
10
105.118
20
-22.362
11
105.091
21
-22.2602
0
LINE
8
BLACK
6
CONTINUOUS
10
105.091
20
-22.2602
11
105.038
21
-22.169
0
LINE
8
BLACK
6
CONTINUOUS
10
105.038
20
-22.169
11
104.963
21
-22.0945
0
LINE
8
BLACK
6
CONTINUOUS
10
104.963
20
-22.0945
11
104.872
21
-22.0419
0
LINE
8
BLACK
6
CONTINUOUS
10
104.872
20
-22.0419
11
104.771
21
-22.0146
0
LINE
8
BLACK
6
CONTINUOUS
10
104.771
20
-22.0146
11
104.718
21
-22.0146
0
LINE
8
BLACK
6
CONTINUOUS
10
104.718
20
-22.0146
11
98.6013
21
-22.0146
0
LINE
8
BLACK
6
CONTINUOUS
10
98.6013
20
-22.0146
11
98.5964
21
-22.0162
0
LINE
8
BLACK
6
CONTINUOUS
10
98.5964
20
-22.0162
11
86.7185
21
-22.0162
0
LINE
8
BLACK
6
CONTINUOUS
10
86.7185
20
-22.0162
11
86.585
21
-22.0012
0
LINE
8
BLACK
6
CONTINUOUS
10
86.585
20
-22.0012
11
86.4582
21
-21.9568
0
LINE
8
BLACK
6
CONTINUOUS
10
86.4582
20
-21.9568
11
86.3444
21
-21.8853
0
LINE
8
BLACK
6
CONTINUOUS
10
86.3444
20
-21.8853
11
86.2494
21
-21.7903
0
LINE
8
BLACK
6
CONTINUOUS
10
86.2494
20
-21.7903
11
86.1779
21
-21.6765
0
LINE
8
BLACK
6
CONTINUOUS
10
86.1779
20
-21.6765
11
86.1335
21
-21.5497
0
LINE
8
BLACK
6
CONTINUOUS
10
86.1335
20
-21.5497
11
86.1185
21
-21.4162
0
LINE
8
BLACK
6
CONTINUOUS
10
86.1185
20
-21.4162
11
86.1185
21
-21.4162
0
LINE
8
BLACK
6
CONTINUOUS
10
86.1185
20
-21.4162
11
86.1185
21
-21.4162
0
LINE
8
BLACK
6
CONTINUOUS
10
86.1185
20
-21.4162
11
86.1185
21
-21.4162
0
LINE
8
BLACK
6
CONTINUOUS
10
86.1185
20
-21.4162
11
86.1185
21
-20.1642
0
LINE
8
BLACK
6
CONTINUOUS
10
86.1185
20
-20.1642
11
86.1185
21
-20.1642
0
LINE
8
BLACK
6
CONTINUOUS
10
86.1185
20
-20.1642
11
86.1185
21
-20.1642
0
LINE
8
BLACK
6
CONTINUOUS
10
86.1185
20
-20.1642
11
86.1185
21
-20.1642
0
LINE
8
BLACK
6
CONTINUOUS
10
86.1185
20
-20.1642
11
86.1185
21
-20.1116
0
LINE
8
BLACK
6
CONTINUOUS
10
86.1185
20
-20.1116
11
86.0912
21
-20.0098
0
LINE
8
BLACK
6
CONTINUOUS
10
86.0912
20
-20.0098
11
86.0386
21
-19.9186
0
LINE
8
BLACK
6
CONTINUOUS
10
86.0386
20
-19.9186
11
85.9641
21
-19.8441
0
LINE
8
BLACK
6
CONTINUOUS
10
85.9641
20
-19.8441
11
85.8729
21
-19.7915
0
LINE
8
BLACK
6
CONTINUOUS
10
85.8729
20
-19.7915
11
85.7712
21
-19.7642
0
LINE
8
BLACK
6
CONTINUOUS
10
85.7712
20
-19.7642
11
85.7185
21
-19.7642
0
LINE
8
BLACK
6
CONTINUOUS
10
85.7185
20
-19.7642
11
68.7194
21
-19.7642
0
LINE
8
BLACK
6
CONTINUOUS
10
68.7194
20
-19.7642
11
68.7194
21
-19.7642
0
LINE
8
BLACK
6
CONTINUOUS
10
68.7194
20
-19.7642
11
68.7194
21
-19.7642
0
LINE
8
BLACK
6
CONTINUOUS
10
68.7194
20
-19.7642
11
68.6668
21
-19.7642
0
LINE
8
BLACK
6
CONTINUOUS
10
68.6668
20
-19.7642
11
68.5651
21
-19.7914
  0
ENDSEC
  0
EOF
