G04 #@! TF.GenerationSoftware,KiCad,Pcbnew,7.0.7*
G04 #@! TF.CreationDate,2024-01-09T11:53:46+08:00*
G04 #@! TF.ProjectId,corne-cherry,636f726e-652d-4636-9865-7272792e6b69,3.0.1*
G04 #@! TF.SameCoordinates,Original*
G04 #@! TF.FileFunction,Copper,L1,Top*
G04 #@! TF.FilePolarity,Positive*
%FSLAX46Y46*%
G04 Gerber Fmt 4.6, Leading zero omitted, Abs format (unit mm)*
G04 Created by KiCad (PCBNEW 7.0.7) date 2024-01-09 11:53:46*
%MOMM*%
%LPD*%
G01*
G04 APERTURE LIST*
G04 #@! TA.AperFunction,ComponentPad*
%ADD10O,2.500000X1.700000*%
G04 #@! TD*
G04 #@! TA.AperFunction,ComponentPad*
%ADD11O,1.397000X1.778000*%
G04 #@! TD*
G04 #@! TA.AperFunction,ComponentPad*
%ADD12C,1.524000*%
G04 #@! TD*
G04 #@! TA.AperFunction,ComponentPad*
%ADD13C,2.000000*%
G04 #@! TD*
G04 #@! TA.AperFunction,ComponentPad*
%ADD14R,1.700000X1.700000*%
G04 #@! TD*
G04 #@! TA.AperFunction,ComponentPad*
%ADD15O,1.700000X1.700000*%
G04 #@! TD*
G04 #@! TA.AperFunction,ComponentPad*
%ADD16O,1.600000X1.600000*%
G04 #@! TD*
G04 #@! TA.AperFunction,ViaPad*
%ADD17C,0.600000*%
G04 #@! TD*
G04 #@! TA.AperFunction,Conductor*
%ADD18C,0.250000*%
G04 #@! TD*
G04 #@! TA.AperFunction,Conductor*
%ADD19C,0.508000*%
G04 #@! TD*
G04 #@! TA.AperFunction,Conductor*
%ADD20C,0.500000*%
G04 #@! TD*
G04 #@! TA.AperFunction,Conductor*
%ADD21C,0.254000*%
G04 #@! TD*
G04 APERTURE END LIST*
D10*
X132477500Y-73670000D03*
X140977500Y-77870000D03*
X137977500Y-77870000D03*
X133977500Y-77870000D03*
D11*
X130948500Y-67028000D03*
X133488500Y-67028000D03*
X136028500Y-67028000D03*
X138568500Y-67028000D03*
D10*
X164337500Y-77880000D03*
X155837500Y-73680000D03*
X158837500Y-73680000D03*
X162837500Y-73680000D03*
D11*
X158177500Y-67020000D03*
X160717500Y-67020000D03*
X163257500Y-67020000D03*
X165797500Y-67020000D03*
D12*
X154557500Y-64480000D03*
X154557500Y-69480000D03*
D13*
X157057500Y-63480000D03*
X157057500Y-70480000D03*
D12*
X169713500Y-29330000D03*
X169713500Y-31870000D03*
X169713500Y-34410000D03*
X169713500Y-36950000D03*
X169713500Y-39490000D03*
X169713500Y-42030000D03*
X169713500Y-44570000D03*
X169713500Y-47110000D03*
X169713500Y-49650000D03*
X169713500Y-52190000D03*
X169713500Y-54730000D03*
X169713500Y-57270000D03*
X169713500Y-59810000D03*
X154473500Y-59810000D03*
X154473500Y-57270000D03*
X154473500Y-54730000D03*
X154473500Y-52190000D03*
X154473500Y-49650000D03*
X154473500Y-47110000D03*
X154473500Y-44570000D03*
X154473500Y-42030000D03*
X154473500Y-39490000D03*
X154473500Y-36950000D03*
X154473500Y-34410000D03*
X154473500Y-31870000D03*
X154473500Y-29330000D03*
X142357500Y-69479999D03*
X142357500Y-64479999D03*
D13*
X139857500Y-70479999D03*
X139857500Y-63479999D03*
D12*
X142417500Y-29330000D03*
X142417500Y-31870000D03*
X142417500Y-34410000D03*
X142417500Y-36950000D03*
X142417500Y-39490000D03*
X142417500Y-42030000D03*
X142417500Y-44570000D03*
X142417500Y-47110000D03*
X142417500Y-49650000D03*
X142417500Y-52190000D03*
X142417500Y-54730000D03*
X142417500Y-57270000D03*
X142417500Y-59810000D03*
X127177500Y-59810000D03*
X127177500Y-57270000D03*
X127177500Y-54730000D03*
X127177500Y-52190000D03*
X127177500Y-49650000D03*
X127177500Y-47110000D03*
X127177500Y-44570000D03*
X127177500Y-42030000D03*
X127177500Y-39490000D03*
X127177500Y-36950000D03*
X127177500Y-34410000D03*
X127177500Y-31870000D03*
X127177500Y-29330000D03*
D14*
X163343500Y-37433000D03*
D15*
X160803500Y-37433000D03*
D16*
X132797500Y-28893000D03*
X134797500Y-28893000D03*
X136797500Y-28893000D03*
D13*
X138947500Y-28893000D03*
X130647500Y-28893000D03*
D16*
X160057500Y-29033000D03*
X162057500Y-29033000D03*
X164057500Y-29033000D03*
D13*
X166207500Y-29033000D03*
X157907500Y-29033000D03*
D14*
X136185500Y-37458000D03*
D15*
X133645500Y-37458000D03*
D17*
X51107500Y-26505000D03*
X50307500Y-35105000D03*
X123607500Y-54205000D03*
X124607500Y-69005000D03*
X69382500Y-68405000D03*
X69382500Y-61305000D03*
X124807500Y-70805000D03*
X126493737Y-86382353D03*
X126297500Y-77305000D03*
X131107500Y-82780000D03*
X118907500Y-55105000D03*
X124807500Y-36305000D03*
X137107500Y-80780000D03*
X127952500Y-78960000D03*
X117907500Y-59105000D03*
X124957510Y-40905000D03*
X13007500Y-66705000D03*
X13007500Y-50205000D03*
X13007500Y-54205000D03*
X13007500Y-69205000D03*
X13007500Y-35205000D03*
X32007500Y-35205000D03*
X32107500Y-69205000D03*
X31964840Y-50194907D03*
X31707500Y-54405000D03*
X32796949Y-65894449D03*
X51007500Y-45505000D03*
X51007500Y-30505000D03*
X51007500Y-64505000D03*
X51007500Y-49505000D03*
X52577078Y-61174578D03*
X70007500Y-47105000D03*
X70007500Y-43105000D03*
X70007500Y-65705000D03*
X70007500Y-62105000D03*
X70007500Y-28105000D03*
X79507500Y-84305000D03*
X70407500Y-59705000D03*
X89007500Y-64505000D03*
X89407500Y-60305000D03*
X100007500Y-85205000D03*
X89007500Y-49505000D03*
X127041500Y-63874000D03*
X89007500Y-30505000D03*
X89007500Y-45505000D03*
X127041500Y-62096000D03*
X89007500Y-68505000D03*
X108007500Y-51805000D03*
X122607500Y-99005000D03*
X108007500Y-70805000D03*
X108007500Y-32805000D03*
X108007500Y-66805000D03*
X108007500Y-47905000D03*
X108407504Y-62805000D03*
X131613500Y-105276000D03*
X131613500Y-101974000D03*
X127041500Y-65652000D03*
X127107500Y-69780000D03*
X129835500Y-62858000D03*
X173357500Y-46265000D03*
X171063762Y-31389024D03*
X175232500Y-62500000D03*
X175232500Y-58415010D03*
X172537500Y-58715000D03*
X167110558Y-85628058D03*
X169205500Y-65144000D03*
X159857000Y-93846000D03*
X167681500Y-37204000D03*
X161839500Y-63874000D03*
X159519327Y-61148173D03*
X269617500Y-54555000D03*
X269547500Y-66550000D03*
X269592510Y-50205000D03*
X269607500Y-35205000D03*
X269507500Y-69305000D03*
X250507500Y-35105000D03*
X250507500Y-69205000D03*
X250507500Y-54205000D03*
X250507500Y-50305000D03*
X249997500Y-64100010D03*
X231607500Y-49505000D03*
X231507500Y-45505000D03*
X231234449Y-58513051D03*
X231507500Y-30305000D03*
X231607500Y-64505000D03*
X212507500Y-43105000D03*
X212557500Y-65985000D03*
X212507500Y-47105000D03*
X203087500Y-84335000D03*
X212507500Y-28005000D03*
X212507500Y-62205000D03*
X212107500Y-59020000D03*
X193507500Y-64505000D03*
X193137500Y-61875000D03*
X193507500Y-30405000D03*
X193507500Y-49305000D03*
X193507500Y-45505000D03*
X193517500Y-68325000D03*
X181187500Y-88895000D03*
X174417500Y-70675000D03*
X174507500Y-47805000D03*
X166887500Y-86675000D03*
X174507500Y-32805000D03*
X174607500Y-51905000D03*
X174297500Y-63015000D03*
X174507500Y-66905000D03*
X171787500Y-60895000D03*
X171857490Y-40305000D03*
X161807500Y-79680000D03*
X164007500Y-70805000D03*
X171934500Y-36205000D03*
X172707500Y-52045000D03*
X24007500Y-62505000D03*
X24107500Y-40105000D03*
X24402733Y-41609990D03*
X42907500Y-39705000D03*
X33807500Y-39205000D03*
X24307500Y-43570010D03*
X35507500Y-41205000D03*
X42707500Y-58705000D03*
X60707500Y-56655000D03*
X61907500Y-35305000D03*
X71007500Y-32505000D03*
X62107506Y-37954990D03*
X62387500Y-36246952D03*
X80807500Y-32605000D03*
X73307500Y-34105000D03*
X80807500Y-51705000D03*
X100443699Y-35003426D03*
X98607500Y-56755000D03*
X100597500Y-35880000D03*
X99882500Y-37455000D03*
X109562521Y-36805000D03*
X118807500Y-37405000D03*
X111407500Y-38905000D03*
X118607500Y-56405000D03*
X24307500Y-59005000D03*
X23607500Y-81405000D03*
X42707500Y-77705000D03*
X35407500Y-60405000D03*
X62232510Y-54605000D03*
X60677169Y-75535331D03*
X73407500Y-53105000D03*
X80807500Y-70705000D03*
X100857500Y-54905000D03*
X98807500Y-75705000D03*
X111307500Y-57805000D03*
X118807500Y-75405000D03*
X35107500Y-79305000D03*
X37107500Y-81355000D03*
X61907500Y-77205000D03*
X62032510Y-73205000D03*
X90307500Y-92705000D03*
X73407500Y-72105000D03*
X102707500Y-95605000D03*
X99907500Y-73305000D03*
X135200692Y-94111767D03*
X111407500Y-76905000D03*
X82907500Y-94105000D03*
X110207500Y-96705000D03*
X272977500Y-60175000D03*
X280317500Y-39965000D03*
X254167500Y-41355002D03*
X261307500Y-58745000D03*
X234977500Y-55355000D03*
X242337500Y-35145000D03*
X216047500Y-34105000D03*
X223232169Y-51890331D03*
X196907500Y-55365000D03*
X204437500Y-35185000D03*
X178037510Y-38905000D03*
X185337500Y-56385000D03*
X273117500Y-79255000D03*
X280367500Y-58895000D03*
X254007500Y-60425000D03*
X261327500Y-77755000D03*
X242277500Y-54295000D03*
X234907500Y-74355000D03*
X223267169Y-70725331D03*
X215897500Y-53155000D03*
X196857500Y-74365000D03*
X204397500Y-54145000D03*
X185367500Y-75525000D03*
X177937500Y-57865000D03*
X213767500Y-92735000D03*
X216007500Y-72135000D03*
X204327500Y-73235000D03*
X186947500Y-97485000D03*
X177707500Y-77035000D03*
X165207500Y-100455000D03*
D18*
X50307500Y-27305000D02*
X51107500Y-26505000D01*
X50307500Y-35105000D02*
X50307500Y-27305000D01*
X124607500Y-55205000D02*
X124607500Y-69005000D01*
X123607500Y-54205000D02*
X124607500Y-55205000D01*
X69382500Y-61305000D02*
X69382500Y-68405000D01*
X124782499Y-70830001D02*
X124807500Y-70805000D01*
X125984854Y-86082354D02*
X124782499Y-84879999D01*
X126193738Y-86082354D02*
X125984854Y-86082354D01*
X126493737Y-86382353D02*
X126193738Y-86082354D01*
X124782499Y-84879999D02*
X124782499Y-70830001D01*
D19*
X144134500Y-62571000D02*
X144134500Y-70514000D01*
X142674500Y-64031000D02*
X142674500Y-64162999D01*
D20*
X139877500Y-34410000D02*
X142417500Y-36950000D01*
D19*
X142674500Y-64162999D02*
X142357500Y-64479999D01*
D20*
X124807500Y-39805000D02*
X124207500Y-40405000D01*
D19*
X142423900Y-37022000D02*
X142423900Y-39562000D01*
D20*
X131107500Y-82780000D02*
X135107500Y-82780000D01*
X124207500Y-51305000D02*
X120407500Y-55105000D01*
X127952500Y-78960000D02*
X126297500Y-77305000D01*
X119331764Y-55105000D02*
X118907500Y-55105000D01*
X120407500Y-55105000D02*
X119331764Y-55105000D01*
D19*
X142423900Y-39562000D02*
X144134500Y-41272600D01*
D20*
X124807500Y-36305000D02*
X124807500Y-39805000D01*
D19*
X144134500Y-70514000D02*
X137977500Y-76671000D01*
D20*
X124207500Y-40405000D02*
X124207500Y-51305000D01*
D19*
X144134500Y-62571000D02*
X142674500Y-64031000D01*
X142357500Y-64479999D02*
X142357500Y-65780000D01*
D20*
X135107500Y-82780000D02*
X137107500Y-80780000D01*
D19*
X141109500Y-67028000D02*
X138568500Y-67028000D01*
X137977500Y-76671000D02*
X137977500Y-77870000D01*
X142357500Y-65780000D02*
X141109500Y-67028000D01*
X144134500Y-41272600D02*
X144134500Y-62571000D01*
D20*
X127177500Y-34410000D02*
X139877500Y-34410000D01*
D19*
X128627500Y-40985600D02*
X128627500Y-67737000D01*
D20*
X124907500Y-51605000D02*
X124907500Y-40955010D01*
D19*
X129620500Y-68730000D02*
X134326500Y-68730000D01*
D20*
X124907500Y-40955010D02*
X124957510Y-40905000D01*
X117907500Y-59105000D02*
X117907500Y-58605000D01*
D19*
X127203900Y-39562000D02*
X128627500Y-40985600D01*
X128627500Y-72700000D02*
X133797500Y-77870000D01*
X133797500Y-77870000D02*
X133977500Y-77870000D01*
X128627500Y-67737000D02*
X129620500Y-68730000D01*
X134326500Y-68730000D02*
X136028500Y-67028000D01*
D20*
X117907500Y-58605000D02*
X124907500Y-51605000D01*
D19*
X128627500Y-67737000D02*
X128627500Y-72700000D01*
D18*
X13007500Y-35205000D02*
X13007500Y-50205000D01*
X13007500Y-57305000D02*
X13007500Y-66705000D01*
X13007500Y-66705000D02*
X13007500Y-69205000D01*
X13007500Y-54205000D02*
X13007500Y-57305000D01*
X32307500Y-56405000D02*
X32307500Y-66205000D01*
X32486398Y-66205000D02*
X32496950Y-66194448D01*
X32307500Y-69005000D02*
X32107500Y-69205000D01*
X31707500Y-54405000D02*
X31707500Y-55805000D01*
X32407500Y-35605000D02*
X32407500Y-49752247D01*
X32264839Y-49894908D02*
X31964840Y-50194907D01*
X32007500Y-35205000D02*
X32407500Y-35605000D01*
X32496950Y-66194448D02*
X32796949Y-65894449D01*
X31707500Y-55805000D02*
X32307500Y-56405000D01*
X32307500Y-66205000D02*
X32486398Y-66205000D01*
X32407500Y-49752247D02*
X32264839Y-49894908D01*
X32307500Y-66205000D02*
X32307500Y-69005000D01*
X51007500Y-49505000D02*
X51007500Y-60505000D01*
X51007500Y-30505000D02*
X51007500Y-45505000D01*
X51007500Y-60505000D02*
X51677078Y-61174578D01*
X51677078Y-61174578D02*
X52152814Y-61174578D01*
X51007500Y-60505000D02*
X51007500Y-64505000D01*
X52152814Y-61174578D02*
X52577078Y-61174578D01*
X70007500Y-60005000D02*
X70107501Y-60004999D01*
X69682488Y-28430012D02*
X69682488Y-42779988D01*
X70007500Y-28105000D02*
X69682488Y-28430012D01*
X70007500Y-65705000D02*
X70007500Y-74505000D01*
X70107501Y-60004999D02*
X70407500Y-59705000D01*
X69707501Y-42805001D02*
X70007500Y-43105000D01*
X70007500Y-74505000D02*
X79507500Y-84005000D01*
X69682488Y-42779988D02*
X69707501Y-42805001D01*
X70007500Y-60005000D02*
X70007500Y-62105000D01*
X70007500Y-47105000D02*
X70007500Y-60005000D01*
X79507500Y-84005000D02*
X79507500Y-84305000D01*
D20*
X99707501Y-84905001D02*
X100007500Y-85205000D01*
D18*
X89007500Y-49505000D02*
X89007500Y-62305000D01*
D20*
X89007500Y-74205000D02*
X99707501Y-84905001D01*
D18*
X89007500Y-30505000D02*
X89007500Y-45505000D01*
X89007500Y-61105000D02*
X89007500Y-62305000D01*
D20*
X89007500Y-68505000D02*
X89007500Y-74205000D01*
D21*
X127041500Y-62096000D02*
X127041500Y-63874000D01*
D18*
X89407500Y-60305000D02*
X89007500Y-61105000D01*
X89007500Y-62305000D02*
X89007500Y-64505000D01*
X108007500Y-51805000D02*
X108007500Y-66805000D01*
X108007500Y-70805000D02*
X108007500Y-80005000D01*
D21*
X108007500Y-63105000D02*
X108107505Y-63104999D01*
D18*
X119407500Y-83805000D02*
X122607500Y-87005000D01*
X108007500Y-47480736D02*
X108007500Y-47905000D01*
X122607500Y-87005000D02*
X122607500Y-99005000D01*
X108237500Y-47250736D02*
X108007500Y-47480736D01*
X108237500Y-33035000D02*
X108237500Y-47250736D01*
X111807500Y-83805000D02*
X119407500Y-83805000D01*
X108007500Y-32805000D02*
X108237500Y-33035000D01*
X108007500Y-80005000D02*
X111807500Y-83805000D01*
D21*
X108107505Y-63104999D02*
X108407504Y-62805000D01*
D18*
X131613500Y-105276000D02*
X131613500Y-101974000D01*
D21*
X125584512Y-41205962D02*
X125534502Y-41255972D01*
X126588500Y-33140000D02*
X125534502Y-34193998D01*
X139067500Y-79780000D02*
X140977500Y-77870000D01*
X125534502Y-75370986D02*
X129943516Y-79780000D01*
X129943516Y-79780000D02*
X139067500Y-79780000D01*
X125534502Y-40554028D02*
X125584512Y-40604038D01*
X125584512Y-40604038D02*
X125584512Y-41205962D01*
X141081900Y-33140000D02*
X126588500Y-33140000D01*
X125534502Y-41255972D02*
X125534502Y-75370986D01*
X142423900Y-34482000D02*
X141081900Y-33140000D01*
X125534502Y-34193998D02*
X125534502Y-40554028D01*
D18*
X126025500Y-68698000D02*
X127107500Y-69780000D01*
X129835500Y-39608000D02*
X129835500Y-62858000D01*
X127177500Y-36950000D02*
X129835500Y-39608000D01*
X126025500Y-66668000D02*
X126025500Y-68698000D01*
X127041500Y-65652000D02*
X126025500Y-66668000D01*
D21*
X140558511Y-46507389D02*
X140558511Y-58042041D01*
X140558511Y-58042041D02*
X133488500Y-65112052D01*
X142423900Y-44642000D02*
X140558511Y-46507389D01*
X133488500Y-65112052D02*
X133488500Y-67028000D01*
X140104500Y-44421400D02*
X140104500Y-57854000D01*
X130948500Y-67010000D02*
X130948500Y-67028000D01*
X142423900Y-42102000D02*
X140104500Y-44421400D01*
X140104500Y-57854000D02*
X130948500Y-67010000D01*
D18*
X173982501Y-45639999D02*
X173982501Y-34307763D01*
X173982501Y-34307763D02*
X171063762Y-31389024D01*
X173357500Y-46265000D02*
X173982501Y-45639999D01*
X175232500Y-58415010D02*
X175232500Y-62500000D01*
X172537500Y-80201116D02*
X167110558Y-85628058D01*
X172537500Y-58715000D02*
X172537500Y-80201116D01*
D21*
X171237500Y-36086600D02*
X171210500Y-36113600D01*
D18*
X155837500Y-73680000D02*
X155837500Y-77610000D01*
D21*
X159107500Y-80880000D02*
X155837500Y-77610000D01*
X169603900Y-34453000D02*
X171237500Y-36086600D01*
X167427500Y-80880000D02*
X159107500Y-80880000D01*
X167427500Y-64368288D02*
X167427500Y-80880000D01*
X171210500Y-60585288D02*
X167427500Y-64368288D01*
X171210500Y-36113600D02*
X171210500Y-60585288D01*
X167674500Y-62145000D02*
X164648511Y-65170989D01*
X159548511Y-65170989D02*
X158039500Y-66680000D01*
X167674500Y-44002400D02*
X167674500Y-62145000D01*
X164648511Y-65170989D02*
X159548511Y-65170989D01*
X158039500Y-66680000D02*
X158039500Y-67015000D01*
X169603900Y-42073000D02*
X167674500Y-44002400D01*
X168128511Y-62390989D02*
X164894500Y-65625000D01*
X169603900Y-44613000D02*
X168128511Y-46088389D01*
X164894500Y-65625000D02*
X161969500Y-65625000D01*
X168128511Y-46088389D02*
X168128511Y-62390989D01*
X161969500Y-65625000D02*
X160579500Y-67015000D01*
D18*
X170983500Y-66922000D02*
X169205500Y-65144000D01*
X159857000Y-93846000D02*
X159857000Y-91997732D01*
X161839500Y-49198176D02*
X161839500Y-63874000D01*
X167681500Y-37204000D02*
X167681500Y-43356176D01*
X170983500Y-80871232D02*
X170983500Y-66922000D01*
X167681500Y-43356176D02*
X161839500Y-49198176D01*
X159857000Y-91997732D02*
X170983500Y-80871232D01*
X159519327Y-61148173D02*
X159537500Y-61130000D01*
X159537500Y-42014000D02*
X154473500Y-36950000D01*
X159537500Y-61130000D02*
X159537500Y-42014000D01*
X269907500Y-49890010D02*
X269892509Y-49905001D01*
X269917499Y-64465001D02*
X269917499Y-54854999D01*
X269917499Y-54854999D02*
X269617500Y-54555000D01*
X269907500Y-68905000D02*
X269507500Y-69305000D01*
X269897500Y-64485000D02*
X269917499Y-64465001D01*
X269899204Y-64486704D02*
X269899204Y-66198296D01*
X269607500Y-35205000D02*
X269907500Y-35505000D01*
X269892509Y-49905001D02*
X269592510Y-50205000D01*
X269897500Y-64485000D02*
X269899204Y-64486704D01*
X269907500Y-35505000D02*
X269907500Y-49890010D01*
X269897500Y-64485000D02*
X269907500Y-68905000D01*
X269899204Y-66198296D02*
X269547500Y-66550000D01*
X250507500Y-64335000D02*
X250507500Y-64185746D01*
X250507500Y-64185746D02*
X250421764Y-64100010D01*
X250507500Y-35105000D02*
X250507500Y-50305000D01*
X250507500Y-54205000D02*
X250507500Y-64335000D01*
X250421764Y-64100010D02*
X249997500Y-64100010D01*
X250507500Y-64335000D02*
X250507500Y-69205000D01*
X231507500Y-30305000D02*
X231507500Y-45505000D01*
X231534448Y-58813050D02*
X231234449Y-58513051D01*
X231607500Y-59795000D02*
X231607500Y-58886102D01*
X231607500Y-58886102D02*
X231534448Y-58813050D01*
X231607500Y-49505000D02*
X231607500Y-59795000D01*
X231607500Y-59795000D02*
X231607500Y-64505000D01*
X212507500Y-60295000D02*
X212507500Y-62005000D01*
X212507500Y-60295000D02*
X212507500Y-59640000D01*
X212107500Y-59240000D02*
X212107500Y-59020000D01*
X212507500Y-59640000D02*
X212107500Y-59240000D01*
X203087500Y-84335000D02*
X212557500Y-74865000D01*
X212557500Y-74865000D02*
X212557500Y-65985000D01*
X212507500Y-28005000D02*
X212507500Y-43105000D01*
X212507500Y-47105000D02*
X212507500Y-60295000D01*
X212507500Y-62005000D02*
X212507500Y-62205000D01*
X193507500Y-63715000D02*
X193137500Y-63345000D01*
X193137500Y-63345000D02*
X193137500Y-62299264D01*
X193137500Y-62299264D02*
X193137500Y-61875000D01*
X193507500Y-30405000D02*
X194007500Y-30905000D01*
X194007500Y-45005000D02*
X193507500Y-45505000D01*
X194007500Y-30905000D02*
X194007500Y-45005000D01*
X193507500Y-63715000D02*
X193507500Y-64505000D01*
X193517500Y-68325000D02*
X193517500Y-76665000D01*
X181287500Y-88895000D02*
X181187500Y-88895000D01*
X193507500Y-49305000D02*
X193507500Y-63715000D01*
X193517500Y-76665000D02*
X181287500Y-88895000D01*
X174607500Y-66805000D02*
X174507500Y-66905000D01*
X166947500Y-86675000D02*
X166887500Y-86675000D01*
X174607500Y-63295000D02*
X174327500Y-63015000D01*
X174607500Y-51905000D02*
X174607500Y-64475000D01*
X174417500Y-79205000D02*
X166947500Y-86675000D01*
X174507500Y-32805000D02*
X174507500Y-47805000D01*
X174607500Y-64475000D02*
X174607500Y-66805000D01*
X174327500Y-63015000D02*
X174297500Y-63015000D01*
X174417500Y-70675000D02*
X174417500Y-79205000D01*
X174607500Y-64475000D02*
X174607500Y-63295000D01*
D20*
X171787500Y-58404339D02*
X171787500Y-60895000D01*
X163257500Y-67020000D02*
X163257500Y-73260000D01*
X171857490Y-58334349D02*
X171787500Y-58404339D01*
X161317500Y-68960000D02*
X163257500Y-67020000D01*
X154383900Y-39533000D02*
X158757500Y-43906600D01*
X171857490Y-40305000D02*
X171857490Y-58334349D01*
X163244500Y-67045000D02*
X163214500Y-67015000D01*
X158757500Y-43906600D02*
X158757500Y-64150000D01*
X157917500Y-68960000D02*
X161317500Y-68960000D01*
X156517500Y-67560000D02*
X157917500Y-68960000D01*
X156517500Y-66390000D02*
X156517500Y-67560000D01*
X163214500Y-67015000D02*
X163119500Y-67015000D01*
X163257500Y-73260000D02*
X162837500Y-73680000D01*
X158757500Y-64150000D02*
X156517500Y-66390000D01*
X169603900Y-36993000D02*
X169603900Y-39533000D01*
D19*
X153414501Y-35214999D02*
X152784500Y-35845000D01*
X154383900Y-34453000D02*
X153621901Y-35214999D01*
X152784500Y-35845000D02*
X152784500Y-62752000D01*
X153621901Y-35214999D02*
X153414501Y-35214999D01*
X154383900Y-34453000D02*
X167063900Y-34453000D01*
X167063900Y-34453000D02*
X169603900Y-36993000D01*
X154557500Y-66830000D02*
X154557500Y-69480000D01*
D20*
X160907500Y-79680000D02*
X158837500Y-77610000D01*
X161807500Y-79680000D02*
X160907500Y-79680000D01*
X165784500Y-67045000D02*
X165689500Y-67045000D01*
X165784500Y-69028000D02*
X165784500Y-67045000D01*
X172607500Y-51520736D02*
X172707500Y-51620736D01*
X164007500Y-70805000D02*
X165784500Y-69028000D01*
X172607500Y-36878000D02*
X172607500Y-51520736D01*
X172707500Y-51620736D02*
X172707500Y-52045000D01*
D19*
X152784500Y-65057000D02*
X154557500Y-66830000D01*
D20*
X158837500Y-73680000D02*
X158837500Y-77610000D01*
X171934500Y-36205000D02*
X172607500Y-36878000D01*
D19*
X152784500Y-62752000D02*
X152784500Y-65057000D01*
D20*
X165689500Y-67045000D02*
X165659500Y-67015000D01*
D18*
X24107500Y-40105000D02*
X25027735Y-41025235D01*
X25027735Y-51684765D02*
X23607501Y-53104999D01*
X24107500Y-59705000D02*
X24107500Y-62405000D01*
X24107500Y-62405000D02*
X24007500Y-62505000D01*
X23607501Y-53104999D02*
X23607501Y-59205001D01*
X25027735Y-41025235D02*
X25027735Y-51684765D01*
X23607501Y-59205001D02*
X24107500Y-59705000D01*
X24307500Y-43570010D02*
X24307500Y-41705223D01*
X41607500Y-38405000D02*
X34607500Y-38405000D01*
X42907500Y-39705000D02*
X41607500Y-38405000D01*
X24307500Y-41705223D02*
X24402733Y-41609990D01*
X34607500Y-38405000D02*
X34107499Y-38905001D01*
X34107499Y-38905001D02*
X33807500Y-39205000D01*
X36117500Y-45800000D02*
X36117500Y-47420000D01*
X35107500Y-44790000D02*
X36117500Y-45800000D01*
X35107500Y-41605000D02*
X35107500Y-44790000D01*
X42207500Y-53510000D02*
X42207500Y-58205000D01*
X35507500Y-41205000D02*
X35107500Y-41605000D01*
X36117500Y-47420000D02*
X42207500Y-53510000D01*
X42207500Y-58205000D02*
X42707500Y-58705000D01*
X63042502Y-36540002D02*
X63042502Y-35889998D01*
X62457504Y-35305000D02*
X62331764Y-35305000D01*
X62807500Y-36775004D02*
X63042502Y-36540002D01*
X60707500Y-48705000D02*
X62807500Y-46605000D01*
X60707500Y-56655000D02*
X60707500Y-48705000D01*
X62807500Y-46605000D02*
X62807500Y-36775004D01*
X62331764Y-35305000D02*
X61907500Y-35305000D01*
X63042502Y-35889998D02*
X62457504Y-35305000D01*
X79512500Y-31310000D02*
X72202500Y-31310000D01*
X62107506Y-36526946D02*
X62387500Y-36246952D01*
X72202500Y-31310000D02*
X71307499Y-32205001D01*
X62107506Y-37954990D02*
X62107506Y-36526946D01*
X80807500Y-32605000D02*
X79512500Y-31310000D01*
X71307499Y-32205001D02*
X71007500Y-32505000D01*
X74187500Y-40200000D02*
X80207500Y-46220000D01*
X74187500Y-38610000D02*
X74187500Y-40200000D01*
X73307500Y-37730000D02*
X74187500Y-38610000D01*
X80207500Y-46220000D02*
X80207500Y-51105000D01*
X73307500Y-34105000D02*
X73307500Y-37730000D01*
X80207500Y-51105000D02*
X80807500Y-51705000D01*
X101255930Y-35003426D02*
X100867963Y-35003426D01*
X100707499Y-37265005D02*
X101812502Y-36160002D01*
X101812502Y-35559998D02*
X101255930Y-35003426D01*
X98607500Y-49105000D02*
X100707499Y-47005001D01*
X101812502Y-36160002D02*
X101812502Y-35559998D01*
X100707499Y-47005001D02*
X100707499Y-37265005D01*
X98607500Y-56755000D02*
X98607500Y-49105000D01*
X100867963Y-35003426D02*
X100443699Y-35003426D01*
X99882500Y-37455000D02*
X99882500Y-36595000D01*
X109862520Y-36505001D02*
X109562521Y-36805000D01*
X110362521Y-36005000D02*
X109862520Y-36505001D01*
X117407500Y-36005000D02*
X110362521Y-36005000D01*
X118807500Y-37405000D02*
X117407500Y-36005000D01*
X99882500Y-36595000D02*
X100597500Y-35880000D01*
X112147500Y-44720000D02*
X118282499Y-50854999D01*
X112147500Y-43270000D02*
X112147500Y-44720000D01*
X111407500Y-38905000D02*
X111407500Y-42530000D01*
X118282499Y-56079999D02*
X118607500Y-56405000D01*
X111407500Y-42530000D02*
X112147500Y-43270000D01*
X118282499Y-50854999D02*
X118282499Y-56079999D01*
X24307500Y-59005000D02*
X24632501Y-59330001D01*
X24632501Y-70479999D02*
X23607500Y-71505000D01*
X23607500Y-71505000D02*
X23607500Y-80980736D01*
X23607500Y-80980736D02*
X23607500Y-81405000D01*
X24632501Y-59330001D02*
X24632501Y-70479999D01*
X36187500Y-66585000D02*
X41907500Y-72305000D01*
X35407500Y-60405000D02*
X35407500Y-64050000D01*
X36187500Y-64830000D02*
X36187500Y-66585000D01*
X41907500Y-72305000D02*
X41907500Y-76905000D01*
X35407500Y-64050000D02*
X36187500Y-64830000D01*
X41907500Y-76905000D02*
X42707500Y-77705000D01*
X60677169Y-75535331D02*
X60707500Y-75505000D01*
X62107500Y-54730010D02*
X62232510Y-54605000D01*
X61407500Y-67105000D02*
X62532509Y-65979991D01*
X62532509Y-56130009D02*
X62107500Y-55705000D01*
X62107500Y-55705000D02*
X62107500Y-54730010D01*
X60807500Y-75505000D02*
X61407500Y-74905000D01*
X60707500Y-75505000D02*
X60807500Y-75505000D01*
X62532509Y-65979991D02*
X62532509Y-56130009D01*
X61407500Y-74905000D02*
X61407500Y-67105000D01*
X73407500Y-53105000D02*
X73407500Y-58475500D01*
X80207500Y-65275500D02*
X80207500Y-70105000D01*
X73407500Y-58475500D02*
X80207500Y-65275500D01*
X80207500Y-70105000D02*
X80807500Y-70705000D01*
X98807500Y-75705000D02*
X98807500Y-68105000D01*
X100857500Y-55329264D02*
X100857500Y-54905000D01*
X100857500Y-66055000D02*
X100857500Y-55329264D01*
X98807500Y-68105000D02*
X100857500Y-66055000D01*
X118307500Y-74480736D02*
X118807500Y-74980736D01*
X118807500Y-74980736D02*
X118807500Y-75405000D01*
X111307500Y-63705000D02*
X118307500Y-70705000D01*
X118307500Y-70705000D02*
X118307500Y-74480736D01*
X111307500Y-57805000D02*
X111307500Y-63705000D01*
X37107500Y-81355000D02*
X35207500Y-79455000D01*
X62007500Y-73230010D02*
X62032510Y-73205000D01*
X35207500Y-79455000D02*
X35207500Y-79405000D01*
X62007500Y-77105000D02*
X62007500Y-73230010D01*
X61907500Y-77205000D02*
X62007500Y-77105000D01*
X35207500Y-79405000D02*
X35107500Y-79305000D01*
X85777500Y-83510000D02*
X89707500Y-87440000D01*
X89707500Y-92105000D02*
X90307500Y-92705000D01*
X81867500Y-83510000D02*
X85777500Y-83510000D01*
X73407500Y-75050000D02*
X81867500Y-83510000D01*
X73407500Y-72105000D02*
X73407500Y-75050000D01*
X89707500Y-87440000D02*
X89707500Y-92105000D01*
X99807500Y-73405000D02*
X99807500Y-75105000D01*
X99907500Y-73305000D02*
X99807500Y-73405000D01*
X101107500Y-76405000D02*
X101107500Y-94005000D01*
X99807500Y-75105000D02*
X101107500Y-76405000D01*
X101107500Y-94005000D02*
X102707500Y-95605000D01*
X123707500Y-90805000D02*
X125507500Y-92605000D01*
X133693925Y-92605000D02*
X134900693Y-93811768D01*
X111407500Y-76905000D02*
X115407500Y-80905000D01*
X115407500Y-80905000D02*
X118207500Y-80905000D01*
X118207500Y-80905000D02*
X123707500Y-86405000D01*
X123707500Y-86405000D02*
X123707500Y-90805000D01*
X134900693Y-93811768D02*
X135200692Y-94111767D01*
X125507500Y-92605000D02*
X133693925Y-92605000D01*
X97107500Y-98605000D02*
X94307500Y-95805000D01*
X108707500Y-98605000D02*
X97107500Y-98605000D01*
X84607500Y-95805000D02*
X82907500Y-94105000D01*
X108807500Y-98705000D02*
X108707500Y-98605000D01*
X110207500Y-96705000D02*
X110507500Y-97005000D01*
X94307500Y-95805000D02*
X84607500Y-95805000D01*
X110507500Y-97005000D02*
X108807500Y-98705000D01*
X281337500Y-40985000D02*
X281337500Y-52375000D01*
X279447500Y-54265000D02*
X279447500Y-56385000D01*
X274297500Y-57525000D02*
X272977500Y-58845000D01*
X280317500Y-39965000D02*
X281337500Y-40985000D01*
X278307500Y-57525000D02*
X274297500Y-57525000D01*
X279447500Y-56385000D02*
X278307500Y-57525000D01*
X272977500Y-58845000D02*
X272977500Y-60175000D01*
X281337500Y-52375000D02*
X279447500Y-54265000D01*
X254167500Y-41779266D02*
X254167500Y-41355002D01*
X261307500Y-58745000D02*
X261307500Y-54075000D01*
X253817500Y-42129266D02*
X254167500Y-41779266D01*
X253817500Y-46585000D02*
X253817500Y-42129266D01*
X261307500Y-54075000D02*
X253817500Y-46585000D01*
X242337500Y-35145000D02*
X242337500Y-35569264D01*
X243087500Y-36319264D02*
X243087500Y-47425000D01*
X236212500Y-52715000D02*
X234977500Y-53950000D01*
X243087500Y-47425000D02*
X241677500Y-48835000D01*
X242337500Y-35569264D02*
X243087500Y-36319264D01*
X240087500Y-52715000D02*
X236212500Y-52715000D01*
X241677500Y-51125000D02*
X240087500Y-52715000D01*
X234977500Y-53950000D02*
X234977500Y-55355000D01*
X241677500Y-48835000D02*
X241677500Y-51125000D01*
X223232169Y-51890331D02*
X223232169Y-51466067D01*
X222827500Y-47035000D02*
X215777500Y-39985000D01*
X222827500Y-51061398D02*
X222827500Y-47035000D01*
X223232169Y-51466067D02*
X222827500Y-51061398D01*
X215777500Y-34375000D02*
X216047500Y-34105000D01*
X215777500Y-39985000D02*
X215777500Y-34375000D01*
X196907500Y-53865000D02*
X196907500Y-55365000D01*
X205157500Y-35905000D02*
X205157500Y-46955000D01*
X197917500Y-52855000D02*
X196907500Y-53865000D01*
X205157500Y-46955000D02*
X203857500Y-48255000D01*
X201757500Y-52855000D02*
X197917500Y-52855000D01*
X203857500Y-50755000D02*
X201757500Y-52855000D01*
X204437500Y-35185000D02*
X205157500Y-35905000D01*
X203857500Y-48255000D02*
X203857500Y-50755000D01*
X178037510Y-44595010D02*
X178037510Y-39329264D01*
X185337500Y-51895000D02*
X178037510Y-44595010D01*
X185337500Y-56385000D02*
X185337500Y-51895000D01*
X178037510Y-39329264D02*
X178037510Y-38905000D01*
X276647500Y-70075000D02*
X279467500Y-72895000D01*
X278302500Y-76350000D02*
X273907500Y-76350000D01*
X280367500Y-60662000D02*
X276647500Y-64382000D01*
X272887500Y-79025000D02*
X273117500Y-79255000D01*
X280367500Y-58895000D02*
X280367500Y-60662000D01*
X276647500Y-64382000D02*
X276647500Y-70075000D01*
X272887500Y-77370000D02*
X272887500Y-79025000D01*
X273907500Y-76350000D02*
X272887500Y-77370000D01*
X279467500Y-72895000D02*
X279467500Y-75185000D01*
X279467500Y-75185000D02*
X278302500Y-76350000D01*
X253797500Y-60635000D02*
X254007500Y-60425000D01*
X261327500Y-73375000D02*
X253797500Y-65845000D01*
X253797500Y-65845000D02*
X253797500Y-60635000D01*
X261327500Y-77755000D02*
X261327500Y-73375000D01*
X243167500Y-55609264D02*
X243167500Y-66375000D01*
X241527500Y-68015000D02*
X241527500Y-70385000D01*
X242277500Y-54295000D02*
X242277500Y-54719264D01*
X243167500Y-66375000D02*
X241527500Y-68015000D01*
X234887500Y-72615000D02*
X234887500Y-74335000D01*
X240177500Y-71735000D02*
X235767500Y-71735000D01*
X234887500Y-74335000D02*
X234907500Y-74355000D01*
X235767500Y-71735000D02*
X234887500Y-72615000D01*
X241527500Y-70385000D02*
X240177500Y-71735000D01*
X242277500Y-54719264D02*
X243167500Y-55609264D01*
X222707500Y-66227998D02*
X222687500Y-66207998D01*
X222687500Y-65755000D02*
X215897500Y-58965000D01*
X222707500Y-70165662D02*
X222707500Y-66227998D01*
X215897500Y-58965000D02*
X215897500Y-53155000D01*
X223267169Y-70725331D02*
X222707500Y-70165662D01*
X222687500Y-66207998D02*
X222687500Y-65755000D01*
X203587500Y-70315000D02*
X202007510Y-71894990D01*
X202007510Y-71894990D02*
X198157490Y-71894990D01*
X196857500Y-73194980D02*
X196857500Y-74365000D01*
X204397500Y-54145000D02*
X205227500Y-54975000D01*
X205227500Y-54975000D02*
X205227500Y-66575000D01*
X198157490Y-71894990D02*
X196857500Y-73194980D01*
X205227500Y-66575000D02*
X203587500Y-68215000D01*
X203587500Y-68215000D02*
X203587500Y-70315000D01*
X184617500Y-74775000D02*
X184617500Y-70887998D01*
X185367500Y-75525000D02*
X184617500Y-74775000D01*
X184617500Y-70887998D02*
X178234502Y-64505000D01*
X178234502Y-64505000D02*
X178234502Y-58162002D01*
X178234502Y-58162002D02*
X177937500Y-57865000D01*
X213767500Y-92735000D02*
X213767500Y-92310736D01*
X213767500Y-92310736D02*
X213247500Y-91790736D01*
X215842503Y-72299997D02*
X216007500Y-72135000D01*
X213247500Y-91790736D02*
X213247500Y-86575000D01*
X213247500Y-86575000D02*
X214737500Y-85085000D01*
X214737500Y-85085000D02*
X215842503Y-83979997D01*
X215842503Y-83979997D02*
X215842503Y-72299997D01*
X186837500Y-95620000D02*
X186837500Y-97375000D01*
X204327500Y-73235000D02*
X204327500Y-75190000D01*
X187901823Y-94710298D02*
X187697500Y-94790000D01*
X187551049Y-94906451D02*
X186837500Y-95620000D01*
X186837500Y-97375000D02*
X186947500Y-97485000D01*
X187950366Y-94626221D02*
X187901823Y-94710298D01*
X191694520Y-93622979D02*
X187950366Y-94626221D01*
X187697500Y-94790000D02*
X187551049Y-94906451D01*
X192667500Y-92650000D02*
X191694520Y-93622979D01*
X192667500Y-86850000D02*
X192667500Y-92650000D01*
X204327500Y-75190000D02*
X192667500Y-86850000D01*
X174667500Y-88015000D02*
X177667500Y-85015000D01*
X177667500Y-77075000D02*
X177707500Y-77035000D01*
X166112500Y-101360000D02*
X170167500Y-101360000D01*
X165207500Y-100455000D02*
X166112500Y-101360000D01*
X177667500Y-85015000D02*
X177667500Y-77075000D01*
X174667500Y-96860000D02*
X174667500Y-88015000D01*
X170167500Y-101360000D02*
X174667500Y-96860000D01*
M02*
