G04 #@! TF.GenerationSoftware,KiCad,Pcbnew,7.0.7*
G04 #@! TF.CreationDate,2024-01-09T11:53:47+08:00*
G04 #@! TF.ProjectId,corne-cherry,636f726e-652d-4636-9865-7272792e6b69,3.0.1*
G04 #@! TF.SameCoordinates,Original*
G04 #@! TF.FileFunction,Profile,NP*
%FSLAX46Y46*%
G04 Gerber Fmt 4.6, Leading zero omitted, Abs format (unit mm)*
G04 Created by KiCad (PCBNEW 7.0.7) date 2024-01-09 11:53:47*
%MOMM*%
%LPD*%
G01*
G04 APERTURE LIST*
G04 #@! TA.AperFunction,Profile*
%ADD10C,0.200000*%
G04 #@! TD*
G04 #@! TA.AperFunction,Profile*
%ADD11C,0.120000*%
G04 #@! TD*
G04 APERTURE END LIST*
D10*
X181807964Y-102628624D02*
X218992829Y-97791818D01*
X130437729Y-111317428D02*
G75*
G03*
X131121024Y-111134331I250171J432928D01*
G01*
X269416000Y-45309500D02*
G75*
G03*
X269416000Y-45309500I-2150000J0D01*
G01*
X60606400Y-21914616D02*
X67717599Y-21914616D01*
X105717900Y-24414016D02*
X123716899Y-24414016D01*
X191184500Y-24547600D02*
G75*
G03*
X191684500Y-24047600I0J500000D01*
G01*
X115094436Y-102495040D02*
X77909571Y-97658234D01*
X144902029Y-87239199D02*
X131121025Y-111134331D01*
X107753900Y-41661416D02*
G75*
G03*
X107753900Y-41661416I-2150000J0D01*
G01*
X236316000Y-83050600D02*
X279066000Y-83049800D01*
X124216898Y-24913217D02*
X124218901Y-26167015D01*
X155572500Y-82804500D02*
G75*
G03*
X155572500Y-82804500I-1000000J0D01*
G01*
X152433546Y-26798000D02*
G75*
G03*
X151933500Y-27298000I-46J-500000D01*
G01*
X247684000Y-26298000D02*
G75*
G03*
X248183976Y-26798000I500000J0D01*
G01*
X211183900Y-19797800D02*
G75*
G03*
X210683900Y-20297800I0J-500000D01*
G01*
X269416000Y-64309500D02*
G75*
G03*
X269416000Y-64309500I-2150000J0D01*
G01*
X144968900Y-27164416D02*
X144968900Y-86989401D01*
X77570079Y-97457020D02*
X67115747Y-83121408D01*
X151933522Y-87122985D02*
G75*
G03*
X152000372Y-87372783I500078J-15D01*
G01*
X130437719Y-111317444D02*
X115280119Y-102557952D01*
X77570117Y-97456993D02*
G75*
G03*
X77909571Y-97658234I404083J294693D01*
G01*
X49718400Y-21916216D02*
X60606400Y-21914616D01*
X226259000Y-81550000D02*
G75*
G03*
X226259000Y-81550000I-2150000J0D01*
G01*
X179692500Y-89164500D02*
G75*
G03*
X179692500Y-89164500I-2150000J0D01*
G01*
X124218885Y-26167015D02*
G75*
G03*
X124718946Y-26666216I500015J815D01*
G01*
X166464681Y-111451028D02*
X181622281Y-102691536D01*
X31786400Y-45175916D02*
G75*
G03*
X31786400Y-45175916I-2150000J0D01*
G01*
X173185502Y-24547602D02*
G75*
G03*
X172685503Y-25046801I-2J-499998D01*
G01*
X11217484Y-82416000D02*
G75*
G03*
X11717484Y-82916016I500016J0D01*
G01*
X11719276Y-26666200D02*
G75*
G03*
X11219300Y-27166200I24J-500000D01*
G01*
X285684900Y-82549584D02*
X285683100Y-27299784D01*
X144902017Y-87239192D02*
G75*
G03*
X144968900Y-86989401I-433017J249792D01*
G01*
X105217884Y-23914016D02*
G75*
G03*
X105717900Y-24414016I500016J16D01*
G01*
X60586400Y-82917016D02*
X17836400Y-82916216D01*
X230190721Y-83049601D02*
X236316000Y-83050600D01*
X165781364Y-111267921D02*
G75*
G03*
X166464681Y-111451028I433136J249821D01*
G01*
X210183900Y-22049800D02*
G75*
G03*
X210683900Y-21549800I0J500000D01*
G01*
X228684802Y-21548921D02*
X228682996Y-20297079D01*
X198306000Y-22049800D02*
X198306000Y-22048200D01*
X128897900Y-74149916D02*
G75*
G03*
X128897900Y-74149916I-1000000J0D01*
G01*
X219332321Y-97590604D02*
X229786653Y-83254992D01*
X105217900Y-22414616D02*
X105217900Y-23914016D01*
X68719403Y-19664216D02*
X85718500Y-19664216D01*
X68719403Y-19664204D02*
G75*
G03*
X68219404Y-20163495I-3J-499996D01*
G01*
X49718400Y-21916200D02*
G75*
G03*
X49218400Y-22416216I0J-500000D01*
G01*
X86218484Y-20164216D02*
G75*
G03*
X85718500Y-19664216I-499984J16D01*
G01*
X86218484Y-21416216D02*
G75*
G03*
X86718500Y-21916216I500016J16D01*
G01*
X31786400Y-64175916D02*
G75*
G03*
X31786400Y-64175916I-2150000J0D01*
G01*
X170004500Y-74283500D02*
G75*
G03*
X170004500Y-74283500I-1000000J0D01*
G01*
X17836400Y-82916216D02*
X11717484Y-82916016D01*
X66711679Y-82916017D02*
X60586400Y-82917016D01*
X193448500Y-41795000D02*
G75*
G03*
X193448500Y-41795000I-2150000J0D01*
G01*
X48718424Y-26664400D02*
G75*
G03*
X49218400Y-26164416I-24J500000D01*
G01*
X236296000Y-22048200D02*
X229184801Y-22048200D01*
X210683900Y-20297800D02*
X210683900Y-21549800D01*
X279066000Y-83049800D02*
X285184917Y-83049600D01*
X247184000Y-22049800D02*
X236296000Y-22048200D01*
X218992829Y-97791815D02*
G75*
G03*
X219332320Y-97590604I-64429J495715D01*
G01*
X151933500Y-27298000D02*
X151933500Y-87122985D01*
X98596400Y-21916216D02*
X98596400Y-21914616D01*
X230190721Y-83049594D02*
G75*
G03*
X229786654Y-83254992I-21J-500106D01*
G01*
X68217598Y-21415337D02*
X68219404Y-20163495D01*
X152000371Y-87372783D02*
X165781375Y-111267915D01*
X210183900Y-22049800D02*
X198306000Y-22049800D01*
X115280126Y-102557940D02*
G75*
G03*
X115094436Y-102495040I-250226J-433160D01*
G01*
X124718946Y-26666216D02*
X144468854Y-26664416D01*
X228182997Y-19797800D02*
X211183900Y-19797800D01*
X124216883Y-24913217D02*
G75*
G03*
X123716899Y-24414016I-499983J-783D01*
G01*
X228684801Y-21548921D02*
G75*
G03*
X229184801Y-22048200I499999J721D01*
G01*
X285683100Y-27299784D02*
G75*
G03*
X285183125Y-26799800I-500000J-16D01*
G01*
X247684000Y-26298000D02*
X247684000Y-22549800D01*
X67717599Y-21914598D02*
G75*
G03*
X68217597Y-21415337I1J499998D01*
G01*
X144968884Y-27164416D02*
G75*
G03*
X144468854Y-26664416I-499984J16D01*
G01*
X192184500Y-22048200D02*
G75*
G03*
X191684500Y-22548200I0J-500000D01*
G01*
X198306000Y-22048200D02*
X192184500Y-22048200D01*
X191184500Y-24547600D02*
X173185502Y-24547600D01*
X98596400Y-21914616D02*
X104717900Y-21914616D01*
X121509900Y-89030916D02*
G75*
G03*
X121509900Y-89030916I-2150000J0D01*
G01*
X228682999Y-20297079D02*
G75*
G03*
X228182997Y-19797800I-499999J-721D01*
G01*
X191684500Y-22548200D02*
X191684500Y-24047600D01*
X74943400Y-81416416D02*
G75*
G03*
X74943400Y-81416416I-2150000J0D01*
G01*
X247684000Y-22549800D02*
G75*
G03*
X247184000Y-22049800I-500000J0D01*
G01*
X11719276Y-26666216D02*
X48718424Y-26664416D01*
X181807964Y-102628627D02*
G75*
G03*
X181622281Y-102691536I64436J-495673D01*
G01*
X11217500Y-82416000D02*
X11219300Y-27166200D01*
X143329900Y-82670916D02*
G75*
G03*
X143329900Y-82670916I-1000000J0D01*
G01*
X49218400Y-26164416D02*
X49218400Y-22416216D01*
X172183454Y-26799799D02*
G75*
G03*
X172683498Y-26300599I46J499999D01*
G01*
X105217884Y-22414616D02*
G75*
G03*
X104717900Y-21914616I-499984J16D01*
G01*
X67115734Y-83121417D02*
G75*
G03*
X66711679Y-82916017I-403934J-294483D01*
G01*
X172685502Y-25046801D02*
X172683499Y-26300599D01*
X172183454Y-26799800D02*
X152433546Y-26798000D01*
X285183125Y-26799800D02*
X248183976Y-26798000D01*
X86218500Y-20164216D02*
X86218500Y-21416216D01*
X86718500Y-21916216D02*
X98596400Y-21916216D01*
X285184917Y-83049600D02*
G75*
G03*
X285684900Y-82549584I-17J500000D01*
G01*
D11*
X18307500Y-38980000D02*
X21907500Y-38980000D01*
X18307500Y-42080000D02*
X18307500Y-38980000D01*
X21907500Y-38980000D02*
X21907500Y-42080000D01*
X21907500Y-42080000D02*
X18307500Y-42080000D01*
X37307500Y-38980000D02*
X40907500Y-38980000D01*
X37307500Y-42080000D02*
X37307500Y-38980000D01*
X40907500Y-38980000D02*
X40907500Y-42080000D01*
X40907500Y-42080000D02*
X37307500Y-42080000D01*
X56307500Y-34230000D02*
X59907500Y-34230000D01*
X56307500Y-37330000D02*
X56307500Y-34230000D01*
X59907500Y-34230000D02*
X59907500Y-37330000D01*
X59907500Y-37330000D02*
X56307500Y-37330000D01*
X75307500Y-31855000D02*
X78907500Y-31855000D01*
X75307500Y-34955000D02*
X75307500Y-31855000D01*
X78907500Y-31855000D02*
X78907500Y-34955000D01*
X78907500Y-34955000D02*
X75307500Y-34955000D01*
X94307500Y-34230000D02*
X97907500Y-34230000D01*
X94307500Y-37330000D02*
X94307500Y-34230000D01*
X97907500Y-34230000D02*
X97907500Y-37330000D01*
X97907500Y-37330000D02*
X94307500Y-37330000D01*
X113307500Y-36605000D02*
X116907500Y-36605000D01*
X113307500Y-39705000D02*
X113307500Y-36605000D01*
X116907500Y-36605000D02*
X116907500Y-39705000D01*
X116907500Y-39705000D02*
X113307500Y-39705000D01*
X18307500Y-57980000D02*
X21907500Y-57980000D01*
X18307500Y-61080000D02*
X18307500Y-57980000D01*
X21907500Y-57980000D02*
X21907500Y-61080000D01*
X21907500Y-61080000D02*
X18307500Y-61080000D01*
X37307500Y-57980000D02*
X40907500Y-57980000D01*
X37307500Y-61080000D02*
X37307500Y-57980000D01*
X40907500Y-57980000D02*
X40907500Y-61080000D01*
X40907500Y-61080000D02*
X37307500Y-61080000D01*
X56307500Y-53230000D02*
X59907500Y-53230000D01*
X56307500Y-56330000D02*
X56307500Y-53230000D01*
X59907500Y-53230000D02*
X59907500Y-56330000D01*
X59907500Y-56330000D02*
X56307500Y-56330000D01*
X75307500Y-50855000D02*
X78907500Y-50855000D01*
X75307500Y-53955000D02*
X75307500Y-50855000D01*
X78907500Y-50855000D02*
X78907500Y-53955000D01*
X78907500Y-53955000D02*
X75307500Y-53955000D01*
X94307500Y-53230000D02*
X97907500Y-53230000D01*
X94307500Y-56330000D02*
X94307500Y-53230000D01*
X97907500Y-53230000D02*
X97907500Y-56330000D01*
X97907500Y-56330000D02*
X94307500Y-56330000D01*
X113307500Y-55605000D02*
X116907500Y-55605000D01*
X113307500Y-58705000D02*
X113307500Y-55605000D01*
X116907500Y-55605000D02*
X116907500Y-58705000D01*
X116907500Y-58705000D02*
X113307500Y-58705000D01*
X18307500Y-76980000D02*
X21907500Y-76980000D01*
X18307500Y-80080000D02*
X18307500Y-76980000D01*
X21907500Y-76980000D02*
X21907500Y-80080000D01*
X21907500Y-80080000D02*
X18307500Y-80080000D01*
X37307500Y-76980000D02*
X40907500Y-76980000D01*
X37307500Y-80080000D02*
X37307500Y-76980000D01*
X40907500Y-76980000D02*
X40907500Y-80080000D01*
X40907500Y-80080000D02*
X37307500Y-80080000D01*
X56307500Y-72230000D02*
X59907500Y-72230000D01*
X56307500Y-75330000D02*
X56307500Y-72230000D01*
X59907500Y-72230000D02*
X59907500Y-75330000D01*
X59907500Y-75330000D02*
X56307500Y-75330000D01*
X75307500Y-69855000D02*
X78907500Y-69855000D01*
X75307500Y-72955000D02*
X75307500Y-69855000D01*
X78907500Y-69855000D02*
X78907500Y-72955000D01*
X78907500Y-72955000D02*
X75307500Y-72955000D01*
X113307500Y-74605000D02*
X116907500Y-74605000D01*
X113307500Y-77705000D02*
X113307500Y-74605000D01*
X116907500Y-74605000D02*
X116907500Y-77705000D01*
X116907500Y-77705000D02*
X113307500Y-77705000D01*
X131728782Y-98313846D02*
X133528782Y-95196154D01*
X134413460Y-99863846D02*
X131728782Y-98313846D01*
X133528782Y-95196154D02*
X136213460Y-96746154D01*
X136213460Y-96746154D02*
X134413460Y-99863846D01*
X217807500Y-50855000D02*
X221407500Y-50855000D01*
X217807500Y-53955000D02*
X217807500Y-50855000D01*
X221407500Y-50855000D02*
X221407500Y-53955000D01*
X221407500Y-53955000D02*
X217807500Y-53955000D01*
X198807500Y-53230000D02*
X202407500Y-53230000D01*
X198807500Y-56330000D02*
X198807500Y-53230000D01*
X202407500Y-53230000D02*
X202407500Y-56330000D01*
X202407500Y-56330000D02*
X198807500Y-56330000D01*
X179807500Y-55605000D02*
X183407500Y-55605000D01*
X179807500Y-58705000D02*
X179807500Y-55605000D01*
X183407500Y-55605000D02*
X183407500Y-58705000D01*
X183407500Y-58705000D02*
X179807500Y-58705000D01*
X274807500Y-76980000D02*
X278407500Y-76980000D01*
X274807500Y-80080000D02*
X274807500Y-76980000D01*
X278407500Y-76980000D02*
X278407500Y-80080000D01*
X278407500Y-80080000D02*
X274807500Y-80080000D01*
X255807500Y-76980000D02*
X259407500Y-76980000D01*
X255807500Y-80080000D02*
X255807500Y-76980000D01*
X259407500Y-76980000D02*
X259407500Y-80080000D01*
X259407500Y-80080000D02*
X255807500Y-80080000D01*
X236807500Y-72230000D02*
X240407500Y-72230000D01*
X236807500Y-75330000D02*
X236807500Y-72230000D01*
X240407500Y-72230000D02*
X240407500Y-75330000D01*
X240407500Y-75330000D02*
X236807500Y-75330000D01*
X217807500Y-69855000D02*
X221407500Y-69855000D01*
X217807500Y-72955000D02*
X217807500Y-69855000D01*
X221407500Y-69855000D02*
X221407500Y-72955000D01*
X221407500Y-72955000D02*
X217807500Y-72955000D01*
X198807500Y-72230000D02*
X202407500Y-72230000D01*
X198807500Y-75330000D02*
X198807500Y-72230000D01*
X202407500Y-72230000D02*
X202407500Y-75330000D01*
X202407500Y-75330000D02*
X198807500Y-75330000D01*
X179807500Y-74605000D02*
X183407500Y-74605000D01*
X179807500Y-77705000D02*
X179807500Y-74605000D01*
X183407500Y-74605000D02*
X183407500Y-77705000D01*
X183407500Y-77705000D02*
X179807500Y-77705000D01*
X208307500Y-91855000D02*
X211907500Y-91855000D01*
X208307500Y-94955000D02*
X208307500Y-91855000D01*
X211907500Y-91855000D02*
X211907500Y-94955000D01*
X211907500Y-94955000D02*
X208307500Y-94955000D01*
X188204054Y-94956837D02*
X191681387Y-94025089D01*
X189006393Y-97951207D02*
X188204054Y-94956837D01*
X191681387Y-94025089D02*
X192483726Y-97019459D01*
X192483726Y-97019459D02*
X189006393Y-97951207D01*
X84807500Y-91855000D02*
X88407500Y-91855000D01*
X84807500Y-94955000D02*
X84807500Y-91855000D01*
X88407500Y-91855000D02*
X88407500Y-94955000D01*
X88407500Y-94955000D02*
X84807500Y-94955000D01*
X105040613Y-94030089D02*
X108517946Y-94961837D01*
X104238274Y-97024459D02*
X105040613Y-94030089D01*
X108517946Y-94961837D02*
X107715607Y-97956207D01*
X107715607Y-97956207D02*
X104238274Y-97024459D01*
X94307500Y-72230000D02*
X97907500Y-72230000D01*
X94307500Y-75330000D02*
X94307500Y-72230000D01*
X97907500Y-72230000D02*
X97907500Y-75330000D01*
X97907500Y-75330000D02*
X94307500Y-75330000D01*
X274807500Y-38980000D02*
X278407500Y-38980000D01*
X274807500Y-42080000D02*
X274807500Y-38980000D01*
X278407500Y-38980000D02*
X278407500Y-42080000D01*
X278407500Y-42080000D02*
X274807500Y-42080000D01*
X255807500Y-38980000D02*
X259407500Y-38980000D01*
X255807500Y-42080000D02*
X255807500Y-38980000D01*
X259407500Y-38980000D02*
X259407500Y-42080000D01*
X259407500Y-42080000D02*
X255807500Y-42080000D01*
X236807500Y-34230000D02*
X240407500Y-34230000D01*
X236807500Y-37330000D02*
X236807500Y-34230000D01*
X240407500Y-34230000D02*
X240407500Y-37330000D01*
X240407500Y-37330000D02*
X236807500Y-37330000D01*
X217807500Y-31855000D02*
X221407500Y-31855000D01*
X217807500Y-34955000D02*
X217807500Y-31855000D01*
X221407500Y-31855000D02*
X221407500Y-34955000D01*
X221407500Y-34955000D02*
X217807500Y-34955000D01*
X198807500Y-34230000D02*
X202407500Y-34230000D01*
X198807500Y-37330000D02*
X198807500Y-34230000D01*
X202407500Y-34230000D02*
X202407500Y-37330000D01*
X202407500Y-37330000D02*
X198807500Y-37330000D01*
X179807500Y-36605000D02*
X183407500Y-36605000D01*
X179807500Y-39705000D02*
X179807500Y-36605000D01*
X183407500Y-36605000D02*
X183407500Y-39705000D01*
X183407500Y-39705000D02*
X179807500Y-39705000D01*
X274807500Y-57980000D02*
X278407500Y-57980000D01*
X274807500Y-61080000D02*
X274807500Y-57980000D01*
X278407500Y-57980000D02*
X278407500Y-61080000D01*
X278407500Y-61080000D02*
X274807500Y-61080000D01*
X255807500Y-57980000D02*
X259407500Y-57980000D01*
X255807500Y-61080000D02*
X255807500Y-57980000D01*
X259407500Y-57980000D02*
X259407500Y-61080000D01*
X259407500Y-61080000D02*
X255807500Y-61080000D01*
X236807500Y-53230000D02*
X240407500Y-53230000D01*
X236807500Y-56330000D02*
X236807500Y-53230000D01*
X240407500Y-53230000D02*
X240407500Y-56330000D01*
X240407500Y-56330000D02*
X236807500Y-56330000D01*
X163193218Y-95191154D02*
X164993218Y-98308846D01*
X160508540Y-96741154D02*
X163193218Y-95191154D01*
X164993218Y-98308846D02*
X162308540Y-99858846D01*
X162308540Y-99858846D02*
X160508540Y-96741154D01*
M02*
