G04 #@! TF.GenerationSoftware,KiCad,Pcbnew,7.0.7*
G04 #@! TF.CreationDate,2024-01-09T11:53:46+08:00*
G04 #@! TF.ProjectId,corne-cherry,636f726e-652d-4636-9865-7272792e6b69,3.0.1*
G04 #@! TF.SameCoordinates,Original*
G04 #@! TF.FileFunction,Legend,Bot*
G04 #@! TF.FilePolarity,Positive*
%FSLAX46Y46*%
G04 Gerber Fmt 4.6, Leading zero omitted, Abs format (unit mm)*
G04 Created by KiCad (PCBNEW 7.0.7) date 2024-01-09 11:53:46*
%MOMM*%
%LPD*%
G01*
G04 APERTURE LIST*
%ADD10C,0.150000*%
%ADD11C,0.152000*%
%ADD12C,0.300000*%
%ADD13C,0.500000*%
%ADD14C,0.800000*%
%ADD15C,3.000000*%
%ADD16C,3.500000*%
%ADD17C,1.000000*%
%ADD18C,0.400000*%
%ADD19C,0.381000*%
%ADD20C,0.120000*%
%ADD21C,0.254000*%
%ADD22C,1.524000*%
G04 APERTURE END LIST*
D10*
X21196547Y-43892319D02*
X21672737Y-43892319D01*
X21672737Y-43892319D02*
X21672737Y-42892319D01*
X20863213Y-43368509D02*
X20529880Y-43368509D01*
X20387023Y-43892319D02*
X20863213Y-43892319D01*
X20863213Y-43892319D02*
X20863213Y-42892319D01*
X20863213Y-42892319D02*
X20387023Y-42892319D01*
X19958451Y-43892319D02*
X19958451Y-42892319D01*
X19958451Y-42892319D02*
X19720356Y-42892319D01*
X19720356Y-42892319D02*
X19577499Y-42939938D01*
X19577499Y-42939938D02*
X19482261Y-43035176D01*
X19482261Y-43035176D02*
X19434642Y-43130414D01*
X19434642Y-43130414D02*
X19387023Y-43320890D01*
X19387023Y-43320890D02*
X19387023Y-43463747D01*
X19387023Y-43463747D02*
X19434642Y-43654223D01*
X19434642Y-43654223D02*
X19482261Y-43749461D01*
X19482261Y-43749461D02*
X19577499Y-43844700D01*
X19577499Y-43844700D02*
X19720356Y-43892319D01*
X19720356Y-43892319D02*
X19958451Y-43892319D01*
X19053689Y-42892319D02*
X18387023Y-42892319D01*
X18387023Y-42892319D02*
X18815594Y-43892319D01*
X33766547Y-41822319D02*
X34242737Y-41822319D01*
X34242737Y-41822319D02*
X34242737Y-40822319D01*
X33433213Y-41298509D02*
X33099880Y-41298509D01*
X32957023Y-41822319D02*
X33433213Y-41822319D01*
X33433213Y-41822319D02*
X33433213Y-40822319D01*
X33433213Y-40822319D02*
X32957023Y-40822319D01*
X32528451Y-41822319D02*
X32528451Y-40822319D01*
X32528451Y-40822319D02*
X32290356Y-40822319D01*
X32290356Y-40822319D02*
X32147499Y-40869938D01*
X32147499Y-40869938D02*
X32052261Y-40965176D01*
X32052261Y-40965176D02*
X32004642Y-41060414D01*
X32004642Y-41060414D02*
X31957023Y-41250890D01*
X31957023Y-41250890D02*
X31957023Y-41393747D01*
X31957023Y-41393747D02*
X32004642Y-41584223D01*
X32004642Y-41584223D02*
X32052261Y-41679461D01*
X32052261Y-41679461D02*
X32147499Y-41774700D01*
X32147499Y-41774700D02*
X32290356Y-41822319D01*
X32290356Y-41822319D02*
X32528451Y-41822319D01*
X31385594Y-41250890D02*
X31480832Y-41203271D01*
X31480832Y-41203271D02*
X31528451Y-41155652D01*
X31528451Y-41155652D02*
X31576070Y-41060414D01*
X31576070Y-41060414D02*
X31576070Y-41012795D01*
X31576070Y-41012795D02*
X31528451Y-40917557D01*
X31528451Y-40917557D02*
X31480832Y-40869938D01*
X31480832Y-40869938D02*
X31385594Y-40822319D01*
X31385594Y-40822319D02*
X31195118Y-40822319D01*
X31195118Y-40822319D02*
X31099880Y-40869938D01*
X31099880Y-40869938D02*
X31052261Y-40917557D01*
X31052261Y-40917557D02*
X31004642Y-41012795D01*
X31004642Y-41012795D02*
X31004642Y-41060414D01*
X31004642Y-41060414D02*
X31052261Y-41155652D01*
X31052261Y-41155652D02*
X31099880Y-41203271D01*
X31099880Y-41203271D02*
X31195118Y-41250890D01*
X31195118Y-41250890D02*
X31385594Y-41250890D01*
X31385594Y-41250890D02*
X31480832Y-41298509D01*
X31480832Y-41298509D02*
X31528451Y-41346128D01*
X31528451Y-41346128D02*
X31576070Y-41441366D01*
X31576070Y-41441366D02*
X31576070Y-41631842D01*
X31576070Y-41631842D02*
X31528451Y-41727080D01*
X31528451Y-41727080D02*
X31480832Y-41774700D01*
X31480832Y-41774700D02*
X31385594Y-41822319D01*
X31385594Y-41822319D02*
X31195118Y-41822319D01*
X31195118Y-41822319D02*
X31099880Y-41774700D01*
X31099880Y-41774700D02*
X31052261Y-41727080D01*
X31052261Y-41727080D02*
X31004642Y-41631842D01*
X31004642Y-41631842D02*
X31004642Y-41441366D01*
X31004642Y-41441366D02*
X31052261Y-41346128D01*
X31052261Y-41346128D02*
X31099880Y-41298509D01*
X31099880Y-41298509D02*
X31195118Y-41250890D01*
X59196547Y-39142319D02*
X59672737Y-39142319D01*
X59672737Y-39142319D02*
X59672737Y-38142319D01*
X58863213Y-38618509D02*
X58529880Y-38618509D01*
X58387023Y-39142319D02*
X58863213Y-39142319D01*
X58863213Y-39142319D02*
X58863213Y-38142319D01*
X58863213Y-38142319D02*
X58387023Y-38142319D01*
X57958451Y-39142319D02*
X57958451Y-38142319D01*
X57958451Y-38142319D02*
X57720356Y-38142319D01*
X57720356Y-38142319D02*
X57577499Y-38189938D01*
X57577499Y-38189938D02*
X57482261Y-38285176D01*
X57482261Y-38285176D02*
X57434642Y-38380414D01*
X57434642Y-38380414D02*
X57387023Y-38570890D01*
X57387023Y-38570890D02*
X57387023Y-38713747D01*
X57387023Y-38713747D02*
X57434642Y-38904223D01*
X57434642Y-38904223D02*
X57482261Y-38999461D01*
X57482261Y-38999461D02*
X57577499Y-39094700D01*
X57577499Y-39094700D02*
X57720356Y-39142319D01*
X57720356Y-39142319D02*
X57958451Y-39142319D01*
X56910832Y-39142319D02*
X56720356Y-39142319D01*
X56720356Y-39142319D02*
X56625118Y-39094700D01*
X56625118Y-39094700D02*
X56577499Y-39047080D01*
X56577499Y-39047080D02*
X56482261Y-38904223D01*
X56482261Y-38904223D02*
X56434642Y-38713747D01*
X56434642Y-38713747D02*
X56434642Y-38332795D01*
X56434642Y-38332795D02*
X56482261Y-38237557D01*
X56482261Y-38237557D02*
X56529880Y-38189938D01*
X56529880Y-38189938D02*
X56625118Y-38142319D01*
X56625118Y-38142319D02*
X56815594Y-38142319D01*
X56815594Y-38142319D02*
X56910832Y-38189938D01*
X56910832Y-38189938D02*
X56958451Y-38237557D01*
X56958451Y-38237557D02*
X57006070Y-38332795D01*
X57006070Y-38332795D02*
X57006070Y-38570890D01*
X57006070Y-38570890D02*
X56958451Y-38666128D01*
X56958451Y-38666128D02*
X56910832Y-38713747D01*
X56910832Y-38713747D02*
X56815594Y-38761366D01*
X56815594Y-38761366D02*
X56625118Y-38761366D01*
X56625118Y-38761366D02*
X56529880Y-38713747D01*
X56529880Y-38713747D02*
X56482261Y-38666128D01*
X56482261Y-38666128D02*
X56434642Y-38570890D01*
X72242738Y-34697319D02*
X72718928Y-34697319D01*
X72718928Y-34697319D02*
X72718928Y-33697319D01*
X71909404Y-34173509D02*
X71576071Y-34173509D01*
X71433214Y-34697319D02*
X71909404Y-34697319D01*
X71909404Y-34697319D02*
X71909404Y-33697319D01*
X71909404Y-33697319D02*
X71433214Y-33697319D01*
X71004642Y-34697319D02*
X71004642Y-33697319D01*
X71004642Y-33697319D02*
X70766547Y-33697319D01*
X70766547Y-33697319D02*
X70623690Y-33744938D01*
X70623690Y-33744938D02*
X70528452Y-33840176D01*
X70528452Y-33840176D02*
X70480833Y-33935414D01*
X70480833Y-33935414D02*
X70433214Y-34125890D01*
X70433214Y-34125890D02*
X70433214Y-34268747D01*
X70433214Y-34268747D02*
X70480833Y-34459223D01*
X70480833Y-34459223D02*
X70528452Y-34554461D01*
X70528452Y-34554461D02*
X70623690Y-34649700D01*
X70623690Y-34649700D02*
X70766547Y-34697319D01*
X70766547Y-34697319D02*
X71004642Y-34697319D01*
X69480833Y-34697319D02*
X70052261Y-34697319D01*
X69766547Y-34697319D02*
X69766547Y-33697319D01*
X69766547Y-33697319D02*
X69861785Y-33840176D01*
X69861785Y-33840176D02*
X69957023Y-33935414D01*
X69957023Y-33935414D02*
X70052261Y-33983033D01*
X68861785Y-33697319D02*
X68766547Y-33697319D01*
X68766547Y-33697319D02*
X68671309Y-33744938D01*
X68671309Y-33744938D02*
X68623690Y-33792557D01*
X68623690Y-33792557D02*
X68576071Y-33887795D01*
X68576071Y-33887795D02*
X68528452Y-34078271D01*
X68528452Y-34078271D02*
X68528452Y-34316366D01*
X68528452Y-34316366D02*
X68576071Y-34506842D01*
X68576071Y-34506842D02*
X68623690Y-34602080D01*
X68623690Y-34602080D02*
X68671309Y-34649700D01*
X68671309Y-34649700D02*
X68766547Y-34697319D01*
X68766547Y-34697319D02*
X68861785Y-34697319D01*
X68861785Y-34697319D02*
X68957023Y-34649700D01*
X68957023Y-34649700D02*
X69004642Y-34602080D01*
X69004642Y-34602080D02*
X69052261Y-34506842D01*
X69052261Y-34506842D02*
X69099880Y-34316366D01*
X69099880Y-34316366D02*
X69099880Y-34078271D01*
X69099880Y-34078271D02*
X69052261Y-33887795D01*
X69052261Y-33887795D02*
X69004642Y-33792557D01*
X69004642Y-33792557D02*
X68957023Y-33744938D01*
X68957023Y-33744938D02*
X68861785Y-33697319D01*
X97672738Y-39142319D02*
X98148928Y-39142319D01*
X98148928Y-39142319D02*
X98148928Y-38142319D01*
X97339404Y-38618509D02*
X97006071Y-38618509D01*
X96863214Y-39142319D02*
X97339404Y-39142319D01*
X97339404Y-39142319D02*
X97339404Y-38142319D01*
X97339404Y-38142319D02*
X96863214Y-38142319D01*
X96434642Y-39142319D02*
X96434642Y-38142319D01*
X96434642Y-38142319D02*
X96196547Y-38142319D01*
X96196547Y-38142319D02*
X96053690Y-38189938D01*
X96053690Y-38189938D02*
X95958452Y-38285176D01*
X95958452Y-38285176D02*
X95910833Y-38380414D01*
X95910833Y-38380414D02*
X95863214Y-38570890D01*
X95863214Y-38570890D02*
X95863214Y-38713747D01*
X95863214Y-38713747D02*
X95910833Y-38904223D01*
X95910833Y-38904223D02*
X95958452Y-38999461D01*
X95958452Y-38999461D02*
X96053690Y-39094700D01*
X96053690Y-39094700D02*
X96196547Y-39142319D01*
X96196547Y-39142319D02*
X96434642Y-39142319D01*
X94910833Y-39142319D02*
X95482261Y-39142319D01*
X95196547Y-39142319D02*
X95196547Y-38142319D01*
X95196547Y-38142319D02*
X95291785Y-38285176D01*
X95291785Y-38285176D02*
X95387023Y-38380414D01*
X95387023Y-38380414D02*
X95482261Y-38428033D01*
X93958452Y-39142319D02*
X94529880Y-39142319D01*
X94244166Y-39142319D02*
X94244166Y-38142319D01*
X94244166Y-38142319D02*
X94339404Y-38285176D01*
X94339404Y-38285176D02*
X94434642Y-38380414D01*
X94434642Y-38380414D02*
X94529880Y-38428033D01*
X110242738Y-39447319D02*
X110718928Y-39447319D01*
X110718928Y-39447319D02*
X110718928Y-38447319D01*
X109909404Y-38923509D02*
X109576071Y-38923509D01*
X109433214Y-39447319D02*
X109909404Y-39447319D01*
X109909404Y-39447319D02*
X109909404Y-38447319D01*
X109909404Y-38447319D02*
X109433214Y-38447319D01*
X109004642Y-39447319D02*
X109004642Y-38447319D01*
X109004642Y-38447319D02*
X108766547Y-38447319D01*
X108766547Y-38447319D02*
X108623690Y-38494938D01*
X108623690Y-38494938D02*
X108528452Y-38590176D01*
X108528452Y-38590176D02*
X108480833Y-38685414D01*
X108480833Y-38685414D02*
X108433214Y-38875890D01*
X108433214Y-38875890D02*
X108433214Y-39018747D01*
X108433214Y-39018747D02*
X108480833Y-39209223D01*
X108480833Y-39209223D02*
X108528452Y-39304461D01*
X108528452Y-39304461D02*
X108623690Y-39399700D01*
X108623690Y-39399700D02*
X108766547Y-39447319D01*
X108766547Y-39447319D02*
X109004642Y-39447319D01*
X107480833Y-39447319D02*
X108052261Y-39447319D01*
X107766547Y-39447319D02*
X107766547Y-38447319D01*
X107766547Y-38447319D02*
X107861785Y-38590176D01*
X107861785Y-38590176D02*
X107957023Y-38685414D01*
X107957023Y-38685414D02*
X108052261Y-38733033D01*
X107099880Y-38542557D02*
X107052261Y-38494938D01*
X107052261Y-38494938D02*
X106957023Y-38447319D01*
X106957023Y-38447319D02*
X106718928Y-38447319D01*
X106718928Y-38447319D02*
X106623690Y-38494938D01*
X106623690Y-38494938D02*
X106576071Y-38542557D01*
X106576071Y-38542557D02*
X106528452Y-38637795D01*
X106528452Y-38637795D02*
X106528452Y-38733033D01*
X106528452Y-38733033D02*
X106576071Y-38875890D01*
X106576071Y-38875890D02*
X107147499Y-39447319D01*
X107147499Y-39447319D02*
X106528452Y-39447319D01*
X21672738Y-62892319D02*
X22148928Y-62892319D01*
X22148928Y-62892319D02*
X22148928Y-61892319D01*
X21339404Y-62368509D02*
X21006071Y-62368509D01*
X20863214Y-62892319D02*
X21339404Y-62892319D01*
X21339404Y-62892319D02*
X21339404Y-61892319D01*
X21339404Y-61892319D02*
X20863214Y-61892319D01*
X20434642Y-62892319D02*
X20434642Y-61892319D01*
X20434642Y-61892319D02*
X20196547Y-61892319D01*
X20196547Y-61892319D02*
X20053690Y-61939938D01*
X20053690Y-61939938D02*
X19958452Y-62035176D01*
X19958452Y-62035176D02*
X19910833Y-62130414D01*
X19910833Y-62130414D02*
X19863214Y-62320890D01*
X19863214Y-62320890D02*
X19863214Y-62463747D01*
X19863214Y-62463747D02*
X19910833Y-62654223D01*
X19910833Y-62654223D02*
X19958452Y-62749461D01*
X19958452Y-62749461D02*
X20053690Y-62844700D01*
X20053690Y-62844700D02*
X20196547Y-62892319D01*
X20196547Y-62892319D02*
X20434642Y-62892319D01*
X18910833Y-62892319D02*
X19482261Y-62892319D01*
X19196547Y-62892319D02*
X19196547Y-61892319D01*
X19196547Y-61892319D02*
X19291785Y-62035176D01*
X19291785Y-62035176D02*
X19387023Y-62130414D01*
X19387023Y-62130414D02*
X19482261Y-62178033D01*
X18577499Y-61892319D02*
X17958452Y-61892319D01*
X17958452Y-61892319D02*
X18291785Y-62273271D01*
X18291785Y-62273271D02*
X18148928Y-62273271D01*
X18148928Y-62273271D02*
X18053690Y-62320890D01*
X18053690Y-62320890D02*
X18006071Y-62368509D01*
X18006071Y-62368509D02*
X17958452Y-62463747D01*
X17958452Y-62463747D02*
X17958452Y-62701842D01*
X17958452Y-62701842D02*
X18006071Y-62797080D01*
X18006071Y-62797080D02*
X18053690Y-62844700D01*
X18053690Y-62844700D02*
X18148928Y-62892319D01*
X18148928Y-62892319D02*
X18434642Y-62892319D01*
X18434642Y-62892319D02*
X18529880Y-62844700D01*
X18529880Y-62844700D02*
X18577499Y-62797080D01*
X34242738Y-60822319D02*
X34718928Y-60822319D01*
X34718928Y-60822319D02*
X34718928Y-59822319D01*
X33909404Y-60298509D02*
X33576071Y-60298509D01*
X33433214Y-60822319D02*
X33909404Y-60822319D01*
X33909404Y-60822319D02*
X33909404Y-59822319D01*
X33909404Y-59822319D02*
X33433214Y-59822319D01*
X33004642Y-60822319D02*
X33004642Y-59822319D01*
X33004642Y-59822319D02*
X32766547Y-59822319D01*
X32766547Y-59822319D02*
X32623690Y-59869938D01*
X32623690Y-59869938D02*
X32528452Y-59965176D01*
X32528452Y-59965176D02*
X32480833Y-60060414D01*
X32480833Y-60060414D02*
X32433214Y-60250890D01*
X32433214Y-60250890D02*
X32433214Y-60393747D01*
X32433214Y-60393747D02*
X32480833Y-60584223D01*
X32480833Y-60584223D02*
X32528452Y-60679461D01*
X32528452Y-60679461D02*
X32623690Y-60774700D01*
X32623690Y-60774700D02*
X32766547Y-60822319D01*
X32766547Y-60822319D02*
X33004642Y-60822319D01*
X31480833Y-60822319D02*
X32052261Y-60822319D01*
X31766547Y-60822319D02*
X31766547Y-59822319D01*
X31766547Y-59822319D02*
X31861785Y-59965176D01*
X31861785Y-59965176D02*
X31957023Y-60060414D01*
X31957023Y-60060414D02*
X32052261Y-60108033D01*
X30623690Y-60155652D02*
X30623690Y-60822319D01*
X30861785Y-59774700D02*
X31099880Y-60488985D01*
X31099880Y-60488985D02*
X30480833Y-60488985D01*
X59672738Y-58142319D02*
X60148928Y-58142319D01*
X60148928Y-58142319D02*
X60148928Y-57142319D01*
X59339404Y-57618509D02*
X59006071Y-57618509D01*
X58863214Y-58142319D02*
X59339404Y-58142319D01*
X59339404Y-58142319D02*
X59339404Y-57142319D01*
X59339404Y-57142319D02*
X58863214Y-57142319D01*
X58434642Y-58142319D02*
X58434642Y-57142319D01*
X58434642Y-57142319D02*
X58196547Y-57142319D01*
X58196547Y-57142319D02*
X58053690Y-57189938D01*
X58053690Y-57189938D02*
X57958452Y-57285176D01*
X57958452Y-57285176D02*
X57910833Y-57380414D01*
X57910833Y-57380414D02*
X57863214Y-57570890D01*
X57863214Y-57570890D02*
X57863214Y-57713747D01*
X57863214Y-57713747D02*
X57910833Y-57904223D01*
X57910833Y-57904223D02*
X57958452Y-57999461D01*
X57958452Y-57999461D02*
X58053690Y-58094700D01*
X58053690Y-58094700D02*
X58196547Y-58142319D01*
X58196547Y-58142319D02*
X58434642Y-58142319D01*
X56910833Y-58142319D02*
X57482261Y-58142319D01*
X57196547Y-58142319D02*
X57196547Y-57142319D01*
X57196547Y-57142319D02*
X57291785Y-57285176D01*
X57291785Y-57285176D02*
X57387023Y-57380414D01*
X57387023Y-57380414D02*
X57482261Y-57428033D01*
X56006071Y-57142319D02*
X56482261Y-57142319D01*
X56482261Y-57142319D02*
X56529880Y-57618509D01*
X56529880Y-57618509D02*
X56482261Y-57570890D01*
X56482261Y-57570890D02*
X56387023Y-57523271D01*
X56387023Y-57523271D02*
X56148928Y-57523271D01*
X56148928Y-57523271D02*
X56053690Y-57570890D01*
X56053690Y-57570890D02*
X56006071Y-57618509D01*
X56006071Y-57618509D02*
X55958452Y-57713747D01*
X55958452Y-57713747D02*
X55958452Y-57951842D01*
X55958452Y-57951842D02*
X56006071Y-58047080D01*
X56006071Y-58047080D02*
X56053690Y-58094700D01*
X56053690Y-58094700D02*
X56148928Y-58142319D01*
X56148928Y-58142319D02*
X56387023Y-58142319D01*
X56387023Y-58142319D02*
X56482261Y-58094700D01*
X56482261Y-58094700D02*
X56529880Y-58047080D01*
X78672738Y-55767319D02*
X79148928Y-55767319D01*
X79148928Y-55767319D02*
X79148928Y-54767319D01*
X78339404Y-55243509D02*
X78006071Y-55243509D01*
X77863214Y-55767319D02*
X78339404Y-55767319D01*
X78339404Y-55767319D02*
X78339404Y-54767319D01*
X78339404Y-54767319D02*
X77863214Y-54767319D01*
X77434642Y-55767319D02*
X77434642Y-54767319D01*
X77434642Y-54767319D02*
X77196547Y-54767319D01*
X77196547Y-54767319D02*
X77053690Y-54814938D01*
X77053690Y-54814938D02*
X76958452Y-54910176D01*
X76958452Y-54910176D02*
X76910833Y-55005414D01*
X76910833Y-55005414D02*
X76863214Y-55195890D01*
X76863214Y-55195890D02*
X76863214Y-55338747D01*
X76863214Y-55338747D02*
X76910833Y-55529223D01*
X76910833Y-55529223D02*
X76958452Y-55624461D01*
X76958452Y-55624461D02*
X77053690Y-55719700D01*
X77053690Y-55719700D02*
X77196547Y-55767319D01*
X77196547Y-55767319D02*
X77434642Y-55767319D01*
X75910833Y-55767319D02*
X76482261Y-55767319D01*
X76196547Y-55767319D02*
X76196547Y-54767319D01*
X76196547Y-54767319D02*
X76291785Y-54910176D01*
X76291785Y-54910176D02*
X76387023Y-55005414D01*
X76387023Y-55005414D02*
X76482261Y-55053033D01*
X75053690Y-54767319D02*
X75244166Y-54767319D01*
X75244166Y-54767319D02*
X75339404Y-54814938D01*
X75339404Y-54814938D02*
X75387023Y-54862557D01*
X75387023Y-54862557D02*
X75482261Y-55005414D01*
X75482261Y-55005414D02*
X75529880Y-55195890D01*
X75529880Y-55195890D02*
X75529880Y-55576842D01*
X75529880Y-55576842D02*
X75482261Y-55672080D01*
X75482261Y-55672080D02*
X75434642Y-55719700D01*
X75434642Y-55719700D02*
X75339404Y-55767319D01*
X75339404Y-55767319D02*
X75148928Y-55767319D01*
X75148928Y-55767319D02*
X75053690Y-55719700D01*
X75053690Y-55719700D02*
X75006071Y-55672080D01*
X75006071Y-55672080D02*
X74958452Y-55576842D01*
X74958452Y-55576842D02*
X74958452Y-55338747D01*
X74958452Y-55338747D02*
X75006071Y-55243509D01*
X75006071Y-55243509D02*
X75053690Y-55195890D01*
X75053690Y-55195890D02*
X75148928Y-55148271D01*
X75148928Y-55148271D02*
X75339404Y-55148271D01*
X75339404Y-55148271D02*
X75434642Y-55195890D01*
X75434642Y-55195890D02*
X75482261Y-55243509D01*
X75482261Y-55243509D02*
X75529880Y-55338747D01*
X97672738Y-58142319D02*
X98148928Y-58142319D01*
X98148928Y-58142319D02*
X98148928Y-57142319D01*
X97339404Y-57618509D02*
X97006071Y-57618509D01*
X96863214Y-58142319D02*
X97339404Y-58142319D01*
X97339404Y-58142319D02*
X97339404Y-57142319D01*
X97339404Y-57142319D02*
X96863214Y-57142319D01*
X96434642Y-58142319D02*
X96434642Y-57142319D01*
X96434642Y-57142319D02*
X96196547Y-57142319D01*
X96196547Y-57142319D02*
X96053690Y-57189938D01*
X96053690Y-57189938D02*
X95958452Y-57285176D01*
X95958452Y-57285176D02*
X95910833Y-57380414D01*
X95910833Y-57380414D02*
X95863214Y-57570890D01*
X95863214Y-57570890D02*
X95863214Y-57713747D01*
X95863214Y-57713747D02*
X95910833Y-57904223D01*
X95910833Y-57904223D02*
X95958452Y-57999461D01*
X95958452Y-57999461D02*
X96053690Y-58094700D01*
X96053690Y-58094700D02*
X96196547Y-58142319D01*
X96196547Y-58142319D02*
X96434642Y-58142319D01*
X94910833Y-58142319D02*
X95482261Y-58142319D01*
X95196547Y-58142319D02*
X95196547Y-57142319D01*
X95196547Y-57142319D02*
X95291785Y-57285176D01*
X95291785Y-57285176D02*
X95387023Y-57380414D01*
X95387023Y-57380414D02*
X95482261Y-57428033D01*
X94577499Y-57142319D02*
X93910833Y-57142319D01*
X93910833Y-57142319D02*
X94339404Y-58142319D01*
X116672738Y-60517319D02*
X117148928Y-60517319D01*
X117148928Y-60517319D02*
X117148928Y-59517319D01*
X116339404Y-59993509D02*
X116006071Y-59993509D01*
X115863214Y-60517319D02*
X116339404Y-60517319D01*
X116339404Y-60517319D02*
X116339404Y-59517319D01*
X116339404Y-59517319D02*
X115863214Y-59517319D01*
X115434642Y-60517319D02*
X115434642Y-59517319D01*
X115434642Y-59517319D02*
X115196547Y-59517319D01*
X115196547Y-59517319D02*
X115053690Y-59564938D01*
X115053690Y-59564938D02*
X114958452Y-59660176D01*
X114958452Y-59660176D02*
X114910833Y-59755414D01*
X114910833Y-59755414D02*
X114863214Y-59945890D01*
X114863214Y-59945890D02*
X114863214Y-60088747D01*
X114863214Y-60088747D02*
X114910833Y-60279223D01*
X114910833Y-60279223D02*
X114958452Y-60374461D01*
X114958452Y-60374461D02*
X115053690Y-60469700D01*
X115053690Y-60469700D02*
X115196547Y-60517319D01*
X115196547Y-60517319D02*
X115434642Y-60517319D01*
X113910833Y-60517319D02*
X114482261Y-60517319D01*
X114196547Y-60517319D02*
X114196547Y-59517319D01*
X114196547Y-59517319D02*
X114291785Y-59660176D01*
X114291785Y-59660176D02*
X114387023Y-59755414D01*
X114387023Y-59755414D02*
X114482261Y-59803033D01*
X113339404Y-59945890D02*
X113434642Y-59898271D01*
X113434642Y-59898271D02*
X113482261Y-59850652D01*
X113482261Y-59850652D02*
X113529880Y-59755414D01*
X113529880Y-59755414D02*
X113529880Y-59707795D01*
X113529880Y-59707795D02*
X113482261Y-59612557D01*
X113482261Y-59612557D02*
X113434642Y-59564938D01*
X113434642Y-59564938D02*
X113339404Y-59517319D01*
X113339404Y-59517319D02*
X113148928Y-59517319D01*
X113148928Y-59517319D02*
X113053690Y-59564938D01*
X113053690Y-59564938D02*
X113006071Y-59612557D01*
X113006071Y-59612557D02*
X112958452Y-59707795D01*
X112958452Y-59707795D02*
X112958452Y-59755414D01*
X112958452Y-59755414D02*
X113006071Y-59850652D01*
X113006071Y-59850652D02*
X113053690Y-59898271D01*
X113053690Y-59898271D02*
X113148928Y-59945890D01*
X113148928Y-59945890D02*
X113339404Y-59945890D01*
X113339404Y-59945890D02*
X113434642Y-59993509D01*
X113434642Y-59993509D02*
X113482261Y-60041128D01*
X113482261Y-60041128D02*
X113529880Y-60136366D01*
X113529880Y-60136366D02*
X113529880Y-60326842D01*
X113529880Y-60326842D02*
X113482261Y-60422080D01*
X113482261Y-60422080D02*
X113434642Y-60469700D01*
X113434642Y-60469700D02*
X113339404Y-60517319D01*
X113339404Y-60517319D02*
X113148928Y-60517319D01*
X113148928Y-60517319D02*
X113053690Y-60469700D01*
X113053690Y-60469700D02*
X113006071Y-60422080D01*
X113006071Y-60422080D02*
X112958452Y-60326842D01*
X112958452Y-60326842D02*
X112958452Y-60136366D01*
X112958452Y-60136366D02*
X113006071Y-60041128D01*
X113006071Y-60041128D02*
X113053690Y-59993509D01*
X113053690Y-59993509D02*
X113148928Y-59945890D01*
X21672738Y-81892319D02*
X22148928Y-81892319D01*
X22148928Y-81892319D02*
X22148928Y-80892319D01*
X21339404Y-81368509D02*
X21006071Y-81368509D01*
X20863214Y-81892319D02*
X21339404Y-81892319D01*
X21339404Y-81892319D02*
X21339404Y-80892319D01*
X21339404Y-80892319D02*
X20863214Y-80892319D01*
X20434642Y-81892319D02*
X20434642Y-80892319D01*
X20434642Y-80892319D02*
X20196547Y-80892319D01*
X20196547Y-80892319D02*
X20053690Y-80939938D01*
X20053690Y-80939938D02*
X19958452Y-81035176D01*
X19958452Y-81035176D02*
X19910833Y-81130414D01*
X19910833Y-81130414D02*
X19863214Y-81320890D01*
X19863214Y-81320890D02*
X19863214Y-81463747D01*
X19863214Y-81463747D02*
X19910833Y-81654223D01*
X19910833Y-81654223D02*
X19958452Y-81749461D01*
X19958452Y-81749461D02*
X20053690Y-81844700D01*
X20053690Y-81844700D02*
X20196547Y-81892319D01*
X20196547Y-81892319D02*
X20434642Y-81892319D01*
X18910833Y-81892319D02*
X19482261Y-81892319D01*
X19196547Y-81892319D02*
X19196547Y-80892319D01*
X19196547Y-80892319D02*
X19291785Y-81035176D01*
X19291785Y-81035176D02*
X19387023Y-81130414D01*
X19387023Y-81130414D02*
X19482261Y-81178033D01*
X18434642Y-81892319D02*
X18244166Y-81892319D01*
X18244166Y-81892319D02*
X18148928Y-81844700D01*
X18148928Y-81844700D02*
X18101309Y-81797080D01*
X18101309Y-81797080D02*
X18006071Y-81654223D01*
X18006071Y-81654223D02*
X17958452Y-81463747D01*
X17958452Y-81463747D02*
X17958452Y-81082795D01*
X17958452Y-81082795D02*
X18006071Y-80987557D01*
X18006071Y-80987557D02*
X18053690Y-80939938D01*
X18053690Y-80939938D02*
X18148928Y-80892319D01*
X18148928Y-80892319D02*
X18339404Y-80892319D01*
X18339404Y-80892319D02*
X18434642Y-80939938D01*
X18434642Y-80939938D02*
X18482261Y-80987557D01*
X18482261Y-80987557D02*
X18529880Y-81082795D01*
X18529880Y-81082795D02*
X18529880Y-81320890D01*
X18529880Y-81320890D02*
X18482261Y-81416128D01*
X18482261Y-81416128D02*
X18434642Y-81463747D01*
X18434642Y-81463747D02*
X18339404Y-81511366D01*
X18339404Y-81511366D02*
X18148928Y-81511366D01*
X18148928Y-81511366D02*
X18053690Y-81463747D01*
X18053690Y-81463747D02*
X18006071Y-81416128D01*
X18006071Y-81416128D02*
X17958452Y-81320890D01*
X40672738Y-81892319D02*
X41148928Y-81892319D01*
X41148928Y-81892319D02*
X41148928Y-80892319D01*
X40339404Y-81368509D02*
X40006071Y-81368509D01*
X39863214Y-81892319D02*
X40339404Y-81892319D01*
X40339404Y-81892319D02*
X40339404Y-80892319D01*
X40339404Y-80892319D02*
X39863214Y-80892319D01*
X39434642Y-81892319D02*
X39434642Y-80892319D01*
X39434642Y-80892319D02*
X39196547Y-80892319D01*
X39196547Y-80892319D02*
X39053690Y-80939938D01*
X39053690Y-80939938D02*
X38958452Y-81035176D01*
X38958452Y-81035176D02*
X38910833Y-81130414D01*
X38910833Y-81130414D02*
X38863214Y-81320890D01*
X38863214Y-81320890D02*
X38863214Y-81463747D01*
X38863214Y-81463747D02*
X38910833Y-81654223D01*
X38910833Y-81654223D02*
X38958452Y-81749461D01*
X38958452Y-81749461D02*
X39053690Y-81844700D01*
X39053690Y-81844700D02*
X39196547Y-81892319D01*
X39196547Y-81892319D02*
X39434642Y-81892319D01*
X38482261Y-80987557D02*
X38434642Y-80939938D01*
X38434642Y-80939938D02*
X38339404Y-80892319D01*
X38339404Y-80892319D02*
X38101309Y-80892319D01*
X38101309Y-80892319D02*
X38006071Y-80939938D01*
X38006071Y-80939938D02*
X37958452Y-80987557D01*
X37958452Y-80987557D02*
X37910833Y-81082795D01*
X37910833Y-81082795D02*
X37910833Y-81178033D01*
X37910833Y-81178033D02*
X37958452Y-81320890D01*
X37958452Y-81320890D02*
X38529880Y-81892319D01*
X38529880Y-81892319D02*
X37910833Y-81892319D01*
X37291785Y-80892319D02*
X37196547Y-80892319D01*
X37196547Y-80892319D02*
X37101309Y-80939938D01*
X37101309Y-80939938D02*
X37053690Y-80987557D01*
X37053690Y-80987557D02*
X37006071Y-81082795D01*
X37006071Y-81082795D02*
X36958452Y-81273271D01*
X36958452Y-81273271D02*
X36958452Y-81511366D01*
X36958452Y-81511366D02*
X37006071Y-81701842D01*
X37006071Y-81701842D02*
X37053690Y-81797080D01*
X37053690Y-81797080D02*
X37101309Y-81844700D01*
X37101309Y-81844700D02*
X37196547Y-81892319D01*
X37196547Y-81892319D02*
X37291785Y-81892319D01*
X37291785Y-81892319D02*
X37387023Y-81844700D01*
X37387023Y-81844700D02*
X37434642Y-81797080D01*
X37434642Y-81797080D02*
X37482261Y-81701842D01*
X37482261Y-81701842D02*
X37529880Y-81511366D01*
X37529880Y-81511366D02*
X37529880Y-81273271D01*
X37529880Y-81273271D02*
X37482261Y-81082795D01*
X37482261Y-81082795D02*
X37434642Y-80987557D01*
X37434642Y-80987557D02*
X37387023Y-80939938D01*
X37387023Y-80939938D02*
X37291785Y-80892319D01*
X59672738Y-77142319D02*
X60148928Y-77142319D01*
X60148928Y-77142319D02*
X60148928Y-76142319D01*
X59339404Y-76618509D02*
X59006071Y-76618509D01*
X58863214Y-77142319D02*
X59339404Y-77142319D01*
X59339404Y-77142319D02*
X59339404Y-76142319D01*
X59339404Y-76142319D02*
X58863214Y-76142319D01*
X58434642Y-77142319D02*
X58434642Y-76142319D01*
X58434642Y-76142319D02*
X58196547Y-76142319D01*
X58196547Y-76142319D02*
X58053690Y-76189938D01*
X58053690Y-76189938D02*
X57958452Y-76285176D01*
X57958452Y-76285176D02*
X57910833Y-76380414D01*
X57910833Y-76380414D02*
X57863214Y-76570890D01*
X57863214Y-76570890D02*
X57863214Y-76713747D01*
X57863214Y-76713747D02*
X57910833Y-76904223D01*
X57910833Y-76904223D02*
X57958452Y-76999461D01*
X57958452Y-76999461D02*
X58053690Y-77094700D01*
X58053690Y-77094700D02*
X58196547Y-77142319D01*
X58196547Y-77142319D02*
X58434642Y-77142319D01*
X57482261Y-76237557D02*
X57434642Y-76189938D01*
X57434642Y-76189938D02*
X57339404Y-76142319D01*
X57339404Y-76142319D02*
X57101309Y-76142319D01*
X57101309Y-76142319D02*
X57006071Y-76189938D01*
X57006071Y-76189938D02*
X56958452Y-76237557D01*
X56958452Y-76237557D02*
X56910833Y-76332795D01*
X56910833Y-76332795D02*
X56910833Y-76428033D01*
X56910833Y-76428033D02*
X56958452Y-76570890D01*
X56958452Y-76570890D02*
X57529880Y-77142319D01*
X57529880Y-77142319D02*
X56910833Y-77142319D01*
X55958452Y-77142319D02*
X56529880Y-77142319D01*
X56244166Y-77142319D02*
X56244166Y-76142319D01*
X56244166Y-76142319D02*
X56339404Y-76285176D01*
X56339404Y-76285176D02*
X56434642Y-76380414D01*
X56434642Y-76380414D02*
X56529880Y-76428033D01*
X72242738Y-72697319D02*
X72718928Y-72697319D01*
X72718928Y-72697319D02*
X72718928Y-71697319D01*
X71909404Y-72173509D02*
X71576071Y-72173509D01*
X71433214Y-72697319D02*
X71909404Y-72697319D01*
X71909404Y-72697319D02*
X71909404Y-71697319D01*
X71909404Y-71697319D02*
X71433214Y-71697319D01*
X71004642Y-72697319D02*
X71004642Y-71697319D01*
X71004642Y-71697319D02*
X70766547Y-71697319D01*
X70766547Y-71697319D02*
X70623690Y-71744938D01*
X70623690Y-71744938D02*
X70528452Y-71840176D01*
X70528452Y-71840176D02*
X70480833Y-71935414D01*
X70480833Y-71935414D02*
X70433214Y-72125890D01*
X70433214Y-72125890D02*
X70433214Y-72268747D01*
X70433214Y-72268747D02*
X70480833Y-72459223D01*
X70480833Y-72459223D02*
X70528452Y-72554461D01*
X70528452Y-72554461D02*
X70623690Y-72649700D01*
X70623690Y-72649700D02*
X70766547Y-72697319D01*
X70766547Y-72697319D02*
X71004642Y-72697319D01*
X70052261Y-71792557D02*
X70004642Y-71744938D01*
X70004642Y-71744938D02*
X69909404Y-71697319D01*
X69909404Y-71697319D02*
X69671309Y-71697319D01*
X69671309Y-71697319D02*
X69576071Y-71744938D01*
X69576071Y-71744938D02*
X69528452Y-71792557D01*
X69528452Y-71792557D02*
X69480833Y-71887795D01*
X69480833Y-71887795D02*
X69480833Y-71983033D01*
X69480833Y-71983033D02*
X69528452Y-72125890D01*
X69528452Y-72125890D02*
X70099880Y-72697319D01*
X70099880Y-72697319D02*
X69480833Y-72697319D01*
X69099880Y-71792557D02*
X69052261Y-71744938D01*
X69052261Y-71744938D02*
X68957023Y-71697319D01*
X68957023Y-71697319D02*
X68718928Y-71697319D01*
X68718928Y-71697319D02*
X68623690Y-71744938D01*
X68623690Y-71744938D02*
X68576071Y-71792557D01*
X68576071Y-71792557D02*
X68528452Y-71887795D01*
X68528452Y-71887795D02*
X68528452Y-71983033D01*
X68528452Y-71983033D02*
X68576071Y-72125890D01*
X68576071Y-72125890D02*
X69147499Y-72697319D01*
X69147499Y-72697319D02*
X68528452Y-72697319D01*
X110242738Y-77447319D02*
X110718928Y-77447319D01*
X110718928Y-77447319D02*
X110718928Y-76447319D01*
X109909404Y-76923509D02*
X109576071Y-76923509D01*
X109433214Y-77447319D02*
X109909404Y-77447319D01*
X109909404Y-77447319D02*
X109909404Y-76447319D01*
X109909404Y-76447319D02*
X109433214Y-76447319D01*
X109004642Y-77447319D02*
X109004642Y-76447319D01*
X109004642Y-76447319D02*
X108766547Y-76447319D01*
X108766547Y-76447319D02*
X108623690Y-76494938D01*
X108623690Y-76494938D02*
X108528452Y-76590176D01*
X108528452Y-76590176D02*
X108480833Y-76685414D01*
X108480833Y-76685414D02*
X108433214Y-76875890D01*
X108433214Y-76875890D02*
X108433214Y-77018747D01*
X108433214Y-77018747D02*
X108480833Y-77209223D01*
X108480833Y-77209223D02*
X108528452Y-77304461D01*
X108528452Y-77304461D02*
X108623690Y-77399700D01*
X108623690Y-77399700D02*
X108766547Y-77447319D01*
X108766547Y-77447319D02*
X109004642Y-77447319D01*
X108052261Y-76542557D02*
X108004642Y-76494938D01*
X108004642Y-76494938D02*
X107909404Y-76447319D01*
X107909404Y-76447319D02*
X107671309Y-76447319D01*
X107671309Y-76447319D02*
X107576071Y-76494938D01*
X107576071Y-76494938D02*
X107528452Y-76542557D01*
X107528452Y-76542557D02*
X107480833Y-76637795D01*
X107480833Y-76637795D02*
X107480833Y-76733033D01*
X107480833Y-76733033D02*
X107528452Y-76875890D01*
X107528452Y-76875890D02*
X108099880Y-77447319D01*
X108099880Y-77447319D02*
X107480833Y-77447319D01*
X106623690Y-76780652D02*
X106623690Y-77447319D01*
X106861785Y-76399700D02*
X107099880Y-77113985D01*
X107099880Y-77113985D02*
X106480833Y-77113985D01*
X137674003Y-97563392D02*
X137912099Y-97150999D01*
X137912099Y-97150999D02*
X137046073Y-96650999D01*
X137053704Y-97590163D02*
X136887038Y-97878838D01*
X137269241Y-98264460D02*
X137507337Y-97852067D01*
X137507337Y-97852067D02*
X136641311Y-97352067D01*
X136641311Y-97352067D02*
X136403216Y-97764460D01*
X137054956Y-98635614D02*
X136188930Y-98135614D01*
X136188930Y-98135614D02*
X136069883Y-98341811D01*
X136069883Y-98341811D02*
X136039693Y-98489338D01*
X136039693Y-98489338D02*
X136074553Y-98619436D01*
X136074553Y-98619436D02*
X136133222Y-98708294D01*
X136133222Y-98708294D02*
X136274370Y-98844772D01*
X136274370Y-98844772D02*
X136398088Y-98916200D01*
X136398088Y-98916200D02*
X136586854Y-98970199D01*
X136586854Y-98970199D02*
X136693143Y-98976579D01*
X136693143Y-98976579D02*
X136823240Y-98941719D01*
X136823240Y-98941719D02*
X136935908Y-98841811D01*
X136935908Y-98841811D02*
X137054956Y-98635614D01*
X135795218Y-99008019D02*
X135730170Y-99025449D01*
X135730170Y-99025449D02*
X135641311Y-99084118D01*
X135641311Y-99084118D02*
X135522264Y-99290315D01*
X135522264Y-99290315D02*
X135515884Y-99396603D01*
X135515884Y-99396603D02*
X135533314Y-99461652D01*
X135533314Y-99461652D02*
X135591983Y-99550510D01*
X135591983Y-99550510D02*
X135674461Y-99598129D01*
X135674461Y-99598129D02*
X135821989Y-99628318D01*
X135821989Y-99628318D02*
X136602575Y-99419161D01*
X136602575Y-99419161D02*
X136293051Y-99955272D01*
X135260359Y-99743947D02*
X134927026Y-100321298D01*
X134927026Y-100321298D02*
X136007337Y-100450144D01*
X221082738Y-55847319D02*
X221558928Y-55847319D01*
X221558928Y-55847319D02*
X221558928Y-54847319D01*
X220749404Y-55323509D02*
X220416071Y-55323509D01*
X220273214Y-55847319D02*
X220749404Y-55847319D01*
X220749404Y-55847319D02*
X220749404Y-54847319D01*
X220749404Y-54847319D02*
X220273214Y-54847319D01*
X219844642Y-55847319D02*
X219844642Y-54847319D01*
X219844642Y-54847319D02*
X219606547Y-54847319D01*
X219606547Y-54847319D02*
X219463690Y-54894938D01*
X219463690Y-54894938D02*
X219368452Y-54990176D01*
X219368452Y-54990176D02*
X219320833Y-55085414D01*
X219320833Y-55085414D02*
X219273214Y-55275890D01*
X219273214Y-55275890D02*
X219273214Y-55418747D01*
X219273214Y-55418747D02*
X219320833Y-55609223D01*
X219320833Y-55609223D02*
X219368452Y-55704461D01*
X219368452Y-55704461D02*
X219463690Y-55799700D01*
X219463690Y-55799700D02*
X219606547Y-55847319D01*
X219606547Y-55847319D02*
X219844642Y-55847319D01*
X218416071Y-55180652D02*
X218416071Y-55847319D01*
X218654166Y-54799700D02*
X218892261Y-55513985D01*
X218892261Y-55513985D02*
X218273214Y-55513985D01*
X217987499Y-54847319D02*
X217368452Y-54847319D01*
X217368452Y-54847319D02*
X217701785Y-55228271D01*
X217701785Y-55228271D02*
X217558928Y-55228271D01*
X217558928Y-55228271D02*
X217463690Y-55275890D01*
X217463690Y-55275890D02*
X217416071Y-55323509D01*
X217416071Y-55323509D02*
X217368452Y-55418747D01*
X217368452Y-55418747D02*
X217368452Y-55656842D01*
X217368452Y-55656842D02*
X217416071Y-55752080D01*
X217416071Y-55752080D02*
X217463690Y-55799700D01*
X217463690Y-55799700D02*
X217558928Y-55847319D01*
X217558928Y-55847319D02*
X217844642Y-55847319D01*
X217844642Y-55847319D02*
X217939880Y-55799700D01*
X217939880Y-55799700D02*
X217987499Y-55752080D01*
X202082738Y-58222319D02*
X202558928Y-58222319D01*
X202558928Y-58222319D02*
X202558928Y-57222319D01*
X201749404Y-57698509D02*
X201416071Y-57698509D01*
X201273214Y-58222319D02*
X201749404Y-58222319D01*
X201749404Y-58222319D02*
X201749404Y-57222319D01*
X201749404Y-57222319D02*
X201273214Y-57222319D01*
X200844642Y-58222319D02*
X200844642Y-57222319D01*
X200844642Y-57222319D02*
X200606547Y-57222319D01*
X200606547Y-57222319D02*
X200463690Y-57269938D01*
X200463690Y-57269938D02*
X200368452Y-57365176D01*
X200368452Y-57365176D02*
X200320833Y-57460414D01*
X200320833Y-57460414D02*
X200273214Y-57650890D01*
X200273214Y-57650890D02*
X200273214Y-57793747D01*
X200273214Y-57793747D02*
X200320833Y-57984223D01*
X200320833Y-57984223D02*
X200368452Y-58079461D01*
X200368452Y-58079461D02*
X200463690Y-58174700D01*
X200463690Y-58174700D02*
X200606547Y-58222319D01*
X200606547Y-58222319D02*
X200844642Y-58222319D01*
X199416071Y-57555652D02*
X199416071Y-58222319D01*
X199654166Y-57174700D02*
X199892261Y-57888985D01*
X199892261Y-57888985D02*
X199273214Y-57888985D01*
X198463690Y-57555652D02*
X198463690Y-58222319D01*
X198701785Y-57174700D02*
X198939880Y-57888985D01*
X198939880Y-57888985D02*
X198320833Y-57888985D01*
X183082738Y-60597319D02*
X183558928Y-60597319D01*
X183558928Y-60597319D02*
X183558928Y-59597319D01*
X182749404Y-60073509D02*
X182416071Y-60073509D01*
X182273214Y-60597319D02*
X182749404Y-60597319D01*
X182749404Y-60597319D02*
X182749404Y-59597319D01*
X182749404Y-59597319D02*
X182273214Y-59597319D01*
X181844642Y-60597319D02*
X181844642Y-59597319D01*
X181844642Y-59597319D02*
X181606547Y-59597319D01*
X181606547Y-59597319D02*
X181463690Y-59644938D01*
X181463690Y-59644938D02*
X181368452Y-59740176D01*
X181368452Y-59740176D02*
X181320833Y-59835414D01*
X181320833Y-59835414D02*
X181273214Y-60025890D01*
X181273214Y-60025890D02*
X181273214Y-60168747D01*
X181273214Y-60168747D02*
X181320833Y-60359223D01*
X181320833Y-60359223D02*
X181368452Y-60454461D01*
X181368452Y-60454461D02*
X181463690Y-60549700D01*
X181463690Y-60549700D02*
X181606547Y-60597319D01*
X181606547Y-60597319D02*
X181844642Y-60597319D01*
X180416071Y-59930652D02*
X180416071Y-60597319D01*
X180654166Y-59549700D02*
X180892261Y-60263985D01*
X180892261Y-60263985D02*
X180273214Y-60263985D01*
X179416071Y-59597319D02*
X179892261Y-59597319D01*
X179892261Y-59597319D02*
X179939880Y-60073509D01*
X179939880Y-60073509D02*
X179892261Y-60025890D01*
X179892261Y-60025890D02*
X179797023Y-59978271D01*
X179797023Y-59978271D02*
X179558928Y-59978271D01*
X179558928Y-59978271D02*
X179463690Y-60025890D01*
X179463690Y-60025890D02*
X179416071Y-60073509D01*
X179416071Y-60073509D02*
X179368452Y-60168747D01*
X179368452Y-60168747D02*
X179368452Y-60406842D01*
X179368452Y-60406842D02*
X179416071Y-60502080D01*
X179416071Y-60502080D02*
X179463690Y-60549700D01*
X179463690Y-60549700D02*
X179558928Y-60597319D01*
X179558928Y-60597319D02*
X179797023Y-60597319D01*
X179797023Y-60597319D02*
X179892261Y-60549700D01*
X179892261Y-60549700D02*
X179939880Y-60502080D01*
X278082738Y-81972319D02*
X278558928Y-81972319D01*
X278558928Y-81972319D02*
X278558928Y-80972319D01*
X277749404Y-81448509D02*
X277416071Y-81448509D01*
X277273214Y-81972319D02*
X277749404Y-81972319D01*
X277749404Y-81972319D02*
X277749404Y-80972319D01*
X277749404Y-80972319D02*
X277273214Y-80972319D01*
X276844642Y-81972319D02*
X276844642Y-80972319D01*
X276844642Y-80972319D02*
X276606547Y-80972319D01*
X276606547Y-80972319D02*
X276463690Y-81019938D01*
X276463690Y-81019938D02*
X276368452Y-81115176D01*
X276368452Y-81115176D02*
X276320833Y-81210414D01*
X276320833Y-81210414D02*
X276273214Y-81400890D01*
X276273214Y-81400890D02*
X276273214Y-81543747D01*
X276273214Y-81543747D02*
X276320833Y-81734223D01*
X276320833Y-81734223D02*
X276368452Y-81829461D01*
X276368452Y-81829461D02*
X276463690Y-81924700D01*
X276463690Y-81924700D02*
X276606547Y-81972319D01*
X276606547Y-81972319D02*
X276844642Y-81972319D01*
X275416071Y-81305652D02*
X275416071Y-81972319D01*
X275654166Y-80924700D02*
X275892261Y-81638985D01*
X275892261Y-81638985D02*
X275273214Y-81638985D01*
X274463690Y-80972319D02*
X274654166Y-80972319D01*
X274654166Y-80972319D02*
X274749404Y-81019938D01*
X274749404Y-81019938D02*
X274797023Y-81067557D01*
X274797023Y-81067557D02*
X274892261Y-81210414D01*
X274892261Y-81210414D02*
X274939880Y-81400890D01*
X274939880Y-81400890D02*
X274939880Y-81781842D01*
X274939880Y-81781842D02*
X274892261Y-81877080D01*
X274892261Y-81877080D02*
X274844642Y-81924700D01*
X274844642Y-81924700D02*
X274749404Y-81972319D01*
X274749404Y-81972319D02*
X274558928Y-81972319D01*
X274558928Y-81972319D02*
X274463690Y-81924700D01*
X274463690Y-81924700D02*
X274416071Y-81877080D01*
X274416071Y-81877080D02*
X274368452Y-81781842D01*
X274368452Y-81781842D02*
X274368452Y-81543747D01*
X274368452Y-81543747D02*
X274416071Y-81448509D01*
X274416071Y-81448509D02*
X274463690Y-81400890D01*
X274463690Y-81400890D02*
X274558928Y-81353271D01*
X274558928Y-81353271D02*
X274749404Y-81353271D01*
X274749404Y-81353271D02*
X274844642Y-81400890D01*
X274844642Y-81400890D02*
X274892261Y-81448509D01*
X274892261Y-81448509D02*
X274939880Y-81543747D01*
X259082738Y-81972319D02*
X259558928Y-81972319D01*
X259558928Y-81972319D02*
X259558928Y-80972319D01*
X258749404Y-81448509D02*
X258416071Y-81448509D01*
X258273214Y-81972319D02*
X258749404Y-81972319D01*
X258749404Y-81972319D02*
X258749404Y-80972319D01*
X258749404Y-80972319D02*
X258273214Y-80972319D01*
X257844642Y-81972319D02*
X257844642Y-80972319D01*
X257844642Y-80972319D02*
X257606547Y-80972319D01*
X257606547Y-80972319D02*
X257463690Y-81019938D01*
X257463690Y-81019938D02*
X257368452Y-81115176D01*
X257368452Y-81115176D02*
X257320833Y-81210414D01*
X257320833Y-81210414D02*
X257273214Y-81400890D01*
X257273214Y-81400890D02*
X257273214Y-81543747D01*
X257273214Y-81543747D02*
X257320833Y-81734223D01*
X257320833Y-81734223D02*
X257368452Y-81829461D01*
X257368452Y-81829461D02*
X257463690Y-81924700D01*
X257463690Y-81924700D02*
X257606547Y-81972319D01*
X257606547Y-81972319D02*
X257844642Y-81972319D01*
X256416071Y-81305652D02*
X256416071Y-81972319D01*
X256654166Y-80924700D02*
X256892261Y-81638985D01*
X256892261Y-81638985D02*
X256273214Y-81638985D01*
X255987499Y-80972319D02*
X255320833Y-80972319D01*
X255320833Y-80972319D02*
X255749404Y-81972319D01*
X240082738Y-77222319D02*
X240558928Y-77222319D01*
X240558928Y-77222319D02*
X240558928Y-76222319D01*
X239749404Y-76698509D02*
X239416071Y-76698509D01*
X239273214Y-77222319D02*
X239749404Y-77222319D01*
X239749404Y-77222319D02*
X239749404Y-76222319D01*
X239749404Y-76222319D02*
X239273214Y-76222319D01*
X238844642Y-77222319D02*
X238844642Y-76222319D01*
X238844642Y-76222319D02*
X238606547Y-76222319D01*
X238606547Y-76222319D02*
X238463690Y-76269938D01*
X238463690Y-76269938D02*
X238368452Y-76365176D01*
X238368452Y-76365176D02*
X238320833Y-76460414D01*
X238320833Y-76460414D02*
X238273214Y-76650890D01*
X238273214Y-76650890D02*
X238273214Y-76793747D01*
X238273214Y-76793747D02*
X238320833Y-76984223D01*
X238320833Y-76984223D02*
X238368452Y-77079461D01*
X238368452Y-77079461D02*
X238463690Y-77174700D01*
X238463690Y-77174700D02*
X238606547Y-77222319D01*
X238606547Y-77222319D02*
X238844642Y-77222319D01*
X237416071Y-76555652D02*
X237416071Y-77222319D01*
X237654166Y-76174700D02*
X237892261Y-76888985D01*
X237892261Y-76888985D02*
X237273214Y-76888985D01*
X236749404Y-76650890D02*
X236844642Y-76603271D01*
X236844642Y-76603271D02*
X236892261Y-76555652D01*
X236892261Y-76555652D02*
X236939880Y-76460414D01*
X236939880Y-76460414D02*
X236939880Y-76412795D01*
X236939880Y-76412795D02*
X236892261Y-76317557D01*
X236892261Y-76317557D02*
X236844642Y-76269938D01*
X236844642Y-76269938D02*
X236749404Y-76222319D01*
X236749404Y-76222319D02*
X236558928Y-76222319D01*
X236558928Y-76222319D02*
X236463690Y-76269938D01*
X236463690Y-76269938D02*
X236416071Y-76317557D01*
X236416071Y-76317557D02*
X236368452Y-76412795D01*
X236368452Y-76412795D02*
X236368452Y-76460414D01*
X236368452Y-76460414D02*
X236416071Y-76555652D01*
X236416071Y-76555652D02*
X236463690Y-76603271D01*
X236463690Y-76603271D02*
X236558928Y-76650890D01*
X236558928Y-76650890D02*
X236749404Y-76650890D01*
X236749404Y-76650890D02*
X236844642Y-76698509D01*
X236844642Y-76698509D02*
X236892261Y-76746128D01*
X236892261Y-76746128D02*
X236939880Y-76841366D01*
X236939880Y-76841366D02*
X236939880Y-77031842D01*
X236939880Y-77031842D02*
X236892261Y-77127080D01*
X236892261Y-77127080D02*
X236844642Y-77174700D01*
X236844642Y-77174700D02*
X236749404Y-77222319D01*
X236749404Y-77222319D02*
X236558928Y-77222319D01*
X236558928Y-77222319D02*
X236463690Y-77174700D01*
X236463690Y-77174700D02*
X236416071Y-77127080D01*
X236416071Y-77127080D02*
X236368452Y-77031842D01*
X236368452Y-77031842D02*
X236368452Y-76841366D01*
X236368452Y-76841366D02*
X236416071Y-76746128D01*
X236416071Y-76746128D02*
X236463690Y-76698509D01*
X236463690Y-76698509D02*
X236558928Y-76650890D01*
X214652738Y-72777319D02*
X215128928Y-72777319D01*
X215128928Y-72777319D02*
X215128928Y-71777319D01*
X214319404Y-72253509D02*
X213986071Y-72253509D01*
X213843214Y-72777319D02*
X214319404Y-72777319D01*
X214319404Y-72777319D02*
X214319404Y-71777319D01*
X214319404Y-71777319D02*
X213843214Y-71777319D01*
X213414642Y-72777319D02*
X213414642Y-71777319D01*
X213414642Y-71777319D02*
X213176547Y-71777319D01*
X213176547Y-71777319D02*
X213033690Y-71824938D01*
X213033690Y-71824938D02*
X212938452Y-71920176D01*
X212938452Y-71920176D02*
X212890833Y-72015414D01*
X212890833Y-72015414D02*
X212843214Y-72205890D01*
X212843214Y-72205890D02*
X212843214Y-72348747D01*
X212843214Y-72348747D02*
X212890833Y-72539223D01*
X212890833Y-72539223D02*
X212938452Y-72634461D01*
X212938452Y-72634461D02*
X213033690Y-72729700D01*
X213033690Y-72729700D02*
X213176547Y-72777319D01*
X213176547Y-72777319D02*
X213414642Y-72777319D01*
X211986071Y-72110652D02*
X211986071Y-72777319D01*
X212224166Y-71729700D02*
X212462261Y-72443985D01*
X212462261Y-72443985D02*
X211843214Y-72443985D01*
X211414642Y-72777319D02*
X211224166Y-72777319D01*
X211224166Y-72777319D02*
X211128928Y-72729700D01*
X211128928Y-72729700D02*
X211081309Y-72682080D01*
X211081309Y-72682080D02*
X210986071Y-72539223D01*
X210986071Y-72539223D02*
X210938452Y-72348747D01*
X210938452Y-72348747D02*
X210938452Y-71967795D01*
X210938452Y-71967795D02*
X210986071Y-71872557D01*
X210986071Y-71872557D02*
X211033690Y-71824938D01*
X211033690Y-71824938D02*
X211128928Y-71777319D01*
X211128928Y-71777319D02*
X211319404Y-71777319D01*
X211319404Y-71777319D02*
X211414642Y-71824938D01*
X211414642Y-71824938D02*
X211462261Y-71872557D01*
X211462261Y-71872557D02*
X211509880Y-71967795D01*
X211509880Y-71967795D02*
X211509880Y-72205890D01*
X211509880Y-72205890D02*
X211462261Y-72301128D01*
X211462261Y-72301128D02*
X211414642Y-72348747D01*
X211414642Y-72348747D02*
X211319404Y-72396366D01*
X211319404Y-72396366D02*
X211128928Y-72396366D01*
X211128928Y-72396366D02*
X211033690Y-72348747D01*
X211033690Y-72348747D02*
X210986071Y-72301128D01*
X210986071Y-72301128D02*
X210938452Y-72205890D01*
X195438738Y-74488819D02*
X195914928Y-74488819D01*
X195914928Y-74488819D02*
X195914928Y-73488819D01*
X195105404Y-73965009D02*
X194772071Y-73965009D01*
X194629214Y-74488819D02*
X195105404Y-74488819D01*
X195105404Y-74488819D02*
X195105404Y-73488819D01*
X195105404Y-73488819D02*
X194629214Y-73488819D01*
X194200642Y-74488819D02*
X194200642Y-73488819D01*
X194200642Y-73488819D02*
X193962547Y-73488819D01*
X193962547Y-73488819D02*
X193819690Y-73536438D01*
X193819690Y-73536438D02*
X193724452Y-73631676D01*
X193724452Y-73631676D02*
X193676833Y-73726914D01*
X193676833Y-73726914D02*
X193629214Y-73917390D01*
X193629214Y-73917390D02*
X193629214Y-74060247D01*
X193629214Y-74060247D02*
X193676833Y-74250723D01*
X193676833Y-74250723D02*
X193724452Y-74345961D01*
X193724452Y-74345961D02*
X193819690Y-74441200D01*
X193819690Y-74441200D02*
X193962547Y-74488819D01*
X193962547Y-74488819D02*
X194200642Y-74488819D01*
X192724452Y-73488819D02*
X193200642Y-73488819D01*
X193200642Y-73488819D02*
X193248261Y-73965009D01*
X193248261Y-73965009D02*
X193200642Y-73917390D01*
X193200642Y-73917390D02*
X193105404Y-73869771D01*
X193105404Y-73869771D02*
X192867309Y-73869771D01*
X192867309Y-73869771D02*
X192772071Y-73917390D01*
X192772071Y-73917390D02*
X192724452Y-73965009D01*
X192724452Y-73965009D02*
X192676833Y-74060247D01*
X192676833Y-74060247D02*
X192676833Y-74298342D01*
X192676833Y-74298342D02*
X192724452Y-74393580D01*
X192724452Y-74393580D02*
X192772071Y-74441200D01*
X192772071Y-74441200D02*
X192867309Y-74488819D01*
X192867309Y-74488819D02*
X193105404Y-74488819D01*
X193105404Y-74488819D02*
X193200642Y-74441200D01*
X193200642Y-74441200D02*
X193248261Y-74393580D01*
X192057785Y-73488819D02*
X191962547Y-73488819D01*
X191962547Y-73488819D02*
X191867309Y-73536438D01*
X191867309Y-73536438D02*
X191819690Y-73584057D01*
X191819690Y-73584057D02*
X191772071Y-73679295D01*
X191772071Y-73679295D02*
X191724452Y-73869771D01*
X191724452Y-73869771D02*
X191724452Y-74107866D01*
X191724452Y-74107866D02*
X191772071Y-74298342D01*
X191772071Y-74298342D02*
X191819690Y-74393580D01*
X191819690Y-74393580D02*
X191867309Y-74441200D01*
X191867309Y-74441200D02*
X191962547Y-74488819D01*
X191962547Y-74488819D02*
X192057785Y-74488819D01*
X192057785Y-74488819D02*
X192153023Y-74441200D01*
X192153023Y-74441200D02*
X192200642Y-74393580D01*
X192200642Y-74393580D02*
X192248261Y-74298342D01*
X192248261Y-74298342D02*
X192295880Y-74107866D01*
X192295880Y-74107866D02*
X192295880Y-73869771D01*
X192295880Y-73869771D02*
X192248261Y-73679295D01*
X192248261Y-73679295D02*
X192200642Y-73584057D01*
X192200642Y-73584057D02*
X192153023Y-73536438D01*
X192153023Y-73536438D02*
X192057785Y-73488819D01*
X176652738Y-77527319D02*
X177128928Y-77527319D01*
X177128928Y-77527319D02*
X177128928Y-76527319D01*
X176319404Y-77003509D02*
X175986071Y-77003509D01*
X175843214Y-77527319D02*
X176319404Y-77527319D01*
X176319404Y-77527319D02*
X176319404Y-76527319D01*
X176319404Y-76527319D02*
X175843214Y-76527319D01*
X175414642Y-77527319D02*
X175414642Y-76527319D01*
X175414642Y-76527319D02*
X175176547Y-76527319D01*
X175176547Y-76527319D02*
X175033690Y-76574938D01*
X175033690Y-76574938D02*
X174938452Y-76670176D01*
X174938452Y-76670176D02*
X174890833Y-76765414D01*
X174890833Y-76765414D02*
X174843214Y-76955890D01*
X174843214Y-76955890D02*
X174843214Y-77098747D01*
X174843214Y-77098747D02*
X174890833Y-77289223D01*
X174890833Y-77289223D02*
X174938452Y-77384461D01*
X174938452Y-77384461D02*
X175033690Y-77479700D01*
X175033690Y-77479700D02*
X175176547Y-77527319D01*
X175176547Y-77527319D02*
X175414642Y-77527319D01*
X173938452Y-76527319D02*
X174414642Y-76527319D01*
X174414642Y-76527319D02*
X174462261Y-77003509D01*
X174462261Y-77003509D02*
X174414642Y-76955890D01*
X174414642Y-76955890D02*
X174319404Y-76908271D01*
X174319404Y-76908271D02*
X174081309Y-76908271D01*
X174081309Y-76908271D02*
X173986071Y-76955890D01*
X173986071Y-76955890D02*
X173938452Y-77003509D01*
X173938452Y-77003509D02*
X173890833Y-77098747D01*
X173890833Y-77098747D02*
X173890833Y-77336842D01*
X173890833Y-77336842D02*
X173938452Y-77432080D01*
X173938452Y-77432080D02*
X173986071Y-77479700D01*
X173986071Y-77479700D02*
X174081309Y-77527319D01*
X174081309Y-77527319D02*
X174319404Y-77527319D01*
X174319404Y-77527319D02*
X174414642Y-77479700D01*
X174414642Y-77479700D02*
X174462261Y-77432080D01*
X172938452Y-77527319D02*
X173509880Y-77527319D01*
X173224166Y-77527319D02*
X173224166Y-76527319D01*
X173224166Y-76527319D02*
X173319404Y-76670176D01*
X173319404Y-76670176D02*
X173414642Y-76765414D01*
X173414642Y-76765414D02*
X173509880Y-76813033D01*
X211476284Y-96637049D02*
X211952474Y-96637049D01*
X211952474Y-96637049D02*
X211952474Y-95637049D01*
X211142950Y-96113239D02*
X210809617Y-96113239D01*
X210666760Y-96637049D02*
X211142950Y-96637049D01*
X211142950Y-96637049D02*
X211142950Y-95637049D01*
X211142950Y-95637049D02*
X210666760Y-95637049D01*
X210238188Y-96637049D02*
X210238188Y-95637049D01*
X210238188Y-95637049D02*
X210000093Y-95637049D01*
X210000093Y-95637049D02*
X209857236Y-95684668D01*
X209857236Y-95684668D02*
X209761998Y-95779906D01*
X209761998Y-95779906D02*
X209714379Y-95875144D01*
X209714379Y-95875144D02*
X209666760Y-96065620D01*
X209666760Y-96065620D02*
X209666760Y-96208477D01*
X209666760Y-96208477D02*
X209714379Y-96398953D01*
X209714379Y-96398953D02*
X209761998Y-96494191D01*
X209761998Y-96494191D02*
X209857236Y-96589430D01*
X209857236Y-96589430D02*
X210000093Y-96637049D01*
X210000093Y-96637049D02*
X210238188Y-96637049D01*
X208761998Y-95637049D02*
X209238188Y-95637049D01*
X209238188Y-95637049D02*
X209285807Y-96113239D01*
X209285807Y-96113239D02*
X209238188Y-96065620D01*
X209238188Y-96065620D02*
X209142950Y-96018001D01*
X209142950Y-96018001D02*
X208904855Y-96018001D01*
X208904855Y-96018001D02*
X208809617Y-96065620D01*
X208809617Y-96065620D02*
X208761998Y-96113239D01*
X208761998Y-96113239D02*
X208714379Y-96208477D01*
X208714379Y-96208477D02*
X208714379Y-96446572D01*
X208714379Y-96446572D02*
X208761998Y-96541810D01*
X208761998Y-96541810D02*
X208809617Y-96589430D01*
X208809617Y-96589430D02*
X208904855Y-96637049D01*
X208904855Y-96637049D02*
X209142950Y-96637049D01*
X209142950Y-96637049D02*
X209238188Y-96589430D01*
X209238188Y-96589430D02*
X209285807Y-96541810D01*
X208333426Y-95732287D02*
X208285807Y-95684668D01*
X208285807Y-95684668D02*
X208190569Y-95637049D01*
X208190569Y-95637049D02*
X207952474Y-95637049D01*
X207952474Y-95637049D02*
X207857236Y-95684668D01*
X207857236Y-95684668D02*
X207809617Y-95732287D01*
X207809617Y-95732287D02*
X207761998Y-95827525D01*
X207761998Y-95827525D02*
X207761998Y-95922763D01*
X207761998Y-95922763D02*
X207809617Y-96065620D01*
X207809617Y-96065620D02*
X208381045Y-96637049D01*
X208381045Y-96637049D02*
X207761998Y-96637049D01*
X192766097Y-98743943D02*
X193226062Y-98620696D01*
X193226062Y-98620696D02*
X192967243Y-97654770D01*
X192308550Y-98324255D02*
X191986575Y-98410528D01*
X191984157Y-98953463D02*
X192444122Y-98830216D01*
X192444122Y-98830216D02*
X192185303Y-97864290D01*
X192185303Y-97864290D02*
X191725338Y-97987537D01*
X191570189Y-99064386D02*
X191311370Y-98098460D01*
X191311370Y-98098460D02*
X191081387Y-98160083D01*
X191081387Y-98160083D02*
X190955723Y-98243054D01*
X190955723Y-98243054D02*
X190888379Y-98359696D01*
X190888379Y-98359696D02*
X190867032Y-98464014D01*
X190867032Y-98464014D02*
X190870335Y-98660325D01*
X190870335Y-98660325D02*
X190907309Y-98798314D01*
X190907309Y-98798314D02*
X191002604Y-98969975D01*
X191002604Y-98969975D02*
X191073250Y-99049643D01*
X191073250Y-99049643D02*
X191189892Y-99116987D01*
X191189892Y-99116987D02*
X191340206Y-99126009D01*
X191340206Y-99126009D02*
X191570189Y-99064386D01*
X189885479Y-98480526D02*
X190345444Y-98357279D01*
X190345444Y-98357279D02*
X190514688Y-98804919D01*
X190514688Y-98804919D02*
X190456366Y-98771247D01*
X190456366Y-98771247D02*
X190352049Y-98749900D01*
X190352049Y-98749900D02*
X190122066Y-98811524D01*
X190122066Y-98811524D02*
X190042398Y-98882169D01*
X190042398Y-98882169D02*
X190008726Y-98940491D01*
X190008726Y-98940491D02*
X189987379Y-99044808D01*
X189987379Y-99044808D02*
X190049003Y-99274791D01*
X190049003Y-99274791D02*
X190119649Y-99354459D01*
X190119649Y-99354459D02*
X190177970Y-99388131D01*
X190177970Y-99388131D02*
X190282288Y-99409478D01*
X190282288Y-99409478D02*
X190512270Y-99347854D01*
X190512270Y-99347854D02*
X190591938Y-99277208D01*
X190591938Y-99277208D02*
X190625610Y-99218887D01*
X189517507Y-98579124D02*
X188919553Y-98739345D01*
X188919553Y-98739345D02*
X189340126Y-99021044D01*
X189340126Y-99021044D02*
X189202137Y-99058018D01*
X189202137Y-99058018D02*
X189122469Y-99128664D01*
X189122469Y-99128664D02*
X189088797Y-99186985D01*
X189088797Y-99186985D02*
X189067450Y-99291303D01*
X189067450Y-99291303D02*
X189129074Y-99521285D01*
X189129074Y-99521285D02*
X189199719Y-99600953D01*
X189199719Y-99600953D02*
X189258041Y-99634625D01*
X189258041Y-99634625D02*
X189362358Y-99655972D01*
X189362358Y-99655972D02*
X189638337Y-99582024D01*
X189638337Y-99582024D02*
X189718005Y-99511378D01*
X189718005Y-99511378D02*
X189751677Y-99453057D01*
X88172738Y-96767319D02*
X88648928Y-96767319D01*
X88648928Y-96767319D02*
X88648928Y-95767319D01*
X87839404Y-96243509D02*
X87506071Y-96243509D01*
X87363214Y-96767319D02*
X87839404Y-96767319D01*
X87839404Y-96767319D02*
X87839404Y-95767319D01*
X87839404Y-95767319D02*
X87363214Y-95767319D01*
X86934642Y-96767319D02*
X86934642Y-95767319D01*
X86934642Y-95767319D02*
X86696547Y-95767319D01*
X86696547Y-95767319D02*
X86553690Y-95814938D01*
X86553690Y-95814938D02*
X86458452Y-95910176D01*
X86458452Y-95910176D02*
X86410833Y-96005414D01*
X86410833Y-96005414D02*
X86363214Y-96195890D01*
X86363214Y-96195890D02*
X86363214Y-96338747D01*
X86363214Y-96338747D02*
X86410833Y-96529223D01*
X86410833Y-96529223D02*
X86458452Y-96624461D01*
X86458452Y-96624461D02*
X86553690Y-96719700D01*
X86553690Y-96719700D02*
X86696547Y-96767319D01*
X86696547Y-96767319D02*
X86934642Y-96767319D01*
X85982261Y-95862557D02*
X85934642Y-95814938D01*
X85934642Y-95814938D02*
X85839404Y-95767319D01*
X85839404Y-95767319D02*
X85601309Y-95767319D01*
X85601309Y-95767319D02*
X85506071Y-95814938D01*
X85506071Y-95814938D02*
X85458452Y-95862557D01*
X85458452Y-95862557D02*
X85410833Y-95957795D01*
X85410833Y-95957795D02*
X85410833Y-96053033D01*
X85410833Y-96053033D02*
X85458452Y-96195890D01*
X85458452Y-96195890D02*
X86029880Y-96767319D01*
X86029880Y-96767319D02*
X85410833Y-96767319D01*
X84506071Y-95767319D02*
X84982261Y-95767319D01*
X84982261Y-95767319D02*
X85029880Y-96243509D01*
X85029880Y-96243509D02*
X84982261Y-96195890D01*
X84982261Y-96195890D02*
X84887023Y-96148271D01*
X84887023Y-96148271D02*
X84648928Y-96148271D01*
X84648928Y-96148271D02*
X84553690Y-96195890D01*
X84553690Y-96195890D02*
X84506071Y-96243509D01*
X84506071Y-96243509D02*
X84458452Y-96338747D01*
X84458452Y-96338747D02*
X84458452Y-96576842D01*
X84458452Y-96576842D02*
X84506071Y-96672080D01*
X84506071Y-96672080D02*
X84553690Y-96719700D01*
X84553690Y-96719700D02*
X84648928Y-96767319D01*
X84648928Y-96767319D02*
X84887023Y-96767319D01*
X84887023Y-96767319D02*
X84982261Y-96719700D01*
X84982261Y-96719700D02*
X85029880Y-96672080D01*
X107030666Y-99569699D02*
X107490630Y-99692946D01*
X107490630Y-99692946D02*
X107749449Y-98727020D01*
X106844262Y-98977465D02*
X106522287Y-98891192D01*
X106248725Y-99360179D02*
X106708690Y-99483426D01*
X106708690Y-99483426D02*
X106967509Y-98517500D01*
X106967509Y-98517500D02*
X106507544Y-98394253D01*
X105834757Y-99249256D02*
X106093576Y-98283330D01*
X106093576Y-98283330D02*
X105863594Y-98221707D01*
X105863594Y-98221707D02*
X105713280Y-98230729D01*
X105713280Y-98230729D02*
X105596637Y-98298073D01*
X105596637Y-98298073D02*
X105525991Y-98377741D01*
X105525991Y-98377741D02*
X105430696Y-98549402D01*
X105430696Y-98549402D02*
X105393722Y-98687392D01*
X105393722Y-98687392D02*
X105390420Y-98883702D01*
X105390420Y-98883702D02*
X105411767Y-98988020D01*
X105411767Y-98988020D02*
X105479110Y-99104662D01*
X105479110Y-99104662D02*
X105604775Y-99187633D01*
X105604775Y-99187633D02*
X105834757Y-99249256D01*
X105148997Y-98128829D02*
X105115326Y-98070508D01*
X105115326Y-98070508D02*
X105035657Y-97999862D01*
X105035657Y-97999862D02*
X104805675Y-97938238D01*
X104805675Y-97938238D02*
X104701357Y-97959585D01*
X104701357Y-97959585D02*
X104643036Y-97993257D01*
X104643036Y-97993257D02*
X104572390Y-98072925D01*
X104572390Y-98072925D02*
X104547741Y-98164918D01*
X104547741Y-98164918D02*
X104556763Y-98315232D01*
X104556763Y-98315232D02*
X104960824Y-99015087D01*
X104960824Y-99015087D02*
X104362870Y-98854865D01*
X103793753Y-97667095D02*
X103977739Y-97716394D01*
X103977739Y-97716394D02*
X104057407Y-97787039D01*
X104057407Y-97787039D02*
X104091079Y-97845361D01*
X104091079Y-97845361D02*
X104146097Y-98007999D01*
X104146097Y-98007999D02*
X104142795Y-98204310D01*
X104142795Y-98204310D02*
X104044197Y-98572282D01*
X104044197Y-98572282D02*
X103973551Y-98651950D01*
X103973551Y-98651950D02*
X103915230Y-98685622D01*
X103915230Y-98685622D02*
X103810912Y-98706969D01*
X103810912Y-98706969D02*
X103626927Y-98657670D01*
X103626927Y-98657670D02*
X103547258Y-98587024D01*
X103547258Y-98587024D02*
X103513587Y-98528703D01*
X103513587Y-98528703D02*
X103492240Y-98424385D01*
X103492240Y-98424385D02*
X103553863Y-98194403D01*
X103553863Y-98194403D02*
X103624509Y-98114735D01*
X103624509Y-98114735D02*
X103682830Y-98081063D01*
X103682830Y-98081063D02*
X103787148Y-98059716D01*
X103787148Y-98059716D02*
X103971134Y-98109015D01*
X103971134Y-98109015D02*
X104050802Y-98179661D01*
X104050802Y-98179661D02*
X104084474Y-98237982D01*
X104084474Y-98237982D02*
X104105821Y-98342299D01*
X97672738Y-77142319D02*
X98148928Y-77142319D01*
X98148928Y-77142319D02*
X98148928Y-76142319D01*
X97339404Y-76618509D02*
X97006071Y-76618509D01*
X96863214Y-77142319D02*
X97339404Y-77142319D01*
X97339404Y-77142319D02*
X97339404Y-76142319D01*
X97339404Y-76142319D02*
X96863214Y-76142319D01*
X96434642Y-77142319D02*
X96434642Y-76142319D01*
X96434642Y-76142319D02*
X96196547Y-76142319D01*
X96196547Y-76142319D02*
X96053690Y-76189938D01*
X96053690Y-76189938D02*
X95958452Y-76285176D01*
X95958452Y-76285176D02*
X95910833Y-76380414D01*
X95910833Y-76380414D02*
X95863214Y-76570890D01*
X95863214Y-76570890D02*
X95863214Y-76713747D01*
X95863214Y-76713747D02*
X95910833Y-76904223D01*
X95910833Y-76904223D02*
X95958452Y-76999461D01*
X95958452Y-76999461D02*
X96053690Y-77094700D01*
X96053690Y-77094700D02*
X96196547Y-77142319D01*
X96196547Y-77142319D02*
X96434642Y-77142319D01*
X95482261Y-76237557D02*
X95434642Y-76189938D01*
X95434642Y-76189938D02*
X95339404Y-76142319D01*
X95339404Y-76142319D02*
X95101309Y-76142319D01*
X95101309Y-76142319D02*
X95006071Y-76189938D01*
X95006071Y-76189938D02*
X94958452Y-76237557D01*
X94958452Y-76237557D02*
X94910833Y-76332795D01*
X94910833Y-76332795D02*
X94910833Y-76428033D01*
X94910833Y-76428033D02*
X94958452Y-76570890D01*
X94958452Y-76570890D02*
X95529880Y-77142319D01*
X95529880Y-77142319D02*
X94910833Y-77142319D01*
X94577499Y-76142319D02*
X93958452Y-76142319D01*
X93958452Y-76142319D02*
X94291785Y-76523271D01*
X94291785Y-76523271D02*
X94148928Y-76523271D01*
X94148928Y-76523271D02*
X94053690Y-76570890D01*
X94053690Y-76570890D02*
X94006071Y-76618509D01*
X94006071Y-76618509D02*
X93958452Y-76713747D01*
X93958452Y-76713747D02*
X93958452Y-76951842D01*
X93958452Y-76951842D02*
X94006071Y-77047080D01*
X94006071Y-77047080D02*
X94053690Y-77094700D01*
X94053690Y-77094700D02*
X94148928Y-77142319D01*
X94148928Y-77142319D02*
X94434642Y-77142319D01*
X94434642Y-77142319D02*
X94529880Y-77094700D01*
X94529880Y-77094700D02*
X94577499Y-77047080D01*
X278082738Y-43972319D02*
X278558928Y-43972319D01*
X278558928Y-43972319D02*
X278558928Y-42972319D01*
X277749404Y-43448509D02*
X277416071Y-43448509D01*
X277273214Y-43972319D02*
X277749404Y-43972319D01*
X277749404Y-43972319D02*
X277749404Y-42972319D01*
X277749404Y-42972319D02*
X277273214Y-42972319D01*
X276844642Y-43972319D02*
X276844642Y-42972319D01*
X276844642Y-42972319D02*
X276606547Y-42972319D01*
X276606547Y-42972319D02*
X276463690Y-43019938D01*
X276463690Y-43019938D02*
X276368452Y-43115176D01*
X276368452Y-43115176D02*
X276320833Y-43210414D01*
X276320833Y-43210414D02*
X276273214Y-43400890D01*
X276273214Y-43400890D02*
X276273214Y-43543747D01*
X276273214Y-43543747D02*
X276320833Y-43734223D01*
X276320833Y-43734223D02*
X276368452Y-43829461D01*
X276368452Y-43829461D02*
X276463690Y-43924700D01*
X276463690Y-43924700D02*
X276606547Y-43972319D01*
X276606547Y-43972319D02*
X276844642Y-43972319D01*
X275939880Y-42972319D02*
X275320833Y-42972319D01*
X275320833Y-42972319D02*
X275654166Y-43353271D01*
X275654166Y-43353271D02*
X275511309Y-43353271D01*
X275511309Y-43353271D02*
X275416071Y-43400890D01*
X275416071Y-43400890D02*
X275368452Y-43448509D01*
X275368452Y-43448509D02*
X275320833Y-43543747D01*
X275320833Y-43543747D02*
X275320833Y-43781842D01*
X275320833Y-43781842D02*
X275368452Y-43877080D01*
X275368452Y-43877080D02*
X275416071Y-43924700D01*
X275416071Y-43924700D02*
X275511309Y-43972319D01*
X275511309Y-43972319D02*
X275797023Y-43972319D01*
X275797023Y-43972319D02*
X275892261Y-43924700D01*
X275892261Y-43924700D02*
X275939880Y-43877080D01*
X274463690Y-43305652D02*
X274463690Y-43972319D01*
X274701785Y-42924700D02*
X274939880Y-43638985D01*
X274939880Y-43638985D02*
X274320833Y-43638985D01*
X252652738Y-41902319D02*
X253128928Y-41902319D01*
X253128928Y-41902319D02*
X253128928Y-40902319D01*
X252319404Y-41378509D02*
X251986071Y-41378509D01*
X251843214Y-41902319D02*
X252319404Y-41902319D01*
X252319404Y-41902319D02*
X252319404Y-40902319D01*
X252319404Y-40902319D02*
X251843214Y-40902319D01*
X251414642Y-41902319D02*
X251414642Y-40902319D01*
X251414642Y-40902319D02*
X251176547Y-40902319D01*
X251176547Y-40902319D02*
X251033690Y-40949938D01*
X251033690Y-40949938D02*
X250938452Y-41045176D01*
X250938452Y-41045176D02*
X250890833Y-41140414D01*
X250890833Y-41140414D02*
X250843214Y-41330890D01*
X250843214Y-41330890D02*
X250843214Y-41473747D01*
X250843214Y-41473747D02*
X250890833Y-41664223D01*
X250890833Y-41664223D02*
X250938452Y-41759461D01*
X250938452Y-41759461D02*
X251033690Y-41854700D01*
X251033690Y-41854700D02*
X251176547Y-41902319D01*
X251176547Y-41902319D02*
X251414642Y-41902319D01*
X250509880Y-40902319D02*
X249890833Y-40902319D01*
X249890833Y-40902319D02*
X250224166Y-41283271D01*
X250224166Y-41283271D02*
X250081309Y-41283271D01*
X250081309Y-41283271D02*
X249986071Y-41330890D01*
X249986071Y-41330890D02*
X249938452Y-41378509D01*
X249938452Y-41378509D02*
X249890833Y-41473747D01*
X249890833Y-41473747D02*
X249890833Y-41711842D01*
X249890833Y-41711842D02*
X249938452Y-41807080D01*
X249938452Y-41807080D02*
X249986071Y-41854700D01*
X249986071Y-41854700D02*
X250081309Y-41902319D01*
X250081309Y-41902319D02*
X250367023Y-41902319D01*
X250367023Y-41902319D02*
X250462261Y-41854700D01*
X250462261Y-41854700D02*
X250509880Y-41807080D01*
X248986071Y-40902319D02*
X249462261Y-40902319D01*
X249462261Y-40902319D02*
X249509880Y-41378509D01*
X249509880Y-41378509D02*
X249462261Y-41330890D01*
X249462261Y-41330890D02*
X249367023Y-41283271D01*
X249367023Y-41283271D02*
X249128928Y-41283271D01*
X249128928Y-41283271D02*
X249033690Y-41330890D01*
X249033690Y-41330890D02*
X248986071Y-41378509D01*
X248986071Y-41378509D02*
X248938452Y-41473747D01*
X248938452Y-41473747D02*
X248938452Y-41711842D01*
X248938452Y-41711842D02*
X248986071Y-41807080D01*
X248986071Y-41807080D02*
X249033690Y-41854700D01*
X249033690Y-41854700D02*
X249128928Y-41902319D01*
X249128928Y-41902319D02*
X249367023Y-41902319D01*
X249367023Y-41902319D02*
X249462261Y-41854700D01*
X249462261Y-41854700D02*
X249509880Y-41807080D01*
X240082738Y-39222319D02*
X240558928Y-39222319D01*
X240558928Y-39222319D02*
X240558928Y-38222319D01*
X239749404Y-38698509D02*
X239416071Y-38698509D01*
X239273214Y-39222319D02*
X239749404Y-39222319D01*
X239749404Y-39222319D02*
X239749404Y-38222319D01*
X239749404Y-38222319D02*
X239273214Y-38222319D01*
X238844642Y-39222319D02*
X238844642Y-38222319D01*
X238844642Y-38222319D02*
X238606547Y-38222319D01*
X238606547Y-38222319D02*
X238463690Y-38269938D01*
X238463690Y-38269938D02*
X238368452Y-38365176D01*
X238368452Y-38365176D02*
X238320833Y-38460414D01*
X238320833Y-38460414D02*
X238273214Y-38650890D01*
X238273214Y-38650890D02*
X238273214Y-38793747D01*
X238273214Y-38793747D02*
X238320833Y-38984223D01*
X238320833Y-38984223D02*
X238368452Y-39079461D01*
X238368452Y-39079461D02*
X238463690Y-39174700D01*
X238463690Y-39174700D02*
X238606547Y-39222319D01*
X238606547Y-39222319D02*
X238844642Y-39222319D01*
X237939880Y-38222319D02*
X237320833Y-38222319D01*
X237320833Y-38222319D02*
X237654166Y-38603271D01*
X237654166Y-38603271D02*
X237511309Y-38603271D01*
X237511309Y-38603271D02*
X237416071Y-38650890D01*
X237416071Y-38650890D02*
X237368452Y-38698509D01*
X237368452Y-38698509D02*
X237320833Y-38793747D01*
X237320833Y-38793747D02*
X237320833Y-39031842D01*
X237320833Y-39031842D02*
X237368452Y-39127080D01*
X237368452Y-39127080D02*
X237416071Y-39174700D01*
X237416071Y-39174700D02*
X237511309Y-39222319D01*
X237511309Y-39222319D02*
X237797023Y-39222319D01*
X237797023Y-39222319D02*
X237892261Y-39174700D01*
X237892261Y-39174700D02*
X237939880Y-39127080D01*
X236463690Y-38222319D02*
X236654166Y-38222319D01*
X236654166Y-38222319D02*
X236749404Y-38269938D01*
X236749404Y-38269938D02*
X236797023Y-38317557D01*
X236797023Y-38317557D02*
X236892261Y-38460414D01*
X236892261Y-38460414D02*
X236939880Y-38650890D01*
X236939880Y-38650890D02*
X236939880Y-39031842D01*
X236939880Y-39031842D02*
X236892261Y-39127080D01*
X236892261Y-39127080D02*
X236844642Y-39174700D01*
X236844642Y-39174700D02*
X236749404Y-39222319D01*
X236749404Y-39222319D02*
X236558928Y-39222319D01*
X236558928Y-39222319D02*
X236463690Y-39174700D01*
X236463690Y-39174700D02*
X236416071Y-39127080D01*
X236416071Y-39127080D02*
X236368452Y-39031842D01*
X236368452Y-39031842D02*
X236368452Y-38793747D01*
X236368452Y-38793747D02*
X236416071Y-38698509D01*
X236416071Y-38698509D02*
X236463690Y-38650890D01*
X236463690Y-38650890D02*
X236558928Y-38603271D01*
X236558928Y-38603271D02*
X236749404Y-38603271D01*
X236749404Y-38603271D02*
X236844642Y-38650890D01*
X236844642Y-38650890D02*
X236892261Y-38698509D01*
X236892261Y-38698509D02*
X236939880Y-38793747D01*
X214652738Y-34777319D02*
X215128928Y-34777319D01*
X215128928Y-34777319D02*
X215128928Y-33777319D01*
X214319404Y-34253509D02*
X213986071Y-34253509D01*
X213843214Y-34777319D02*
X214319404Y-34777319D01*
X214319404Y-34777319D02*
X214319404Y-33777319D01*
X214319404Y-33777319D02*
X213843214Y-33777319D01*
X213414642Y-34777319D02*
X213414642Y-33777319D01*
X213414642Y-33777319D02*
X213176547Y-33777319D01*
X213176547Y-33777319D02*
X213033690Y-33824938D01*
X213033690Y-33824938D02*
X212938452Y-33920176D01*
X212938452Y-33920176D02*
X212890833Y-34015414D01*
X212890833Y-34015414D02*
X212843214Y-34205890D01*
X212843214Y-34205890D02*
X212843214Y-34348747D01*
X212843214Y-34348747D02*
X212890833Y-34539223D01*
X212890833Y-34539223D02*
X212938452Y-34634461D01*
X212938452Y-34634461D02*
X213033690Y-34729700D01*
X213033690Y-34729700D02*
X213176547Y-34777319D01*
X213176547Y-34777319D02*
X213414642Y-34777319D01*
X212509880Y-33777319D02*
X211890833Y-33777319D01*
X211890833Y-33777319D02*
X212224166Y-34158271D01*
X212224166Y-34158271D02*
X212081309Y-34158271D01*
X212081309Y-34158271D02*
X211986071Y-34205890D01*
X211986071Y-34205890D02*
X211938452Y-34253509D01*
X211938452Y-34253509D02*
X211890833Y-34348747D01*
X211890833Y-34348747D02*
X211890833Y-34586842D01*
X211890833Y-34586842D02*
X211938452Y-34682080D01*
X211938452Y-34682080D02*
X211986071Y-34729700D01*
X211986071Y-34729700D02*
X212081309Y-34777319D01*
X212081309Y-34777319D02*
X212367023Y-34777319D01*
X212367023Y-34777319D02*
X212462261Y-34729700D01*
X212462261Y-34729700D02*
X212509880Y-34682080D01*
X211557499Y-33777319D02*
X210890833Y-33777319D01*
X210890833Y-33777319D02*
X211319404Y-34777319D01*
X202082738Y-39222319D02*
X202558928Y-39222319D01*
X202558928Y-39222319D02*
X202558928Y-38222319D01*
X201749404Y-38698509D02*
X201416071Y-38698509D01*
X201273214Y-39222319D02*
X201749404Y-39222319D01*
X201749404Y-39222319D02*
X201749404Y-38222319D01*
X201749404Y-38222319D02*
X201273214Y-38222319D01*
X200844642Y-39222319D02*
X200844642Y-38222319D01*
X200844642Y-38222319D02*
X200606547Y-38222319D01*
X200606547Y-38222319D02*
X200463690Y-38269938D01*
X200463690Y-38269938D02*
X200368452Y-38365176D01*
X200368452Y-38365176D02*
X200320833Y-38460414D01*
X200320833Y-38460414D02*
X200273214Y-38650890D01*
X200273214Y-38650890D02*
X200273214Y-38793747D01*
X200273214Y-38793747D02*
X200320833Y-38984223D01*
X200320833Y-38984223D02*
X200368452Y-39079461D01*
X200368452Y-39079461D02*
X200463690Y-39174700D01*
X200463690Y-39174700D02*
X200606547Y-39222319D01*
X200606547Y-39222319D02*
X200844642Y-39222319D01*
X199939880Y-38222319D02*
X199320833Y-38222319D01*
X199320833Y-38222319D02*
X199654166Y-38603271D01*
X199654166Y-38603271D02*
X199511309Y-38603271D01*
X199511309Y-38603271D02*
X199416071Y-38650890D01*
X199416071Y-38650890D02*
X199368452Y-38698509D01*
X199368452Y-38698509D02*
X199320833Y-38793747D01*
X199320833Y-38793747D02*
X199320833Y-39031842D01*
X199320833Y-39031842D02*
X199368452Y-39127080D01*
X199368452Y-39127080D02*
X199416071Y-39174700D01*
X199416071Y-39174700D02*
X199511309Y-39222319D01*
X199511309Y-39222319D02*
X199797023Y-39222319D01*
X199797023Y-39222319D02*
X199892261Y-39174700D01*
X199892261Y-39174700D02*
X199939880Y-39127080D01*
X198749404Y-38650890D02*
X198844642Y-38603271D01*
X198844642Y-38603271D02*
X198892261Y-38555652D01*
X198892261Y-38555652D02*
X198939880Y-38460414D01*
X198939880Y-38460414D02*
X198939880Y-38412795D01*
X198939880Y-38412795D02*
X198892261Y-38317557D01*
X198892261Y-38317557D02*
X198844642Y-38269938D01*
X198844642Y-38269938D02*
X198749404Y-38222319D01*
X198749404Y-38222319D02*
X198558928Y-38222319D01*
X198558928Y-38222319D02*
X198463690Y-38269938D01*
X198463690Y-38269938D02*
X198416071Y-38317557D01*
X198416071Y-38317557D02*
X198368452Y-38412795D01*
X198368452Y-38412795D02*
X198368452Y-38460414D01*
X198368452Y-38460414D02*
X198416071Y-38555652D01*
X198416071Y-38555652D02*
X198463690Y-38603271D01*
X198463690Y-38603271D02*
X198558928Y-38650890D01*
X198558928Y-38650890D02*
X198749404Y-38650890D01*
X198749404Y-38650890D02*
X198844642Y-38698509D01*
X198844642Y-38698509D02*
X198892261Y-38746128D01*
X198892261Y-38746128D02*
X198939880Y-38841366D01*
X198939880Y-38841366D02*
X198939880Y-39031842D01*
X198939880Y-39031842D02*
X198892261Y-39127080D01*
X198892261Y-39127080D02*
X198844642Y-39174700D01*
X198844642Y-39174700D02*
X198749404Y-39222319D01*
X198749404Y-39222319D02*
X198558928Y-39222319D01*
X198558928Y-39222319D02*
X198463690Y-39174700D01*
X198463690Y-39174700D02*
X198416071Y-39127080D01*
X198416071Y-39127080D02*
X198368452Y-39031842D01*
X198368452Y-39031842D02*
X198368452Y-38841366D01*
X198368452Y-38841366D02*
X198416071Y-38746128D01*
X198416071Y-38746128D02*
X198463690Y-38698509D01*
X198463690Y-38698509D02*
X198558928Y-38650890D01*
X176652738Y-39527319D02*
X177128928Y-39527319D01*
X177128928Y-39527319D02*
X177128928Y-38527319D01*
X176319404Y-39003509D02*
X175986071Y-39003509D01*
X175843214Y-39527319D02*
X176319404Y-39527319D01*
X176319404Y-39527319D02*
X176319404Y-38527319D01*
X176319404Y-38527319D02*
X175843214Y-38527319D01*
X175414642Y-39527319D02*
X175414642Y-38527319D01*
X175414642Y-38527319D02*
X175176547Y-38527319D01*
X175176547Y-38527319D02*
X175033690Y-38574938D01*
X175033690Y-38574938D02*
X174938452Y-38670176D01*
X174938452Y-38670176D02*
X174890833Y-38765414D01*
X174890833Y-38765414D02*
X174843214Y-38955890D01*
X174843214Y-38955890D02*
X174843214Y-39098747D01*
X174843214Y-39098747D02*
X174890833Y-39289223D01*
X174890833Y-39289223D02*
X174938452Y-39384461D01*
X174938452Y-39384461D02*
X175033690Y-39479700D01*
X175033690Y-39479700D02*
X175176547Y-39527319D01*
X175176547Y-39527319D02*
X175414642Y-39527319D01*
X174509880Y-38527319D02*
X173890833Y-38527319D01*
X173890833Y-38527319D02*
X174224166Y-38908271D01*
X174224166Y-38908271D02*
X174081309Y-38908271D01*
X174081309Y-38908271D02*
X173986071Y-38955890D01*
X173986071Y-38955890D02*
X173938452Y-39003509D01*
X173938452Y-39003509D02*
X173890833Y-39098747D01*
X173890833Y-39098747D02*
X173890833Y-39336842D01*
X173890833Y-39336842D02*
X173938452Y-39432080D01*
X173938452Y-39432080D02*
X173986071Y-39479700D01*
X173986071Y-39479700D02*
X174081309Y-39527319D01*
X174081309Y-39527319D02*
X174367023Y-39527319D01*
X174367023Y-39527319D02*
X174462261Y-39479700D01*
X174462261Y-39479700D02*
X174509880Y-39432080D01*
X173414642Y-39527319D02*
X173224166Y-39527319D01*
X173224166Y-39527319D02*
X173128928Y-39479700D01*
X173128928Y-39479700D02*
X173081309Y-39432080D01*
X173081309Y-39432080D02*
X172986071Y-39289223D01*
X172986071Y-39289223D02*
X172938452Y-39098747D01*
X172938452Y-39098747D02*
X172938452Y-38717795D01*
X172938452Y-38717795D02*
X172986071Y-38622557D01*
X172986071Y-38622557D02*
X173033690Y-38574938D01*
X173033690Y-38574938D02*
X173128928Y-38527319D01*
X173128928Y-38527319D02*
X173319404Y-38527319D01*
X173319404Y-38527319D02*
X173414642Y-38574938D01*
X173414642Y-38574938D02*
X173462261Y-38622557D01*
X173462261Y-38622557D02*
X173509880Y-38717795D01*
X173509880Y-38717795D02*
X173509880Y-38955890D01*
X173509880Y-38955890D02*
X173462261Y-39051128D01*
X173462261Y-39051128D02*
X173414642Y-39098747D01*
X173414642Y-39098747D02*
X173319404Y-39146366D01*
X173319404Y-39146366D02*
X173128928Y-39146366D01*
X173128928Y-39146366D02*
X173033690Y-39098747D01*
X173033690Y-39098747D02*
X172986071Y-39051128D01*
X172986071Y-39051128D02*
X172938452Y-38955890D01*
X278082738Y-62972319D02*
X278558928Y-62972319D01*
X278558928Y-62972319D02*
X278558928Y-61972319D01*
X277749404Y-62448509D02*
X277416071Y-62448509D01*
X277273214Y-62972319D02*
X277749404Y-62972319D01*
X277749404Y-62972319D02*
X277749404Y-61972319D01*
X277749404Y-61972319D02*
X277273214Y-61972319D01*
X276844642Y-62972319D02*
X276844642Y-61972319D01*
X276844642Y-61972319D02*
X276606547Y-61972319D01*
X276606547Y-61972319D02*
X276463690Y-62019938D01*
X276463690Y-62019938D02*
X276368452Y-62115176D01*
X276368452Y-62115176D02*
X276320833Y-62210414D01*
X276320833Y-62210414D02*
X276273214Y-62400890D01*
X276273214Y-62400890D02*
X276273214Y-62543747D01*
X276273214Y-62543747D02*
X276320833Y-62734223D01*
X276320833Y-62734223D02*
X276368452Y-62829461D01*
X276368452Y-62829461D02*
X276463690Y-62924700D01*
X276463690Y-62924700D02*
X276606547Y-62972319D01*
X276606547Y-62972319D02*
X276844642Y-62972319D01*
X275416071Y-62305652D02*
X275416071Y-62972319D01*
X275654166Y-61924700D02*
X275892261Y-62638985D01*
X275892261Y-62638985D02*
X275273214Y-62638985D01*
X274701785Y-61972319D02*
X274606547Y-61972319D01*
X274606547Y-61972319D02*
X274511309Y-62019938D01*
X274511309Y-62019938D02*
X274463690Y-62067557D01*
X274463690Y-62067557D02*
X274416071Y-62162795D01*
X274416071Y-62162795D02*
X274368452Y-62353271D01*
X274368452Y-62353271D02*
X274368452Y-62591366D01*
X274368452Y-62591366D02*
X274416071Y-62781842D01*
X274416071Y-62781842D02*
X274463690Y-62877080D01*
X274463690Y-62877080D02*
X274511309Y-62924700D01*
X274511309Y-62924700D02*
X274606547Y-62972319D01*
X274606547Y-62972319D02*
X274701785Y-62972319D01*
X274701785Y-62972319D02*
X274797023Y-62924700D01*
X274797023Y-62924700D02*
X274844642Y-62877080D01*
X274844642Y-62877080D02*
X274892261Y-62781842D01*
X274892261Y-62781842D02*
X274939880Y-62591366D01*
X274939880Y-62591366D02*
X274939880Y-62353271D01*
X274939880Y-62353271D02*
X274892261Y-62162795D01*
X274892261Y-62162795D02*
X274844642Y-62067557D01*
X274844642Y-62067557D02*
X274797023Y-62019938D01*
X274797023Y-62019938D02*
X274701785Y-61972319D01*
X252652738Y-60902319D02*
X253128928Y-60902319D01*
X253128928Y-60902319D02*
X253128928Y-59902319D01*
X252319404Y-60378509D02*
X251986071Y-60378509D01*
X251843214Y-60902319D02*
X252319404Y-60902319D01*
X252319404Y-60902319D02*
X252319404Y-59902319D01*
X252319404Y-59902319D02*
X251843214Y-59902319D01*
X251414642Y-60902319D02*
X251414642Y-59902319D01*
X251414642Y-59902319D02*
X251176547Y-59902319D01*
X251176547Y-59902319D02*
X251033690Y-59949938D01*
X251033690Y-59949938D02*
X250938452Y-60045176D01*
X250938452Y-60045176D02*
X250890833Y-60140414D01*
X250890833Y-60140414D02*
X250843214Y-60330890D01*
X250843214Y-60330890D02*
X250843214Y-60473747D01*
X250843214Y-60473747D02*
X250890833Y-60664223D01*
X250890833Y-60664223D02*
X250938452Y-60759461D01*
X250938452Y-60759461D02*
X251033690Y-60854700D01*
X251033690Y-60854700D02*
X251176547Y-60902319D01*
X251176547Y-60902319D02*
X251414642Y-60902319D01*
X249986071Y-60235652D02*
X249986071Y-60902319D01*
X250224166Y-59854700D02*
X250462261Y-60568985D01*
X250462261Y-60568985D02*
X249843214Y-60568985D01*
X248938452Y-60902319D02*
X249509880Y-60902319D01*
X249224166Y-60902319D02*
X249224166Y-59902319D01*
X249224166Y-59902319D02*
X249319404Y-60045176D01*
X249319404Y-60045176D02*
X249414642Y-60140414D01*
X249414642Y-60140414D02*
X249509880Y-60188033D01*
X240082738Y-58222319D02*
X240558928Y-58222319D01*
X240558928Y-58222319D02*
X240558928Y-57222319D01*
X239749404Y-57698509D02*
X239416071Y-57698509D01*
X239273214Y-58222319D02*
X239749404Y-58222319D01*
X239749404Y-58222319D02*
X239749404Y-57222319D01*
X239749404Y-57222319D02*
X239273214Y-57222319D01*
X238844642Y-58222319D02*
X238844642Y-57222319D01*
X238844642Y-57222319D02*
X238606547Y-57222319D01*
X238606547Y-57222319D02*
X238463690Y-57269938D01*
X238463690Y-57269938D02*
X238368452Y-57365176D01*
X238368452Y-57365176D02*
X238320833Y-57460414D01*
X238320833Y-57460414D02*
X238273214Y-57650890D01*
X238273214Y-57650890D02*
X238273214Y-57793747D01*
X238273214Y-57793747D02*
X238320833Y-57984223D01*
X238320833Y-57984223D02*
X238368452Y-58079461D01*
X238368452Y-58079461D02*
X238463690Y-58174700D01*
X238463690Y-58174700D02*
X238606547Y-58222319D01*
X238606547Y-58222319D02*
X238844642Y-58222319D01*
X237416071Y-57555652D02*
X237416071Y-58222319D01*
X237654166Y-57174700D02*
X237892261Y-57888985D01*
X237892261Y-57888985D02*
X237273214Y-57888985D01*
X236939880Y-57317557D02*
X236892261Y-57269938D01*
X236892261Y-57269938D02*
X236797023Y-57222319D01*
X236797023Y-57222319D02*
X236558928Y-57222319D01*
X236558928Y-57222319D02*
X236463690Y-57269938D01*
X236463690Y-57269938D02*
X236416071Y-57317557D01*
X236416071Y-57317557D02*
X236368452Y-57412795D01*
X236368452Y-57412795D02*
X236368452Y-57508033D01*
X236368452Y-57508033D02*
X236416071Y-57650890D01*
X236416071Y-57650890D02*
X236987499Y-58222319D01*
X236987499Y-58222319D02*
X236368452Y-58222319D01*
X160507362Y-100523753D02*
X160745457Y-100936146D01*
X160745457Y-100936146D02*
X161611482Y-100436146D01*
X160794327Y-99973173D02*
X160627661Y-99684498D01*
X160102600Y-99822685D02*
X160340695Y-100235078D01*
X160340695Y-100235078D02*
X161206720Y-99735078D01*
X161206720Y-99735078D02*
X160968625Y-99322685D01*
X159888314Y-99451531D02*
X160754339Y-98951531D01*
X160754339Y-98951531D02*
X160635292Y-98745334D01*
X160635292Y-98745334D02*
X160522624Y-98645426D01*
X160522624Y-98645426D02*
X160392526Y-98610566D01*
X160392526Y-98610566D02*
X160286238Y-98616946D01*
X160286238Y-98616946D02*
X160097471Y-98670945D01*
X160097471Y-98670945D02*
X159973753Y-98742373D01*
X159973753Y-98742373D02*
X159832606Y-98878851D01*
X159832606Y-98878851D02*
X159773937Y-98967709D01*
X159773937Y-98967709D02*
X159739077Y-99097807D01*
X159739077Y-99097807D02*
X159769266Y-99245334D01*
X159769266Y-99245334D02*
X159888314Y-99451531D01*
X160016244Y-97673112D02*
X160254339Y-98085505D01*
X160254339Y-98085505D02*
X159865756Y-98364840D01*
X159865756Y-98364840D02*
X159883186Y-98299791D01*
X159883186Y-98299791D02*
X159876806Y-98193503D01*
X159876806Y-98193503D02*
X159757758Y-97987306D01*
X159757758Y-97987306D02*
X159668900Y-97928637D01*
X159668900Y-97928637D02*
X159603851Y-97911208D01*
X159603851Y-97911208D02*
X159497563Y-97917587D01*
X159497563Y-97917587D02*
X159291366Y-98036635D01*
X159291366Y-98036635D02*
X159232697Y-98125493D01*
X159232697Y-98125493D02*
X159215268Y-98190542D01*
X159215268Y-98190542D02*
X159221647Y-98296830D01*
X159221647Y-98296830D02*
X159340695Y-98503027D01*
X159340695Y-98503027D02*
X159429553Y-98561696D01*
X159429553Y-98561696D02*
X159494602Y-98579126D01*
X159275188Y-97056232D02*
X158697838Y-97389565D01*
X159724150Y-97071952D02*
X159224608Y-97635292D01*
X159224608Y-97635292D02*
X158915084Y-97099181D01*
X165568319Y-37099666D02*
X166282604Y-37099666D01*
X166282604Y-37099666D02*
X166425461Y-37052047D01*
X166425461Y-37052047D02*
X166520700Y-36956809D01*
X166520700Y-36956809D02*
X166568319Y-36813952D01*
X166568319Y-36813952D02*
X166568319Y-36718714D01*
X165568319Y-38004428D02*
X165568319Y-37813952D01*
X165568319Y-37813952D02*
X165615938Y-37718714D01*
X165615938Y-37718714D02*
X165663557Y-37671095D01*
X165663557Y-37671095D02*
X165806414Y-37575857D01*
X165806414Y-37575857D02*
X165996890Y-37528238D01*
X165996890Y-37528238D02*
X166377842Y-37528238D01*
X166377842Y-37528238D02*
X166473080Y-37575857D01*
X166473080Y-37575857D02*
X166520700Y-37623476D01*
X166520700Y-37623476D02*
X166568319Y-37718714D01*
X166568319Y-37718714D02*
X166568319Y-37909190D01*
X166568319Y-37909190D02*
X166520700Y-38004428D01*
X166520700Y-38004428D02*
X166473080Y-38052047D01*
X166473080Y-38052047D02*
X166377842Y-38099666D01*
X166377842Y-38099666D02*
X166139747Y-38099666D01*
X166139747Y-38099666D02*
X166044509Y-38052047D01*
X166044509Y-38052047D02*
X165996890Y-38004428D01*
X165996890Y-38004428D02*
X165949271Y-37909190D01*
X165949271Y-37909190D02*
X165949271Y-37718714D01*
X165949271Y-37718714D02*
X165996890Y-37623476D01*
X165996890Y-37623476D02*
X166044509Y-37575857D01*
X166044509Y-37575857D02*
X166139747Y-37528238D01*
D11*
X142626357Y-31010441D02*
X141918786Y-31010441D01*
X142626357Y-31718012D02*
X141918786Y-31718012D01*
X142626357Y-32099012D02*
X141918786Y-32099012D01*
X142626357Y-31010441D02*
X142626357Y-32207869D01*
X142245357Y-31010441D02*
X142245357Y-31337012D01*
X142245357Y-31718012D02*
X142245357Y-32099012D01*
X142626357Y-31337012D02*
X141918786Y-31337012D01*
X141918786Y-31337012D02*
X141918786Y-31718012D01*
X141701072Y-30956012D02*
X141701072Y-32207869D01*
X141701072Y-31391441D02*
X141265643Y-31609155D01*
X140939071Y-31228155D02*
X139523929Y-31228155D01*
X140884643Y-31554726D02*
X140177071Y-31554726D01*
X140558071Y-31554726D02*
X140558071Y-32099012D01*
X139850500Y-30956012D02*
X139687214Y-31119298D01*
X140177071Y-31990155D02*
X140939071Y-32153441D01*
X140013786Y-30956012D02*
X140013786Y-31337012D01*
X140013786Y-31337012D02*
X139904929Y-32099012D01*
X139904929Y-32099012D02*
X139578357Y-32207869D01*
X139578357Y-32207869D02*
X139523929Y-31990155D01*
X139197357Y-31010441D02*
X137891071Y-31010441D01*
X139251785Y-31554726D02*
X137836643Y-31554726D01*
X138217643Y-31010441D02*
X138217643Y-32207869D01*
X138925214Y-31935726D02*
X139197357Y-32207869D01*
X138816357Y-31010441D02*
X138816357Y-31609155D01*
X138816357Y-31609155D02*
X138925214Y-31990155D01*
X137455642Y-31282583D02*
X136258214Y-31282583D01*
X137510071Y-31609155D02*
X136149357Y-31609155D01*
X137292357Y-30956012D02*
X137129071Y-31119298D01*
X136367071Y-30956012D02*
X136584785Y-31173726D01*
X136856928Y-31500298D02*
X136748071Y-31881298D01*
X136748071Y-31881298D02*
X136530357Y-32044583D01*
X136530357Y-32044583D02*
X136149357Y-32207869D01*
X136856928Y-31282583D02*
X136856928Y-31772441D01*
X136856928Y-31772441D02*
X137074642Y-32044583D01*
X137074642Y-32044583D02*
X137564499Y-32207869D01*
X135115213Y-32207869D02*
X135768356Y-32207869D01*
X135441785Y-32207869D02*
X135441785Y-31064869D01*
X135441785Y-31064869D02*
X135550642Y-31228155D01*
X135550642Y-31228155D02*
X135659499Y-31337012D01*
X135659499Y-31337012D02*
X135768356Y-31391441D01*
X170974928Y-31150441D02*
X170267357Y-31150441D01*
X170974928Y-31858012D02*
X170267357Y-31858012D01*
X170974928Y-32239012D02*
X170267357Y-32239012D01*
X170974928Y-31150441D02*
X170974928Y-32347869D01*
X170593928Y-31150441D02*
X170593928Y-31477012D01*
X170593928Y-31858012D02*
X170593928Y-32239012D01*
X170974928Y-31477012D02*
X170267357Y-31477012D01*
X170267357Y-31477012D02*
X170267357Y-31858012D01*
X170049643Y-31096012D02*
X170049643Y-32347869D01*
X170049643Y-31531441D02*
X169614214Y-31749155D01*
X169287642Y-31368155D02*
X167872500Y-31368155D01*
X169233214Y-31694726D02*
X168525642Y-31694726D01*
X168906642Y-31694726D02*
X168906642Y-32239012D01*
X168199071Y-31096012D02*
X168035785Y-31259298D01*
X168525642Y-32130155D02*
X169287642Y-32293441D01*
X168362357Y-31096012D02*
X168362357Y-31477012D01*
X168362357Y-31477012D02*
X168253500Y-32239012D01*
X168253500Y-32239012D02*
X167926928Y-32347869D01*
X167926928Y-32347869D02*
X167872500Y-32130155D01*
X167545928Y-31150441D02*
X166239642Y-31150441D01*
X167600356Y-31694726D02*
X166185214Y-31694726D01*
X166566214Y-31150441D02*
X166566214Y-32347869D01*
X167273785Y-32075726D02*
X167545928Y-32347869D01*
X167164928Y-31150441D02*
X167164928Y-31749155D01*
X167164928Y-31749155D02*
X167273785Y-32130155D01*
X165804213Y-31422583D02*
X164606785Y-31422583D01*
X165858642Y-31749155D02*
X164497928Y-31749155D01*
X165640928Y-31096012D02*
X165477642Y-31259298D01*
X164715642Y-31096012D02*
X164933356Y-31313726D01*
X165205499Y-31640298D02*
X165096642Y-32021298D01*
X165096642Y-32021298D02*
X164878928Y-32184583D01*
X164878928Y-32184583D02*
X164497928Y-32347869D01*
X165205499Y-31422583D02*
X165205499Y-31912441D01*
X165205499Y-31912441D02*
X165423213Y-32184583D01*
X165423213Y-32184583D02*
X165913070Y-32347869D01*
X163463784Y-32347869D02*
X164116927Y-32347869D01*
X163790356Y-32347869D02*
X163790356Y-31204869D01*
X163790356Y-31204869D02*
X163899213Y-31368155D01*
X163899213Y-31368155D02*
X164008070Y-31477012D01*
X164008070Y-31477012D02*
X164116927Y-31531441D01*
X162375213Y-32347869D02*
X163028356Y-32347869D01*
X162701785Y-32347869D02*
X162701785Y-31204869D01*
X162701785Y-31204869D02*
X162810642Y-31368155D01*
X162810642Y-31368155D02*
X162919499Y-31477012D01*
X162919499Y-31477012D02*
X163028356Y-31531441D01*
D10*
X138410319Y-37124666D02*
X139124604Y-37124666D01*
X139124604Y-37124666D02*
X139267461Y-37077047D01*
X139267461Y-37077047D02*
X139362700Y-36981809D01*
X139362700Y-36981809D02*
X139410319Y-36838952D01*
X139410319Y-36838952D02*
X139410319Y-36743714D01*
X138410319Y-38077047D02*
X138410319Y-37600857D01*
X138410319Y-37600857D02*
X138886509Y-37553238D01*
X138886509Y-37553238D02*
X138838890Y-37600857D01*
X138838890Y-37600857D02*
X138791271Y-37696095D01*
X138791271Y-37696095D02*
X138791271Y-37934190D01*
X138791271Y-37934190D02*
X138838890Y-38029428D01*
X138838890Y-38029428D02*
X138886509Y-38077047D01*
X138886509Y-38077047D02*
X138981747Y-38124666D01*
X138981747Y-38124666D02*
X139219842Y-38124666D01*
X139219842Y-38124666D02*
X139315080Y-38077047D01*
X139315080Y-38077047D02*
X139362700Y-38029428D01*
X139362700Y-38029428D02*
X139410319Y-37934190D01*
X139410319Y-37934190D02*
X139410319Y-37696095D01*
X139410319Y-37696095D02*
X139362700Y-37600857D01*
X139362700Y-37600857D02*
X139315080Y-37553238D01*
X33207500Y-31080000D02*
X33207500Y-31830000D01*
X33207500Y-31830000D02*
X33407500Y-31830000D01*
D12*
X33307500Y-31730000D02*
X33307500Y-31080000D01*
D10*
X33457500Y-30230000D02*
X33457500Y-34680000D01*
X33457500Y-34680000D02*
X36487500Y-34680000D01*
D13*
X33657500Y-34480000D02*
X36107500Y-34480000D01*
D14*
X33807500Y-34180000D02*
X33807500Y-32380001D01*
D15*
X34937500Y-30680000D02*
X34937500Y-32920000D01*
D10*
X38707500Y-32780000D02*
X43507500Y-32780000D01*
D16*
X41707500Y-30980000D02*
X35007500Y-30980000D01*
D17*
X43007500Y-29780000D02*
X43007500Y-32280000D01*
D13*
X43307500Y-32530000D02*
X42007500Y-32480000D01*
D18*
X43357500Y-29380000D02*
X42107500Y-29380000D01*
D10*
X43487500Y-31780000D02*
X43487500Y-29530000D01*
X43507500Y-29180000D02*
X35307499Y-29180000D01*
X43507500Y-32780000D02*
X43507500Y-29180000D01*
X35307499Y-29179999D02*
G75*
G03*
X33207500Y-31080001I-100000J-1999999D01*
G01*
D17*
X38307500Y-32380000D02*
G75*
G03*
X36091182Y-34258529I-65001J-2169999D01*
G01*
D10*
X38707500Y-32780000D02*
G75*
G03*
X36491182Y-34658529I-65001J-2169999D01*
G01*
X52207500Y-26330000D02*
X52207500Y-27080000D01*
X52207500Y-27080000D02*
X52407500Y-27080000D01*
D12*
X52307500Y-26980000D02*
X52307500Y-26330000D01*
D10*
X52457500Y-25480000D02*
X52457500Y-29930000D01*
X52457500Y-29930000D02*
X55487500Y-29930000D01*
D13*
X52657500Y-29730000D02*
X55107500Y-29730000D01*
D14*
X52807500Y-29430000D02*
X52807500Y-27630001D01*
D15*
X53937500Y-25930000D02*
X53937500Y-28170000D01*
D10*
X57707500Y-28030000D02*
X62507500Y-28030000D01*
D16*
X60707500Y-26230000D02*
X54007500Y-26230000D01*
D17*
X62007500Y-25030000D02*
X62007500Y-27530000D01*
D13*
X62307500Y-27780000D02*
X61007500Y-27730000D01*
D18*
X62357500Y-24630000D02*
X61107500Y-24630000D01*
D10*
X62487500Y-27030000D02*
X62487500Y-24780000D01*
X62507500Y-24430000D02*
X54307499Y-24430000D01*
X62507500Y-28030000D02*
X62507500Y-24430000D01*
X54307499Y-24429999D02*
G75*
G03*
X52207500Y-26330001I-100000J-1999999D01*
G01*
D17*
X57307500Y-27630000D02*
G75*
G03*
X55091182Y-29508529I-65001J-2169999D01*
G01*
D10*
X57707500Y-28030000D02*
G75*
G03*
X55491182Y-29908529I-65001J-2169999D01*
G01*
X71207500Y-23955000D02*
X71207500Y-24705000D01*
X71207500Y-24705000D02*
X71407500Y-24705000D01*
D12*
X71307500Y-24605000D02*
X71307500Y-23955000D01*
D10*
X71457500Y-23105000D02*
X71457500Y-27555000D01*
X71457500Y-27555000D02*
X74487500Y-27555000D01*
D13*
X71657500Y-27355000D02*
X74107500Y-27355000D01*
D14*
X71807500Y-27055000D02*
X71807500Y-25255001D01*
D15*
X72937500Y-23555000D02*
X72937500Y-25795000D01*
D10*
X76707500Y-25655000D02*
X81507500Y-25655000D01*
D16*
X79707500Y-23855000D02*
X73007500Y-23855000D01*
D17*
X81007500Y-22655000D02*
X81007500Y-25155000D01*
D13*
X81307500Y-25405000D02*
X80007500Y-25355000D01*
D18*
X81357500Y-22255000D02*
X80107500Y-22255000D01*
D10*
X81487500Y-24655000D02*
X81487500Y-22405000D01*
X81507500Y-22055000D02*
X73307499Y-22055000D01*
X81507500Y-25655000D02*
X81507500Y-22055000D01*
X73307499Y-22054999D02*
G75*
G03*
X71207500Y-23955001I-100000J-1999999D01*
G01*
D17*
X76307500Y-25255000D02*
G75*
G03*
X74091182Y-27133529I-65001J-2169999D01*
G01*
D10*
X76707500Y-25655000D02*
G75*
G03*
X74491182Y-27533529I-65001J-2169999D01*
G01*
X90207500Y-26330000D02*
X90207500Y-27080000D01*
X90207500Y-27080000D02*
X90407500Y-27080000D01*
D12*
X90307500Y-26980000D02*
X90307500Y-26330000D01*
D10*
X90457500Y-25480000D02*
X90457500Y-29930000D01*
X90457500Y-29930000D02*
X93487500Y-29930000D01*
D13*
X90657500Y-29730000D02*
X93107500Y-29730000D01*
D14*
X90807500Y-29430000D02*
X90807500Y-27630001D01*
D15*
X91937500Y-25930000D02*
X91937500Y-28170000D01*
D10*
X95707500Y-28030000D02*
X100507500Y-28030000D01*
D16*
X98707500Y-26230000D02*
X92007500Y-26230000D01*
D17*
X100007500Y-25030000D02*
X100007500Y-27530000D01*
D13*
X100307500Y-27780000D02*
X99007500Y-27730000D01*
D18*
X100357500Y-24630000D02*
X99107500Y-24630000D01*
D10*
X100487500Y-27030000D02*
X100487500Y-24780000D01*
X100507500Y-24430000D02*
X92307499Y-24430000D01*
X100507500Y-28030000D02*
X100507500Y-24430000D01*
X92307499Y-24429999D02*
G75*
G03*
X90207500Y-26330001I-100000J-1999999D01*
G01*
D17*
X95307500Y-27630000D02*
G75*
G03*
X93091182Y-29508529I-65001J-2169999D01*
G01*
D10*
X95707500Y-28030000D02*
G75*
G03*
X93491182Y-29908529I-65001J-2169999D01*
G01*
X14207500Y-50080000D02*
X14207500Y-50830000D01*
X14207500Y-50830000D02*
X14407500Y-50830000D01*
D12*
X14307500Y-50730000D02*
X14307500Y-50080000D01*
D10*
X14457500Y-49230000D02*
X14457500Y-53680000D01*
X14457500Y-53680000D02*
X17487500Y-53680000D01*
D13*
X14657500Y-53480000D02*
X17107500Y-53480000D01*
D14*
X14807500Y-53180000D02*
X14807500Y-51380001D01*
D15*
X15937500Y-49680000D02*
X15937500Y-51920000D01*
D10*
X19707500Y-51780000D02*
X24507500Y-51780000D01*
D16*
X22707500Y-49980000D02*
X16007500Y-49980000D01*
D17*
X24007500Y-48780000D02*
X24007500Y-51280000D01*
D13*
X24307500Y-51530000D02*
X23007500Y-51480000D01*
D18*
X24357500Y-48380000D02*
X23107500Y-48380000D01*
D10*
X24487500Y-50780000D02*
X24487500Y-48530000D01*
X24507500Y-48180000D02*
X16307499Y-48180000D01*
X24507500Y-51780000D02*
X24507500Y-48180000D01*
X16307499Y-48179999D02*
G75*
G03*
X14207500Y-50080001I-100000J-1999999D01*
G01*
D17*
X19307500Y-51380000D02*
G75*
G03*
X17091182Y-53258529I-65001J-2169999D01*
G01*
D10*
X19707500Y-51780000D02*
G75*
G03*
X17491182Y-53658529I-65001J-2169999D01*
G01*
X33207500Y-50080000D02*
X33207500Y-50830000D01*
X33207500Y-50830000D02*
X33407500Y-50830000D01*
D12*
X33307500Y-50730000D02*
X33307500Y-50080000D01*
D10*
X33457500Y-49230000D02*
X33457500Y-53680000D01*
X33457500Y-53680000D02*
X36487500Y-53680000D01*
D13*
X33657500Y-53480000D02*
X36107500Y-53480000D01*
D14*
X33807500Y-53180000D02*
X33807500Y-51380001D01*
D15*
X34937500Y-49680000D02*
X34937500Y-51920000D01*
D10*
X38707500Y-51780000D02*
X43507500Y-51780000D01*
D16*
X41707500Y-49980000D02*
X35007500Y-49980000D01*
D17*
X43007500Y-48780000D02*
X43007500Y-51280000D01*
D13*
X43307500Y-51530000D02*
X42007500Y-51480000D01*
D18*
X43357500Y-48380000D02*
X42107500Y-48380000D01*
D10*
X43487500Y-50780000D02*
X43487500Y-48530000D01*
X43507500Y-48180000D02*
X35307499Y-48180000D01*
X43507500Y-51780000D02*
X43507500Y-48180000D01*
X35307499Y-48179999D02*
G75*
G03*
X33207500Y-50080001I-100000J-1999999D01*
G01*
D17*
X38307500Y-51380000D02*
G75*
G03*
X36091182Y-53258529I-65001J-2169999D01*
G01*
D10*
X38707500Y-51780000D02*
G75*
G03*
X36491182Y-53658529I-65001J-2169999D01*
G01*
X52207500Y-45330000D02*
X52207500Y-46080000D01*
X52207500Y-46080000D02*
X52407500Y-46080000D01*
D12*
X52307500Y-45980000D02*
X52307500Y-45330000D01*
D10*
X52457500Y-44480000D02*
X52457500Y-48930000D01*
X52457500Y-48930000D02*
X55487500Y-48930000D01*
D13*
X52657500Y-48730000D02*
X55107500Y-48730000D01*
D14*
X52807500Y-48430000D02*
X52807500Y-46630001D01*
D15*
X53937500Y-44930000D02*
X53937500Y-47170000D01*
D10*
X57707500Y-47030000D02*
X62507500Y-47030000D01*
D16*
X60707500Y-45230000D02*
X54007500Y-45230000D01*
D17*
X62007500Y-44030000D02*
X62007500Y-46530000D01*
D13*
X62307500Y-46780000D02*
X61007500Y-46730000D01*
D18*
X62357500Y-43630000D02*
X61107500Y-43630000D01*
D10*
X62487500Y-46030000D02*
X62487500Y-43780000D01*
X62507500Y-43430000D02*
X54307499Y-43430000D01*
X62507500Y-47030000D02*
X62507500Y-43430000D01*
X54307499Y-43429999D02*
G75*
G03*
X52207500Y-45330001I-100000J-1999999D01*
G01*
D17*
X57307500Y-46630000D02*
G75*
G03*
X55091182Y-48508529I-65001J-2169999D01*
G01*
D10*
X57707500Y-47030000D02*
G75*
G03*
X55491182Y-48908529I-65001J-2169999D01*
G01*
X71207500Y-42955000D02*
X71207500Y-43705000D01*
X71207500Y-43705000D02*
X71407500Y-43705000D01*
D12*
X71307500Y-43605000D02*
X71307500Y-42955000D01*
D10*
X71457500Y-42105000D02*
X71457500Y-46555000D01*
X71457500Y-46555000D02*
X74487500Y-46555000D01*
D13*
X71657500Y-46355000D02*
X74107500Y-46355000D01*
D14*
X71807500Y-46055000D02*
X71807500Y-44255001D01*
D15*
X72937500Y-42555000D02*
X72937500Y-44795000D01*
D10*
X76707500Y-44655000D02*
X81507500Y-44655000D01*
D16*
X79707500Y-42855000D02*
X73007500Y-42855000D01*
D17*
X81007500Y-41655000D02*
X81007500Y-44155000D01*
D13*
X81307500Y-44405000D02*
X80007500Y-44355000D01*
D18*
X81357500Y-41255000D02*
X80107500Y-41255000D01*
D10*
X81487500Y-43655000D02*
X81487500Y-41405000D01*
X81507500Y-41055000D02*
X73307499Y-41055000D01*
X81507500Y-44655000D02*
X81507500Y-41055000D01*
X73307499Y-41054999D02*
G75*
G03*
X71207500Y-42955001I-100000J-1999999D01*
G01*
D17*
X76307500Y-44255000D02*
G75*
G03*
X74091182Y-46133529I-65001J-2169999D01*
G01*
D10*
X76707500Y-44655000D02*
G75*
G03*
X74491182Y-46533529I-65001J-2169999D01*
G01*
X90207500Y-45330000D02*
X90207500Y-46080000D01*
X90207500Y-46080000D02*
X90407500Y-46080000D01*
D12*
X90307500Y-45980000D02*
X90307500Y-45330000D01*
D10*
X90457500Y-44480000D02*
X90457500Y-48930000D01*
X90457500Y-48930000D02*
X93487500Y-48930000D01*
D13*
X90657500Y-48730000D02*
X93107500Y-48730000D01*
D14*
X90807500Y-48430000D02*
X90807500Y-46630001D01*
D15*
X91937500Y-44930000D02*
X91937500Y-47170000D01*
D10*
X95707500Y-47030000D02*
X100507500Y-47030000D01*
D16*
X98707500Y-45230000D02*
X92007500Y-45230000D01*
D17*
X100007500Y-44030000D02*
X100007500Y-46530000D01*
D13*
X100307500Y-46780000D02*
X99007500Y-46730000D01*
D18*
X100357500Y-43630000D02*
X99107500Y-43630000D01*
D10*
X100487500Y-46030000D02*
X100487500Y-43780000D01*
X100507500Y-43430000D02*
X92307499Y-43430000D01*
X100507500Y-47030000D02*
X100507500Y-43430000D01*
X92307499Y-43429999D02*
G75*
G03*
X90207500Y-45330001I-100000J-1999999D01*
G01*
D17*
X95307500Y-46630000D02*
G75*
G03*
X93091182Y-48508529I-65001J-2169999D01*
G01*
D10*
X95707500Y-47030000D02*
G75*
G03*
X93491182Y-48908529I-65001J-2169999D01*
G01*
X109207500Y-47705000D02*
X109207500Y-48455000D01*
X109207500Y-48455000D02*
X109407500Y-48455000D01*
D12*
X109307500Y-48355000D02*
X109307500Y-47705000D01*
D10*
X109457500Y-46855000D02*
X109457500Y-51305000D01*
X109457500Y-51305000D02*
X112487500Y-51305000D01*
D13*
X109657500Y-51105000D02*
X112107500Y-51105000D01*
D14*
X109807500Y-50805000D02*
X109807500Y-49005001D01*
D15*
X110937500Y-47305000D02*
X110937500Y-49545000D01*
D10*
X114707500Y-49405000D02*
X119507500Y-49405000D01*
D16*
X117707500Y-47605000D02*
X111007500Y-47605000D01*
D17*
X119007500Y-46405000D02*
X119007500Y-48905000D01*
D13*
X119307500Y-49155000D02*
X118007500Y-49105000D01*
D18*
X119357500Y-46005000D02*
X118107500Y-46005000D01*
D10*
X119487500Y-48405000D02*
X119487500Y-46155000D01*
X119507500Y-45805000D02*
X111307499Y-45805000D01*
X119507500Y-49405000D02*
X119507500Y-45805000D01*
X111307499Y-45804999D02*
G75*
G03*
X109207500Y-47705001I-100000J-1999999D01*
G01*
D17*
X114307500Y-49005000D02*
G75*
G03*
X112091182Y-50883529I-65001J-2169999D01*
G01*
D10*
X114707500Y-49405000D02*
G75*
G03*
X112491182Y-51283529I-65001J-2169999D01*
G01*
X14207500Y-69080000D02*
X14207500Y-69830000D01*
X14207500Y-69830000D02*
X14407500Y-69830000D01*
D12*
X14307500Y-69730000D02*
X14307500Y-69080000D01*
D10*
X14457500Y-68230000D02*
X14457500Y-72680000D01*
X14457500Y-72680000D02*
X17487500Y-72680000D01*
D13*
X14657500Y-72480000D02*
X17107500Y-72480000D01*
D14*
X14807500Y-72180000D02*
X14807500Y-70380001D01*
D15*
X15937500Y-68680000D02*
X15937500Y-70920000D01*
D10*
X19707500Y-70780000D02*
X24507500Y-70780000D01*
D16*
X22707500Y-68980000D02*
X16007500Y-68980000D01*
D17*
X24007500Y-67780000D02*
X24007500Y-70280000D01*
D13*
X24307500Y-70530000D02*
X23007500Y-70480000D01*
D18*
X24357500Y-67380000D02*
X23107500Y-67380000D01*
D10*
X24487500Y-69780000D02*
X24487500Y-67530000D01*
X24507500Y-67180000D02*
X16307499Y-67180000D01*
X24507500Y-70780000D02*
X24507500Y-67180000D01*
X16307499Y-67179999D02*
G75*
G03*
X14207500Y-69080001I-100000J-1999999D01*
G01*
D17*
X19307500Y-70380000D02*
G75*
G03*
X17091182Y-72258529I-65001J-2169999D01*
G01*
D10*
X19707500Y-70780000D02*
G75*
G03*
X17491182Y-72658529I-65001J-2169999D01*
G01*
X33207500Y-69080000D02*
X33207500Y-69830000D01*
X33207500Y-69830000D02*
X33407500Y-69830000D01*
D12*
X33307500Y-69730000D02*
X33307500Y-69080000D01*
D10*
X33457500Y-68230000D02*
X33457500Y-72680000D01*
X33457500Y-72680000D02*
X36487500Y-72680000D01*
D13*
X33657500Y-72480000D02*
X36107500Y-72480000D01*
D14*
X33807500Y-72180000D02*
X33807500Y-70380001D01*
D15*
X34937500Y-68680000D02*
X34937500Y-70920000D01*
D10*
X38707500Y-70780000D02*
X43507500Y-70780000D01*
D16*
X41707500Y-68980000D02*
X35007500Y-68980000D01*
D17*
X43007500Y-67780000D02*
X43007500Y-70280000D01*
D13*
X43307500Y-70530000D02*
X42007500Y-70480000D01*
D18*
X43357500Y-67380000D02*
X42107500Y-67380000D01*
D10*
X43487500Y-69780000D02*
X43487500Y-67530000D01*
X43507500Y-67180000D02*
X35307499Y-67180000D01*
X43507500Y-70780000D02*
X43507500Y-67180000D01*
X35307499Y-67179999D02*
G75*
G03*
X33207500Y-69080001I-100000J-1999999D01*
G01*
D17*
X38307500Y-70380000D02*
G75*
G03*
X36091182Y-72258529I-65001J-2169999D01*
G01*
D10*
X38707500Y-70780000D02*
G75*
G03*
X36491182Y-72658529I-65001J-2169999D01*
G01*
X52207500Y-64330000D02*
X52207500Y-65080000D01*
X52207500Y-65080000D02*
X52407500Y-65080000D01*
D12*
X52307500Y-64980000D02*
X52307500Y-64330000D01*
D10*
X52457500Y-63480000D02*
X52457500Y-67930000D01*
X52457500Y-67930000D02*
X55487500Y-67930000D01*
D13*
X52657500Y-67730000D02*
X55107500Y-67730000D01*
D14*
X52807500Y-67430000D02*
X52807500Y-65630001D01*
D15*
X53937500Y-63930000D02*
X53937500Y-66170000D01*
D10*
X57707500Y-66030000D02*
X62507500Y-66030000D01*
D16*
X60707500Y-64230000D02*
X54007500Y-64230000D01*
D17*
X62007500Y-63030000D02*
X62007500Y-65530000D01*
D13*
X62307500Y-65780000D02*
X61007500Y-65730000D01*
D18*
X62357500Y-62630000D02*
X61107500Y-62630000D01*
D10*
X62487500Y-65030000D02*
X62487500Y-62780000D01*
X62507500Y-62430000D02*
X54307499Y-62430000D01*
X62507500Y-66030000D02*
X62507500Y-62430000D01*
X54307499Y-62429999D02*
G75*
G03*
X52207500Y-64330001I-100000J-1999999D01*
G01*
D17*
X57307500Y-65630000D02*
G75*
G03*
X55091182Y-67508529I-65001J-2169999D01*
G01*
D10*
X57707500Y-66030000D02*
G75*
G03*
X55491182Y-67908529I-65001J-2169999D01*
G01*
X71207500Y-61955000D02*
X71207500Y-62705000D01*
X71207500Y-62705000D02*
X71407500Y-62705000D01*
D12*
X71307500Y-62605000D02*
X71307500Y-61955000D01*
D10*
X71457500Y-61105000D02*
X71457500Y-65555000D01*
X71457500Y-65555000D02*
X74487500Y-65555000D01*
D13*
X71657500Y-65355000D02*
X74107500Y-65355000D01*
D14*
X71807500Y-65055000D02*
X71807500Y-63255001D01*
D15*
X72937500Y-61555000D02*
X72937500Y-63795000D01*
D10*
X76707500Y-63655000D02*
X81507500Y-63655000D01*
D16*
X79707500Y-61855000D02*
X73007500Y-61855000D01*
D17*
X81007500Y-60655000D02*
X81007500Y-63155000D01*
D13*
X81307500Y-63405000D02*
X80007500Y-63355000D01*
D18*
X81357500Y-60255000D02*
X80107500Y-60255000D01*
D10*
X81487500Y-62655000D02*
X81487500Y-60405000D01*
X81507500Y-60055000D02*
X73307499Y-60055000D01*
X81507500Y-63655000D02*
X81507500Y-60055000D01*
X73307499Y-60054999D02*
G75*
G03*
X71207500Y-61955001I-100000J-1999999D01*
G01*
D17*
X76307500Y-63255000D02*
G75*
G03*
X74091182Y-65133529I-65001J-2169999D01*
G01*
D10*
X76707500Y-63655000D02*
G75*
G03*
X74491182Y-65533529I-65001J-2169999D01*
G01*
X90207500Y-64330000D02*
X90207500Y-65080000D01*
X90207500Y-65080000D02*
X90407500Y-65080000D01*
D12*
X90307500Y-64980000D02*
X90307500Y-64330000D01*
D10*
X90457500Y-63480000D02*
X90457500Y-67930000D01*
X90457500Y-67930000D02*
X93487500Y-67930000D01*
D13*
X90657500Y-67730000D02*
X93107500Y-67730000D01*
D14*
X90807500Y-67430000D02*
X90807500Y-65630001D01*
D15*
X91937500Y-63930000D02*
X91937500Y-66170000D01*
D10*
X95707500Y-66030000D02*
X100507500Y-66030000D01*
D16*
X98707500Y-64230000D02*
X92007500Y-64230000D01*
D17*
X100007500Y-63030000D02*
X100007500Y-65530000D01*
D13*
X100307500Y-65780000D02*
X99007500Y-65730000D01*
D18*
X100357500Y-62630000D02*
X99107500Y-62630000D01*
D10*
X100487500Y-65030000D02*
X100487500Y-62780000D01*
X100507500Y-62430000D02*
X92307499Y-62430000D01*
X100507500Y-66030000D02*
X100507500Y-62430000D01*
X92307499Y-62429999D02*
G75*
G03*
X90207500Y-64330001I-100000J-1999999D01*
G01*
D17*
X95307500Y-65630000D02*
G75*
G03*
X93091182Y-67508529I-65001J-2169999D01*
G01*
D10*
X95707500Y-66030000D02*
G75*
G03*
X93491182Y-67908529I-65001J-2169999D01*
G01*
X109207500Y-66705000D02*
X109207500Y-67455000D01*
X109207500Y-67455000D02*
X109407500Y-67455000D01*
D12*
X109307500Y-67355000D02*
X109307500Y-66705000D01*
D10*
X109457500Y-65855000D02*
X109457500Y-70305000D01*
X109457500Y-70305000D02*
X112487500Y-70305000D01*
D13*
X109657500Y-70105000D02*
X112107500Y-70105000D01*
D14*
X109807500Y-69805000D02*
X109807500Y-68005001D01*
D15*
X110937500Y-66305000D02*
X110937500Y-68545000D01*
D10*
X114707500Y-68405000D02*
X119507500Y-68405000D01*
D16*
X117707500Y-66605000D02*
X111007500Y-66605000D01*
D17*
X119007500Y-65405000D02*
X119007500Y-67905000D01*
D13*
X119307500Y-68155000D02*
X118007500Y-68105000D01*
D18*
X119357500Y-65005000D02*
X118107500Y-65005000D01*
D10*
X119487500Y-67405000D02*
X119487500Y-65155000D01*
X119507500Y-64805000D02*
X111307499Y-64805000D01*
X119507500Y-68405000D02*
X119507500Y-64805000D01*
X111307499Y-64804999D02*
G75*
G03*
X109207500Y-66705001I-100000J-1999999D01*
G01*
D17*
X114307500Y-68005000D02*
G75*
G03*
X112091182Y-69883529I-65001J-2169999D01*
G01*
D10*
X114707500Y-68405000D02*
G75*
G03*
X112491182Y-70283529I-65001J-2169999D01*
G01*
X80707500Y-83955000D02*
X80707500Y-84705000D01*
X80707500Y-84705000D02*
X80907500Y-84705000D01*
D12*
X80807500Y-84605000D02*
X80807500Y-83955000D01*
D10*
X80957500Y-83105000D02*
X80957500Y-87555000D01*
X80957500Y-87555000D02*
X83987500Y-87555000D01*
D13*
X81157500Y-87355000D02*
X83607500Y-87355000D01*
D14*
X81307500Y-87055000D02*
X81307500Y-85255001D01*
D15*
X82437500Y-83555000D02*
X82437500Y-85795000D01*
D10*
X86207500Y-85655000D02*
X91007500Y-85655000D01*
D16*
X89207500Y-83855000D02*
X82507500Y-83855000D01*
D17*
X90507500Y-82655000D02*
X90507500Y-85155000D01*
D13*
X90807500Y-85405000D02*
X89507500Y-85355000D01*
D18*
X90857500Y-82255000D02*
X89607500Y-82255000D01*
D10*
X90987500Y-84655000D02*
X90987500Y-82405000D01*
X91007500Y-82055000D02*
X82807499Y-82055000D01*
X91007500Y-85655000D02*
X91007500Y-82055000D01*
X82807499Y-82054999D02*
G75*
G03*
X80707500Y-83955001I-100000J-1999999D01*
G01*
D17*
X85807500Y-85255000D02*
G75*
G03*
X83591182Y-87133529I-65001J-2169999D01*
G01*
D10*
X86207500Y-85655000D02*
G75*
G03*
X83991182Y-87533529I-65001J-2169999D01*
G01*
X103124987Y-85338116D02*
X102930873Y-86062561D01*
X102930873Y-86062561D02*
X103124058Y-86114324D01*
D12*
X103053347Y-85991850D02*
X103221580Y-85363998D01*
D10*
X103586465Y-84581784D02*
X102434720Y-88880154D01*
X102434720Y-88880154D02*
X105361475Y-89664376D01*
D13*
X102679669Y-88738733D02*
X105046187Y-89372839D01*
D14*
X102902204Y-88487778D02*
X103368078Y-86749112D01*
D15*
X104899566Y-85399503D02*
X104319812Y-87563177D01*
D10*
X107997587Y-88403695D02*
X112634031Y-89646026D01*
D16*
X111361239Y-87441486D02*
X104889536Y-85707398D01*
D17*
X112927525Y-86618839D02*
X112280477Y-89033654D01*
D13*
X112505550Y-89352781D02*
X111262788Y-88968020D01*
D18*
X113369127Y-86323056D02*
X112161719Y-85999532D01*
D10*
X112873531Y-88674924D02*
X113455874Y-86501591D01*
X113565779Y-86168693D02*
X105645187Y-84046377D01*
X112634031Y-89646026D02*
X113565779Y-86168693D01*
X105645187Y-84046378D02*
G75*
G03*
X103124988Y-85338117I-614231J-1905967D01*
G01*
D17*
X107714744Y-87913798D02*
G75*
G03*
X105087747Y-89154691I-624423J-2079234D01*
G01*
D10*
X107997587Y-88403695D02*
G75*
G03*
X105370589Y-89644589I-624423J-2079234D01*
G01*
X122837181Y-97914550D02*
X123486700Y-98289550D01*
X123486700Y-98289550D02*
X123586700Y-98116345D01*
D12*
X123450097Y-98152947D02*
X122887181Y-97827947D01*
D10*
X122226059Y-97273044D02*
X126079872Y-99498044D01*
X126079872Y-99498044D02*
X127594872Y-96873987D01*
D13*
X126006667Y-99224838D02*
X127231667Y-97103076D01*
D14*
X125821859Y-98944935D02*
X124263014Y-98044935D01*
D15*
X123355770Y-96216326D02*
X125295667Y-97336326D01*
D10*
X127059424Y-94001410D02*
X129459424Y-89844488D01*
D16*
X127000578Y-90503334D02*
X123650578Y-96305704D01*
D17*
X126611348Y-88777501D02*
X128776411Y-90027501D01*
D13*
X129142917Y-89892693D02*
X128449616Y-90993526D01*
D18*
X126439937Y-88274392D02*
X125814937Y-89356924D01*
D10*
X128583398Y-89361809D02*
X126634841Y-88236809D01*
X126341732Y-88044488D02*
X122241732Y-95145897D01*
X129459424Y-89844488D02*
X126341732Y-88044488D01*
X122241732Y-95145897D02*
G75*
G03*
X122837181Y-97914550I1682049J-1086602D01*
G01*
D17*
X126513014Y-94147820D02*
G75*
G03*
X127031708Y-97006472I1846773J-1141292D01*
G01*
D10*
X127059425Y-94001411D02*
G75*
G03*
X127578120Y-96860061I1846773J-1141291D01*
G01*
X167984819Y-87690450D02*
X167335300Y-88065450D01*
X167335300Y-88065450D02*
X167435300Y-88238655D01*
D12*
X167471903Y-88102053D02*
X168034819Y-87777053D01*
D10*
X168845941Y-87481956D02*
X164992128Y-89706956D01*
X164992128Y-89706956D02*
X166507128Y-92331013D01*
D13*
X165265333Y-89780162D02*
X166490333Y-91901924D01*
D14*
X165600141Y-89760065D02*
X167158986Y-88860066D01*
D15*
X169196230Y-88988674D02*
X167256333Y-90108674D01*
D10*
X169262576Y-93303590D02*
X171662576Y-97460512D01*
D16*
X172321422Y-95001666D02*
X168971422Y-89199296D01*
D17*
X174010652Y-95527499D02*
X171845589Y-96777499D01*
D13*
X171779083Y-97162307D02*
X171172384Y-96011474D01*
D18*
X174532063Y-95630608D02*
X173907063Y-94548076D01*
D10*
X172518602Y-96943191D02*
X174467159Y-95818191D01*
X174780268Y-95660512D02*
X170680267Y-88559103D01*
X171662576Y-97460512D02*
X174780268Y-95660512D01*
X170680267Y-88559103D02*
G75*
G03*
X167984819Y-87690452I-1782049J-913396D01*
G01*
D17*
X169408986Y-92757180D02*
G75*
G03*
X166673974Y-91777057I-1911774J-1028707D01*
G01*
D10*
X169262575Y-93303591D02*
G75*
G03*
X166527563Y-92323468I-1911774J-1028706D01*
G01*
X213714500Y-61950000D02*
X213714500Y-62700000D01*
X213714500Y-62700000D02*
X213914500Y-62700000D01*
D12*
X213814500Y-62600000D02*
X213814500Y-61950000D01*
D10*
X213964500Y-61100000D02*
X213964500Y-65550000D01*
X213964500Y-65550000D02*
X216994500Y-65550000D01*
D13*
X214164500Y-65350000D02*
X216614500Y-65350000D01*
D14*
X214314500Y-65050000D02*
X214314500Y-63250001D01*
D15*
X215444500Y-61550000D02*
X215444500Y-63790000D01*
D10*
X219214500Y-63650000D02*
X224014500Y-63650000D01*
D16*
X222214500Y-61850000D02*
X215514500Y-61850000D01*
D17*
X223514500Y-60650000D02*
X223514500Y-63150000D01*
D13*
X223814500Y-63400000D02*
X222514500Y-63350000D01*
D18*
X223864500Y-60250000D02*
X222614500Y-60250000D01*
D10*
X223994500Y-62650000D02*
X223994500Y-60400000D01*
X224014500Y-60050000D02*
X215814499Y-60050000D01*
X224014500Y-63650000D02*
X224014500Y-60050000D01*
X215814499Y-60049999D02*
G75*
G03*
X213714500Y-61950001I-100000J-1999999D01*
G01*
D17*
X218814500Y-63250000D02*
G75*
G03*
X216598182Y-65128529I-65001J-2169999D01*
G01*
D10*
X219214500Y-63650000D02*
G75*
G03*
X216998182Y-65528529I-65001J-2169999D01*
G01*
X194714500Y-64325000D02*
X194714500Y-65075000D01*
X194714500Y-65075000D02*
X194914500Y-65075000D01*
D12*
X194814500Y-64975000D02*
X194814500Y-64325000D01*
D10*
X194964500Y-63475000D02*
X194964500Y-67925000D01*
X194964500Y-67925000D02*
X197994500Y-67925000D01*
D13*
X195164500Y-67725000D02*
X197614500Y-67725000D01*
D14*
X195314500Y-67425000D02*
X195314500Y-65625001D01*
D15*
X196444500Y-63925000D02*
X196444500Y-66165000D01*
D10*
X200214500Y-66025000D02*
X205014500Y-66025000D01*
D16*
X203214500Y-64225000D02*
X196514500Y-64225000D01*
D17*
X204514500Y-63025000D02*
X204514500Y-65525000D01*
D13*
X204814500Y-65775000D02*
X203514500Y-65725000D01*
D18*
X204864500Y-62625000D02*
X203614500Y-62625000D01*
D10*
X204994500Y-65025000D02*
X204994500Y-62775000D01*
X205014500Y-62425000D02*
X196814499Y-62425000D01*
X205014500Y-66025000D02*
X205014500Y-62425000D01*
X196814499Y-62424999D02*
G75*
G03*
X194714500Y-64325001I-100000J-1999999D01*
G01*
D17*
X199814500Y-65625000D02*
G75*
G03*
X197598182Y-67503529I-65001J-2169999D01*
G01*
D10*
X200214500Y-66025000D02*
G75*
G03*
X197998182Y-67903529I-65001J-2169999D01*
G01*
X175714500Y-66700000D02*
X175714500Y-67450000D01*
X175714500Y-67450000D02*
X175914500Y-67450000D01*
D12*
X175814500Y-67350000D02*
X175814500Y-66700000D01*
D10*
X175964500Y-65850000D02*
X175964500Y-70300000D01*
X175964500Y-70300000D02*
X178994500Y-70300000D01*
D13*
X176164500Y-70100000D02*
X178614500Y-70100000D01*
D14*
X176314500Y-69800000D02*
X176314500Y-68000001D01*
D15*
X177444500Y-66300000D02*
X177444500Y-68540000D01*
D10*
X181214500Y-68400000D02*
X186014500Y-68400000D01*
D16*
X184214500Y-66600000D02*
X177514500Y-66600000D01*
D17*
X185514500Y-65400000D02*
X185514500Y-67900000D01*
D13*
X185814500Y-68150000D02*
X184514500Y-68100000D01*
D18*
X185864500Y-65000000D02*
X184614500Y-65000000D01*
D10*
X185994500Y-67400000D02*
X185994500Y-65150000D01*
X186014500Y-64800000D02*
X177814499Y-64800000D01*
X186014500Y-68400000D02*
X186014500Y-64800000D01*
X177814499Y-64799999D02*
G75*
G03*
X175714500Y-66700001I-100000J-1999999D01*
G01*
D17*
X180814500Y-68000000D02*
G75*
G03*
X178598182Y-69878529I-65001J-2169999D01*
G01*
D10*
X181214500Y-68400000D02*
G75*
G03*
X178998182Y-70278529I-65001J-2169999D01*
G01*
X204214500Y-83950000D02*
X204214500Y-84700000D01*
X204214500Y-84700000D02*
X204414500Y-84700000D01*
D12*
X204314500Y-84600000D02*
X204314500Y-83950000D01*
D10*
X204464500Y-83100000D02*
X204464500Y-87550000D01*
X204464500Y-87550000D02*
X207494500Y-87550000D01*
D13*
X204664500Y-87350000D02*
X207114500Y-87350000D01*
D14*
X204814500Y-87050000D02*
X204814500Y-85250001D01*
D15*
X205944500Y-83550000D02*
X205944500Y-85790000D01*
D10*
X209714500Y-85650000D02*
X214514500Y-85650000D01*
D16*
X212714500Y-83850000D02*
X206014500Y-83850000D01*
D17*
X214014500Y-82650000D02*
X214014500Y-85150000D01*
D13*
X214314500Y-85400000D02*
X213014500Y-85350000D01*
D18*
X214364500Y-82250000D02*
X213114500Y-82250000D01*
D10*
X214494500Y-84650000D02*
X214494500Y-82400000D01*
X214514500Y-82050000D02*
X206314499Y-82050000D01*
X214514500Y-85650000D02*
X214514500Y-82050000D01*
X206314499Y-82049999D02*
G75*
G03*
X204214500Y-83950001I-100000J-1999999D01*
G01*
D17*
X209314500Y-85250000D02*
G75*
G03*
X207098182Y-87128529I-65001J-2169999D01*
G01*
D10*
X209714500Y-85650000D02*
G75*
G03*
X207498182Y-87528529I-65001J-2169999D01*
G01*
X182199088Y-88387181D02*
X182393202Y-89111625D01*
X182393202Y-89111625D02*
X182586388Y-89059862D01*
D12*
X182463913Y-88989151D02*
X182295681Y-88361299D01*
D10*
X182220573Y-87501439D02*
X183372318Y-91799809D01*
X183372318Y-91799809D02*
X186299073Y-91015587D01*
D13*
X183513739Y-91554860D02*
X185880258Y-90920754D01*
D14*
X183580983Y-91226260D02*
X183115109Y-89487594D01*
D15*
X183766612Y-87553054D02*
X184346367Y-89716728D01*
D10*
X187951673Y-88605750D02*
X192588117Y-87363419D01*
D16*
X190383576Y-86090627D02*
X183911873Y-87824714D01*
D17*
X191328696Y-84595051D02*
X191975744Y-87009865D01*
D13*
X192330227Y-87173701D02*
X191061582Y-87461870D01*
D18*
X191563243Y-84118094D02*
X190355836Y-84441618D01*
D10*
X192309979Y-86402669D02*
X191727636Y-84229336D01*
X191656368Y-83886086D02*
X183735775Y-86008402D01*
X192588117Y-87363419D02*
X191656368Y-83886086D01*
X183735775Y-86008401D02*
G75*
G03*
X182199088Y-88387182I421047J-1957734D01*
G01*
D17*
X187461775Y-88322908D02*
G75*
G03*
X185807175Y-90711052I498851J-2112881D01*
G01*
D10*
X187951673Y-88605751D02*
G75*
G03*
X186297073Y-90993895I498850J-2112881D01*
G01*
X213714500Y-23950000D02*
X213714500Y-24700000D01*
X213714500Y-24700000D02*
X213914500Y-24700000D01*
D12*
X213814500Y-24600000D02*
X213814500Y-23950000D01*
D10*
X213964500Y-23100000D02*
X213964500Y-27550000D01*
X213964500Y-27550000D02*
X216994500Y-27550000D01*
D13*
X214164500Y-27350000D02*
X216614500Y-27350000D01*
D14*
X214314500Y-27050000D02*
X214314500Y-25250001D01*
D15*
X215444500Y-23550000D02*
X215444500Y-25790000D01*
D10*
X219214500Y-25650000D02*
X224014500Y-25650000D01*
D16*
X222214500Y-23850000D02*
X215514500Y-23850000D01*
D17*
X223514500Y-22650000D02*
X223514500Y-25150000D01*
D13*
X223814500Y-25400000D02*
X222514500Y-25350000D01*
D18*
X223864500Y-22250000D02*
X222614500Y-22250000D01*
D10*
X223994500Y-24650000D02*
X223994500Y-22400000D01*
X224014500Y-22050000D02*
X215814499Y-22050000D01*
X224014500Y-25650000D02*
X224014500Y-22050000D01*
X215814499Y-22049999D02*
G75*
G03*
X213714500Y-23950001I-100000J-1999999D01*
G01*
D17*
X218814500Y-25250000D02*
G75*
G03*
X216598182Y-27128529I-65001J-2169999D01*
G01*
D10*
X219214500Y-25650000D02*
G75*
G03*
X216998182Y-27528529I-65001J-2169999D01*
G01*
X194714500Y-26325000D02*
X194714500Y-27075000D01*
X194714500Y-27075000D02*
X194914500Y-27075000D01*
D12*
X194814500Y-26975000D02*
X194814500Y-26325000D01*
D10*
X194964500Y-25475000D02*
X194964500Y-29925000D01*
X194964500Y-29925000D02*
X197994500Y-29925000D01*
D13*
X195164500Y-29725000D02*
X197614500Y-29725000D01*
D14*
X195314500Y-29425000D02*
X195314500Y-27625001D01*
D15*
X196444500Y-25925000D02*
X196444500Y-28165000D01*
D10*
X200214500Y-28025000D02*
X205014500Y-28025000D01*
D16*
X203214500Y-26225000D02*
X196514500Y-26225000D01*
D17*
X204514500Y-25025000D02*
X204514500Y-27525000D01*
D13*
X204814500Y-27775000D02*
X203514500Y-27725000D01*
D18*
X204864500Y-24625000D02*
X203614500Y-24625000D01*
D10*
X204994500Y-27025000D02*
X204994500Y-24775000D01*
X205014500Y-24425000D02*
X196814499Y-24425000D01*
X205014500Y-28025000D02*
X205014500Y-24425000D01*
X196814499Y-24424999D02*
G75*
G03*
X194714500Y-26325001I-100000J-1999999D01*
G01*
D17*
X199814500Y-27625000D02*
G75*
G03*
X197598182Y-29503529I-65001J-2169999D01*
G01*
D10*
X200214500Y-28025000D02*
G75*
G03*
X197998182Y-29903529I-65001J-2169999D01*
G01*
X270714500Y-50075000D02*
X270714500Y-50825000D01*
X270714500Y-50825000D02*
X270914500Y-50825000D01*
D12*
X270814500Y-50725000D02*
X270814500Y-50075000D01*
D10*
X270964500Y-49225000D02*
X270964500Y-53675000D01*
X270964500Y-53675000D02*
X273994500Y-53675000D01*
D13*
X271164500Y-53475000D02*
X273614500Y-53475000D01*
D14*
X271314500Y-53175000D02*
X271314500Y-51375001D01*
D15*
X272444500Y-49675000D02*
X272444500Y-51915000D01*
D10*
X276214500Y-51775000D02*
X281014500Y-51775000D01*
D16*
X279214500Y-49975000D02*
X272514500Y-49975000D01*
D17*
X280514500Y-48775000D02*
X280514500Y-51275000D01*
D13*
X280814500Y-51525000D02*
X279514500Y-51475000D01*
D18*
X280864500Y-48375000D02*
X279614500Y-48375000D01*
D10*
X280994500Y-50775000D02*
X280994500Y-48525000D01*
X281014500Y-48175000D02*
X272814499Y-48175000D01*
X281014500Y-51775000D02*
X281014500Y-48175000D01*
X272814499Y-48174999D02*
G75*
G03*
X270714500Y-50075001I-100000J-1999999D01*
G01*
D17*
X275814500Y-51375000D02*
G75*
G03*
X273598182Y-53253529I-65001J-2169999D01*
G01*
D10*
X276214500Y-51775000D02*
G75*
G03*
X273998182Y-53653529I-65001J-2169999D01*
G01*
X232714500Y-26325000D02*
X232714500Y-27075000D01*
X232714500Y-27075000D02*
X232914500Y-27075000D01*
D12*
X232814500Y-26975000D02*
X232814500Y-26325000D01*
D10*
X232964500Y-25475000D02*
X232964500Y-29925000D01*
X232964500Y-29925000D02*
X235994500Y-29925000D01*
D13*
X233164500Y-29725000D02*
X235614500Y-29725000D01*
D14*
X233314500Y-29425000D02*
X233314500Y-27625001D01*
D15*
X234444500Y-25925000D02*
X234444500Y-28165000D01*
D10*
X238214500Y-28025000D02*
X243014500Y-28025000D01*
D16*
X241214500Y-26225000D02*
X234514500Y-26225000D01*
D17*
X242514500Y-25025000D02*
X242514500Y-27525000D01*
D13*
X242814500Y-27775000D02*
X241514500Y-27725000D01*
D18*
X242864500Y-24625000D02*
X241614500Y-24625000D01*
D10*
X242994500Y-27025000D02*
X242994500Y-24775000D01*
X243014500Y-24425000D02*
X234814499Y-24425000D01*
X243014500Y-28025000D02*
X243014500Y-24425000D01*
X234814499Y-24424999D02*
G75*
G03*
X232714500Y-26325001I-100000J-1999999D01*
G01*
D17*
X237814500Y-27625000D02*
G75*
G03*
X235598182Y-29503529I-65001J-2169999D01*
G01*
D10*
X238214500Y-28025000D02*
G75*
G03*
X235998182Y-29903529I-65001J-2169999D01*
G01*
X251714500Y-50075000D02*
X251714500Y-50825000D01*
X251714500Y-50825000D02*
X251914500Y-50825000D01*
D12*
X251814500Y-50725000D02*
X251814500Y-50075000D01*
D10*
X251964500Y-49225000D02*
X251964500Y-53675000D01*
X251964500Y-53675000D02*
X254994500Y-53675000D01*
D13*
X252164500Y-53475000D02*
X254614500Y-53475000D01*
D14*
X252314500Y-53175000D02*
X252314500Y-51375001D01*
D15*
X253444500Y-49675000D02*
X253444500Y-51915000D01*
D10*
X257214500Y-51775000D02*
X262014500Y-51775000D01*
D16*
X260214500Y-49975000D02*
X253514500Y-49975000D01*
D17*
X261514500Y-48775000D02*
X261514500Y-51275000D01*
D13*
X261814500Y-51525000D02*
X260514500Y-51475000D01*
D18*
X261864500Y-48375000D02*
X260614500Y-48375000D01*
D10*
X261994500Y-50775000D02*
X261994500Y-48525000D01*
X262014500Y-48175000D02*
X253814499Y-48175000D01*
X262014500Y-51775000D02*
X262014500Y-48175000D01*
X253814499Y-48174999D02*
G75*
G03*
X251714500Y-50075001I-100000J-1999999D01*
G01*
D17*
X256814500Y-51375000D02*
G75*
G03*
X254598182Y-53253529I-65001J-2169999D01*
G01*
D10*
X257214500Y-51775000D02*
G75*
G03*
X254998182Y-53653529I-65001J-2169999D01*
G01*
X251714500Y-69075000D02*
X251714500Y-69825000D01*
X251714500Y-69825000D02*
X251914500Y-69825000D01*
D12*
X251814500Y-69725000D02*
X251814500Y-69075000D01*
D10*
X251964500Y-68225000D02*
X251964500Y-72675000D01*
X251964500Y-72675000D02*
X254994500Y-72675000D01*
D13*
X252164500Y-72475000D02*
X254614500Y-72475000D01*
D14*
X252314500Y-72175000D02*
X252314500Y-70375001D01*
D15*
X253444500Y-68675000D02*
X253444500Y-70915000D01*
D10*
X257214500Y-70775000D02*
X262014500Y-70775000D01*
D16*
X260214500Y-68975000D02*
X253514500Y-68975000D01*
D17*
X261514500Y-67775000D02*
X261514500Y-70275000D01*
D13*
X261814500Y-70525000D02*
X260514500Y-70475000D01*
D18*
X261864500Y-67375000D02*
X260614500Y-67375000D01*
D10*
X261994500Y-69775000D02*
X261994500Y-67525000D01*
X262014500Y-67175000D02*
X253814499Y-67175000D01*
X262014500Y-70775000D02*
X262014500Y-67175000D01*
X253814499Y-67174999D02*
G75*
G03*
X251714500Y-69075001I-100000J-1999999D01*
G01*
D17*
X256814500Y-70375000D02*
G75*
G03*
X254598182Y-72253529I-65001J-2169999D01*
G01*
D10*
X257214500Y-70775000D02*
G75*
G03*
X254998182Y-72653529I-65001J-2169999D01*
G01*
X232714500Y-64325000D02*
X232714500Y-65075000D01*
X232714500Y-65075000D02*
X232914500Y-65075000D01*
D12*
X232814500Y-64975000D02*
X232814500Y-64325000D01*
D10*
X232964500Y-63475000D02*
X232964500Y-67925000D01*
X232964500Y-67925000D02*
X235994500Y-67925000D01*
D13*
X233164500Y-67725000D02*
X235614500Y-67725000D01*
D14*
X233314500Y-67425000D02*
X233314500Y-65625001D01*
D15*
X234444500Y-63925000D02*
X234444500Y-66165000D01*
D10*
X238214500Y-66025000D02*
X243014500Y-66025000D01*
D16*
X241214500Y-64225000D02*
X234514500Y-64225000D01*
D17*
X242514500Y-63025000D02*
X242514500Y-65525000D01*
D13*
X242814500Y-65775000D02*
X241514500Y-65725000D01*
D18*
X242864500Y-62625000D02*
X241614500Y-62625000D01*
D10*
X242994500Y-65025000D02*
X242994500Y-62775000D01*
X243014500Y-62425000D02*
X234814499Y-62425000D01*
X243014500Y-66025000D02*
X243014500Y-62425000D01*
X234814499Y-62424999D02*
G75*
G03*
X232714500Y-64325001I-100000J-1999999D01*
G01*
D17*
X237814500Y-65625000D02*
G75*
G03*
X235598182Y-67503529I-65001J-2169999D01*
G01*
D10*
X238214500Y-66025000D02*
G75*
G03*
X235998182Y-67903529I-65001J-2169999D01*
G01*
X270714500Y-31075000D02*
X270714500Y-31825000D01*
X270714500Y-31825000D02*
X270914500Y-31825000D01*
D12*
X270814500Y-31725000D02*
X270814500Y-31075000D01*
D10*
X270964500Y-30225000D02*
X270964500Y-34675000D01*
X270964500Y-34675000D02*
X273994500Y-34675000D01*
D13*
X271164500Y-34475000D02*
X273614500Y-34475000D01*
D14*
X271314500Y-34175000D02*
X271314500Y-32375001D01*
D15*
X272444500Y-30675000D02*
X272444500Y-32915000D01*
D10*
X276214500Y-32775000D02*
X281014500Y-32775000D01*
D16*
X279214500Y-30975000D02*
X272514500Y-30975000D01*
D17*
X280514500Y-29775000D02*
X280514500Y-32275000D01*
D13*
X280814500Y-32525000D02*
X279514500Y-32475000D01*
D18*
X280864500Y-29375000D02*
X279614500Y-29375000D01*
D10*
X280994500Y-31775000D02*
X280994500Y-29525000D01*
X281014500Y-29175000D02*
X272814499Y-29175000D01*
X281014500Y-32775000D02*
X281014500Y-29175000D01*
X272814499Y-29174999D02*
G75*
G03*
X270714500Y-31075001I-100000J-1999999D01*
G01*
D17*
X275814500Y-32375000D02*
G75*
G03*
X273598182Y-34253529I-65001J-2169999D01*
G01*
D10*
X276214500Y-32775000D02*
G75*
G03*
X273998182Y-34653529I-65001J-2169999D01*
G01*
X251714500Y-31075000D02*
X251714500Y-31825000D01*
X251714500Y-31825000D02*
X251914500Y-31825000D01*
D12*
X251814500Y-31725000D02*
X251814500Y-31075000D01*
D10*
X251964500Y-30225000D02*
X251964500Y-34675000D01*
X251964500Y-34675000D02*
X254994500Y-34675000D01*
D13*
X252164500Y-34475000D02*
X254614500Y-34475000D01*
D14*
X252314500Y-34175000D02*
X252314500Y-32375001D01*
D15*
X253444500Y-30675000D02*
X253444500Y-32915000D01*
D10*
X257214500Y-32775000D02*
X262014500Y-32775000D01*
D16*
X260214500Y-30975000D02*
X253514500Y-30975000D01*
D17*
X261514500Y-29775000D02*
X261514500Y-32275000D01*
D13*
X261814500Y-32525000D02*
X260514500Y-32475000D01*
D18*
X261864500Y-29375000D02*
X260614500Y-29375000D01*
D10*
X261994500Y-31775000D02*
X261994500Y-29525000D01*
X262014500Y-29175000D02*
X253814499Y-29175000D01*
X262014500Y-32775000D02*
X262014500Y-29175000D01*
X253814499Y-29174999D02*
G75*
G03*
X251714500Y-31075001I-100000J-1999999D01*
G01*
D17*
X256814500Y-32375000D02*
G75*
G03*
X254598182Y-34253529I-65001J-2169999D01*
G01*
D10*
X257214500Y-32775000D02*
G75*
G03*
X254998182Y-34653529I-65001J-2169999D01*
G01*
X232714500Y-45325000D02*
X232714500Y-46075000D01*
X232714500Y-46075000D02*
X232914500Y-46075000D01*
D12*
X232814500Y-45975000D02*
X232814500Y-45325000D01*
D10*
X232964500Y-44475000D02*
X232964500Y-48925000D01*
X232964500Y-48925000D02*
X235994500Y-48925000D01*
D13*
X233164500Y-48725000D02*
X235614500Y-48725000D01*
D14*
X233314500Y-48425000D02*
X233314500Y-46625001D01*
D15*
X234444500Y-44925000D02*
X234444500Y-47165000D01*
D10*
X238214500Y-47025000D02*
X243014500Y-47025000D01*
D16*
X241214500Y-45225000D02*
X234514500Y-45225000D01*
D17*
X242514500Y-44025000D02*
X242514500Y-46525000D01*
D13*
X242814500Y-46775000D02*
X241514500Y-46725000D01*
D18*
X242864500Y-43625000D02*
X241614500Y-43625000D01*
D10*
X242994500Y-46025000D02*
X242994500Y-43775000D01*
X243014500Y-43425000D02*
X234814499Y-43425000D01*
X243014500Y-47025000D02*
X243014500Y-43425000D01*
X234814499Y-43424999D02*
G75*
G03*
X232714500Y-45325001I-100000J-1999999D01*
G01*
D17*
X237814500Y-46625000D02*
G75*
G03*
X235598182Y-48503529I-65001J-2169999D01*
G01*
D10*
X238214500Y-47025000D02*
G75*
G03*
X235998182Y-48903529I-65001J-2169999D01*
G01*
X213714500Y-42950000D02*
X213714500Y-43700000D01*
X213714500Y-43700000D02*
X213914500Y-43700000D01*
D12*
X213814500Y-43600000D02*
X213814500Y-42950000D01*
D10*
X213964500Y-42100000D02*
X213964500Y-46550000D01*
X213964500Y-46550000D02*
X216994500Y-46550000D01*
D13*
X214164500Y-46350000D02*
X216614500Y-46350000D01*
D14*
X214314500Y-46050000D02*
X214314500Y-44250001D01*
D15*
X215444500Y-42550000D02*
X215444500Y-44790000D01*
D10*
X219214500Y-44650000D02*
X224014500Y-44650000D01*
D16*
X222214500Y-42850000D02*
X215514500Y-42850000D01*
D17*
X223514500Y-41650000D02*
X223514500Y-44150000D01*
D13*
X223814500Y-44400000D02*
X222514500Y-44350000D01*
D18*
X223864500Y-41250000D02*
X222614500Y-41250000D01*
D10*
X223994500Y-43650000D02*
X223994500Y-41400000D01*
X224014500Y-41050000D02*
X215814499Y-41050000D01*
X224014500Y-44650000D02*
X224014500Y-41050000D01*
X215814499Y-41049999D02*
G75*
G03*
X213714500Y-42950001I-100000J-1999999D01*
G01*
D17*
X218814500Y-44250000D02*
G75*
G03*
X216598182Y-46128529I-65001J-2169999D01*
G01*
D10*
X219214500Y-44650000D02*
G75*
G03*
X216998182Y-46528529I-65001J-2169999D01*
G01*
X194714500Y-45325000D02*
X194714500Y-46075000D01*
X194714500Y-46075000D02*
X194914500Y-46075000D01*
D12*
X194814500Y-45975000D02*
X194814500Y-45325000D01*
D10*
X194964500Y-44475000D02*
X194964500Y-48925000D01*
X194964500Y-48925000D02*
X197994500Y-48925000D01*
D13*
X195164500Y-48725000D02*
X197614500Y-48725000D01*
D14*
X195314500Y-48425000D02*
X195314500Y-46625001D01*
D15*
X196444500Y-44925000D02*
X196444500Y-47165000D01*
D10*
X200214500Y-47025000D02*
X205014500Y-47025000D01*
D16*
X203214500Y-45225000D02*
X196514500Y-45225000D01*
D17*
X204514500Y-44025000D02*
X204514500Y-46525000D01*
D13*
X204814500Y-46775000D02*
X203514500Y-46725000D01*
D18*
X204864500Y-43625000D02*
X203614500Y-43625000D01*
D10*
X204994500Y-46025000D02*
X204994500Y-43775000D01*
X205014500Y-43425000D02*
X196814499Y-43425000D01*
X205014500Y-47025000D02*
X205014500Y-43425000D01*
X196814499Y-43424999D02*
G75*
G03*
X194714500Y-45325001I-100000J-1999999D01*
G01*
D17*
X199814500Y-46625000D02*
G75*
G03*
X197598182Y-48503529I-65001J-2169999D01*
G01*
D10*
X200214500Y-47025000D02*
G75*
G03*
X197998182Y-48903529I-65001J-2169999D01*
G01*
X175714500Y-47700000D02*
X175714500Y-48450000D01*
X175714500Y-48450000D02*
X175914500Y-48450000D01*
D12*
X175814500Y-48350000D02*
X175814500Y-47700000D01*
D10*
X175964500Y-46850000D02*
X175964500Y-51300000D01*
X175964500Y-51300000D02*
X178994500Y-51300000D01*
D13*
X176164500Y-51100000D02*
X178614500Y-51100000D01*
D14*
X176314500Y-50800000D02*
X176314500Y-49000001D01*
D15*
X177444500Y-47300000D02*
X177444500Y-49540000D01*
D10*
X181214500Y-49400000D02*
X186014500Y-49400000D01*
D16*
X184214500Y-47600000D02*
X177514500Y-47600000D01*
D17*
X185514500Y-46400000D02*
X185514500Y-48900000D01*
D13*
X185814500Y-49150000D02*
X184514500Y-49100000D01*
D18*
X185864500Y-46000000D02*
X184614500Y-46000000D01*
D10*
X185994500Y-48400000D02*
X185994500Y-46150000D01*
X186014500Y-45800000D02*
X177814499Y-45800000D01*
X186014500Y-49400000D02*
X186014500Y-45800000D01*
X177814499Y-45799999D02*
G75*
G03*
X175714500Y-47700001I-100000J-1999999D01*
G01*
D17*
X180814500Y-49000000D02*
G75*
G03*
X178598182Y-50878529I-65001J-2169999D01*
G01*
D10*
X181214500Y-49400000D02*
G75*
G03*
X178998182Y-51278529I-65001J-2169999D01*
G01*
X270714500Y-69075000D02*
X270714500Y-69825000D01*
X270714500Y-69825000D02*
X270914500Y-69825000D01*
D12*
X270814500Y-69725000D02*
X270814500Y-69075000D01*
D10*
X270964500Y-68225000D02*
X270964500Y-72675000D01*
X270964500Y-72675000D02*
X273994500Y-72675000D01*
D13*
X271164500Y-72475000D02*
X273614500Y-72475000D01*
D14*
X271314500Y-72175000D02*
X271314500Y-70375001D01*
D15*
X272444500Y-68675000D02*
X272444500Y-70915000D01*
D10*
X276214500Y-70775000D02*
X281014500Y-70775000D01*
D16*
X279214500Y-68975000D02*
X272514500Y-68975000D01*
D17*
X280514500Y-67775000D02*
X280514500Y-70275000D01*
D13*
X280814500Y-70525000D02*
X279514500Y-70475000D01*
D18*
X280864500Y-67375000D02*
X279614500Y-67375000D01*
D10*
X280994500Y-69775000D02*
X280994500Y-67525000D01*
X281014500Y-67175000D02*
X272814499Y-67175000D01*
X281014500Y-70775000D02*
X281014500Y-67175000D01*
X272814499Y-67174999D02*
G75*
G03*
X270714500Y-69075001I-100000J-1999999D01*
G01*
D17*
X275814500Y-70375000D02*
G75*
G03*
X273598182Y-72253529I-65001J-2169999D01*
G01*
D10*
X276214500Y-70775000D02*
G75*
G03*
X273998182Y-72653529I-65001J-2169999D01*
G01*
X14207500Y-31080000D02*
X14207500Y-31830000D01*
X14207500Y-31830000D02*
X14407500Y-31830000D01*
D12*
X14307500Y-31730000D02*
X14307500Y-31080000D01*
D10*
X14457500Y-30230000D02*
X14457500Y-34680000D01*
X14457500Y-34680000D02*
X17487500Y-34680000D01*
D13*
X14657500Y-34480000D02*
X17107500Y-34480000D01*
D14*
X14807500Y-34180000D02*
X14807500Y-32380001D01*
D15*
X15937500Y-30680000D02*
X15937500Y-32920000D01*
D10*
X19707500Y-32780000D02*
X24507500Y-32780000D01*
D16*
X22707500Y-30980000D02*
X16007500Y-30980000D01*
D17*
X24007500Y-29780000D02*
X24007500Y-32280000D01*
D13*
X24307500Y-32530000D02*
X23007500Y-32480000D01*
D18*
X24357500Y-29380000D02*
X23107500Y-29380000D01*
D10*
X24487500Y-31780000D02*
X24487500Y-29530000D01*
X24507500Y-29180000D02*
X16307499Y-29180000D01*
X24507500Y-32780000D02*
X24507500Y-29180000D01*
X16307499Y-29179999D02*
G75*
G03*
X14207500Y-31080001I-100000J-1999999D01*
G01*
D17*
X19307500Y-32380000D02*
G75*
G03*
X17091182Y-34258529I-65001J-2169999D01*
G01*
D10*
X19707500Y-32780000D02*
G75*
G03*
X17491182Y-34658529I-65001J-2169999D01*
G01*
X109207500Y-28705000D02*
X109207500Y-29455000D01*
X109207500Y-29455000D02*
X109407500Y-29455000D01*
D12*
X109307500Y-29355000D02*
X109307500Y-28705000D01*
D10*
X109457500Y-27855000D02*
X109457500Y-32305000D01*
X109457500Y-32305000D02*
X112487500Y-32305000D01*
D13*
X109657500Y-32105000D02*
X112107500Y-32105000D01*
D14*
X109807500Y-31805000D02*
X109807500Y-30005001D01*
D15*
X110937500Y-28305000D02*
X110937500Y-30545000D01*
D10*
X114707500Y-30405000D02*
X119507500Y-30405000D01*
D16*
X117707500Y-28605000D02*
X111007500Y-28605000D01*
D17*
X119007500Y-27405000D02*
X119007500Y-29905000D01*
D13*
X119307500Y-30155000D02*
X118007500Y-30105000D01*
D18*
X119357500Y-27005000D02*
X118107500Y-27005000D01*
D10*
X119487500Y-29405000D02*
X119487500Y-27155000D01*
X119507500Y-26805000D02*
X111307499Y-26805000D01*
X119507500Y-30405000D02*
X119507500Y-26805000D01*
X111307499Y-26804999D02*
G75*
G03*
X109207500Y-28705001I-100000J-1999999D01*
G01*
D17*
X114307500Y-30005000D02*
G75*
G03*
X112091182Y-31883529I-65001J-2169999D01*
G01*
D10*
X114707500Y-30405000D02*
G75*
G03*
X112491182Y-32283529I-65001J-2169999D01*
G01*
X175707500Y-28705000D02*
X175707500Y-29455000D01*
X175707500Y-29455000D02*
X175907500Y-29455000D01*
D12*
X175807500Y-29355000D02*
X175807500Y-28705000D01*
D10*
X175957500Y-27855000D02*
X175957500Y-32305000D01*
X175957500Y-32305000D02*
X178987500Y-32305000D01*
D13*
X176157500Y-32105000D02*
X178607500Y-32105000D01*
D14*
X176307500Y-31805000D02*
X176307500Y-30005001D01*
D15*
X177437500Y-28305000D02*
X177437500Y-30545000D01*
D10*
X181207500Y-30405000D02*
X186007500Y-30405000D01*
D16*
X184207500Y-28605000D02*
X177507500Y-28605000D01*
D17*
X185507500Y-27405000D02*
X185507500Y-29905000D01*
D13*
X185807500Y-30155000D02*
X184507500Y-30105000D01*
D18*
X185857500Y-27005000D02*
X184607500Y-27005000D01*
D10*
X185987500Y-29405000D02*
X185987500Y-27155000D01*
X186007500Y-26805000D02*
X177807499Y-26805000D01*
X186007500Y-30405000D02*
X186007500Y-26805000D01*
X177807499Y-26804999D02*
G75*
G03*
X175707500Y-28705001I-100000J-1999999D01*
G01*
D17*
X180807500Y-30005000D02*
G75*
G03*
X178591182Y-31883529I-65001J-2169999D01*
G01*
D10*
X181207500Y-30405000D02*
G75*
G03*
X178991182Y-32283529I-65001J-2169999D01*
G01*
D19*
X153203500Y-61080000D02*
X153203500Y-28060000D01*
X170983500Y-28060000D02*
X170983500Y-61080000D01*
X170983500Y-61080000D02*
X153203500Y-61080000D01*
X125907500Y-61080000D02*
X125907500Y-28060000D01*
X143687500Y-28060000D02*
X143687500Y-61080000D01*
X143687500Y-61080000D02*
X125907500Y-61080000D01*
D10*
X26984500Y-38476875D02*
X26984500Y-33076875D01*
X28484500Y-38476875D02*
X26984500Y-38476875D01*
X28234500Y-36276875D02*
X27234500Y-36276875D01*
X27734500Y-36176875D02*
X28234500Y-35276875D01*
X27234500Y-35276875D02*
X27734500Y-36176875D01*
X28234500Y-35276875D02*
X27234500Y-35276875D01*
X28484500Y-33076875D02*
X28484500Y-38476875D01*
X28484500Y-33076875D02*
X26984500Y-33076875D01*
X45984500Y-38480000D02*
X45984500Y-33080000D01*
X47484500Y-38480000D02*
X45984500Y-38480000D01*
X47234500Y-36280000D02*
X46234500Y-36280000D01*
X46734500Y-36180000D02*
X47234500Y-35280000D01*
X46234500Y-35280000D02*
X46734500Y-36180000D01*
X47234500Y-35280000D02*
X46234500Y-35280000D01*
X47484500Y-33080000D02*
X47484500Y-38480000D01*
X47484500Y-33080000D02*
X45984500Y-33080000D01*
X64957500Y-33480000D02*
X64957500Y-28080000D01*
X66457500Y-33480000D02*
X64957500Y-33480000D01*
X66207500Y-31280000D02*
X65207500Y-31280000D01*
X65707500Y-31180000D02*
X66207500Y-30280000D01*
X65207500Y-30280000D02*
X65707500Y-31180000D01*
X66207500Y-30280000D02*
X65207500Y-30280000D01*
X66457500Y-28080000D02*
X66457500Y-33480000D01*
X66457500Y-28080000D02*
X64957500Y-28080000D01*
X83957500Y-31355000D02*
X83957500Y-25955000D01*
X85457500Y-31355000D02*
X83957500Y-31355000D01*
X85207500Y-29155000D02*
X84207500Y-29155000D01*
X84707500Y-29055000D02*
X85207500Y-28155000D01*
X84207500Y-28155000D02*
X84707500Y-29055000D01*
X85207500Y-28155000D02*
X84207500Y-28155000D01*
X85457500Y-25955000D02*
X85457500Y-31355000D01*
X85457500Y-25955000D02*
X83957500Y-25955000D01*
X102957500Y-33730000D02*
X102957500Y-28330000D01*
X104457500Y-33730000D02*
X102957500Y-33730000D01*
X104207500Y-31530000D02*
X103207500Y-31530000D01*
X103707500Y-31430000D02*
X104207500Y-30530000D01*
X103207500Y-30530000D02*
X103707500Y-31430000D01*
X104207500Y-30530000D02*
X103207500Y-30530000D01*
X104457500Y-28330000D02*
X104457500Y-33730000D01*
X104457500Y-28330000D02*
X102957500Y-28330000D01*
X121957500Y-36105000D02*
X121957500Y-30705000D01*
X123457500Y-36105000D02*
X121957500Y-36105000D01*
X123207500Y-33905000D02*
X122207500Y-33905000D01*
X122707500Y-33805000D02*
X123207500Y-32905000D01*
X122207500Y-32905000D02*
X122707500Y-33805000D01*
X123207500Y-32905000D02*
X122207500Y-32905000D01*
X123457500Y-30705000D02*
X123457500Y-36105000D01*
X123457500Y-30705000D02*
X121957500Y-30705000D01*
X26984500Y-57476875D02*
X26984500Y-52076875D01*
X28484500Y-57476875D02*
X26984500Y-57476875D01*
X28234500Y-55276875D02*
X27234500Y-55276875D01*
X27734500Y-55176875D02*
X28234500Y-54276875D01*
X27234500Y-54276875D02*
X27734500Y-55176875D01*
X28234500Y-54276875D02*
X27234500Y-54276875D01*
X28484500Y-52076875D02*
X28484500Y-57476875D01*
X28484500Y-52076875D02*
X26984500Y-52076875D01*
X45984500Y-57480000D02*
X45984500Y-52080000D01*
X47484500Y-57480000D02*
X45984500Y-57480000D01*
X47234500Y-55280000D02*
X46234500Y-55280000D01*
X46734500Y-55180000D02*
X47234500Y-54280000D01*
X46234500Y-54280000D02*
X46734500Y-55180000D01*
X47234500Y-54280000D02*
X46234500Y-54280000D01*
X47484500Y-52080000D02*
X47484500Y-57480000D01*
X47484500Y-52080000D02*
X45984500Y-52080000D01*
X64957500Y-52730000D02*
X64957500Y-47330000D01*
X66457500Y-52730000D02*
X64957500Y-52730000D01*
X66207500Y-50530000D02*
X65207500Y-50530000D01*
X65707500Y-50430000D02*
X66207500Y-49530000D01*
X65207500Y-49530000D02*
X65707500Y-50430000D01*
X66207500Y-49530000D02*
X65207500Y-49530000D01*
X66457500Y-47330000D02*
X66457500Y-52730000D01*
X66457500Y-47330000D02*
X64957500Y-47330000D01*
X83957500Y-50355000D02*
X83957500Y-44955000D01*
X85457500Y-50355000D02*
X83957500Y-50355000D01*
X85207500Y-48155000D02*
X84207500Y-48155000D01*
X84707500Y-48055000D02*
X85207500Y-47155000D01*
X84207500Y-47155000D02*
X84707500Y-48055000D01*
X85207500Y-47155000D02*
X84207500Y-47155000D01*
X85457500Y-44955000D02*
X85457500Y-50355000D01*
X85457500Y-44955000D02*
X83957500Y-44955000D01*
X102957500Y-52730000D02*
X102957500Y-47330000D01*
X104457500Y-52730000D02*
X102957500Y-52730000D01*
X104207500Y-50530000D02*
X103207500Y-50530000D01*
X103707500Y-50430000D02*
X104207500Y-49530000D01*
X103207500Y-49530000D02*
X103707500Y-50430000D01*
X104207500Y-49530000D02*
X103207500Y-49530000D01*
X104457500Y-47330000D02*
X104457500Y-52730000D01*
X104457500Y-47330000D02*
X102957500Y-47330000D01*
X121957500Y-55105000D02*
X121957500Y-49705000D01*
X123457500Y-55105000D02*
X121957500Y-55105000D01*
X123207500Y-52905000D02*
X122207500Y-52905000D01*
X122707500Y-52805000D02*
X123207500Y-51905000D01*
X122207500Y-51905000D02*
X122707500Y-52805000D01*
X123207500Y-51905000D02*
X122207500Y-51905000D01*
X123457500Y-49705000D02*
X123457500Y-55105000D01*
X123457500Y-49705000D02*
X121957500Y-49705000D01*
X26984500Y-76476875D02*
X26984500Y-71076875D01*
X28484500Y-76476875D02*
X26984500Y-76476875D01*
X28234500Y-74276875D02*
X27234500Y-74276875D01*
X27734500Y-74176875D02*
X28234500Y-73276875D01*
X27234500Y-73276875D02*
X27734500Y-74176875D01*
X28234500Y-73276875D02*
X27234500Y-73276875D01*
X28484500Y-71076875D02*
X28484500Y-76476875D01*
X28484500Y-71076875D02*
X26984500Y-71076875D01*
X45984500Y-76480000D02*
X45984500Y-71080000D01*
X47484500Y-76480000D02*
X45984500Y-76480000D01*
X47234500Y-74280000D02*
X46234500Y-74280000D01*
X46734500Y-74180000D02*
X47234500Y-73280000D01*
X46234500Y-73280000D02*
X46734500Y-74180000D01*
X47234500Y-73280000D02*
X46234500Y-73280000D01*
X47484500Y-71080000D02*
X47484500Y-76480000D01*
X47484500Y-71080000D02*
X45984500Y-71080000D01*
X64957500Y-71730000D02*
X64957500Y-66330000D01*
X66457500Y-71730000D02*
X64957500Y-71730000D01*
X66207500Y-69530000D02*
X65207500Y-69530000D01*
X65707500Y-69430000D02*
X66207500Y-68530000D01*
X65207500Y-68530000D02*
X65707500Y-69430000D01*
X66207500Y-68530000D02*
X65207500Y-68530000D01*
X66457500Y-66330000D02*
X66457500Y-71730000D01*
X66457500Y-66330000D02*
X64957500Y-66330000D01*
X83957500Y-69355000D02*
X83957500Y-63955000D01*
X85457500Y-69355000D02*
X83957500Y-69355000D01*
X85207500Y-67155000D02*
X84207500Y-67155000D01*
X84707500Y-67055000D02*
X85207500Y-66155000D01*
X84207500Y-66155000D02*
X84707500Y-67055000D01*
X85207500Y-66155000D02*
X84207500Y-66155000D01*
X85457500Y-63955000D02*
X85457500Y-69355000D01*
X85457500Y-63955000D02*
X83957500Y-63955000D01*
X102957500Y-71730000D02*
X102957500Y-66330000D01*
X104457500Y-71730000D02*
X102957500Y-71730000D01*
X104207500Y-69530000D02*
X103207500Y-69530000D01*
X103707500Y-69430000D02*
X104207500Y-68530000D01*
X103207500Y-68530000D02*
X103707500Y-69430000D01*
X104207500Y-68530000D02*
X103207500Y-68530000D01*
X104457500Y-66330000D02*
X104457500Y-71730000D01*
X104457500Y-66330000D02*
X102957500Y-66330000D01*
X121957500Y-74105000D02*
X121957500Y-68705000D01*
X123457500Y-74105000D02*
X121957500Y-74105000D01*
X123207500Y-71905000D02*
X122207500Y-71905000D01*
X122707500Y-71805000D02*
X123207500Y-70905000D01*
X122207500Y-70905000D02*
X122707500Y-71805000D01*
X123207500Y-70905000D02*
X122207500Y-70905000D01*
X123457500Y-68705000D02*
X123457500Y-74105000D01*
X123457500Y-68705000D02*
X121957500Y-68705000D01*
X75407500Y-91470000D02*
X75407500Y-86070000D01*
X76907500Y-91470000D02*
X75407500Y-91470000D01*
X76657500Y-89270000D02*
X75657500Y-89270000D01*
X76157500Y-89170000D02*
X76657500Y-88270000D01*
X75657500Y-88270000D02*
X76157500Y-89170000D01*
X76657500Y-88270000D02*
X75657500Y-88270000D01*
X76907500Y-86070000D02*
X76907500Y-91470000D01*
X76907500Y-86070000D02*
X75407500Y-86070000D01*
X94414500Y-91465000D02*
X94414500Y-86065000D01*
X95914500Y-91465000D02*
X94414500Y-91465000D01*
X95664500Y-89265000D02*
X94664500Y-89265000D01*
X95164500Y-89165000D02*
X95664500Y-88265000D01*
X94664500Y-88265000D02*
X95164500Y-89165000D01*
X95664500Y-88265000D02*
X94664500Y-88265000D01*
X95914500Y-86065000D02*
X95914500Y-91465000D01*
X95914500Y-86065000D02*
X94414500Y-86065000D01*
X97257500Y-91465000D02*
X97257500Y-86065000D01*
X98757500Y-91465000D02*
X97257500Y-91465000D01*
X98507500Y-89265000D02*
X97507500Y-89265000D01*
X98007500Y-89165000D02*
X98507500Y-88265000D01*
X97507500Y-88265000D02*
X98007500Y-89165000D01*
X98507500Y-88265000D02*
X97507500Y-88265000D01*
X98757500Y-86065000D02*
X98757500Y-91465000D01*
X98757500Y-86065000D02*
X97257500Y-86065000D01*
D20*
X16207500Y-38680000D02*
X24007500Y-38680000D01*
X16207500Y-40280000D02*
X16207500Y-38680000D01*
X24007500Y-42380000D02*
X16207500Y-42380000D01*
X35207500Y-38680000D02*
X43007500Y-38680000D01*
X35207500Y-40280000D02*
X35207500Y-38680000D01*
X43007500Y-42380000D02*
X35207500Y-42380000D01*
X54207500Y-33930000D02*
X62007500Y-33930000D01*
X54207500Y-35530000D02*
X54207500Y-33930000D01*
X62007500Y-37630000D02*
X54207500Y-37630000D01*
X73207500Y-31555000D02*
X81007500Y-31555000D01*
X73207500Y-33155000D02*
X73207500Y-31555000D01*
X81007500Y-35255000D02*
X73207500Y-35255000D01*
X92207500Y-33930000D02*
X100007500Y-33930000D01*
X92207500Y-35530000D02*
X92207500Y-33930000D01*
X100007500Y-37630000D02*
X92207500Y-37630000D01*
X111207500Y-36305000D02*
X119007500Y-36305000D01*
X111207500Y-37905000D02*
X111207500Y-36305000D01*
X119007500Y-40005000D02*
X111207500Y-40005000D01*
X16207500Y-57680000D02*
X24007500Y-57680000D01*
X16207500Y-59280000D02*
X16207500Y-57680000D01*
X24007500Y-61380000D02*
X16207500Y-61380000D01*
X35207500Y-57680000D02*
X43007500Y-57680000D01*
X35207500Y-59280000D02*
X35207500Y-57680000D01*
X43007500Y-61380000D02*
X35207500Y-61380000D01*
X54207500Y-52930000D02*
X62007500Y-52930000D01*
X54207500Y-54530000D02*
X54207500Y-52930000D01*
X62007500Y-56630000D02*
X54207500Y-56630000D01*
X73207500Y-50555000D02*
X81007500Y-50555000D01*
X73207500Y-52155000D02*
X73207500Y-50555000D01*
X81007500Y-54255000D02*
X73207500Y-54255000D01*
X92207500Y-52930000D02*
X100007500Y-52930000D01*
X92207500Y-54530000D02*
X92207500Y-52930000D01*
X100007500Y-56630000D02*
X92207500Y-56630000D01*
X111207500Y-55305000D02*
X119007500Y-55305000D01*
X111207500Y-56905000D02*
X111207500Y-55305000D01*
X119007500Y-59005000D02*
X111207500Y-59005000D01*
X16207500Y-76680000D02*
X24007500Y-76680000D01*
X16207500Y-78280000D02*
X16207500Y-76680000D01*
X24007500Y-80380000D02*
X16207500Y-80380000D01*
X35207500Y-76680000D02*
X43007500Y-76680000D01*
X35207500Y-78280000D02*
X35207500Y-76680000D01*
X43007500Y-80380000D02*
X35207500Y-80380000D01*
X54207500Y-71930000D02*
X62007500Y-71930000D01*
X54207500Y-73530000D02*
X54207500Y-71930000D01*
X62007500Y-75630000D02*
X54207500Y-75630000D01*
X73207500Y-69555000D02*
X81007500Y-69555000D01*
X73207500Y-71155000D02*
X73207500Y-69555000D01*
X81007500Y-73255000D02*
X73207500Y-73255000D01*
X111207500Y-74305000D02*
X119007500Y-74305000D01*
X111207500Y-75905000D02*
X111207500Y-74305000D01*
X119007500Y-78005000D02*
X111207500Y-78005000D01*
X130418974Y-99982499D02*
X134318974Y-93227501D01*
X131804615Y-100782499D02*
X130418974Y-99982499D01*
X137523268Y-95077501D02*
X133623268Y-101832499D01*
X215707500Y-50555000D02*
X223507500Y-50555000D01*
X215707500Y-52155000D02*
X215707500Y-50555000D01*
X223507500Y-54255000D02*
X215707500Y-54255000D01*
X196707500Y-52930000D02*
X204507500Y-52930000D01*
X196707500Y-54530000D02*
X196707500Y-52930000D01*
X204507500Y-56630000D02*
X196707500Y-56630000D01*
X177707500Y-55305000D02*
X185507500Y-55305000D01*
X177707500Y-56905000D02*
X177707500Y-55305000D01*
X185507500Y-59005000D02*
X177707500Y-59005000D01*
X272707500Y-76680000D02*
X280507500Y-76680000D01*
X272707500Y-78280000D02*
X272707500Y-76680000D01*
X280507500Y-80380000D02*
X272707500Y-80380000D01*
X253707500Y-76680000D02*
X261507500Y-76680000D01*
X253707500Y-78280000D02*
X253707500Y-76680000D01*
X261507500Y-80380000D02*
X253707500Y-80380000D01*
X234707500Y-71930000D02*
X242507500Y-71930000D01*
X234707500Y-73530000D02*
X234707500Y-71930000D01*
X242507500Y-75630000D02*
X234707500Y-75630000D01*
X215707500Y-69555000D02*
X223507500Y-69555000D01*
X215707500Y-71155000D02*
X215707500Y-69555000D01*
X223507500Y-73255000D02*
X215707500Y-73255000D01*
X196707500Y-71930000D02*
X204507500Y-71930000D01*
X196707500Y-73530000D02*
X196707500Y-71930000D01*
X204507500Y-75630000D02*
X196707500Y-75630000D01*
X177707500Y-74305000D02*
X185507500Y-74305000D01*
X177707500Y-75905000D02*
X177707500Y-74305000D01*
X185507500Y-78005000D02*
X177707500Y-78005000D01*
X206207500Y-91555000D02*
X214007500Y-91555000D01*
X206207500Y-93155000D02*
X206207500Y-91555000D01*
X214007500Y-95255000D02*
X206207500Y-95255000D01*
X186097964Y-95210579D02*
X193632185Y-93191791D01*
X186512075Y-96756061D02*
X186097964Y-95210579D01*
X194589816Y-96765717D02*
X187055595Y-98784505D01*
D10*
X264464500Y-38475000D02*
X264464500Y-33075000D01*
X265964500Y-38475000D02*
X264464500Y-38475000D01*
X265714500Y-36275000D02*
X264714500Y-36275000D01*
X265214500Y-36175000D02*
X265714500Y-35275000D01*
X264714500Y-35275000D02*
X265214500Y-36175000D01*
X265714500Y-35275000D02*
X264714500Y-35275000D01*
X265964500Y-33075000D02*
X265964500Y-38475000D01*
X265964500Y-33075000D02*
X264464500Y-33075000D01*
X245464500Y-33725000D02*
X245464500Y-28325000D01*
X246964500Y-33725000D02*
X245464500Y-33725000D01*
X246714500Y-31525000D02*
X245714500Y-31525000D01*
X246214500Y-31425000D02*
X246714500Y-30525000D01*
X245714500Y-30525000D02*
X246214500Y-31425000D01*
X246714500Y-30525000D02*
X245714500Y-30525000D01*
X246964500Y-28325000D02*
X246964500Y-33725000D01*
X246964500Y-28325000D02*
X245464500Y-28325000D01*
X226464500Y-31350000D02*
X226464500Y-25950000D01*
X227964500Y-31350000D02*
X226464500Y-31350000D01*
X227714500Y-29150000D02*
X226714500Y-29150000D01*
X227214500Y-29050000D02*
X227714500Y-28150000D01*
X226714500Y-28150000D02*
X227214500Y-29050000D01*
X227714500Y-28150000D02*
X226714500Y-28150000D01*
X227964500Y-25950000D02*
X227964500Y-31350000D01*
X227964500Y-25950000D02*
X226464500Y-25950000D01*
X188457500Y-36105000D02*
X188457500Y-30705000D01*
X189957500Y-36105000D02*
X188457500Y-36105000D01*
X189707500Y-33905000D02*
X188707500Y-33905000D01*
X189207500Y-33805000D02*
X189707500Y-32905000D01*
X188707500Y-32905000D02*
X189207500Y-33805000D01*
X189707500Y-32905000D02*
X188707500Y-32905000D01*
X189957500Y-30705000D02*
X189957500Y-36105000D01*
X189957500Y-30705000D02*
X188457500Y-30705000D01*
X283464500Y-57325000D02*
X283464500Y-51925000D01*
X284964500Y-57325000D02*
X283464500Y-57325000D01*
X284714500Y-55125000D02*
X283714500Y-55125000D01*
X284214500Y-55025000D02*
X284714500Y-54125000D01*
X283714500Y-54125000D02*
X284214500Y-55025000D01*
X284714500Y-54125000D02*
X283714500Y-54125000D01*
X284964500Y-51925000D02*
X284964500Y-57325000D01*
X284964500Y-51925000D02*
X283464500Y-51925000D01*
X264464500Y-57475000D02*
X264464500Y-52075000D01*
X265964500Y-57475000D02*
X264464500Y-57475000D01*
X265714500Y-55275000D02*
X264714500Y-55275000D01*
X265214500Y-55175000D02*
X265714500Y-54275000D01*
X264714500Y-54275000D02*
X265214500Y-55175000D01*
X265714500Y-54275000D02*
X264714500Y-54275000D01*
X265964500Y-52075000D02*
X265964500Y-57475000D01*
X265964500Y-52075000D02*
X264464500Y-52075000D01*
X245464500Y-52725000D02*
X245464500Y-47325000D01*
X246964500Y-52725000D02*
X245464500Y-52725000D01*
X246714500Y-50525000D02*
X245714500Y-50525000D01*
X246214500Y-50425000D02*
X246714500Y-49525000D01*
X245714500Y-49525000D02*
X246214500Y-50425000D01*
X246714500Y-49525000D02*
X245714500Y-49525000D01*
X246964500Y-47325000D02*
X246964500Y-52725000D01*
X246964500Y-47325000D02*
X245464500Y-47325000D01*
X226464500Y-50350000D02*
X226464500Y-44950000D01*
X227964500Y-50350000D02*
X226464500Y-50350000D01*
X227714500Y-48150000D02*
X226714500Y-48150000D01*
X227214500Y-48050000D02*
X227714500Y-47150000D01*
X226714500Y-47150000D02*
X227214500Y-48050000D01*
X227714500Y-47150000D02*
X226714500Y-47150000D01*
X227964500Y-44950000D02*
X227964500Y-50350000D01*
X227964500Y-44950000D02*
X226464500Y-44950000D01*
X207464500Y-52725000D02*
X207464500Y-47325000D01*
X208964500Y-52725000D02*
X207464500Y-52725000D01*
X208714500Y-50525000D02*
X207714500Y-50525000D01*
X208214500Y-50425000D02*
X208714500Y-49525000D01*
X207714500Y-49525000D02*
X208214500Y-50425000D01*
X208714500Y-49525000D02*
X207714500Y-49525000D01*
X208964500Y-47325000D02*
X208964500Y-52725000D01*
X208964500Y-47325000D02*
X207464500Y-47325000D01*
X188457500Y-55105000D02*
X188457500Y-49705000D01*
X189957500Y-55105000D02*
X188457500Y-55105000D01*
X189707500Y-52905000D02*
X188707500Y-52905000D01*
X189207500Y-52805000D02*
X189707500Y-51905000D01*
X188707500Y-51905000D02*
X189207500Y-52805000D01*
X189707500Y-51905000D02*
X188707500Y-51905000D01*
X189957500Y-49705000D02*
X189957500Y-55105000D01*
X189957500Y-49705000D02*
X188457500Y-49705000D01*
X283464500Y-76475000D02*
X283464500Y-71075000D01*
X284964500Y-76475000D02*
X283464500Y-76475000D01*
X284714500Y-74275000D02*
X283714500Y-74275000D01*
X284214500Y-74175000D02*
X284714500Y-73275000D01*
X283714500Y-73275000D02*
X284214500Y-74175000D01*
X284714500Y-73275000D02*
X283714500Y-73275000D01*
X284964500Y-71075000D02*
X284964500Y-76475000D01*
X284964500Y-71075000D02*
X283464500Y-71075000D01*
X264464500Y-76475000D02*
X264464500Y-71075000D01*
X265964500Y-76475000D02*
X264464500Y-76475000D01*
X265714500Y-74275000D02*
X264714500Y-74275000D01*
X265214500Y-74175000D02*
X265714500Y-73275000D01*
X264714500Y-73275000D02*
X265214500Y-74175000D01*
X265714500Y-73275000D02*
X264714500Y-73275000D01*
X265964500Y-71075000D02*
X265964500Y-76475000D01*
X265964500Y-71075000D02*
X264464500Y-71075000D01*
X245464500Y-71725000D02*
X245464500Y-66325000D01*
X246964500Y-71725000D02*
X245464500Y-71725000D01*
X246714500Y-69525000D02*
X245714500Y-69525000D01*
X246214500Y-69425000D02*
X246714500Y-68525000D01*
X245714500Y-68525000D02*
X246214500Y-69425000D01*
X246714500Y-68525000D02*
X245714500Y-68525000D01*
X246964500Y-66325000D02*
X246964500Y-71725000D01*
X246964500Y-66325000D02*
X245464500Y-66325000D01*
X226464500Y-69350000D02*
X226464500Y-63950000D01*
X227964500Y-69350000D02*
X226464500Y-69350000D01*
X227714500Y-67150000D02*
X226714500Y-67150000D01*
X227214500Y-67050000D02*
X227714500Y-66150000D01*
X226714500Y-66150000D02*
X227214500Y-67050000D01*
X227714500Y-66150000D02*
X226714500Y-66150000D01*
X227964500Y-63950000D02*
X227964500Y-69350000D01*
X227964500Y-63950000D02*
X226464500Y-63950000D01*
X207464500Y-71725000D02*
X207464500Y-66325000D01*
X208964500Y-71725000D02*
X207464500Y-71725000D01*
X208714500Y-69525000D02*
X207714500Y-69525000D01*
X208214500Y-69425000D02*
X208714500Y-68525000D01*
X207714500Y-68525000D02*
X208214500Y-69425000D01*
X208714500Y-68525000D02*
X207714500Y-68525000D01*
X208964500Y-66325000D02*
X208964500Y-71725000D01*
X208964500Y-66325000D02*
X207464500Y-66325000D01*
X188457500Y-74105000D02*
X188457500Y-68705000D01*
X189957500Y-74105000D02*
X188457500Y-74105000D01*
X189707500Y-71905000D02*
X188707500Y-71905000D01*
X189207500Y-71805000D02*
X189707500Y-70905000D01*
X188707500Y-70905000D02*
X189207500Y-71805000D01*
X189707500Y-70905000D02*
X188707500Y-70905000D01*
X189957500Y-68705000D02*
X189957500Y-74105000D01*
X189957500Y-68705000D02*
X188457500Y-68705000D01*
X216964500Y-91335000D02*
X216964500Y-85935000D01*
X218464500Y-91335000D02*
X216964500Y-91335000D01*
X218214500Y-89135000D02*
X217214500Y-89135000D01*
X217714500Y-89035000D02*
X218214500Y-88135000D01*
X217214500Y-88135000D02*
X217714500Y-89035000D01*
X218214500Y-88135000D02*
X217214500Y-88135000D01*
X218464500Y-85935000D02*
X218464500Y-91335000D01*
X218464500Y-85935000D02*
X216964500Y-85935000D01*
X198914500Y-91350000D02*
X198914500Y-85950000D01*
X200414500Y-91350000D02*
X198914500Y-91350000D01*
X200164500Y-89150000D02*
X199164500Y-89150000D01*
X199664500Y-89050000D02*
X200164500Y-88150000D01*
X199164500Y-88150000D02*
X199664500Y-89050000D01*
X200164500Y-88150000D02*
X199164500Y-88150000D01*
X200414500Y-85950000D02*
X200414500Y-91350000D01*
X200414500Y-85950000D02*
X198914500Y-85950000D01*
X196064500Y-91350000D02*
X196064500Y-85950000D01*
X197564500Y-91350000D02*
X196064500Y-91350000D01*
X197314500Y-89150000D02*
X196314500Y-89150000D01*
X196814500Y-89050000D02*
X197314500Y-88150000D01*
X196314500Y-88150000D02*
X196814500Y-89050000D01*
X197314500Y-88150000D02*
X196314500Y-88150000D01*
X197564500Y-85950000D02*
X197564500Y-91350000D01*
X197564500Y-85950000D02*
X196064500Y-85950000D01*
X283464500Y-38475000D02*
X283464500Y-33075000D01*
X284964500Y-38475000D02*
X283464500Y-38475000D01*
X284714500Y-36275000D02*
X283714500Y-36275000D01*
X284214500Y-36175000D02*
X284714500Y-35275000D01*
X283714500Y-35275000D02*
X284214500Y-36175000D01*
X284714500Y-35275000D02*
X283714500Y-35275000D01*
X284964500Y-33075000D02*
X284964500Y-38475000D01*
X284964500Y-33075000D02*
X283464500Y-33075000D01*
X207464500Y-33725000D02*
X207464500Y-28325000D01*
X208964500Y-33725000D02*
X207464500Y-33725000D01*
X208714500Y-31525000D02*
X207714500Y-31525000D01*
X208214500Y-31425000D02*
X208714500Y-30525000D01*
X207714500Y-30525000D02*
X208214500Y-31425000D01*
X208714500Y-30525000D02*
X207714500Y-30525000D01*
X208964500Y-28325000D02*
X208964500Y-33725000D01*
X208964500Y-28325000D02*
X207464500Y-28325000D01*
D20*
X82707500Y-91555000D02*
X90507500Y-91555000D01*
X82707500Y-93155000D02*
X82707500Y-91555000D01*
X90507500Y-95255000D02*
X82707500Y-95255000D01*
X103089815Y-93196791D02*
X110624036Y-95215579D01*
X102675704Y-94742272D02*
X103089815Y-93196791D01*
X109666405Y-98789505D02*
X102132184Y-96770717D01*
X92207500Y-71930000D02*
X100007500Y-71930000D01*
X92207500Y-73530000D02*
X92207500Y-71930000D01*
X100007500Y-75630000D02*
X92207500Y-75630000D01*
X272707500Y-38680000D02*
X280507500Y-38680000D01*
X272707500Y-40280000D02*
X272707500Y-38680000D01*
X280507500Y-42380000D02*
X272707500Y-42380000D01*
X253707500Y-38680000D02*
X261507500Y-38680000D01*
X253707500Y-40280000D02*
X253707500Y-38680000D01*
X261507500Y-42380000D02*
X253707500Y-42380000D01*
X234707500Y-33930000D02*
X242507500Y-33930000D01*
X234707500Y-35530000D02*
X234707500Y-33930000D01*
X242507500Y-37630000D02*
X234707500Y-37630000D01*
X215707500Y-31555000D02*
X223507500Y-31555000D01*
X215707500Y-33155000D02*
X215707500Y-31555000D01*
X223507500Y-35255000D02*
X215707500Y-35255000D01*
X196707500Y-33930000D02*
X204507500Y-33930000D01*
X196707500Y-35530000D02*
X196707500Y-33930000D01*
X204507500Y-37630000D02*
X196707500Y-37630000D01*
X177707500Y-36305000D02*
X185507500Y-36305000D01*
X177707500Y-37905000D02*
X177707500Y-36305000D01*
X185507500Y-40005000D02*
X177707500Y-40005000D01*
X272707500Y-57680000D02*
X280507500Y-57680000D01*
X272707500Y-59280000D02*
X272707500Y-57680000D01*
X280507500Y-61380000D02*
X272707500Y-61380000D01*
X253707500Y-57680000D02*
X261507500Y-57680000D01*
X253707500Y-59280000D02*
X253707500Y-57680000D01*
X261507500Y-61380000D02*
X253707500Y-61380000D01*
X234707500Y-52930000D02*
X242507500Y-52930000D01*
X234707500Y-54530000D02*
X234707500Y-52930000D01*
X242507500Y-56630000D02*
X234707500Y-56630000D01*
X162403026Y-93222501D02*
X166303026Y-99977499D01*
X161017385Y-94022501D02*
X162403026Y-93222501D01*
X163098732Y-101827499D02*
X159198732Y-95072501D01*
X159473500Y-38763000D02*
X159473500Y-36103000D01*
X162073500Y-38763000D02*
X159473500Y-38763000D01*
X162073500Y-38763000D02*
X162073500Y-36103000D01*
X164673500Y-37433000D02*
X164673500Y-36103000D01*
X162073500Y-36103000D02*
X159473500Y-36103000D01*
X164673500Y-36103000D02*
X163343500Y-36103000D01*
D21*
X130397500Y-27178000D02*
X130397500Y-26693000D01*
X130397500Y-31093000D02*
X130397500Y-30608000D01*
X132765500Y-24067000D02*
X134797500Y-24067000D01*
X132765500Y-26607000D02*
X132765500Y-24067000D01*
X134797500Y-24067000D02*
X134797500Y-26693000D01*
X139197500Y-26693000D02*
X130397500Y-26693000D01*
X139197500Y-27178000D02*
X139197500Y-26693000D01*
X139197500Y-31093000D02*
X130397500Y-31093000D01*
X139197500Y-31093000D02*
X139197500Y-30608000D01*
X157657500Y-27318000D02*
X157657500Y-26833000D01*
X157657500Y-31233000D02*
X157657500Y-30748000D01*
X160025500Y-24207000D02*
X162057500Y-24207000D01*
X160025500Y-26747000D02*
X160025500Y-24207000D01*
X162057500Y-24207000D02*
X162057500Y-26833000D01*
X166457500Y-26833000D02*
X157657500Y-26833000D01*
X166457500Y-27318000D02*
X166457500Y-26833000D01*
X166457500Y-31233000D02*
X157657500Y-31233000D01*
X166457500Y-31233000D02*
X166457500Y-30748000D01*
D20*
X132315500Y-38788000D02*
X132315500Y-36128000D01*
X134915500Y-38788000D02*
X132315500Y-38788000D01*
X134915500Y-38788000D02*
X134915500Y-36128000D01*
X137515500Y-37458000D02*
X137515500Y-36128000D01*
X134915500Y-36128000D02*
X132315500Y-36128000D01*
X137515500Y-36128000D02*
X136185500Y-36128000D01*
D22*
X169713500Y-29330000D03*
X169713500Y-31870000D03*
X169713500Y-34410000D03*
X169713500Y-36950000D03*
X169713500Y-39490000D03*
X169713500Y-42030000D03*
X169713500Y-44570000D03*
X169713500Y-47110000D03*
X169713500Y-49650000D03*
X169713500Y-52190000D03*
X169713500Y-54730000D03*
X169713500Y-57270000D03*
X169713500Y-59810000D03*
X154473500Y-59810000D03*
X154473500Y-57270000D03*
X154473500Y-54730000D03*
X154473500Y-52190000D03*
X154473500Y-49650000D03*
X154473500Y-47110000D03*
X154473500Y-44570000D03*
X154473500Y-42030000D03*
X154473500Y-39490000D03*
X154473500Y-36950000D03*
X154473500Y-34410000D03*
X154473500Y-31870000D03*
X154473500Y-29330000D03*
X142417500Y-29330000D03*
X142417500Y-31870000D03*
X142417500Y-34410000D03*
X142417500Y-36950000D03*
X142417500Y-39490000D03*
X142417500Y-42030000D03*
X142417500Y-44570000D03*
X142417500Y-47110000D03*
X142417500Y-49650000D03*
X142417500Y-52190000D03*
X142417500Y-54730000D03*
X142417500Y-57270000D03*
X142417500Y-59810000D03*
X127177500Y-59810000D03*
X127177500Y-57270000D03*
X127177500Y-54730000D03*
X127177500Y-52190000D03*
X127177500Y-49650000D03*
X127177500Y-47110000D03*
X127177500Y-44570000D03*
X127177500Y-42030000D03*
X127177500Y-39490000D03*
X127177500Y-36950000D03*
X127177500Y-34410000D03*
X127177500Y-31870000D03*
X127177500Y-29330000D03*
M02*
