G04 #@! TF.GenerationSoftware,KiCad,Pcbnew,7.0.7*
G04 #@! TF.CreationDate,2024-01-09T11:53:46+08:00*
G04 #@! TF.ProjectId,corne-cherry,636f726e-652d-4636-9865-7272792e6b69,3.0.1*
G04 #@! TF.SameCoordinates,Original*
G04 #@! TF.FileFunction,Copper,L2,Bot*
G04 #@! TF.FilePolarity,Positive*
%FSLAX46Y46*%
G04 Gerber Fmt 4.6, Leading zero omitted, Abs format (unit mm)*
G04 Created by KiCad (PCBNEW 7.0.7) date 2024-01-09 11:53:46*
%MOMM*%
%LPD*%
G01*
G04 APERTURE LIST*
G04 Aperture macros list*
%AMRotRect*
0 Rectangle, with rotation*
0 The origin of the aperture is its center*
0 $1 length*
0 $2 width*
0 $3 Rotation angle, in degrees counterclockwise*
0 Add horizontal line*
21,1,$1,$2,0,0,$3*%
G04 Aperture macros list end*
G04 #@! TA.AperFunction,ComponentPad*
%ADD10O,2.500000X1.700000*%
G04 #@! TD*
G04 #@! TA.AperFunction,ComponentPad*
%ADD11O,1.397000X1.778000*%
G04 #@! TD*
G04 #@! TA.AperFunction,SMDPad,CuDef*
%ADD12R,2.550000X2.500000*%
G04 #@! TD*
G04 #@! TA.AperFunction,SMDPad,CuDef*
%ADD13RotRect,2.550000X2.500000X165.000000*%
G04 #@! TD*
G04 #@! TA.AperFunction,SMDPad,CuDef*
%ADD14RotRect,2.550000X2.500000X240.000000*%
G04 #@! TD*
G04 #@! TA.AperFunction,SMDPad,CuDef*
%ADD15RotRect,2.550000X2.500000X120.000000*%
G04 #@! TD*
G04 #@! TA.AperFunction,SMDPad,CuDef*
%ADD16RotRect,2.550000X2.500000X195.000000*%
G04 #@! TD*
G04 #@! TA.AperFunction,ComponentPad*
%ADD17C,1.524000*%
G04 #@! TD*
G04 #@! TA.AperFunction,ComponentPad*
%ADD18C,2.000000*%
G04 #@! TD*
G04 #@! TA.AperFunction,SMDPad,CuDef*
%ADD19R,1.000000X1.400000*%
G04 #@! TD*
G04 #@! TA.AperFunction,SMDPad,CuDef*
%ADD20R,1.700000X1.000000*%
G04 #@! TD*
G04 #@! TA.AperFunction,SMDPad,CuDef*
%ADD21RotRect,1.700000X1.000000X60.000000*%
G04 #@! TD*
G04 #@! TA.AperFunction,SMDPad,CuDef*
%ADD22RotRect,1.700000X1.000000X15.000000*%
G04 #@! TD*
G04 #@! TA.AperFunction,SMDPad,CuDef*
%ADD23RotRect,1.700000X1.000000X345.000000*%
G04 #@! TD*
G04 #@! TA.AperFunction,SMDPad,CuDef*
%ADD24RotRect,1.700000X1.000000X300.000000*%
G04 #@! TD*
G04 #@! TA.AperFunction,ComponentPad*
%ADD25R,1.700000X1.700000*%
G04 #@! TD*
G04 #@! TA.AperFunction,ComponentPad*
%ADD26O,1.700000X1.700000*%
G04 #@! TD*
G04 #@! TA.AperFunction,ComponentPad*
%ADD27O,1.600000X1.600000*%
G04 #@! TD*
G04 #@! TA.AperFunction,ViaPad*
%ADD28C,0.600000*%
G04 #@! TD*
G04 #@! TA.AperFunction,Conductor*
%ADD29C,0.250000*%
G04 #@! TD*
G04 #@! TA.AperFunction,Conductor*
%ADD30C,0.254000*%
G04 #@! TD*
G04 #@! TA.AperFunction,Conductor*
%ADD31C,0.500000*%
G04 #@! TD*
G04 #@! TA.AperFunction,Conductor*
%ADD32C,0.508000*%
G04 #@! TD*
G04 APERTURE END LIST*
D10*
X132477500Y-73670000D03*
X140977500Y-77870000D03*
X137977500Y-77870000D03*
X133977500Y-77870000D03*
D11*
X130948500Y-67028000D03*
X133488500Y-67028000D03*
X136028500Y-67028000D03*
X138568500Y-67028000D03*
D12*
X32022500Y-33240000D03*
X44949500Y-30700000D03*
X51022500Y-28490000D03*
X63949500Y-25950000D03*
X70022500Y-26115000D03*
X82949500Y-23575000D03*
X89022500Y-28490000D03*
X101949500Y-25950000D03*
X13022500Y-52240000D03*
X25949500Y-49700000D03*
X32022500Y-52240000D03*
X44949500Y-49700000D03*
X51022500Y-47490000D03*
X63949500Y-44950000D03*
X70022500Y-45115000D03*
X82949500Y-42575000D03*
X89022500Y-47490000D03*
X101949500Y-44950000D03*
X108022500Y-49865000D03*
X120949500Y-47325000D03*
X13022500Y-71240000D03*
X25949500Y-68700000D03*
X32022500Y-71240000D03*
X44949500Y-68700000D03*
X51022500Y-66490000D03*
X63949500Y-63950000D03*
X70022500Y-64115000D03*
X82949500Y-61575000D03*
X89022500Y-66490000D03*
X101949500Y-63950000D03*
X108022500Y-68865000D03*
X120949500Y-66325000D03*
X79522500Y-86115000D03*
X92449500Y-83575000D03*
D13*
X101421316Y-87117815D03*
X114565239Y-88010118D03*
D14*
X124115295Y-100020790D03*
X128379091Y-87555680D03*
D15*
X165521705Y-87744210D03*
X174184909Y-97669320D03*
D10*
X164337500Y-77880000D03*
X155837500Y-73680000D03*
X158837500Y-73680000D03*
X162837500Y-73680000D03*
D11*
X158177500Y-67020000D03*
X160717500Y-67020000D03*
X163257500Y-67020000D03*
X165797500Y-67020000D03*
D12*
X212529500Y-64110000D03*
X225456500Y-61570000D03*
X193529500Y-66485000D03*
X206456500Y-63945000D03*
X174529500Y-68860000D03*
X187456500Y-66320000D03*
X203029500Y-86110000D03*
X215956500Y-83570000D03*
D16*
X181613515Y-90780281D03*
X193442638Y-84981076D03*
D12*
X212529500Y-26110000D03*
X225456500Y-23570000D03*
X193529500Y-28485000D03*
X206456500Y-25945000D03*
X269529500Y-52235000D03*
X282456500Y-49695000D03*
X231529500Y-28485000D03*
X244456500Y-25945000D03*
X250529500Y-52235000D03*
X263456500Y-49695000D03*
X250529500Y-71235000D03*
X263456500Y-68695000D03*
X231529500Y-66485000D03*
X244456500Y-63945000D03*
X269529500Y-33235000D03*
X282456500Y-30695000D03*
X250529500Y-33235000D03*
X263456500Y-30695000D03*
X231529500Y-47485000D03*
X244456500Y-44945000D03*
X212529500Y-45110000D03*
X225456500Y-42570000D03*
X193529500Y-47485000D03*
X206456500Y-44945000D03*
X174529500Y-49860000D03*
X187456500Y-47320000D03*
X269529500Y-71235000D03*
X282456500Y-68695000D03*
X13022500Y-33240000D03*
X25949500Y-30700000D03*
X108022500Y-30865000D03*
X120949500Y-28325000D03*
X174522500Y-30865000D03*
X187449500Y-28325000D03*
D17*
X154557500Y-64480000D03*
X154557500Y-69480000D03*
D18*
X157057500Y-63480000D03*
X157057500Y-70480000D03*
D17*
X169713500Y-29330000D03*
X169713500Y-31870000D03*
X169713500Y-34410000D03*
X169713500Y-36950000D03*
X169713500Y-39490000D03*
X169713500Y-42030000D03*
X169713500Y-44570000D03*
X169713500Y-47110000D03*
X169713500Y-49650000D03*
X169713500Y-52190000D03*
X169713500Y-54730000D03*
X169713500Y-57270000D03*
X169713500Y-59810000D03*
X154473500Y-59810000D03*
X154473500Y-57270000D03*
X154473500Y-54730000D03*
X154473500Y-52190000D03*
X154473500Y-49650000D03*
X154473500Y-47110000D03*
X154473500Y-44570000D03*
X154473500Y-42030000D03*
X154473500Y-39490000D03*
X154473500Y-36950000D03*
X154473500Y-34410000D03*
X154473500Y-31870000D03*
X154473500Y-29330000D03*
X142357500Y-69479999D03*
X142357500Y-64479999D03*
D18*
X139857500Y-70479999D03*
X139857500Y-63479999D03*
D17*
X142417500Y-29330000D03*
X142417500Y-31870000D03*
X142417500Y-34410000D03*
X142417500Y-36950000D03*
X142417500Y-39490000D03*
X142417500Y-42030000D03*
X142417500Y-44570000D03*
X142417500Y-47110000D03*
X142417500Y-49650000D03*
X142417500Y-52190000D03*
X142417500Y-54730000D03*
X142417500Y-57270000D03*
X142417500Y-59810000D03*
X127177500Y-59810000D03*
X127177500Y-57270000D03*
X127177500Y-54730000D03*
X127177500Y-52190000D03*
X127177500Y-49650000D03*
X127177500Y-47110000D03*
X127177500Y-44570000D03*
X127177500Y-42030000D03*
X127177500Y-39490000D03*
X127177500Y-36950000D03*
X127177500Y-34410000D03*
X127177500Y-31870000D03*
X127177500Y-29330000D03*
D19*
X27734500Y-37551875D03*
X27734500Y-34001875D03*
X46734500Y-37555000D03*
X46734500Y-34005000D03*
X65707500Y-32555000D03*
X65707500Y-29005000D03*
X84707500Y-30430000D03*
X84707500Y-26880000D03*
X103707500Y-32805000D03*
X103707500Y-29255000D03*
X122707500Y-35180000D03*
X122707500Y-31630000D03*
X27734500Y-56551875D03*
X27734500Y-53001875D03*
X46734500Y-56555000D03*
X46734500Y-53005000D03*
X65707500Y-51805000D03*
X65707500Y-48255000D03*
X84707500Y-49430000D03*
X84707500Y-45880000D03*
X103707500Y-51805000D03*
X103707500Y-48255000D03*
X122707500Y-54180000D03*
X122707500Y-50630000D03*
X27734500Y-75551875D03*
X27734500Y-72001875D03*
X46734500Y-75555000D03*
X46734500Y-72005000D03*
X65707500Y-70805000D03*
X65707500Y-67255000D03*
X84707500Y-68430000D03*
X84707500Y-64880000D03*
X103707500Y-70805000D03*
X103707500Y-67255000D03*
X122707500Y-73180000D03*
X122707500Y-69630000D03*
X76157500Y-90545000D03*
X76157500Y-86995000D03*
X95164500Y-90540000D03*
X95164500Y-86990000D03*
X98007500Y-90540000D03*
X98007500Y-86990000D03*
D20*
X22857500Y-41230000D03*
X22857500Y-39830000D03*
X17357500Y-39830000D03*
X17357500Y-41230000D03*
X41857500Y-41230000D03*
X41857500Y-39830000D03*
X36357500Y-39830000D03*
X36357500Y-41230000D03*
X60857500Y-36480000D03*
X60857500Y-35080000D03*
X55357500Y-35080000D03*
X55357500Y-36480000D03*
X79857500Y-34105000D03*
X79857500Y-32705000D03*
X74357500Y-32705000D03*
X74357500Y-34105000D03*
X98857500Y-36480000D03*
X98857500Y-35080000D03*
X93357500Y-35080000D03*
X93357500Y-36480000D03*
X117857500Y-38855000D03*
X117857500Y-37455000D03*
X112357500Y-37455000D03*
X112357500Y-38855000D03*
X22857500Y-60230000D03*
X22857500Y-58830000D03*
X17357500Y-58830000D03*
X17357500Y-60230000D03*
X41857500Y-60230000D03*
X41857500Y-58830000D03*
X36357500Y-58830000D03*
X36357500Y-60230000D03*
X60857500Y-55480000D03*
X60857500Y-54080000D03*
X55357500Y-54080000D03*
X55357500Y-55480000D03*
X79857500Y-53105000D03*
X79857500Y-51705000D03*
X74357500Y-51705000D03*
X74357500Y-53105000D03*
X98857500Y-55480000D03*
X98857500Y-54080000D03*
X93357500Y-54080000D03*
X93357500Y-55480000D03*
X117857500Y-57855000D03*
X117857500Y-56455000D03*
X112357500Y-56455000D03*
X112357500Y-57855000D03*
X22857500Y-79230000D03*
X22857500Y-77830000D03*
X17357500Y-77830000D03*
X17357500Y-79230000D03*
X41857500Y-79230000D03*
X41857500Y-77830000D03*
X36357500Y-77830000D03*
X36357500Y-79230000D03*
X60857500Y-74480000D03*
X60857500Y-73080000D03*
X55357500Y-73080000D03*
X55357500Y-74480000D03*
X79857500Y-72105000D03*
X79857500Y-70705000D03*
X74357500Y-70705000D03*
X74357500Y-72105000D03*
X117857500Y-76855000D03*
X117857500Y-75455000D03*
X112357500Y-75455000D03*
X112357500Y-76855000D03*
D21*
X135952339Y-95498430D03*
X134739903Y-94798430D03*
X131989903Y-99561570D03*
X133202339Y-100261570D03*
D20*
X222357500Y-53105000D03*
X222357500Y-51705000D03*
X216857500Y-51705000D03*
X216857500Y-53105000D03*
X203357500Y-55480000D03*
X203357500Y-54080000D03*
X197857500Y-54080000D03*
X197857500Y-55480000D03*
X184357500Y-57855000D03*
X184357500Y-56455000D03*
X178857500Y-56455000D03*
X178857500Y-57855000D03*
X279357500Y-79230000D03*
X279357500Y-77830000D03*
X273857500Y-77830000D03*
X273857500Y-79230000D03*
X260357500Y-79230000D03*
X260357500Y-77830000D03*
X254857500Y-77830000D03*
X254857500Y-79230000D03*
X241357500Y-74480000D03*
X241357500Y-73080000D03*
X235857500Y-73080000D03*
X235857500Y-74480000D03*
X222357500Y-72105000D03*
X222357500Y-70705000D03*
X216857500Y-70705000D03*
X216857500Y-72105000D03*
X203357500Y-74480000D03*
X203357500Y-73080000D03*
X197857500Y-73080000D03*
X197857500Y-74480000D03*
X184357500Y-76855000D03*
X184357500Y-75455000D03*
X178857500Y-75455000D03*
X178857500Y-76855000D03*
X212857500Y-94105000D03*
X212857500Y-92705000D03*
X207357500Y-92705000D03*
X207357500Y-94105000D03*
D22*
X193181359Y-95952544D03*
X192819013Y-94600248D03*
X187506421Y-96023752D03*
X187868767Y-97376048D03*
D19*
X265214500Y-37550000D03*
X265214500Y-34000000D03*
X246214500Y-32800000D03*
X246214500Y-29250000D03*
X227214500Y-30425000D03*
X227214500Y-26875000D03*
X189207500Y-35180000D03*
X189207500Y-31630000D03*
X284214500Y-56400000D03*
X284214500Y-52850000D03*
X265214500Y-56550000D03*
X265214500Y-53000000D03*
X246214500Y-51800000D03*
X246214500Y-48250000D03*
X227214500Y-49425000D03*
X227214500Y-45875000D03*
X208214500Y-51800000D03*
X208214500Y-48250000D03*
X189207500Y-54180000D03*
X189207500Y-50630000D03*
X284214500Y-75550000D03*
X284214500Y-72000000D03*
X265214500Y-75550000D03*
X265214500Y-72000000D03*
X246214500Y-70800000D03*
X246214500Y-67250000D03*
X227214500Y-68425000D03*
X227214500Y-64875000D03*
X208214500Y-70800000D03*
X208214500Y-67250000D03*
X189207500Y-73180000D03*
X189207500Y-69630000D03*
X217714500Y-90410000D03*
X217714500Y-86860000D03*
X199664500Y-90425000D03*
X199664500Y-86875000D03*
X196814500Y-90425000D03*
X196814500Y-86875000D03*
X284214500Y-37550000D03*
X284214500Y-34000000D03*
X208214500Y-32800000D03*
X208214500Y-29250000D03*
D20*
X89357500Y-94105000D03*
X89357500Y-92705000D03*
X83857500Y-92705000D03*
X83857500Y-94105000D03*
D23*
X108853233Y-97381048D03*
X109215579Y-96028752D03*
X103902987Y-94605248D03*
X103540641Y-95957544D03*
D20*
X98857500Y-74480000D03*
X98857500Y-73080000D03*
X93357500Y-73080000D03*
X93357500Y-74480000D03*
X279357500Y-41230000D03*
X279357500Y-39830000D03*
X273857500Y-39830000D03*
X273857500Y-41230000D03*
X260357500Y-41230000D03*
X260357500Y-39830000D03*
X254857500Y-39830000D03*
X254857500Y-41230000D03*
X241357500Y-36480000D03*
X241357500Y-35080000D03*
X235857500Y-35080000D03*
X235857500Y-36480000D03*
X222357500Y-34105000D03*
X222357500Y-32705000D03*
X216857500Y-32705000D03*
X216857500Y-34105000D03*
X203357500Y-36480000D03*
X203357500Y-35080000D03*
X197857500Y-35080000D03*
X197857500Y-36480000D03*
X184357500Y-38855000D03*
X184357500Y-37455000D03*
X178857500Y-37455000D03*
X178857500Y-38855000D03*
X279357500Y-60230000D03*
X279357500Y-58830000D03*
X273857500Y-58830000D03*
X273857500Y-60230000D03*
X260357500Y-60230000D03*
X260357500Y-58830000D03*
X254857500Y-58830000D03*
X254857500Y-60230000D03*
X241357500Y-55480000D03*
X241357500Y-54080000D03*
X235857500Y-54080000D03*
X235857500Y-55480000D03*
D24*
X163519661Y-100256570D03*
X164732097Y-99556570D03*
X161982097Y-94793430D03*
X160769661Y-95493430D03*
D25*
X163343500Y-37433000D03*
D26*
X160803500Y-37433000D03*
D27*
X132797500Y-28893000D03*
X134797500Y-28893000D03*
X136797500Y-28893000D03*
D18*
X138947500Y-28893000D03*
X130647500Y-28893000D03*
D27*
X160057500Y-29033000D03*
X162057500Y-29033000D03*
X164057500Y-29033000D03*
D18*
X166207500Y-29033000D03*
X157907500Y-29033000D03*
D25*
X136185500Y-37458000D03*
D26*
X133645500Y-37458000D03*
D28*
X51107500Y-26505000D03*
X50307500Y-35105000D03*
X123607500Y-54205000D03*
X124607500Y-69005000D03*
X69382500Y-68405000D03*
X69382500Y-61305000D03*
X124807500Y-70805000D03*
X126493737Y-86382353D03*
X126297500Y-77305000D03*
X131107500Y-82780000D03*
X118907500Y-55105000D03*
X124807500Y-36305000D03*
X137107500Y-80780000D03*
X127952500Y-78960000D03*
X117907500Y-59105000D03*
X124957510Y-40905000D03*
X13007500Y-66705000D03*
X13007500Y-50205000D03*
X13007500Y-54205000D03*
X13007500Y-69205000D03*
X13007500Y-35205000D03*
X32007500Y-35205000D03*
X32107500Y-69205000D03*
X31964840Y-50194907D03*
X31707500Y-54405000D03*
X32796949Y-65894449D03*
X51007500Y-45505000D03*
X51007500Y-30505000D03*
X51007500Y-64505000D03*
X51007500Y-49505000D03*
X52577078Y-61174578D03*
X70007500Y-47105000D03*
X70007500Y-43105000D03*
X70007500Y-65705000D03*
X70007500Y-62105000D03*
X70007500Y-28105000D03*
X79507500Y-84305000D03*
X70407500Y-59705000D03*
X89007500Y-64505000D03*
X89407500Y-60305000D03*
X100007500Y-85205000D03*
X89007500Y-49505000D03*
X127041500Y-63874000D03*
X89007500Y-30505000D03*
X89007500Y-45505000D03*
X127041500Y-62096000D03*
X89007500Y-68505000D03*
X108007500Y-51805000D03*
X122607500Y-99005000D03*
X108007500Y-70805000D03*
X108007500Y-32805000D03*
X108007500Y-66805000D03*
X108007500Y-47905000D03*
X108407504Y-62805000D03*
X131613500Y-105276000D03*
X131613500Y-101974000D03*
X127041500Y-65652000D03*
X127107500Y-69780000D03*
X129835500Y-62858000D03*
X173357500Y-46265000D03*
X171063762Y-31389024D03*
X175232500Y-62500000D03*
X175232500Y-58415010D03*
X172537500Y-58715000D03*
X167110558Y-85628058D03*
X169205500Y-65144000D03*
X159857000Y-93846000D03*
X167681500Y-37204000D03*
X161839500Y-63874000D03*
X159519327Y-61148173D03*
X269617500Y-54555000D03*
X269547500Y-66550000D03*
X269592510Y-50205000D03*
X269607500Y-35205000D03*
X269507500Y-69305000D03*
X250507500Y-35105000D03*
X250507500Y-69205000D03*
X250507500Y-54205000D03*
X250507500Y-50305000D03*
X249997500Y-64100010D03*
X231607500Y-49505000D03*
X231507500Y-45505000D03*
X231234449Y-58513051D03*
X231507500Y-30305000D03*
X231607500Y-64505000D03*
X212507500Y-43105000D03*
X212557500Y-65985000D03*
X212507500Y-47105000D03*
X203087500Y-84335000D03*
X212507500Y-28005000D03*
X212507500Y-62205000D03*
X212107500Y-59020000D03*
X193507500Y-64505000D03*
X193137500Y-61875000D03*
X193507500Y-30405000D03*
X193507500Y-49305000D03*
X193507500Y-45505000D03*
X193517500Y-68325000D03*
X181187500Y-88895000D03*
X174417500Y-70675000D03*
X174507500Y-47805000D03*
X166887500Y-86675000D03*
X174507500Y-32805000D03*
X174607500Y-51905000D03*
X174297500Y-63015000D03*
X174507500Y-66905000D03*
X171787500Y-60895000D03*
X171857490Y-40305000D03*
X161807500Y-79680000D03*
X164007500Y-70805000D03*
X171934500Y-36205000D03*
X172707500Y-52045000D03*
X24007500Y-62505000D03*
X24107500Y-40105000D03*
X24402733Y-41609990D03*
X42907500Y-39705000D03*
X33807500Y-39205000D03*
X24307500Y-43570010D03*
X35507500Y-41205000D03*
X42707500Y-58705000D03*
X60707500Y-56655000D03*
X61907500Y-35305000D03*
X71007500Y-32505000D03*
X62107506Y-37954990D03*
X62387500Y-36246952D03*
X80807500Y-32605000D03*
X73307500Y-34105000D03*
X80807500Y-51705000D03*
X100443699Y-35003426D03*
X98607500Y-56755000D03*
X100597500Y-35880000D03*
X99882500Y-37455000D03*
X109562521Y-36805000D03*
X118807500Y-37405000D03*
X111407500Y-38905000D03*
X118607500Y-56405000D03*
X24307500Y-59005000D03*
X23607500Y-81405000D03*
X42707500Y-77705000D03*
X35407500Y-60405000D03*
X62232510Y-54605000D03*
X60677169Y-75535331D03*
X73407500Y-53105000D03*
X80807500Y-70705000D03*
X100857500Y-54905000D03*
X98807500Y-75705000D03*
X111307500Y-57805000D03*
X118807500Y-75405000D03*
X35107500Y-79305000D03*
X37107500Y-81355000D03*
X61907500Y-77205000D03*
X62032510Y-73205000D03*
X90307500Y-92705000D03*
X73407500Y-72105000D03*
X102707500Y-95605000D03*
X99907500Y-73305000D03*
X135200692Y-94111767D03*
X111407500Y-76905000D03*
X82907500Y-94105000D03*
X110207500Y-96705000D03*
X272977500Y-60175000D03*
X280317500Y-39965000D03*
X254167500Y-41355002D03*
X261307500Y-58745000D03*
X234977500Y-55355000D03*
X242337500Y-35145000D03*
X216047500Y-34105000D03*
X223232169Y-51890331D03*
X196907500Y-55365000D03*
X204437500Y-35185000D03*
X178037510Y-38905000D03*
X185337500Y-56385000D03*
X273117500Y-79255000D03*
X280367500Y-58895000D03*
X254007500Y-60425000D03*
X261327500Y-77755000D03*
X242277500Y-54295000D03*
X234907500Y-74355000D03*
X223267169Y-70725331D03*
X215897500Y-53155000D03*
X196857500Y-74365000D03*
X204397500Y-54145000D03*
X185367500Y-75525000D03*
X177937500Y-57865000D03*
X213767500Y-92735000D03*
X216007500Y-72135000D03*
X204327500Y-73235000D03*
X186947500Y-97485000D03*
X177707500Y-77035000D03*
X165207500Y-100455000D03*
D29*
X46734500Y-37555000D02*
X47857500Y-37555000D01*
X29607500Y-31905000D02*
X31007500Y-30505000D01*
X83957500Y-30430000D02*
X84707500Y-30430000D01*
X128057500Y-33140000D02*
X124747500Y-33140000D01*
X62257500Y-32555000D02*
X61107500Y-31405000D01*
X94907500Y-25705000D02*
X99307500Y-30105000D01*
X100507500Y-32805000D02*
X103707500Y-32805000D01*
X118407500Y-34105000D02*
X119482500Y-35180000D01*
X103707500Y-32805000D02*
X104407500Y-32805000D01*
X66457500Y-32555000D02*
X67707500Y-31305000D01*
X99307500Y-31605000D02*
X100507500Y-32805000D01*
X124747500Y-33140000D02*
X122707500Y-35180000D01*
X114107500Y-28105000D02*
X118407500Y-32405000D01*
X51531764Y-26505000D02*
X51107500Y-26505000D01*
X121957500Y-35180000D02*
X122707500Y-35180000D01*
X87707500Y-25705000D02*
X94907500Y-25705000D01*
X65707500Y-32555000D02*
X66457500Y-32555000D01*
X38007500Y-30505000D02*
X42307500Y-34805000D01*
X80220686Y-29205000D02*
X81445686Y-30430000D01*
X61107500Y-31405000D02*
X61107500Y-29705000D01*
X43357500Y-37555000D02*
X46734500Y-37555000D01*
X28484500Y-37551875D02*
X29607500Y-36428875D01*
X139051500Y-47182000D02*
X129581500Y-37712000D01*
X67707500Y-31305000D02*
X67707500Y-24705000D01*
X142423900Y-47182000D02*
X139051500Y-47182000D01*
X75907500Y-23305000D02*
X80207500Y-27605000D01*
X47857500Y-37555000D02*
X50307500Y-35105000D01*
X84707500Y-30430000D02*
X85457500Y-30430000D01*
X104407500Y-32805000D02*
X105707500Y-31505000D01*
X107407500Y-28105000D02*
X114107500Y-28105000D01*
X31007500Y-30505000D02*
X38007500Y-30505000D01*
X119482500Y-35180000D02*
X121957500Y-35180000D01*
X65707500Y-32555000D02*
X62257500Y-32555000D01*
X80207500Y-29205000D02*
X80220686Y-29205000D01*
X67707500Y-24705000D02*
X69107500Y-23305000D01*
X61107500Y-29705000D02*
X57907500Y-26505000D01*
X129581500Y-37712000D02*
X129581500Y-34664000D01*
X81445686Y-30430000D02*
X83957500Y-30430000D01*
X57907500Y-26505000D02*
X51531764Y-26505000D01*
X42307500Y-36505000D02*
X43357500Y-37555000D01*
X85457500Y-30430000D02*
X86607500Y-29280000D01*
X86607500Y-29280000D02*
X86607500Y-26805000D01*
X29607500Y-36428875D02*
X29607500Y-31905000D01*
X129581500Y-34664000D02*
X128057500Y-33140000D01*
X86607500Y-26805000D02*
X87707500Y-25705000D01*
X42307500Y-34805000D02*
X42307500Y-36505000D01*
X99307500Y-30105000D02*
X99307500Y-31605000D01*
X27734500Y-37551875D02*
X28484500Y-37551875D01*
X118407500Y-32405000D02*
X118407500Y-34105000D01*
X105707500Y-29805000D02*
X107407500Y-28105000D01*
X80207500Y-27605000D02*
X80207500Y-29205000D01*
X69107500Y-23305000D02*
X75907500Y-23305000D01*
X105707500Y-31505000D02*
X105707500Y-29805000D01*
X27734500Y-32751875D02*
X27734500Y-34001875D01*
X27734500Y-32510000D02*
X27734500Y-32751875D01*
X25949500Y-30725000D02*
X27734500Y-32510000D01*
X25949500Y-30700000D02*
X25949500Y-30725000D01*
X119182500Y-54180000D02*
X122707500Y-54180000D01*
X99007500Y-48605000D02*
X99007500Y-50905000D01*
X122707500Y-54180000D02*
X122832500Y-54180000D01*
X80207500Y-46305000D02*
X80207500Y-48205000D01*
X28484500Y-56551875D02*
X29607500Y-55428875D01*
X86507500Y-48380000D02*
X86507500Y-45705000D01*
X142423900Y-49722000D02*
X142423900Y-49788600D01*
X66457500Y-51805000D02*
X67607500Y-50655000D01*
X42207500Y-55305000D02*
X43457500Y-56555000D01*
X123582500Y-54180000D02*
X123607500Y-54205000D01*
X130007500Y-64005000D02*
X125007500Y-69005000D01*
X48707500Y-55332000D02*
X48707500Y-46105000D01*
X57332501Y-44879999D02*
X60807500Y-48354998D01*
X29607500Y-51005000D02*
X31282499Y-49330001D01*
X60807500Y-48354998D02*
X60807500Y-50305000D01*
X104457500Y-51805000D02*
X105607500Y-50655000D01*
X133542500Y-64005000D02*
X130007500Y-64005000D01*
X107007500Y-47205000D02*
X113907500Y-47205000D01*
X42207500Y-53805000D02*
X42207500Y-55305000D01*
X99907500Y-51805000D02*
X103707500Y-51805000D01*
X105607500Y-50655000D02*
X105607500Y-48605000D01*
X118207500Y-51505000D02*
X118207500Y-53205000D01*
X76207500Y-42305000D02*
X80207500Y-46305000D01*
X67607500Y-44005000D02*
X69307500Y-42305000D01*
X125007500Y-69005000D02*
X124607500Y-69005000D01*
X94907500Y-44505000D02*
X99007500Y-48605000D01*
X65707500Y-51805000D02*
X66457500Y-51805000D01*
X113907500Y-47205000D02*
X118207500Y-51505000D01*
X45984500Y-56555000D02*
X46734500Y-56555000D01*
X47484500Y-56555000D02*
X48707500Y-55332000D01*
X142423900Y-49788600D02*
X139995500Y-52217000D01*
X27734500Y-56551875D02*
X28484500Y-56551875D01*
X49932501Y-44879999D02*
X57332501Y-44879999D01*
X139995500Y-57552000D02*
X133542500Y-64005000D01*
X67607500Y-50655000D02*
X67607500Y-44005000D01*
X85457500Y-49430000D02*
X86507500Y-48380000D01*
X118207500Y-53205000D02*
X119182500Y-54180000D01*
X99007500Y-50905000D02*
X99907500Y-51805000D01*
X46734500Y-56555000D02*
X47484500Y-56555000D01*
X139995500Y-52217000D02*
X139995500Y-57552000D01*
X60807500Y-50305000D02*
X62307500Y-51805000D01*
X80207500Y-48205000D02*
X81432500Y-49430000D01*
X84707500Y-49430000D02*
X85457500Y-49430000D01*
X105607500Y-48605000D02*
X107007500Y-47205000D01*
X87707500Y-44505000D02*
X94907500Y-44505000D01*
X43457500Y-56555000D02*
X45984500Y-56555000D01*
X69307500Y-42305000D02*
X76207500Y-42305000D01*
X81432500Y-49430000D02*
X84707500Y-49430000D01*
X48707500Y-46105000D02*
X49932501Y-44879999D01*
X31282499Y-49330001D02*
X37732501Y-49330001D01*
X122707500Y-54180000D02*
X123582500Y-54180000D01*
X29607500Y-55428875D02*
X29607500Y-51005000D01*
X62307500Y-51805000D02*
X65707500Y-51805000D01*
X86507500Y-45705000D02*
X87707500Y-44505000D01*
X37732501Y-49330001D02*
X42207500Y-53805000D01*
X103707500Y-51805000D02*
X104457500Y-51805000D01*
X44949500Y-30735000D02*
X46734500Y-32520000D01*
X44949500Y-30700000D02*
X44949500Y-30735000D01*
X46734500Y-32520000D02*
X46734500Y-34005000D01*
X46057500Y-75555000D02*
X46734500Y-75555000D01*
D30*
X140503500Y-57683224D02*
X140503500Y-54182400D01*
D29*
X61007500Y-68005000D02*
X61007500Y-69805000D01*
D30*
X140503500Y-54182400D02*
X142423900Y-52262000D01*
D29*
X104457500Y-70805000D02*
X105707500Y-69555000D01*
X62007500Y-70805000D02*
X64957500Y-70805000D01*
X99207500Y-69305000D02*
X100707500Y-70805000D01*
X113107500Y-65505000D02*
X118307500Y-70705000D01*
X56107500Y-63105000D02*
X61007500Y-68005000D01*
X100707500Y-70805000D02*
X103707500Y-70805000D01*
D30*
X122707500Y-71978400D02*
X130180900Y-64505000D01*
D29*
X69982500Y-60705000D02*
X69382500Y-61305000D01*
X81632500Y-68430000D02*
X80107500Y-66905000D01*
X88207500Y-62805000D02*
X94207500Y-62805000D01*
X48607500Y-65533078D02*
X51035578Y-63105000D01*
X41907500Y-72305000D02*
X41907500Y-74105000D01*
X64957500Y-70805000D02*
X65707500Y-70805000D01*
X99207500Y-67805000D02*
X99207500Y-69305000D01*
X85282500Y-68430000D02*
X86607500Y-67105000D01*
X69382500Y-68405000D02*
X69382500Y-68430000D01*
X103707500Y-70805000D02*
X104457500Y-70805000D01*
X27734500Y-75178000D02*
X29707500Y-73205000D01*
X47484500Y-75555000D02*
X48607500Y-74432000D01*
X29707500Y-70205000D02*
X31707500Y-68205000D01*
X43357500Y-75555000D02*
X46057500Y-75555000D01*
X84707500Y-68430000D02*
X81632500Y-68430000D01*
X107307500Y-65505000D02*
X113107500Y-65505000D01*
D30*
X133681724Y-64505000D02*
X140503500Y-57683224D01*
D29*
X51035578Y-63105000D02*
X56107500Y-63105000D01*
X29707500Y-73205000D02*
X29707500Y-70205000D01*
X105707500Y-69555000D02*
X105707500Y-67105000D01*
X80107500Y-65405000D02*
X75407500Y-60705000D01*
X48607500Y-74432000D02*
X48607500Y-65533078D01*
X46734500Y-75555000D02*
X47484500Y-75555000D01*
X37807500Y-68205000D02*
X41907500Y-72305000D01*
X41907500Y-74105000D02*
X43357500Y-75555000D01*
X86607500Y-64405000D02*
X88207500Y-62805000D01*
X119182500Y-73180000D02*
X122707500Y-73180000D01*
X94207500Y-62805000D02*
X99207500Y-67805000D01*
D30*
X130180900Y-64505000D02*
X133681724Y-64505000D01*
D29*
X67007500Y-70805000D02*
X65707500Y-70805000D01*
X86607500Y-67105000D02*
X86607500Y-64405000D01*
X31707500Y-68205000D02*
X37807500Y-68205000D01*
X118307500Y-72305000D02*
X119182500Y-73180000D01*
D30*
X122707500Y-73105000D02*
X122707500Y-71978400D01*
D29*
X61007500Y-69805000D02*
X62007500Y-70805000D01*
X27734500Y-75551875D02*
X27734500Y-75178000D01*
X80107500Y-66905000D02*
X80107500Y-65405000D01*
X118307500Y-70705000D02*
X118307500Y-72305000D01*
X105707500Y-67105000D02*
X107307500Y-65505000D01*
X75407500Y-60705000D02*
X69982500Y-60705000D01*
X69382500Y-68430000D02*
X67007500Y-70805000D01*
X84707500Y-68430000D02*
X85282500Y-68430000D01*
X64034500Y-25950000D02*
X65707500Y-27623000D01*
X65707500Y-27623000D02*
X65707500Y-29005000D01*
X63949500Y-25950000D02*
X64034500Y-25950000D01*
X130357500Y-65005000D02*
X130607500Y-65005000D01*
X96807500Y-90090000D02*
X96807500Y-85941410D01*
D30*
X142423900Y-54802000D02*
X141011500Y-56214400D01*
D29*
X124807500Y-70805000D02*
X124807500Y-70555000D01*
X77407500Y-82405000D02*
X78407500Y-81405000D01*
X124807500Y-70555000D02*
X130357500Y-65005000D01*
X111493900Y-90154990D02*
X114557490Y-90154990D01*
X126193738Y-87218762D02*
X126193738Y-86682352D01*
X76157500Y-89295000D02*
X77407500Y-88045000D01*
X95164500Y-90540000D02*
X98007500Y-90540000D01*
X105093900Y-83754989D02*
X111493900Y-90154990D01*
X77407500Y-88045000D02*
X77407500Y-82405000D01*
X116857489Y-92454989D02*
X120957511Y-92454989D01*
X98993920Y-83754989D02*
X105093900Y-83754989D01*
X98007500Y-90540000D02*
X97257500Y-90540000D01*
X97257500Y-90540000D02*
X96807500Y-90090000D01*
X83707500Y-81405000D02*
X89707500Y-87405000D01*
X96807500Y-85941410D02*
X98993920Y-83754989D01*
X120957511Y-92454989D02*
X126193738Y-87218762D01*
X78407500Y-81405000D02*
X83707500Y-81405000D01*
X95207500Y-90540000D02*
X95164500Y-90540000D01*
X114557490Y-90154990D02*
X116857489Y-92454989D01*
X89707500Y-87405000D02*
X89707500Y-89405000D01*
D30*
X141011500Y-56214400D02*
X141011500Y-57817276D01*
D29*
X76157500Y-90545000D02*
X76157500Y-89295000D01*
D30*
X133823776Y-65005000D02*
X130607500Y-65005000D01*
D29*
X126193738Y-86682352D02*
X126493737Y-86382353D01*
D30*
X141011500Y-57817276D02*
X133823776Y-65005000D01*
D29*
X90842500Y-90540000D02*
X95207500Y-90540000D01*
X89707500Y-89405000D02*
X90842500Y-90540000D01*
X82979500Y-23575000D02*
X84707500Y-25303000D01*
X84707500Y-25303000D02*
X84707500Y-26880000D01*
X82949500Y-23575000D02*
X82979500Y-23575000D01*
X101949500Y-25995000D02*
X103707500Y-27753000D01*
X101949500Y-25950000D02*
X101949500Y-25995000D01*
X103707500Y-27753000D02*
X103707500Y-29255000D01*
X120949500Y-28325000D02*
X120949500Y-28345000D01*
X122707500Y-30103000D02*
X122707500Y-31630000D01*
X120949500Y-28345000D02*
X122707500Y-30103000D01*
X25949500Y-49700000D02*
X25994500Y-49700000D01*
X27734500Y-51440000D02*
X27734500Y-53001875D01*
X25994500Y-49700000D02*
X27734500Y-51440000D01*
X46734500Y-51450000D02*
X46734500Y-53005000D01*
X44949500Y-49700000D02*
X44984500Y-49700000D01*
X44984500Y-49700000D02*
X46734500Y-51450000D01*
X63949500Y-44950000D02*
X64044500Y-44950000D01*
X65707500Y-46613000D02*
X65707500Y-48255000D01*
X64044500Y-44950000D02*
X65707500Y-46613000D01*
X82949500Y-42575000D02*
X82999500Y-42575000D01*
X84707500Y-44283000D02*
X84707500Y-45880000D01*
X82999500Y-42575000D02*
X84707500Y-44283000D01*
X101949500Y-44950000D02*
X101949500Y-45045000D01*
X101949500Y-45045000D02*
X103707500Y-46803000D01*
X103707500Y-46803000D02*
X103707500Y-48255000D01*
X120949500Y-47447000D02*
X122707500Y-49205000D01*
X120949500Y-47325000D02*
X120949500Y-47447000D01*
X122707500Y-49205000D02*
X122707500Y-50630000D01*
X27734500Y-70500000D02*
X27734500Y-72001875D01*
X25949500Y-68700000D02*
X25949500Y-68715000D01*
X25949500Y-68715000D02*
X27734500Y-70500000D01*
X45014500Y-68700000D02*
X46734500Y-70420000D01*
X44949500Y-68700000D02*
X45014500Y-68700000D01*
X46734500Y-70420000D02*
X46734500Y-72005000D01*
X63949500Y-63955000D02*
X65707500Y-65713000D01*
X65707500Y-65713000D02*
X65707500Y-67255000D01*
X63949500Y-63950000D02*
X63949500Y-63955000D01*
X84707500Y-63313000D02*
X84707500Y-64880000D01*
X82949500Y-61575000D02*
X82969500Y-61575000D01*
X82969500Y-61575000D02*
X84707500Y-63313000D01*
X101949500Y-63995000D02*
X103707500Y-65753000D01*
X101949500Y-63950000D02*
X101949500Y-63995000D01*
X103707500Y-65753000D02*
X103707500Y-67255000D01*
X120949500Y-66375000D02*
X122707500Y-68133000D01*
X120949500Y-66325000D02*
X120949500Y-66375000D01*
X122707500Y-68133000D02*
X122707500Y-69630000D01*
X78157510Y-80954990D02*
X89857490Y-80954990D01*
X76157500Y-86995000D02*
X76157500Y-82955000D01*
X89857490Y-80954990D02*
X92449500Y-83547000D01*
X92449500Y-83547000D02*
X92449500Y-83575000D01*
X76157500Y-82955000D02*
X78157510Y-80954990D01*
X111054216Y-83205000D02*
X114565239Y-86716023D01*
X95164500Y-86948000D02*
X98907500Y-83205000D01*
X95164500Y-86990000D02*
X95164500Y-86948000D01*
X114565239Y-86716023D02*
X114565239Y-88010118D01*
X98907500Y-83205000D02*
X111054216Y-83205000D01*
X98007500Y-85377820D02*
X99180320Y-84205000D01*
X104907500Y-84205000D02*
X111307500Y-90605001D01*
X111307500Y-90605001D02*
X114307501Y-90605001D01*
X99180320Y-84205000D02*
X104907500Y-84205000D01*
X121207500Y-92905000D02*
X126556820Y-87555680D01*
X116607500Y-92905000D02*
X121207500Y-92905000D01*
X126556820Y-87555680D02*
X128379091Y-87555680D01*
X114307501Y-90605001D02*
X116607500Y-92905000D01*
X98007500Y-86990000D02*
X98007500Y-85377820D01*
D31*
X72707500Y-50305000D02*
X69707500Y-50305000D01*
X92407500Y-72005000D02*
X93482500Y-73080000D01*
X112457500Y-75455000D02*
X112657500Y-75455000D01*
X90907500Y-33605000D02*
X91907500Y-33605000D01*
X120807500Y-36005000D02*
X111007500Y-36005000D01*
X93382500Y-35080000D02*
X93657500Y-35080000D01*
X23722500Y-76405000D02*
X18207500Y-76405000D01*
X72107500Y-31305000D02*
X73007500Y-31305000D01*
X124805385Y-35802885D02*
X123803270Y-36805000D01*
X84596247Y-91344990D02*
X84623760Y-91344990D01*
X36632500Y-58830000D02*
X36657500Y-58830000D01*
X93482500Y-54080000D02*
X93657500Y-54080000D01*
X63457500Y-53305000D02*
X62857500Y-52705000D01*
X43462500Y-39005000D02*
X42862500Y-38405000D01*
X83107500Y-69305000D02*
X73007500Y-69305000D01*
X121057500Y-74005000D02*
X124357500Y-77305000D01*
X33007500Y-57405000D02*
X29191377Y-57405000D01*
X125828500Y-94805000D02*
X115507500Y-94805000D01*
D30*
X36238511Y-59019989D02*
X36204499Y-59054001D01*
D31*
X84297490Y-91671260D02*
X84297490Y-91643747D01*
X61702500Y-33705000D02*
X53907500Y-33705000D01*
X34707500Y-38405000D02*
X35107500Y-38405000D01*
X53607500Y-71605000D02*
X53907500Y-71605000D01*
D29*
X17324500Y-59274000D02*
X17274500Y-59224000D01*
D31*
X83232500Y-31305000D02*
X72107500Y-31305000D01*
X104107500Y-93105000D02*
X110007500Y-94805000D01*
X24532500Y-39105000D02*
X23832500Y-38405000D01*
X43332500Y-58105000D02*
X42632500Y-57405000D01*
X92407500Y-71705000D02*
X92407500Y-72005000D01*
X53607500Y-71605000D02*
X53207500Y-71605000D01*
D32*
X137977500Y-79910000D02*
X137107500Y-80780000D01*
D31*
X111007500Y-36005000D02*
X109307500Y-36005000D01*
X52894502Y-33705000D02*
X47594502Y-39005000D01*
X54107500Y-33705000D02*
X55482500Y-35080000D01*
X53907500Y-33705000D02*
X54107500Y-33705000D01*
X18082500Y-38405000D02*
X17657500Y-38830000D01*
X18207500Y-76405000D02*
X17657500Y-76955000D01*
X43342501Y-77005001D02*
X42742500Y-76405000D01*
D32*
X137977500Y-77870000D02*
X137977500Y-79910000D01*
D31*
X35107500Y-76405000D02*
X29407500Y-76405000D01*
X35107500Y-38605000D02*
X36332500Y-39830000D01*
X62402501Y-72255001D02*
X61752500Y-71605000D01*
X92407500Y-71705000D02*
X102007500Y-71705000D01*
X55482500Y-35080000D02*
X55657500Y-35080000D01*
X112457500Y-37455000D02*
X111007500Y-36005000D01*
X36332500Y-39830000D02*
X36657500Y-39830000D01*
X91907500Y-33605000D02*
X93382500Y-35080000D01*
X17657500Y-38830000D02*
X17657500Y-39830000D01*
X73007500Y-69305000D02*
X70907500Y-69305000D01*
X73007500Y-31305000D02*
X74407500Y-32705000D01*
X125873236Y-77305000D02*
X126297500Y-77305000D01*
X47594502Y-39005000D02*
X43462500Y-39005000D01*
X85307500Y-52705000D02*
X82907500Y-50305000D01*
X85507500Y-71705000D02*
X83107500Y-69305000D01*
X121607500Y-36805000D02*
X120807500Y-36005000D01*
X108907500Y-74005000D02*
X104307500Y-74005000D01*
X118907500Y-55105000D02*
X111507500Y-55105000D01*
X62857500Y-52705000D02*
X53907500Y-52705000D01*
X18082500Y-57405000D02*
X17657500Y-57830000D01*
X24322500Y-77005000D02*
X23722500Y-76405000D01*
X23882500Y-57405000D02*
X18082500Y-57405000D01*
X24582500Y-58105000D02*
X23882500Y-57405000D01*
X84157500Y-92705000D02*
X84157500Y-91811250D01*
X36432500Y-77830000D02*
X36657500Y-77830000D01*
X29407500Y-76405000D02*
X28807500Y-77005000D01*
X124357500Y-77305000D02*
X125873236Y-77305000D01*
X42742500Y-76405000D02*
X35107500Y-76405000D01*
X91907500Y-52705000D02*
X92107500Y-52705000D01*
X74307500Y-70605000D02*
X74307500Y-70705000D01*
X93482500Y-73080000D02*
X93657500Y-73080000D01*
X110607500Y-74005000D02*
X121057500Y-74005000D01*
X102489110Y-93123390D02*
X104107500Y-93105000D01*
X111507500Y-55105000D02*
X111407500Y-55205000D01*
X102807500Y-34305000D02*
X102107500Y-33605000D01*
X74407500Y-51705000D02*
X74657500Y-51705000D01*
X69707500Y-50305000D02*
X66707500Y-53305000D01*
X92107500Y-52705000D02*
X93482500Y-54080000D01*
X35707500Y-57405000D02*
X33007500Y-57405000D01*
X69507500Y-69305000D02*
X66557499Y-72255001D01*
X131107500Y-82780000D02*
X131107500Y-89526000D01*
X102489110Y-93123390D02*
X102633262Y-93123390D01*
X73007500Y-69305000D02*
X74307500Y-70605000D01*
X84663750Y-91305000D02*
X93507500Y-91305000D01*
X82907500Y-50305000D02*
X72707500Y-50305000D01*
X102107500Y-33605000D02*
X90907500Y-33605000D01*
X107607500Y-34305000D02*
X102807500Y-34305000D01*
X53907500Y-71605000D02*
X55382500Y-73080000D01*
X53907500Y-52705000D02*
X53207500Y-52705000D01*
X17657500Y-57830000D02*
X17657500Y-58830000D01*
X67907500Y-32705000D02*
X66482501Y-34129999D01*
X126126270Y-34482000D02*
X124805385Y-35802885D01*
X70807500Y-31305000D02*
X69267502Y-31305000D01*
X23832500Y-38405000D02*
X18082500Y-38405000D01*
X102357499Y-52705000D02*
X91907500Y-52705000D01*
X84157500Y-91811250D02*
X84297490Y-91671260D01*
X110007500Y-94805000D02*
X115507500Y-94805000D01*
X91907500Y-52705000D02*
X85307500Y-52705000D01*
X127302511Y-102504989D02*
X130507500Y-99300000D01*
X102633262Y-93123390D02*
X104192765Y-94682893D01*
X123803270Y-36805000D02*
X121607500Y-36805000D01*
X73007500Y-50305000D02*
X74407500Y-51705000D01*
X66482501Y-34129999D02*
X62127499Y-34129999D01*
X92407500Y-71705000D02*
X85507500Y-71705000D01*
X104307500Y-74005000D02*
X102007500Y-71705000D01*
X127952500Y-78960000D02*
X131107500Y-82115000D01*
X131107500Y-82115000D02*
X131107500Y-82780000D01*
X115507500Y-94805000D02*
X123207489Y-102504989D01*
X28491377Y-58105000D02*
X24582500Y-58105000D01*
X72707500Y-50305000D02*
X73007500Y-50305000D01*
X47807500Y-58105000D02*
X43332500Y-58105000D01*
X66707500Y-53305000D02*
X63457500Y-53305000D01*
X66557499Y-72255001D02*
X62402501Y-72255001D01*
X28807500Y-77005000D02*
X24322500Y-77005000D01*
X85532500Y-33605000D02*
X83232500Y-31305000D01*
X72107500Y-31305000D02*
X70807500Y-31305000D01*
X35207500Y-57405000D02*
X36632500Y-58830000D01*
X69267502Y-31305000D02*
X67907500Y-32665002D01*
X109307500Y-36005000D02*
X107607500Y-34305000D01*
X29399439Y-38405000D02*
X28699439Y-39105000D01*
X53207500Y-71605000D02*
X47807499Y-77005001D01*
X110607500Y-74005000D02*
X108907500Y-74005000D01*
X33207500Y-38405000D02*
X29399439Y-38405000D01*
X70907500Y-69305000D02*
X69507500Y-69305000D01*
X74407500Y-32705000D02*
X74657500Y-32705000D01*
X42862500Y-38405000D02*
X34407500Y-38405000D01*
X111007500Y-74005000D02*
X112457500Y-75455000D01*
X112657500Y-37455000D02*
X112457500Y-37455000D01*
X67907500Y-32665002D02*
X67907500Y-32705000D01*
X93507500Y-91305000D02*
X95325890Y-93123390D01*
X130604262Y-99301762D02*
X132139903Y-99301762D01*
X131107500Y-89526000D02*
X125828500Y-94805000D01*
X35707500Y-57405000D02*
X35207500Y-57405000D01*
X61752500Y-71605000D02*
X53607500Y-71605000D01*
X127203900Y-34482000D02*
X126126270Y-34482000D01*
X17657500Y-76955000D02*
X17657500Y-77830000D01*
X35107500Y-38405000D02*
X35107500Y-38605000D01*
X95325890Y-93123390D02*
X102489110Y-93123390D01*
X55382500Y-73080000D02*
X55657500Y-73080000D01*
X123207489Y-102504989D02*
X127302511Y-102504989D01*
X55282500Y-54080000D02*
X55657500Y-54080000D01*
X62127499Y-34129999D02*
X61702500Y-33705000D01*
X84623760Y-91344990D02*
X84663750Y-91305000D01*
X124805385Y-35802885D02*
X124805385Y-36302885D01*
X42632500Y-57405000D02*
X35707500Y-57405000D01*
X104757499Y-55105000D02*
X102357499Y-52705000D01*
X111507500Y-55105000D02*
X104757499Y-55105000D01*
X90907500Y-33605000D02*
X85532500Y-33605000D01*
X35107500Y-76505000D02*
X36432500Y-77830000D01*
X84297490Y-91643747D02*
X84596247Y-91344990D01*
X53907500Y-33705000D02*
X52894502Y-33705000D01*
X47807499Y-77005001D02*
X43342501Y-77005001D01*
X53907500Y-52705000D02*
X55282500Y-54080000D01*
X28699439Y-39105000D02*
X24532500Y-39105000D01*
X124805385Y-36302885D02*
X124807500Y-36305000D01*
X110607500Y-74005000D02*
X111007500Y-74005000D01*
X35107500Y-76405000D02*
X35107500Y-76505000D01*
X112657500Y-56455000D02*
X112457500Y-56455000D01*
X53207500Y-52705000D02*
X47807500Y-58105000D01*
X34407500Y-38405000D02*
X33207500Y-38405000D01*
X29191377Y-57405000D02*
X28491377Y-58105000D01*
X112457500Y-56455000D02*
X111407500Y-55205000D01*
X77307500Y-73555000D02*
X78307500Y-74555000D01*
X42967500Y-61465000D02*
X41732500Y-60230000D01*
X125483270Y-40205000D02*
X126126270Y-39562000D01*
X64107500Y-38594996D02*
X62667502Y-37154998D01*
X118907500Y-40105000D02*
X117657500Y-38855000D01*
X84107500Y-76605000D02*
X100607500Y-76605000D01*
X22707500Y-41230000D02*
X22557500Y-41230000D01*
X137887500Y-94925000D02*
X134110277Y-101607777D01*
X117407500Y-58605000D02*
X117407500Y-58405000D01*
X43007500Y-42505000D02*
X42922490Y-42590010D01*
X69822496Y-76305000D02*
X72572496Y-73555000D01*
X117657500Y-38855000D02*
X117557500Y-38855000D01*
X100333598Y-36631098D02*
X102082500Y-38380000D01*
X42922490Y-42590010D02*
X37096247Y-42590010D01*
X113086237Y-40205000D02*
X113096247Y-40215010D01*
X134110277Y-101607777D02*
X134104723Y-101607777D01*
X118907500Y-40205000D02*
X118907500Y-40105000D01*
X22732500Y-60230000D02*
X22557500Y-60230000D01*
X81407500Y-73905000D02*
X80562500Y-73905000D01*
X79557500Y-34105000D02*
X79632500Y-34105000D01*
X80907500Y-35405000D02*
X80707500Y-35405000D01*
X81107500Y-54505000D02*
X73607500Y-54505000D01*
X98782500Y-74480000D02*
X98557500Y-74480000D01*
X36916237Y-42410000D02*
X23887500Y-42410000D01*
X137900500Y-94925000D02*
X137887500Y-94925000D01*
X78307500Y-74555000D02*
X79557500Y-74555000D01*
X98708598Y-36631098D02*
X100333598Y-36631098D01*
X137407500Y-95405000D02*
X136155577Y-95405000D01*
X126126270Y-39562000D02*
X127203900Y-39562000D01*
X138725500Y-85210000D02*
X138725500Y-94100000D01*
X41732500Y-41230000D02*
X42407500Y-41905000D01*
X132507500Y-103205000D02*
X122907500Y-103205000D01*
X61232498Y-37154998D02*
X60557500Y-36480000D01*
X54007500Y-38705000D02*
X50107500Y-42605000D01*
X109586276Y-98883776D02*
X108563455Y-97860955D01*
X62607500Y-57405000D02*
X54007500Y-57405000D01*
X117557500Y-57855000D02*
X117407500Y-58405000D01*
X81407500Y-73905000D02*
X79607500Y-72105000D01*
X70307500Y-38705000D02*
X62407500Y-38705000D01*
X89057500Y-94105000D02*
X91407500Y-94105000D01*
X108907500Y-40205000D02*
X113086237Y-40205000D01*
X100907500Y-76605000D02*
X98782500Y-74480000D01*
X60682500Y-55480000D02*
X62607500Y-57405000D01*
X43407500Y-80605000D02*
X24007500Y-80605000D01*
X138725500Y-94100000D02*
X137900500Y-94925000D01*
X80707500Y-35405000D02*
X80607500Y-35505000D01*
X60557500Y-74480000D02*
X60682500Y-74480000D01*
X122907500Y-103205000D02*
X118607500Y-98905000D01*
X100907500Y-76605000D02*
X100607500Y-76605000D01*
X117757500Y-76855000D02*
X117557500Y-76855000D01*
X101707500Y-96905000D02*
X108907500Y-98905000D01*
X102507500Y-78205000D02*
X100907500Y-76605000D01*
X101007500Y-57505000D02*
X100307500Y-57505000D01*
X124607500Y-40205000D02*
X124607500Y-40554990D01*
X41557500Y-41230000D02*
X41732500Y-41230000D01*
X62507500Y-76305000D02*
X54639312Y-76305000D01*
X117118753Y-40215010D02*
X117128763Y-40205000D01*
X62407500Y-38705000D02*
X54007500Y-38705000D01*
X37096247Y-61590010D02*
X36896237Y-61390000D01*
X137887500Y-94925000D02*
X137407500Y-95405000D01*
X117907500Y-59105000D02*
X117807500Y-59205000D01*
X108563455Y-97860955D02*
X108563455Y-97303403D01*
X43107500Y-42605000D02*
X43007500Y-42505000D01*
X70707500Y-57405000D02*
X61807500Y-57405000D01*
X36896237Y-61390000D02*
X23892500Y-61390000D01*
X133977500Y-77870000D02*
X133967500Y-77880000D01*
X81007500Y-54405000D02*
X81807500Y-55205000D01*
X23892500Y-61390000D02*
X22732500Y-60230000D01*
X118607500Y-98905000D02*
X109107500Y-98905000D01*
X100582500Y-57505000D02*
X101007500Y-57505000D01*
X130596500Y-77880000D02*
X130271500Y-78205000D01*
X119407500Y-78205000D02*
X119107500Y-78205000D01*
X124607500Y-40554990D02*
X124657511Y-40605001D01*
X23887500Y-42410000D02*
X22707500Y-41230000D01*
X124657511Y-40605001D02*
X124957510Y-40905000D01*
X98557500Y-36480000D02*
X98708598Y-36631098D01*
X79557500Y-53105000D02*
X79707500Y-53105000D01*
X130271500Y-78205000D02*
X119707500Y-78205000D01*
X60557500Y-55480000D02*
X60682500Y-55480000D01*
X80607500Y-35505000D02*
X73507500Y-35505000D01*
X62407500Y-38705000D02*
X64107500Y-38705000D01*
X133967500Y-77880000D02*
X130596500Y-77880000D01*
X81807500Y-55205000D02*
X81107500Y-54505000D01*
X98557500Y-55480000D02*
X100582500Y-57505000D01*
X43107500Y-80605000D02*
X43407500Y-80605000D01*
X117807500Y-59205000D02*
X111607500Y-59205000D01*
X119707500Y-78205000D02*
X102507500Y-78205000D01*
X42407500Y-41905000D02*
X43007500Y-42505000D01*
X24007500Y-80605000D02*
X22632500Y-79230000D01*
X111607500Y-59205000D02*
X109907500Y-57505000D01*
X107082500Y-38380000D02*
X108907500Y-40205000D01*
X91407500Y-94105000D02*
X94207500Y-96905000D01*
X50107500Y-42605000D02*
X43107500Y-42605000D01*
X22632500Y-79230000D02*
X22557500Y-79230000D01*
X72572496Y-73555000D02*
X77307500Y-73555000D01*
X134104723Y-101607777D02*
X132507500Y-103205000D01*
X79912500Y-74555000D02*
X79557500Y-74555000D01*
X62107500Y-76305000D02*
X69822496Y-76305000D01*
X84107500Y-57505000D02*
X81007500Y-54405000D01*
X81207500Y-54605000D02*
X81807500Y-55205000D01*
X117128763Y-40205000D02*
X124607500Y-40205000D01*
X80807500Y-35305000D02*
X80707500Y-35405000D01*
X73607500Y-54505000D02*
X70707500Y-57405000D01*
X62667502Y-37154998D02*
X61232498Y-37154998D01*
X133977500Y-77870000D02*
X133977500Y-80462000D01*
X73507500Y-35505000D02*
X70307500Y-38705000D01*
X80562500Y-73905000D02*
X79912500Y-74555000D01*
X37096247Y-42590010D02*
X36916237Y-42410000D01*
X41732500Y-79230000D02*
X43107500Y-80605000D01*
X133977500Y-80462000D02*
X138725500Y-85210000D01*
X113096247Y-40215010D02*
X117118753Y-40215010D01*
X79707500Y-53105000D02*
X81807500Y-55205000D01*
X94207500Y-96905000D02*
X101707500Y-96905000D01*
X117907500Y-59105000D02*
X117407500Y-58605000D01*
X49822490Y-61590010D02*
X37096247Y-61590010D01*
X105227500Y-38380000D02*
X83882500Y-38380000D01*
X79607500Y-72105000D02*
X79557500Y-72105000D01*
X109565052Y-98905000D02*
X109586276Y-98883776D01*
X41557500Y-79230000D02*
X41732500Y-79230000D01*
X60682500Y-74480000D02*
X62507500Y-76305000D01*
X136155577Y-95405000D02*
X135802339Y-95758238D01*
X119107500Y-78205000D02*
X117757500Y-76855000D01*
X41732500Y-60230000D02*
X41557500Y-60230000D01*
X50339312Y-80605000D02*
X43407500Y-80605000D01*
X119707500Y-78205000D02*
X119407500Y-78205000D01*
X102082500Y-38380000D02*
X107082500Y-38380000D01*
X81407500Y-73905000D02*
X84107500Y-76605000D01*
X54007500Y-57405000D02*
X49822490Y-61590010D01*
X42967500Y-61590010D02*
X42967500Y-61465000D01*
X109907500Y-57505000D02*
X99609500Y-57505000D01*
X124607500Y-40205000D02*
X125483270Y-40205000D01*
X101007500Y-57505000D02*
X84107500Y-57505000D01*
X83882500Y-38380000D02*
X80907500Y-35405000D01*
X54639312Y-76305000D02*
X50339312Y-80605000D01*
X79632500Y-34105000D02*
X80807500Y-35280000D01*
X108907500Y-98905000D02*
X109565052Y-98905000D01*
X64107500Y-38705000D02*
X64107500Y-38594996D01*
D29*
X13022500Y-52240000D02*
X13022500Y-54190000D01*
X13007500Y-50205000D02*
X13007500Y-52225000D01*
X48420688Y-63805000D02*
X34002500Y-63805000D01*
X119248547Y-60263953D02*
X111689829Y-60263953D01*
X109570843Y-58144967D02*
X54080720Y-58144968D01*
X13431764Y-66705000D02*
X13007500Y-66705000D01*
X34002500Y-63805000D02*
X30787500Y-67020000D01*
X54080720Y-58144968D02*
X48420688Y-63805000D01*
X30787500Y-67020000D02*
X28022500Y-67020000D01*
X28022500Y-67020000D02*
X27707500Y-66705000D01*
X13007500Y-69205000D02*
X13007500Y-71225000D01*
X120907500Y-58605000D02*
X119248547Y-60263953D01*
X13022500Y-54190000D02*
X13007500Y-54205000D01*
X13022500Y-33240000D02*
X13022500Y-35190000D01*
D30*
X124234502Y-45071398D02*
X124234502Y-55267658D01*
D29*
X13022500Y-35190000D02*
X13007500Y-35205000D01*
X111689829Y-60263953D02*
X109570843Y-58144967D01*
X13007500Y-52225000D02*
X13022500Y-52240000D01*
X27707500Y-66705000D02*
X13431764Y-66705000D01*
D30*
X124234502Y-55267658D02*
X120948173Y-58553987D01*
D29*
X13007500Y-71225000D02*
X13022500Y-71240000D01*
D30*
X127203900Y-42102000D02*
X124234502Y-45071398D01*
X127203900Y-44642000D02*
X124688510Y-47157390D01*
X54267950Y-58596978D02*
X48559928Y-64305000D01*
D29*
X32022500Y-33240000D02*
X32022500Y-35190000D01*
X32022500Y-52240000D02*
X32022500Y-50252567D01*
D30*
X111502599Y-60715963D02*
X109383614Y-58596978D01*
D29*
X33096948Y-65594450D02*
X32796949Y-65894449D01*
X32022500Y-50252567D02*
X31964840Y-50194907D01*
X32022500Y-54190000D02*
X32022500Y-52240000D01*
D30*
X109383614Y-58596978D02*
X54267950Y-58596978D01*
D29*
X45807500Y-64305000D02*
X34386398Y-64305000D01*
X32107500Y-69205000D02*
X32107500Y-71155000D01*
X31707500Y-54405000D02*
X32022500Y-54190000D01*
X32107500Y-71155000D02*
X32022500Y-71240000D01*
D30*
X124688510Y-55515201D02*
X119487747Y-60715964D01*
X119487747Y-60715964D02*
X111502599Y-60715963D01*
D29*
X34386398Y-64305000D02*
X33096948Y-65594450D01*
D30*
X124688510Y-47157390D02*
X124688510Y-55515201D01*
D29*
X32022500Y-35190000D02*
X32007500Y-35205000D01*
D30*
X48559928Y-64305000D02*
X45807500Y-64305000D01*
D29*
X51007500Y-66475000D02*
X51022500Y-66490000D01*
X51022500Y-47490000D02*
X51022500Y-49490000D01*
X51007500Y-45505000D02*
X51007500Y-47475000D01*
D30*
X109195557Y-59050989D02*
X54700667Y-59050989D01*
D29*
X51022500Y-30490000D02*
X51007500Y-30505000D01*
D30*
X119675805Y-61169975D02*
X111314543Y-61169975D01*
X52877077Y-60874579D02*
X52577078Y-61174578D01*
X125142521Y-55703259D02*
X119675805Y-61169975D01*
D29*
X51007500Y-64505000D02*
X51007500Y-66475000D01*
D30*
X111314543Y-61169975D02*
X109195557Y-59050989D01*
X54700667Y-59050989D02*
X52877077Y-60874579D01*
D29*
X51022500Y-28490000D02*
X51022500Y-30490000D01*
X51022500Y-49490000D02*
X51007500Y-49505000D01*
D30*
X127203900Y-47182000D02*
X125142521Y-49243379D01*
X125142521Y-49243379D02*
X125142521Y-55703259D01*
D29*
X51007500Y-47475000D02*
X51022500Y-47490000D01*
X79507500Y-84305000D02*
X79507500Y-86100000D01*
X70022500Y-26115000D02*
X70022500Y-28090000D01*
D30*
X127203900Y-49722000D02*
X127105500Y-49722000D01*
X111126486Y-61623986D02*
X109007500Y-59505000D01*
D29*
X79507500Y-86100000D02*
X79522500Y-86115000D01*
X70022500Y-28090000D02*
X70007500Y-28105000D01*
X70007500Y-64100000D02*
X70022500Y-64115000D01*
D30*
X119863862Y-61623986D02*
X111126486Y-61623986D01*
D29*
X70007500Y-62105000D02*
X70007500Y-64100000D01*
X70022500Y-64115000D02*
X70022500Y-65690000D01*
X70022500Y-45115000D02*
X70022500Y-47090000D01*
X70022500Y-65690000D02*
X70007500Y-65705000D01*
D30*
X109007500Y-59505000D02*
X71031764Y-59505000D01*
X125596532Y-55891316D02*
X119863862Y-61623986D01*
D29*
X70007500Y-43105000D02*
X70007500Y-45100000D01*
X70007500Y-45100000D02*
X70022500Y-45115000D01*
D30*
X70831764Y-59705000D02*
X70407500Y-59705000D01*
X71031764Y-59505000D02*
X70831764Y-59705000D01*
X125596532Y-51230968D02*
X125596532Y-55891316D01*
X125596532Y-51230968D02*
X127177500Y-49650000D01*
D29*
X70022500Y-47090000D02*
X70007500Y-47105000D01*
D30*
X129527500Y-54540000D02*
X127177500Y-52190000D01*
X89707500Y-60005000D02*
X89407500Y-60305000D01*
X108807500Y-60005000D02*
X89707500Y-60005000D01*
D29*
X89007500Y-66475000D02*
X89022500Y-66490000D01*
X89022500Y-30490000D02*
X89007500Y-30505000D01*
D31*
X89022500Y-68490000D02*
X89007500Y-68505000D01*
D29*
X89007500Y-64505000D02*
X89007500Y-66475000D01*
D30*
X129527500Y-62150000D02*
X129527500Y-54540000D01*
D29*
X89007500Y-45505000D02*
X89007500Y-47475000D01*
D30*
X127041500Y-62096000D02*
X127032500Y-62105000D01*
D29*
X89022500Y-28490000D02*
X89022500Y-30490000D01*
D30*
X127041500Y-63874000D02*
X127803500Y-63874000D01*
D29*
X89007500Y-47475000D02*
X89022500Y-47490000D01*
D31*
X89022500Y-66490000D02*
X89022500Y-68490000D01*
D30*
X127032500Y-62105000D02*
X110907500Y-62105000D01*
D29*
X89022500Y-49490000D02*
X89007500Y-49505000D01*
X89022500Y-47490000D02*
X89022500Y-49490000D01*
D30*
X110907500Y-62105000D02*
X108807500Y-60005000D01*
X127803500Y-63874000D02*
X129527500Y-62150000D01*
D31*
X101807500Y-87005000D02*
X100307499Y-85504999D01*
X100307499Y-85504999D02*
X100007500Y-85205000D01*
D29*
X108022500Y-30865000D02*
X108022500Y-32790000D01*
X123707500Y-100205000D02*
X123931085Y-100205000D01*
D30*
X129073500Y-57016000D02*
X129073500Y-61842000D01*
D29*
X108022500Y-32790000D02*
X108007500Y-32805000D01*
X108007500Y-47905000D02*
X108007500Y-49850000D01*
X108022500Y-51790000D02*
X108007500Y-51805000D01*
X108022500Y-49865000D02*
X108022500Y-51790000D01*
X108007500Y-49850000D02*
X108022500Y-49865000D01*
X122607500Y-99105000D02*
X123707500Y-100205000D01*
X108007500Y-68850000D02*
X108022500Y-68865000D01*
D30*
X127203900Y-54802000D02*
X127203900Y-55146400D01*
X127203900Y-55146400D02*
X129073500Y-57016000D01*
D29*
X108022500Y-68865000D02*
X108022500Y-70790000D01*
X108007500Y-66805000D02*
X108007500Y-68850000D01*
D30*
X108714504Y-63112000D02*
X108407504Y-62805000D01*
X129073500Y-61842000D02*
X127803500Y-63112000D01*
D29*
X123931085Y-100205000D02*
X124115295Y-100020790D01*
X122607500Y-99005000D02*
X122607500Y-99105000D01*
D30*
X127803500Y-63112000D02*
X108714504Y-63112000D01*
D29*
X108022500Y-70790000D02*
X108007500Y-70805000D01*
X144107500Y-33560000D02*
X142417500Y-31870000D01*
X138332608Y-95306065D02*
X139487500Y-94151173D01*
X139487500Y-94151173D02*
X139487500Y-87400000D01*
X131613500Y-101974000D02*
X133107500Y-100480000D01*
X131613500Y-105276000D02*
X132375500Y-105276000D01*
X132375500Y-105276000D02*
X134915500Y-102736000D01*
X134915500Y-101351716D02*
X138332608Y-95306065D01*
X133107500Y-100480000D02*
X133107500Y-100246601D01*
X134915500Y-102736000D02*
X134915500Y-101351716D01*
X139487500Y-87400000D02*
X144107500Y-82780000D01*
X133107500Y-100246601D02*
X133352339Y-100001762D01*
X144107500Y-82780000D02*
X144107500Y-33560000D01*
X127107500Y-69780000D02*
X137107500Y-69780000D01*
X138107500Y-68780000D02*
X140467501Y-68780000D01*
X129835500Y-62858000D02*
X127041500Y-65652000D01*
X140467501Y-68780000D02*
X141167500Y-69479999D01*
X141167500Y-69479999D02*
X142357500Y-69479999D01*
X137107500Y-69780000D02*
X138107500Y-68780000D01*
X282489500Y-30695000D02*
X284214500Y-32420000D01*
X282456500Y-30695000D02*
X282489500Y-30695000D01*
X284214500Y-32420000D02*
X284214500Y-34000000D01*
X265214500Y-32490000D02*
X265214500Y-34000000D01*
X263456500Y-30695000D02*
X263456500Y-30732000D01*
X263456500Y-30732000D02*
X265214500Y-32490000D01*
X244456500Y-25945000D02*
X244456500Y-26012000D01*
X246214500Y-27770000D02*
X246214500Y-29250000D01*
X244456500Y-26012000D02*
X246214500Y-27770000D01*
X225456500Y-23572000D02*
X227214500Y-25330000D01*
X227214500Y-25330000D02*
X227214500Y-26875000D01*
X225456500Y-23570000D02*
X225456500Y-23572000D01*
X208214500Y-27690000D02*
X208214500Y-29250000D01*
X206469500Y-25945000D02*
X208214500Y-27690000D01*
X206456500Y-25945000D02*
X206469500Y-25945000D01*
X189207500Y-30143000D02*
X189207500Y-31630000D01*
X187456500Y-28392000D02*
X189207500Y-30143000D01*
X187456500Y-28320000D02*
X187456500Y-28392000D01*
X199647500Y-25665000D02*
X203697500Y-29715000D01*
X280682500Y-37550000D02*
X284214500Y-37550000D01*
X205082500Y-32800000D02*
X208214500Y-32800000D01*
X226464500Y-30425000D02*
X227214500Y-30425000D01*
X260757500Y-36545000D02*
X261762500Y-37550000D01*
X256917500Y-30825000D02*
X260757500Y-34665000D01*
X248087500Y-30825000D02*
X256917500Y-30825000D01*
X180487500Y-27965000D02*
X184897500Y-32375000D01*
X224197500Y-30425000D02*
X226464500Y-30425000D01*
X174063522Y-27965000D02*
X180487500Y-27965000D01*
X210067500Y-28205000D02*
X210097500Y-28175000D01*
X192767500Y-25665000D02*
X199647500Y-25665000D01*
X222487500Y-27275000D02*
X222487500Y-28715000D01*
X260757500Y-34665000D02*
X260757500Y-36545000D01*
X210097500Y-28175000D02*
X210097500Y-24435000D01*
X279797500Y-34815000D02*
X279797500Y-36665000D01*
X171063762Y-31389024D02*
X171063762Y-30964760D01*
X189957500Y-35180000D02*
X191087500Y-34050000D01*
X267117500Y-36397000D02*
X267117500Y-32155000D01*
X208964500Y-32800000D02*
X210067500Y-31697000D01*
X210067500Y-31697000D02*
X210067500Y-28205000D01*
X218347500Y-23135000D02*
X222487500Y-27275000D01*
X171063762Y-30964760D02*
X174063522Y-27965000D01*
X227214500Y-30425000D02*
X227964500Y-30425000D01*
X265964500Y-37550000D02*
X267117500Y-36397000D01*
X229197500Y-27706998D02*
X230959498Y-25945000D01*
X267117500Y-32155000D02*
X268697500Y-30575000D01*
X275557500Y-30575000D02*
X279797500Y-34815000D01*
X265214500Y-37550000D02*
X265964500Y-37550000D01*
X242632500Y-32800000D02*
X246112500Y-32800000D01*
X241747500Y-29239002D02*
X241747500Y-31915000D01*
X191087500Y-34050000D02*
X191087500Y-27345000D01*
X189207500Y-35180000D02*
X189957500Y-35180000D01*
X203697500Y-29715000D02*
X203697500Y-31415000D01*
X211397500Y-23135000D02*
X218347500Y-23135000D01*
X227964500Y-30425000D02*
X229197500Y-29192000D01*
X268697500Y-30575000D02*
X275557500Y-30575000D01*
X238453498Y-25945000D02*
X241747500Y-29239002D01*
X184897500Y-34035000D02*
X186042500Y-35180000D01*
X210097500Y-24435000D02*
X211397500Y-23135000D01*
X222487500Y-28715000D02*
X224197500Y-30425000D01*
X184897500Y-32375000D02*
X184897500Y-34035000D01*
X170485900Y-46265000D02*
X173357500Y-46265000D01*
X261762500Y-37550000D02*
X265214500Y-37550000D01*
X246112500Y-32800000D02*
X248087500Y-30825000D01*
X241747500Y-31915000D02*
X242632500Y-32800000D01*
X186042500Y-35180000D02*
X189207500Y-35180000D01*
X203697500Y-31415000D02*
X205082500Y-32800000D01*
X169598900Y-47152000D02*
X170485900Y-46265000D01*
X191087500Y-27345000D02*
X192767500Y-25665000D01*
X230959498Y-25945000D02*
X238453498Y-25945000D01*
X208214500Y-32800000D02*
X208964500Y-32800000D01*
X279797500Y-36665000D02*
X280682500Y-37550000D01*
X229197500Y-29192000D02*
X229197500Y-27706998D01*
X282519500Y-49695000D02*
X284214500Y-51390000D01*
X284214500Y-51600000D02*
X284214500Y-52850000D01*
X284214500Y-51390000D02*
X284214500Y-51600000D01*
X282456500Y-49695000D02*
X282519500Y-49695000D01*
X265214500Y-51530000D02*
X265214500Y-53000000D01*
X263456500Y-49695000D02*
X263456500Y-49772000D01*
X263456500Y-49772000D02*
X265214500Y-51530000D01*
X246214500Y-46610000D02*
X246214500Y-48250000D01*
X244456500Y-44945000D02*
X244549500Y-44945000D01*
X244549500Y-44945000D02*
X246214500Y-46610000D01*
X225456500Y-42570000D02*
X225456500Y-42642000D01*
X225456500Y-42642000D02*
X227214500Y-44400000D01*
X227214500Y-44400000D02*
X227214500Y-45875000D01*
X208214500Y-46730000D02*
X208214500Y-48250000D01*
X206456500Y-44972000D02*
X208214500Y-46730000D01*
X206456500Y-44945000D02*
X206456500Y-44972000D01*
X237067500Y-44165000D02*
X241647500Y-48745000D01*
X230097500Y-44165000D02*
X237067500Y-44165000D01*
X227964500Y-49425000D02*
X229167500Y-48222000D01*
X229167500Y-45095000D02*
X230097500Y-44165000D01*
X241647500Y-50505000D02*
X242942500Y-51800000D01*
X211367500Y-42065000D02*
X217767500Y-42065000D01*
X246214500Y-51800000D02*
X246964500Y-51800000D01*
X260987500Y-55415000D02*
X262122500Y-56550000D01*
X180457500Y-47155000D02*
X184957500Y-51655000D01*
X224117500Y-49425000D02*
X227214500Y-49425000D01*
X184957500Y-51655000D02*
X184957500Y-53055000D01*
X262122500Y-56550000D02*
X265214500Y-56550000D01*
X186082500Y-54180000D02*
X189207500Y-54180000D01*
X191127500Y-53010000D02*
X191127500Y-46220000D01*
X217767500Y-42065000D02*
X222757500Y-47055000D01*
X242942500Y-51800000D02*
X246214500Y-51800000D01*
X279457500Y-52699002D02*
X279457500Y-55265000D01*
X276213498Y-49455000D02*
X279457500Y-52699002D01*
X249159500Y-49605000D02*
X256607500Y-49605000D01*
X256607500Y-49605000D02*
X260987500Y-53985000D01*
X172527500Y-47155000D02*
X180457500Y-47155000D01*
X267027500Y-51095000D02*
X268667500Y-49455000D01*
X210047500Y-50717000D02*
X210047500Y-43385000D01*
X227214500Y-49425000D02*
X227964500Y-49425000D01*
X268667500Y-49455000D02*
X276213498Y-49455000D01*
X208214500Y-51800000D02*
X208964500Y-51800000D01*
X189207500Y-54180000D02*
X189957500Y-54180000D01*
X210047500Y-43385000D02*
X211367500Y-42065000D01*
X279457500Y-55265000D02*
X280592500Y-56400000D01*
X169598900Y-49692000D02*
X169990500Y-49692000D01*
X229167500Y-48222000D02*
X229167500Y-45095000D01*
X198697500Y-43495000D02*
X203757500Y-48555000D01*
X246964500Y-51800000D02*
X249159500Y-49605000D01*
X265214500Y-56550000D02*
X265214500Y-56248000D01*
X184957500Y-53055000D02*
X186082500Y-54180000D01*
X189957500Y-54180000D02*
X191127500Y-53010000D01*
X280592500Y-56400000D02*
X284214500Y-56400000D01*
X241647500Y-48745000D02*
X241647500Y-50505000D01*
X265214500Y-56248000D02*
X267027500Y-54435000D01*
X204642500Y-51800000D02*
X208214500Y-51800000D01*
X191127500Y-46220000D02*
X193852500Y-43495000D01*
X169990500Y-49692000D02*
X172527500Y-47155000D01*
X203757500Y-48555000D02*
X203757500Y-50915000D01*
X222757500Y-48065000D02*
X224117500Y-49425000D01*
X222757500Y-47055000D02*
X222757500Y-48065000D01*
X267027500Y-54435000D02*
X267027500Y-51095000D01*
X193852500Y-43495000D02*
X198697500Y-43495000D01*
X203757500Y-50915000D02*
X204642500Y-51800000D01*
X260987500Y-53985000D02*
X260987500Y-55415000D01*
X208964500Y-51800000D02*
X210047500Y-50717000D01*
X189207500Y-49003000D02*
X189207500Y-50630000D01*
X187524500Y-47320000D02*
X189207500Y-49003000D01*
X187456500Y-47320000D02*
X187524500Y-47320000D01*
X282456500Y-68695000D02*
X282479500Y-68695000D01*
X284214500Y-70430000D02*
X284214500Y-72000000D01*
X282479500Y-68695000D02*
X284214500Y-70430000D01*
X263469500Y-68695000D02*
X265214500Y-70440000D01*
X265214500Y-70440000D02*
X265214500Y-72000000D01*
X263456500Y-68695000D02*
X263469500Y-68695000D01*
X244469500Y-63945000D02*
X246214500Y-65690000D01*
X246214500Y-65690000D02*
X246214500Y-67250000D01*
X244456500Y-63945000D02*
X244469500Y-63945000D01*
X225456500Y-61592000D02*
X227214500Y-63350000D01*
X225456500Y-61570000D02*
X225456500Y-61592000D01*
X227214500Y-63350000D02*
X227214500Y-64875000D01*
X206456500Y-63945000D02*
X206489500Y-63945000D01*
X206489500Y-63945000D02*
X208214500Y-65670000D01*
X208214500Y-65670000D02*
X208214500Y-67250000D01*
X170747500Y-52985000D02*
X170747500Y-53930010D01*
X229907500Y-63385000D02*
X237097500Y-63385000D01*
X227214500Y-68425000D02*
X227964500Y-68425000D01*
X208964500Y-70800000D02*
X210167500Y-69597000D01*
X169994500Y-52232000D02*
X170747500Y-52985000D01*
X203757500Y-69395000D02*
X205162500Y-70800000D01*
X189957500Y-73180000D02*
X191147500Y-71990000D01*
X275157500Y-68345000D02*
X268357500Y-68345000D01*
X175232500Y-62500000D02*
X175427500Y-62305000D01*
X191247500Y-62305000D02*
X192437500Y-63495000D01*
X249207500Y-68557000D02*
X256549500Y-68557000D01*
X218967500Y-61505000D02*
X222577500Y-65115000D01*
X281027500Y-75605000D02*
X279697500Y-74275000D01*
X229137500Y-67252000D02*
X229137500Y-64155000D01*
X175427500Y-62305000D02*
X191247500Y-62305000D01*
X208214500Y-70800000D02*
X208964500Y-70800000D01*
X211817500Y-61505000D02*
X218967500Y-61505000D01*
X279697500Y-72885000D02*
X275157500Y-68345000D01*
X260957500Y-74575000D02*
X261932500Y-75550000D01*
X199307500Y-63495000D02*
X203757500Y-67945000D01*
X237097500Y-63385000D02*
X241527500Y-67815000D01*
X246964500Y-70800000D02*
X249207500Y-68557000D01*
X279697500Y-74275000D02*
X279697500Y-72885000D01*
X227964500Y-68425000D02*
X229137500Y-67252000D01*
X189207500Y-73180000D02*
X189957500Y-73180000D01*
X261932500Y-75550000D02*
X264464500Y-75550000D01*
X268357500Y-68345000D02*
X267027500Y-69675000D01*
X227687500Y-68425000D02*
X227214500Y-68425000D01*
X260957500Y-72965000D02*
X260957500Y-74575000D01*
X191147500Y-71990000D02*
X191147500Y-64785000D01*
X210167500Y-63155000D02*
X211817500Y-61505000D01*
X169598900Y-52232000D02*
X169994500Y-52232000D01*
X229137500Y-64155000D02*
X229907500Y-63385000D01*
X267027500Y-69675000D02*
X267027500Y-73475000D01*
X284214500Y-75550000D02*
X283464500Y-75550000D01*
X246214500Y-70800000D02*
X246964500Y-70800000D01*
X283464500Y-75550000D02*
X283409500Y-75605000D01*
X191147500Y-64785000D02*
X192437500Y-63495000D01*
X205162500Y-70800000D02*
X208214500Y-70800000D01*
X243052500Y-70800000D02*
X246214500Y-70800000D01*
X241527500Y-67815000D02*
X241527500Y-69275000D01*
X223087500Y-68425000D02*
X227687500Y-68425000D01*
X210167500Y-69597000D02*
X210167500Y-63155000D01*
X170747500Y-53930010D02*
X175232500Y-58415010D01*
X256549500Y-68557000D02*
X260957500Y-72965000D01*
X203757500Y-67945000D02*
X203757500Y-69395000D01*
X241527500Y-69275000D02*
X243052500Y-70800000D01*
X267027500Y-73475000D02*
X265214500Y-75288000D01*
X264464500Y-75550000D02*
X265214500Y-75550000D01*
X192437500Y-63495000D02*
X199307500Y-63495000D01*
X265214500Y-75288000D02*
X265214500Y-75550000D01*
X222577500Y-65115000D02*
X222577500Y-67915000D01*
X283409500Y-75605000D02*
X281027500Y-75605000D01*
X222577500Y-67915000D02*
X223087500Y-68425000D01*
X187456500Y-66320000D02*
X187456500Y-66362000D01*
X187456500Y-66362000D02*
X188964728Y-67870228D01*
X188964728Y-69192990D02*
X188964729Y-69192991D01*
X188964728Y-67870228D02*
X188964728Y-69192990D01*
X215956500Y-83570000D02*
X216072500Y-83570000D01*
X217714500Y-85212000D02*
X217714500Y-86860000D01*
X216072500Y-83570000D02*
X217714500Y-85212000D01*
X197979543Y-83940043D02*
X199664500Y-85625000D01*
X194483671Y-83940043D02*
X197979543Y-83940043D01*
X199664500Y-85625000D02*
X199664500Y-86875000D01*
X193442638Y-84981076D02*
X194483671Y-83940043D01*
X184326089Y-86170000D02*
X176497500Y-86170000D01*
X176497500Y-86170000D02*
X174647500Y-88020000D01*
X196627500Y-86875000D02*
X194867489Y-88635011D01*
X186791100Y-88635011D02*
X184326089Y-86170000D01*
X196814500Y-86875000D02*
X196627500Y-86875000D01*
X174647500Y-97206729D02*
X174184909Y-97669320D01*
X194867489Y-88635011D02*
X186791100Y-88635011D01*
X174647500Y-88020000D02*
X174647500Y-97206729D01*
D31*
X136185500Y-35562000D02*
X136185500Y-37458000D01*
X142417500Y-29330000D02*
X136185500Y-35562000D01*
D29*
X215969500Y-91405000D02*
X201394500Y-91405000D01*
X199664500Y-90425000D02*
X198914500Y-90425000D01*
X200414500Y-90425000D02*
X199664500Y-90425000D01*
X186977500Y-88185000D02*
X194647500Y-88185000D01*
X216964500Y-90410000D02*
X215969500Y-91405000D01*
X201394500Y-91405000D02*
X200414500Y-90425000D01*
X198914500Y-90425000D02*
X198167500Y-90405000D01*
X167110558Y-85628058D02*
X184420558Y-85628058D01*
X197797500Y-90035000D02*
X198167500Y-90405000D01*
X184420558Y-85628058D02*
X186977500Y-88185000D01*
X196139498Y-85465000D02*
X197489502Y-85465000D01*
X217714500Y-90410000D02*
X216964500Y-90410000D01*
X195807500Y-87025000D02*
X195807500Y-85796998D01*
X194647500Y-88185000D02*
X195807500Y-87025000D01*
X195807500Y-85796998D02*
X196139498Y-85465000D01*
X198167500Y-90405000D02*
X196814500Y-90425000D01*
X170934500Y-54772000D02*
X172537500Y-56375000D01*
X172537500Y-56375000D02*
X172537500Y-58715000D01*
X197797500Y-85772998D02*
X197797500Y-90035000D01*
X169598900Y-54772000D02*
X170934500Y-54772000D01*
X197489502Y-85465000D02*
X197797500Y-85772998D01*
D31*
X134797500Y-28893000D02*
X134797500Y-33258000D01*
X133645500Y-34410000D02*
X133645500Y-37458000D01*
X134797500Y-33258000D02*
X133645500Y-34410000D01*
D29*
X160769661Y-95493430D02*
X159807500Y-94531269D01*
X169713500Y-31870000D02*
X167681500Y-33902000D01*
X160337500Y-95171077D02*
X160919661Y-95753238D01*
X169205500Y-65144000D02*
X163109500Y-65144000D01*
X163109500Y-65144000D02*
X161839500Y-63874000D01*
X159807500Y-94531269D02*
X159807500Y-93846000D01*
X167681500Y-33902000D02*
X167681500Y-37204000D01*
X159807500Y-93846000D02*
X159857000Y-93846000D01*
X155587500Y-61810000D02*
X154557500Y-62840000D01*
X154557500Y-62840000D02*
X154557500Y-64480000D01*
X159519327Y-61148173D02*
X158857500Y-61810000D01*
X158857500Y-61810000D02*
X155587500Y-61810000D01*
D30*
X154383900Y-42073000D02*
X154450500Y-42073000D01*
D29*
X251097492Y-64275000D02*
X263142500Y-64275000D01*
D30*
X154450500Y-42073000D02*
X157567501Y-45190001D01*
D29*
X263142500Y-64275000D02*
X265817500Y-66950000D01*
D30*
X194593158Y-59875966D02*
X197085145Y-57383979D01*
D29*
X269529500Y-52235000D02*
X269529500Y-54467000D01*
D30*
X172177110Y-61674944D02*
X173976088Y-59875966D01*
X157567501Y-55070001D02*
X164172444Y-61674944D01*
D29*
X250297501Y-63475009D02*
X251097492Y-64275000D01*
D30*
X242591479Y-57383979D02*
X243787500Y-58580000D01*
D29*
X248692509Y-63475009D02*
X250297501Y-63475009D01*
X269507500Y-71213000D02*
X269529500Y-71235000D01*
X265817500Y-66950000D02*
X269147500Y-66950000D01*
D30*
X164172444Y-61674944D02*
X172177110Y-61674944D01*
D29*
X269507500Y-69305000D02*
X269507500Y-71213000D01*
X269529500Y-50268010D02*
X269592510Y-50205000D01*
D30*
X173976088Y-59875966D02*
X194593158Y-59875966D01*
X197085145Y-57383979D02*
X242591479Y-57383979D01*
X157567501Y-45190001D02*
X157567501Y-55070001D01*
D29*
X269529500Y-33235000D02*
X269529500Y-35127000D01*
X269147500Y-66950000D02*
X269547500Y-66550000D01*
X269529500Y-35127000D02*
X269607500Y-35205000D01*
X269529500Y-52235000D02*
X269529500Y-50268010D01*
X243787500Y-58570000D02*
X248692509Y-63475009D01*
X269529500Y-54467000D02*
X269617500Y-54555000D01*
X250507500Y-69205000D02*
X250507500Y-71213000D01*
D30*
X154383900Y-44613000D02*
X157113491Y-47342591D01*
X172365167Y-62128955D02*
X174164145Y-60329977D01*
D29*
X250529500Y-54183000D02*
X250507500Y-54205000D01*
X248377500Y-63830000D02*
X248647510Y-64100010D01*
X250507500Y-50305000D02*
X250507500Y-52213000D01*
X250529500Y-52235000D02*
X250529500Y-54183000D01*
D30*
X157113491Y-55288059D02*
X163954387Y-62128955D01*
X194781216Y-60329976D02*
X197273203Y-57837989D01*
D29*
X250507500Y-52213000D02*
X250529500Y-52235000D01*
D30*
X163954387Y-62128955D02*
X172365167Y-62128955D01*
X197273203Y-57837989D02*
X242364729Y-57837989D01*
D29*
X250529500Y-33235000D02*
X250529500Y-35083000D01*
X248647510Y-64100010D02*
X249997500Y-64100010D01*
X250507500Y-71213000D02*
X250529500Y-71235000D01*
D30*
X157113491Y-47342591D02*
X157113491Y-55288059D01*
D29*
X250529500Y-35083000D02*
X250507500Y-35105000D01*
D30*
X243607500Y-59040000D02*
X248417500Y-63850000D01*
X242364729Y-57837989D02*
X243496865Y-58970125D01*
X243496865Y-58970125D02*
X243607500Y-59040000D01*
X174164145Y-60329977D02*
X194781216Y-60329976D01*
D29*
X231529500Y-30283000D02*
X231507500Y-30305000D01*
D30*
X156659480Y-55476116D02*
X163766330Y-62582966D01*
D29*
X231529500Y-49427000D02*
X231607500Y-49505000D01*
X231507500Y-47463000D02*
X231529500Y-47485000D01*
D30*
X231021398Y-58300000D02*
X231234449Y-58513051D01*
D29*
X231607500Y-66407000D02*
X231529500Y-66485000D01*
D30*
X156659480Y-49428580D02*
X156659480Y-55476116D01*
X172553225Y-62582965D02*
X174352202Y-60783988D01*
D29*
X231607500Y-64505000D02*
X231607500Y-66407000D01*
D30*
X194969272Y-60783988D02*
X197453260Y-58300000D01*
D29*
X231529500Y-47485000D02*
X231529500Y-49427000D01*
D30*
X174352202Y-60783988D02*
X194969272Y-60783988D01*
X154383900Y-47153000D02*
X156659480Y-49428580D01*
D29*
X231529500Y-28485000D02*
X231529500Y-30283000D01*
D30*
X163766330Y-62582966D02*
X172553225Y-62582965D01*
D29*
X231507500Y-45505000D02*
X231507500Y-47463000D01*
D30*
X197453260Y-58300000D02*
X231021398Y-58300000D01*
D29*
X197628704Y-58810000D02*
X211897500Y-58810000D01*
X212507500Y-43105000D02*
X212507500Y-45088000D01*
D30*
X163578273Y-63036977D02*
X172741281Y-63036977D01*
D29*
X212507500Y-62205000D02*
X212507500Y-64088000D01*
X212529500Y-45110000D02*
X212529500Y-47083000D01*
D30*
X156205469Y-55664173D02*
X163578273Y-63036977D01*
X156205469Y-51514569D02*
X156205469Y-55664173D01*
D29*
X196432683Y-60006021D02*
X197628704Y-58810000D01*
X212557500Y-65985000D02*
X212557500Y-64138000D01*
X212529500Y-27983000D02*
X212507500Y-28005000D01*
X203029500Y-84393000D02*
X203087500Y-84335000D01*
X212507500Y-45088000D02*
X212529500Y-45110000D01*
X212557500Y-64138000D02*
X212529500Y-64110000D01*
X212529500Y-26110000D02*
X212529500Y-27983000D01*
X211897500Y-58810000D02*
X212107500Y-59020000D01*
D30*
X195200705Y-61237999D02*
X196432683Y-60006021D01*
D29*
X212507500Y-64088000D02*
X212529500Y-64110000D01*
D30*
X154383900Y-49693000D02*
X156205469Y-51514569D01*
D29*
X203029500Y-86110000D02*
X203029500Y-84393000D01*
D30*
X172741281Y-63036977D02*
X174540259Y-61237999D01*
D29*
X212529500Y-47083000D02*
X212507500Y-47105000D01*
D30*
X174540259Y-61237999D02*
X195200705Y-61237999D01*
D29*
X193529500Y-28485000D02*
X193529500Y-30383000D01*
X193529500Y-49283000D02*
X193507500Y-49305000D01*
X193529500Y-30383000D02*
X193507500Y-30405000D01*
X193529500Y-68313000D02*
X193517500Y-68325000D01*
X192713236Y-61875000D02*
X193137500Y-61875000D01*
X193529500Y-66485000D02*
X193529500Y-68313000D01*
X181187500Y-90354266D02*
X181613515Y-90780281D01*
X172974749Y-63442749D02*
X174562509Y-61854989D01*
D30*
X154383900Y-52233000D02*
X155751460Y-53600560D01*
D29*
X193507500Y-64505000D02*
X193507500Y-66463000D01*
X192693225Y-61854989D02*
X192713236Y-61875000D01*
X193507500Y-47463000D02*
X193529500Y-47485000D01*
D30*
X155751460Y-53600560D02*
X155751460Y-55852232D01*
D29*
X193507500Y-66463000D02*
X193529500Y-66485000D01*
X172974749Y-63490989D02*
X172974749Y-63442749D01*
X193529500Y-47485000D02*
X193529500Y-49283000D01*
X193507500Y-45505000D02*
X193507500Y-47463000D01*
D30*
X163390217Y-63490989D02*
X172974749Y-63490989D01*
D29*
X181187500Y-88895000D02*
X181187500Y-90354266D01*
X174562509Y-61854989D02*
X192693225Y-61854989D01*
D30*
X155751460Y-55852232D02*
X163390217Y-63490989D01*
D29*
X173367500Y-63945000D02*
X174297500Y-63015000D01*
X173162804Y-63945000D02*
X173367500Y-63945000D01*
X174529500Y-51827000D02*
X174607500Y-51905000D01*
X174529500Y-70563000D02*
X174417500Y-70675000D01*
X174529500Y-32783000D02*
X174507500Y-32805000D01*
D30*
X163202160Y-63945000D02*
X173162804Y-63945000D01*
D29*
X174507500Y-49838000D02*
X174529500Y-49860000D01*
D30*
X154383900Y-55126740D02*
X163202160Y-63945000D01*
D29*
X174529500Y-30860000D02*
X174529500Y-32783000D01*
X174529500Y-49860000D02*
X174529500Y-51827000D01*
X174529500Y-68860000D02*
X174529500Y-70563000D01*
X174507500Y-66905000D02*
X174507500Y-68838000D01*
X166590915Y-86675000D02*
X165521705Y-87744210D01*
X166887500Y-86675000D02*
X166590915Y-86675000D01*
X174507500Y-47805000D02*
X174507500Y-49838000D01*
D30*
X154383900Y-54773000D02*
X154383900Y-55126740D01*
D29*
X174507500Y-68838000D02*
X174529500Y-68860000D01*
D31*
X262342510Y-42540010D02*
X261972490Y-42540010D01*
X261772490Y-80540010D02*
X261772490Y-80469990D01*
X278717500Y-61650000D02*
X279752500Y-60615000D01*
X216297490Y-35415010D02*
X223097490Y-35415010D01*
X203422480Y-74590000D02*
X204812480Y-75980000D01*
X185447490Y-78165010D02*
X184697490Y-78165010D01*
X242292510Y-75790010D02*
X242292510Y-75690010D01*
X278817500Y-42470000D02*
X279057500Y-42230000D01*
X204592510Y-37790010D02*
X203282500Y-36480000D01*
X261822490Y-80590010D02*
X278618753Y-80590010D01*
X278668753Y-80540010D02*
X278707490Y-80540010D01*
X159107500Y-80780000D02*
X162687500Y-77200000D01*
X171433226Y-40305000D02*
X171857490Y-40305000D01*
X241107500Y-36705000D02*
X241407500Y-36705000D01*
X223117510Y-54415010D02*
X223207500Y-54325020D01*
X278738763Y-42470000D02*
X278817500Y-42470000D01*
X241635688Y-55605000D02*
X247570698Y-61540010D01*
X154378900Y-39532000D02*
X155606900Y-40760000D01*
X222187480Y-72105000D02*
X222057500Y-72105000D01*
X223097490Y-35415010D02*
X223207500Y-35305000D01*
X254815678Y-42524990D02*
X254830698Y-42540010D01*
X171007500Y-40205000D02*
X171107500Y-40305000D01*
X193966393Y-97105000D02*
X192891582Y-96030189D01*
X225792510Y-37790010D02*
X242492510Y-37790010D01*
X188069312Y-40205000D02*
X190484303Y-37790009D01*
X203057500Y-74480000D02*
X203257500Y-74480000D01*
X185447490Y-59144990D02*
X184157500Y-57855000D01*
X241407500Y-36705000D02*
X242607500Y-37905000D01*
X217686237Y-54405000D02*
X217696247Y-54415010D01*
X213042496Y-75980000D02*
X215607486Y-73415010D01*
X203282500Y-36480000D02*
X203057500Y-36480000D01*
X242607500Y-37905000D02*
X247227490Y-42524989D01*
X254830698Y-42540010D02*
X262342510Y-42540010D01*
X278618753Y-80590010D02*
X278668753Y-80540010D01*
X205092510Y-56790010D02*
X205107500Y-56805000D01*
X210722500Y-97105000D02*
X194407500Y-97105000D01*
X261772490Y-80469990D02*
X260532500Y-79230000D01*
X223547490Y-73465010D02*
X225872490Y-75790010D01*
X223307500Y-35305000D02*
X225792510Y-37790010D01*
X163167250Y-102105000D02*
X162687375Y-101625125D01*
X215907500Y-54405000D02*
X217686237Y-54405000D01*
X172087499Y-60595001D02*
X173517490Y-59165010D01*
X204622490Y-56790010D02*
X196857490Y-56790010D01*
X262077530Y-61004990D02*
X268775668Y-61004990D01*
X278707490Y-80540010D02*
X279657500Y-79590000D01*
X155606900Y-40760000D02*
X170452500Y-40760000D01*
X162687375Y-101625125D02*
X163369661Y-100942839D01*
X203257500Y-74480000D02*
X203367500Y-74590000D01*
X212557500Y-94105000D02*
X213082500Y-94105000D01*
X205108632Y-56803868D02*
X213508632Y-56803868D01*
X260532500Y-79230000D02*
X260057500Y-79230000D01*
X247570698Y-61540010D02*
X261542510Y-61540010D01*
X279752500Y-60615000D02*
X279367500Y-60230000D01*
X171107500Y-40305000D02*
X171433226Y-40305000D01*
X213922490Y-37790010D02*
X216297490Y-35415010D01*
X184257500Y-76855000D02*
X185507500Y-78105000D01*
X241082500Y-74480000D02*
X241057500Y-74480000D01*
X163369661Y-100942839D02*
X163369661Y-100005000D01*
X261542510Y-42540010D02*
X260232500Y-41230000D01*
X261542510Y-61540010D02*
X262077530Y-61004990D01*
X164347500Y-72170000D02*
X169972500Y-72170000D01*
X223838990Y-73756510D02*
X222187480Y-72105000D01*
X242492510Y-37790010D02*
X242607500Y-37905000D01*
X278618753Y-42590010D02*
X278738763Y-42470000D01*
X223417510Y-35415010D02*
X222107500Y-34105000D01*
X242292510Y-75790010D02*
X242392510Y-75790010D01*
X195944312Y-76190000D02*
X195944312Y-76173188D01*
X261542510Y-61540010D02*
X260232500Y-60230000D01*
X184057500Y-57855000D02*
X184257500Y-57855000D01*
X162687500Y-77200000D02*
X162687500Y-73830000D01*
X223207500Y-54325020D02*
X223207500Y-54305000D01*
X279057500Y-42230000D02*
X279057500Y-41230000D01*
X162837500Y-73680000D02*
X164347500Y-72170000D01*
X177707500Y-99205000D02*
X174807500Y-102105000D01*
X190484303Y-37790009D02*
X204592510Y-37790010D01*
X175967510Y-78165010D02*
X184697490Y-78165010D01*
X162687500Y-73830000D02*
X162837500Y-73680000D01*
X204622490Y-56790010D02*
X204492510Y-56790010D01*
X217696247Y-54415010D02*
X223117510Y-54415010D01*
X194407500Y-97105000D02*
X193966393Y-97105000D01*
X241107500Y-55605000D02*
X241635688Y-55605000D01*
X261972490Y-42540010D02*
X261542510Y-42540010D01*
X194482490Y-59165010D02*
X186047490Y-59165010D01*
X223207500Y-54305000D02*
X222057500Y-53155000D01*
X260232500Y-60230000D02*
X260057500Y-60230000D01*
X213402500Y-94425000D02*
X210722500Y-97105000D01*
X163369661Y-100005000D02*
X163369661Y-99996762D01*
X225707500Y-56805000D02*
X242807500Y-56805000D01*
X172087499Y-60595001D02*
X171787500Y-60895000D01*
X186047490Y-59165010D02*
X173517490Y-59165010D01*
X195944312Y-76173188D02*
X196107500Y-76010000D01*
X247142510Y-80540010D02*
X261772490Y-80540010D01*
X217596247Y-73465010D02*
X223547490Y-73465010D01*
X185507500Y-78105000D02*
X185447490Y-78165010D01*
X242292510Y-75690010D02*
X241082500Y-74480000D01*
X205077500Y-75980000D02*
X204812480Y-75980000D01*
X193969302Y-78165010D02*
X195944312Y-76190000D01*
X261772490Y-80540010D02*
X261822490Y-80590010D01*
X169972500Y-72170000D02*
X175967510Y-78165010D01*
X174807500Y-102105000D02*
X163167250Y-102105000D01*
X247227490Y-42524989D02*
X254815678Y-42524990D01*
X268775668Y-61004990D02*
X269420678Y-61650000D01*
X222057500Y-53155000D02*
X222057500Y-53105000D01*
X241282500Y-55480000D02*
X241057500Y-55480000D01*
X204812480Y-75980000D02*
X213042496Y-75980000D01*
X203367500Y-74590000D02*
X203422480Y-74590000D01*
X241182500Y-36480000D02*
X241057500Y-36480000D01*
X205047500Y-76010000D02*
X205077500Y-75980000D01*
X203182500Y-55480000D02*
X203057500Y-55480000D01*
X213508632Y-56803868D02*
X215907500Y-54405000D01*
X279657500Y-79590000D02*
X279297500Y-79230000D01*
X204622490Y-56790010D02*
X205092510Y-56790010D01*
X242392510Y-75790010D02*
X247142510Y-80540010D01*
X186047490Y-59144990D02*
X185447490Y-59144990D01*
X185407500Y-40205000D02*
X188069312Y-40205000D01*
X279367500Y-60230000D02*
X279057500Y-60230000D01*
X159107500Y-95205000D02*
X159107500Y-80780000D01*
X262392510Y-42590010D02*
X278618753Y-42590010D01*
X222107500Y-34105000D02*
X222057500Y-34105000D01*
X185407500Y-40205000D02*
X184057500Y-38855000D01*
X184157500Y-57855000D02*
X184057500Y-57855000D01*
X162687375Y-101625125D02*
X159107500Y-95205000D01*
X204592510Y-37790010D02*
X213922490Y-37790010D01*
X279297500Y-79230000D02*
X279057500Y-79230000D01*
X217546247Y-73415010D02*
X217596247Y-73465010D01*
X170452500Y-40760000D02*
X171007500Y-40205000D01*
X269420678Y-61650000D02*
X278717500Y-61650000D01*
X196107500Y-76010000D02*
X205047500Y-76010000D01*
X184057500Y-76855000D02*
X184257500Y-76855000D01*
X204492510Y-56790010D02*
X203182500Y-55480000D01*
X196857490Y-56790010D02*
X194482490Y-59165010D01*
X225872490Y-75790010D02*
X242292510Y-75790010D01*
X223207500Y-54305000D02*
X225707500Y-56805000D01*
X260232500Y-41230000D02*
X260057500Y-41230000D01*
X186047490Y-59165010D02*
X186047490Y-59144990D01*
X223207500Y-35305000D02*
X223307500Y-35305000D01*
X171007500Y-40205000D02*
X185407500Y-40205000D01*
X194407500Y-97105000D02*
X186907500Y-99205000D01*
X261972490Y-42540010D02*
X261572490Y-42540010D01*
X213082500Y-94105000D02*
X213402500Y-94425000D01*
X262342510Y-42540010D02*
X262392510Y-42590010D01*
X184697490Y-78165010D02*
X193969302Y-78165010D01*
X215607486Y-73415010D02*
X217546247Y-73415010D01*
X186907500Y-99205000D02*
X177707500Y-99205000D01*
X177747490Y-74144990D02*
X177747490Y-74344990D01*
X185272490Y-74144990D02*
X185757501Y-74630001D01*
X182507500Y-98405000D02*
X177407500Y-98405000D01*
X185907500Y-95005000D02*
X186907500Y-95005000D01*
X196572490Y-52769990D02*
X193237510Y-52769990D01*
X185732490Y-36094990D02*
X179596247Y-36094990D01*
X225874488Y-31394990D02*
X228249488Y-33769990D01*
X171874490Y-36144990D02*
X171934500Y-36205000D01*
X215707500Y-69505000D02*
X216907500Y-70705000D01*
X261247500Y-38830000D02*
X273007500Y-38830000D01*
X273327501Y-58000001D02*
X274132500Y-58805000D01*
X228227490Y-52769990D02*
X234372490Y-52769990D01*
X215117510Y-69394990D02*
X225582490Y-69394990D01*
X252322490Y-76519990D02*
X253672490Y-76519990D01*
X161807500Y-79680000D02*
X161807500Y-92405000D01*
X185907500Y-95005000D02*
X182507500Y-98405000D01*
X192942510Y-33769990D02*
X196072490Y-33769990D01*
X174507500Y-101305000D02*
X167307500Y-101305000D01*
X157087500Y-72130000D02*
X158637500Y-73680000D01*
X207457500Y-92505000D02*
X206507500Y-92505000D01*
X215597510Y-31394990D02*
X216107500Y-31904980D01*
X261372500Y-57505000D02*
X261867501Y-58000001D01*
X196572490Y-33769990D02*
X197882500Y-35080000D01*
X197507500Y-72705000D02*
X197882500Y-73080000D01*
X261907501Y-77000001D02*
X273327501Y-77000001D01*
X227892500Y-71705000D02*
X233007500Y-71705000D01*
X167307500Y-101305000D02*
X162607500Y-93205000D01*
X245065688Y-71705000D02*
X249880678Y-76519990D01*
X171647490Y-36144990D02*
X175967510Y-36144990D01*
X228249488Y-33769990D02*
X234232490Y-33769990D01*
X252322490Y-76519990D02*
X261427490Y-76519990D01*
X211817510Y-50394990D02*
X215797490Y-50394990D01*
X235982500Y-54080000D02*
X236157500Y-54080000D01*
X197882500Y-54080000D02*
X198157500Y-54080000D01*
X155617500Y-72130000D02*
X157087500Y-72130000D01*
X234232490Y-33769990D02*
X244874488Y-33769990D01*
X193507500Y-93005000D02*
X185907500Y-95005000D01*
X273327501Y-77000001D02*
X274157500Y-77830000D01*
X204997490Y-71769990D02*
X205532500Y-72305000D01*
X225852490Y-50394990D02*
X228227490Y-52769990D01*
X235882500Y-73080000D02*
X236157500Y-73080000D01*
X273007500Y-38830000D02*
X274007500Y-39830000D01*
X202668753Y-71769990D02*
X204997490Y-71769990D01*
X177747490Y-74144990D02*
X177397500Y-74135000D01*
X197882500Y-35080000D02*
X198157500Y-35080000D01*
X235942500Y-35080000D02*
X236157500Y-35080000D01*
X204707501Y-53250001D02*
X208962499Y-53250001D01*
X169598900Y-36992000D02*
X170445910Y-36144990D01*
X185877501Y-55630001D02*
X185352500Y-55105000D01*
X196072490Y-33769990D02*
X198546247Y-33769990D01*
X178857500Y-75455000D02*
X179157500Y-75455000D01*
X177847490Y-36144990D02*
X178307500Y-36605000D01*
X204417490Y-33719990D02*
X204947501Y-34250001D01*
X186267501Y-36630001D02*
X185732490Y-36094990D01*
X185352500Y-55105000D02*
X175767500Y-55105000D01*
X204947501Y-34250001D02*
X209162499Y-34250001D01*
X234632490Y-33769990D02*
X235942500Y-35080000D01*
X196572490Y-52769990D02*
X204227490Y-52769990D01*
X253847490Y-57519990D02*
X255157500Y-58830000D01*
X253517500Y-57505000D02*
X261372500Y-57505000D01*
X154557500Y-71070000D02*
X155617500Y-72130000D01*
X211917510Y-69394990D02*
X215117510Y-69394990D01*
X192907500Y-33805000D02*
X192942510Y-33769990D01*
X253672490Y-76519990D02*
X254982500Y-77830000D01*
X249497490Y-57519990D02*
X253192510Y-57519990D01*
X175967510Y-36144990D02*
X177167510Y-36144990D01*
X179596247Y-36094990D02*
X179546247Y-36144990D01*
X160007500Y-71005000D02*
X160007500Y-72510000D01*
X216107500Y-31904980D02*
X216107500Y-31915000D01*
X216107500Y-31915000D02*
X216897500Y-32705000D01*
X216907500Y-70705000D02*
X217157500Y-70705000D01*
X274132500Y-58805000D02*
X274157500Y-58830000D01*
X249607500Y-38505000D02*
X253447500Y-38495000D01*
X179057500Y-56455000D02*
X177807500Y-55205000D01*
X173067510Y-74144990D02*
X169702520Y-70780000D01*
X274007500Y-39830000D02*
X274157500Y-39830000D01*
X154557500Y-69480000D02*
X154557500Y-71070000D01*
X179546247Y-36144990D02*
X177167510Y-36144990D01*
X215797490Y-50394990D02*
X215797490Y-50494990D01*
X248307500Y-37203002D02*
X248307500Y-37205000D01*
X158637500Y-73680000D02*
X158837500Y-73680000D01*
X233007500Y-71705000D02*
X234507500Y-71705000D01*
X192895000Y-33805000D02*
X190069999Y-36630001D01*
X196572490Y-52769990D02*
X197882500Y-54080000D01*
X196542510Y-71769990D02*
X197477520Y-72705000D01*
X209007500Y-72305000D02*
X211917510Y-69394990D01*
X249880678Y-76519990D02*
X252322490Y-76519990D01*
X253447500Y-38495000D02*
X253927961Y-38495461D01*
X169702520Y-70780000D02*
X164032500Y-70780000D01*
X253927961Y-38495461D02*
X253927961Y-38795461D01*
X215797490Y-50494990D02*
X217007500Y-51705000D01*
X196072490Y-33769990D02*
X196572490Y-33769990D01*
X161807500Y-92405000D02*
X162607500Y-93205000D01*
X225582490Y-69394990D02*
X227892500Y-71705000D01*
X215797490Y-50394990D02*
X225852490Y-50394990D01*
X164032500Y-70780000D02*
X164007500Y-70805000D01*
X185757501Y-74630001D02*
X189982499Y-74630001D01*
X162607500Y-94705000D02*
X162259262Y-95053238D01*
X261427490Y-76519990D02*
X261907501Y-77000001D01*
X233007500Y-71705000D02*
X245065688Y-71705000D01*
X187796198Y-95893698D02*
X187796198Y-95946107D01*
X260912961Y-38495461D02*
X261247500Y-38830000D01*
X261867501Y-58000001D02*
X273327501Y-58000001D01*
X160007500Y-72510000D02*
X158837500Y-73680000D01*
X162607500Y-93205000D02*
X162607500Y-94705000D01*
X178307500Y-36605000D02*
X179157500Y-37455000D01*
X197477520Y-72705000D02*
X197507500Y-72705000D01*
X164007500Y-70805000D02*
X160207500Y-70805000D01*
X190377499Y-55630001D02*
X185877501Y-55630001D01*
X254982500Y-77830000D02*
X255157500Y-77830000D01*
X192842510Y-71769990D02*
X196542510Y-71769990D01*
X177747490Y-74144990D02*
X185272490Y-74144990D01*
X206007500Y-93005000D02*
X193507500Y-93005000D01*
X234372490Y-52769990D02*
X244747490Y-52769990D01*
X253927961Y-38495461D02*
X260912961Y-38495461D01*
X170445910Y-36144990D02*
X171647490Y-36144990D01*
X244747490Y-52769990D02*
X249497490Y-57519990D01*
X202618753Y-71719990D02*
X202668753Y-71769990D01*
X186907500Y-95005000D02*
X187796198Y-95893698D01*
X215707500Y-69405000D02*
X215707500Y-69505000D01*
X209162499Y-34250001D02*
X212017510Y-31394990D01*
X198596247Y-71719990D02*
X202618753Y-71719990D01*
X208962499Y-53250001D02*
X211817510Y-50394990D01*
X206507500Y-92505000D02*
X206007500Y-93005000D01*
X217007500Y-51705000D02*
X217157500Y-51705000D01*
X193237510Y-52769990D02*
X190377499Y-55630001D01*
X196542510Y-71769990D02*
X198546247Y-71769990D01*
X198546247Y-71769990D02*
X198596247Y-71719990D01*
X171647490Y-36144990D02*
X171874490Y-36144990D01*
X248307500Y-37205000D02*
X249607500Y-38505000D01*
X234232490Y-33769990D02*
X234632490Y-33769990D01*
X198596247Y-33719990D02*
X204417490Y-33719990D01*
X244874488Y-33769990D02*
X248307500Y-37203002D01*
X198546247Y-33769990D02*
X198596247Y-33719990D01*
X215597510Y-31394990D02*
X225874488Y-31394990D01*
X173007499Y-52344999D02*
X172707500Y-52045000D01*
X215127520Y-69405000D02*
X215707500Y-69405000D01*
X160207500Y-70805000D02*
X160007500Y-71005000D01*
X190069999Y-36630001D02*
X186267501Y-36630001D01*
X212017510Y-31394990D02*
X215597510Y-31394990D01*
X205532500Y-72305000D02*
X209007500Y-72305000D01*
X215117510Y-69394990D02*
X215127520Y-69405000D01*
X234372490Y-52769990D02*
X234672490Y-52769990D01*
X197882500Y-73080000D02*
X198157500Y-73080000D01*
X177747490Y-74344990D02*
X178857500Y-75455000D01*
X207657500Y-92705000D02*
X207457500Y-92505000D01*
X179157500Y-56455000D02*
X179057500Y-56455000D01*
X177407500Y-98405000D02*
X174507500Y-101305000D01*
X189982499Y-74630001D02*
X192842510Y-71769990D01*
X234672490Y-52769990D02*
X235982500Y-54080000D01*
X253927961Y-38795461D02*
X254962500Y-39830000D01*
X162259262Y-95053238D02*
X162132097Y-95053238D01*
X234507500Y-71705000D02*
X235882500Y-73080000D01*
X253192510Y-57519990D02*
X253847490Y-57519990D01*
X175767500Y-55105000D02*
X173007499Y-52344999D01*
X177397500Y-74135000D02*
X173067510Y-74144990D01*
X204227490Y-52769990D02*
X204707501Y-53250001D01*
X254962500Y-39830000D02*
X255157500Y-39830000D01*
X216897500Y-32705000D02*
X217157500Y-32705000D01*
D29*
X23832500Y-39830000D02*
X24107500Y-40105000D01*
X17657500Y-60230000D02*
X17657500Y-60980000D01*
X22557500Y-39830000D02*
X23832500Y-39830000D01*
X17657500Y-60980000D02*
X18282500Y-61605000D01*
X18282500Y-61605000D02*
X23107500Y-61605000D01*
X23107500Y-61605000D02*
X24007500Y-62505000D01*
X17582500Y-60305000D02*
X17657500Y-60230000D01*
X24826997Y-41609990D02*
X24402733Y-41609990D01*
X17657500Y-41230000D02*
X17657500Y-41980000D01*
X33807500Y-39205000D02*
X31402510Y-41609990D01*
X17657500Y-41980000D02*
X19247510Y-43570010D01*
X42782500Y-39830000D02*
X42907500Y-39705000D01*
X23883236Y-43570010D02*
X24307500Y-43570010D01*
X19247510Y-43570010D02*
X23883236Y-43570010D01*
X31402510Y-41609990D02*
X24826997Y-41609990D01*
X41557500Y-39830000D02*
X42782500Y-39830000D01*
X35532500Y-41230000D02*
X35507500Y-41205000D01*
X42707500Y-58705000D02*
X41682500Y-58705000D01*
X36657500Y-41230000D02*
X35532500Y-41230000D01*
X41682500Y-58705000D02*
X41557500Y-58830000D01*
X60707500Y-56655000D02*
X60557500Y-56805000D01*
X56232500Y-56805000D02*
X55657500Y-56230000D01*
X61682500Y-35080000D02*
X61907500Y-35305000D01*
X55657500Y-56230000D02*
X55657500Y-55480000D01*
X60557500Y-35080000D02*
X61682500Y-35080000D01*
X55582500Y-55405000D02*
X55657500Y-55480000D01*
X60557500Y-56805000D02*
X56232500Y-56805000D01*
X56382490Y-37954990D02*
X61683242Y-37954990D01*
X55657500Y-36480000D02*
X55657500Y-37230000D01*
X55632500Y-36505000D02*
X55657500Y-36480000D01*
X61683242Y-37954990D02*
X62107506Y-37954990D01*
X80707500Y-32705000D02*
X80807500Y-32605000D01*
X67265548Y-36246952D02*
X62387500Y-36246952D01*
X71007500Y-32505000D02*
X67265548Y-36246952D01*
X79557500Y-32705000D02*
X80707500Y-32705000D01*
X55657500Y-37230000D02*
X56382490Y-37954990D01*
X74657500Y-34105000D02*
X73307500Y-34105000D01*
X80807500Y-51705000D02*
X79557500Y-51705000D01*
X100019435Y-35003426D02*
X100443699Y-35003426D01*
X94332500Y-56905000D02*
X93657500Y-56230000D01*
X98557500Y-35080000D02*
X98634074Y-35003426D01*
X93657500Y-56230000D02*
X93657500Y-55480000D01*
X98457500Y-56905000D02*
X94332500Y-56905000D01*
X98607500Y-56755000D02*
X98457500Y-56905000D01*
X93582500Y-55405000D02*
X93657500Y-55480000D01*
X98634074Y-35003426D02*
X100019435Y-35003426D01*
X117557500Y-37455000D02*
X118757500Y-37455000D01*
X118757500Y-37455000D02*
X118807500Y-37405000D01*
X93952510Y-37715010D02*
X93787500Y-37550000D01*
X93632500Y-37385000D02*
X93632500Y-36505000D01*
X99458236Y-37455000D02*
X99198226Y-37715010D01*
X100597500Y-35880000D02*
X101822499Y-37104999D01*
X93787500Y-37550000D02*
X93787500Y-37540000D01*
X109262522Y-37104999D02*
X109562521Y-36805000D01*
X101822499Y-37104999D02*
X109262522Y-37104999D01*
X93787500Y-37540000D02*
X93632500Y-37385000D01*
X99198226Y-37715010D02*
X93952510Y-37715010D01*
X99882500Y-37455000D02*
X99458236Y-37455000D01*
X111457500Y-38855000D02*
X111407500Y-38905000D01*
X118607500Y-56405000D02*
X117607500Y-56405000D01*
X117607500Y-56405000D02*
X117557500Y-56455000D01*
X112657500Y-38855000D02*
X111457500Y-38855000D01*
X22557500Y-58830000D02*
X24132500Y-58830000D01*
X24132500Y-58830000D02*
X24307500Y-59005000D01*
X23007500Y-80505000D02*
X23607500Y-81105000D01*
X17657500Y-79230000D02*
X17657500Y-79980000D01*
X23607500Y-81105000D02*
X23607500Y-81405000D01*
X17657500Y-79980000D02*
X18182500Y-80505000D01*
X18182500Y-80505000D02*
X23007500Y-80505000D01*
X17382500Y-79505000D02*
X17657500Y-79230000D01*
X42707500Y-77705000D02*
X41682500Y-77705000D01*
X41682500Y-77705000D02*
X41557500Y-77830000D01*
X35582500Y-60230000D02*
X35407500Y-60405000D01*
X36657500Y-60230000D02*
X35582500Y-60230000D01*
X60557500Y-54080000D02*
X61707510Y-54080000D01*
X55582500Y-74405000D02*
X55657500Y-74480000D01*
X56132500Y-75705000D02*
X55657500Y-75230000D01*
X55657500Y-75230000D02*
X55657500Y-74480000D01*
X60507500Y-75705000D02*
X56132500Y-75705000D01*
X60677169Y-75535331D02*
X60507500Y-75705000D01*
X61707510Y-54080000D02*
X62232510Y-54605000D01*
X74657500Y-53105000D02*
X73407500Y-53105000D01*
X80807500Y-70705000D02*
X79557500Y-70705000D01*
X100557501Y-54605001D02*
X100857500Y-54905000D01*
X94132500Y-75705000D02*
X93657500Y-75230000D01*
X93657500Y-75230000D02*
X93657500Y-74480000D01*
X98807500Y-75705000D02*
X94132500Y-75705000D01*
X98557500Y-54080000D02*
X100032500Y-54080000D01*
X100032500Y-54080000D02*
X100557501Y-54605001D01*
X93482500Y-74305000D02*
X93657500Y-74480000D01*
X118757500Y-75455000D02*
X118807500Y-75405000D01*
X111357500Y-57855000D02*
X111307500Y-57805000D01*
X112657500Y-57855000D02*
X111357500Y-57855000D01*
X117557500Y-75455000D02*
X118757500Y-75455000D01*
X61642500Y-76940000D02*
X61907500Y-77205000D01*
X35107500Y-79305000D02*
X36582500Y-79305000D01*
X61907510Y-73080000D02*
X62032510Y-73205000D01*
X60557500Y-73080000D02*
X61907510Y-73080000D01*
X50402500Y-81355000D02*
X54817500Y-76940000D01*
X54817500Y-76940000D02*
X61642500Y-76940000D01*
X36582500Y-79305000D02*
X36657500Y-79230000D01*
X37107500Y-81355000D02*
X50402500Y-81355000D01*
X74657500Y-72105000D02*
X73407500Y-72105000D01*
X90307500Y-92705000D02*
X89057500Y-92705000D01*
X98557500Y-73080000D02*
X99682500Y-73080000D01*
X103400229Y-95605000D02*
X103830418Y-96035189D01*
X99682500Y-73080000D02*
X99907500Y-73305000D01*
X102707500Y-95605000D02*
X103400229Y-95605000D01*
X111457500Y-76855000D02*
X111407500Y-76905000D01*
X134589903Y-95058238D02*
X135200692Y-94447449D01*
X135200692Y-94447449D02*
X135200692Y-94111767D01*
X112657500Y-76855000D02*
X111457500Y-76855000D01*
X108925802Y-95951107D02*
X109453607Y-95951107D01*
X82907500Y-94105000D02*
X84157500Y-94105000D01*
X109453607Y-95951107D02*
X110207500Y-96705000D01*
X274102500Y-60175000D02*
X274157500Y-60230000D01*
X279057500Y-39830000D02*
X280182500Y-39830000D01*
X272977500Y-60175000D02*
X274102500Y-60175000D01*
X280182500Y-39830000D02*
X280317500Y-39965000D01*
X260057500Y-39830000D02*
X260457500Y-39430000D01*
X273427500Y-41230000D02*
X274157500Y-41230000D01*
X271627500Y-39430000D02*
X273427500Y-41230000D01*
X260457500Y-39430000D02*
X271627500Y-39430000D01*
X261222500Y-58830000D02*
X261307500Y-58745000D01*
X254257500Y-41230000D02*
X254167500Y-41320000D01*
X254167500Y-41320000D02*
X254167500Y-41355002D01*
X255157500Y-41230000D02*
X254257500Y-41230000D01*
X260057500Y-58830000D02*
X261222500Y-58830000D01*
X236032500Y-55355000D02*
X236157500Y-55480000D01*
X234977500Y-55355000D02*
X236032500Y-55355000D01*
X241057500Y-35080000D02*
X242272500Y-35080000D01*
X242272500Y-35080000D02*
X242337500Y-35145000D01*
X235307500Y-36425000D02*
X236102500Y-36425000D01*
X233297500Y-34395000D02*
X235307500Y-36405000D01*
X222772500Y-31990000D02*
X225656312Y-31990000D01*
X236102500Y-36425000D02*
X236157500Y-36480000D01*
X235307500Y-36405000D02*
X235307500Y-36425000D01*
X222057500Y-32705000D02*
X222772500Y-31990000D01*
X225656312Y-31990000D02*
X228061312Y-34395000D01*
X228061312Y-34395000D02*
X233297500Y-34395000D01*
X222057500Y-51705000D02*
X223046838Y-51705000D01*
X216047500Y-34105000D02*
X217157500Y-34105000D01*
X223046838Y-51705000D02*
X223232169Y-51890331D01*
X196907500Y-55365000D02*
X198042500Y-55365000D01*
X204332500Y-35080000D02*
X204437500Y-35185000D01*
X198042500Y-55365000D02*
X198157500Y-55480000D01*
X203057500Y-35080000D02*
X204332500Y-35080000D01*
X185197501Y-37214999D02*
X196522501Y-37214999D01*
X184057500Y-37455000D02*
X184957500Y-37455000D01*
X184957500Y-37455000D02*
X185197501Y-37214999D01*
X197257500Y-36480000D02*
X198157500Y-36480000D01*
X196522501Y-37214999D02*
X197257500Y-36480000D01*
X179157500Y-38855000D02*
X178087510Y-38855000D01*
X185267500Y-56455000D02*
X185337500Y-56385000D01*
X184057500Y-56455000D02*
X185267500Y-56455000D01*
X178087510Y-38855000D02*
X178037510Y-38905000D01*
X280302500Y-58830000D02*
X280367500Y-58895000D01*
X274132500Y-79255000D02*
X274157500Y-79230000D01*
X279057500Y-58830000D02*
X280302500Y-58830000D01*
X273117500Y-79255000D02*
X274132500Y-79255000D01*
X261252500Y-77830000D02*
X261327500Y-77755000D01*
X255157500Y-60230000D02*
X254202500Y-60230000D01*
X254202500Y-60230000D02*
X254007500Y-60425000D01*
X260057500Y-77830000D02*
X261252500Y-77830000D01*
X236032500Y-74355000D02*
X236157500Y-74480000D01*
X241057500Y-54080000D02*
X242062500Y-54080000D01*
X242062500Y-54080000D02*
X242277500Y-54295000D01*
X234907500Y-74355000D02*
X236032500Y-74355000D01*
X215897500Y-53155000D02*
X217107500Y-53155000D01*
X223246838Y-70705000D02*
X223267169Y-70725331D01*
X217107500Y-53155000D02*
X217157500Y-53105000D01*
X222057500Y-70705000D02*
X223246838Y-70705000D01*
X204332500Y-54080000D02*
X204397500Y-54145000D01*
X198042500Y-74365000D02*
X198157500Y-74480000D01*
X203057500Y-54080000D02*
X204332500Y-54080000D01*
X196857500Y-74365000D02*
X198042500Y-74365000D01*
X184057500Y-75455000D02*
X185297500Y-75455000D01*
X185297500Y-75455000D02*
X185367500Y-75525000D01*
X177937500Y-57865000D02*
X179147500Y-57865000D01*
X179147500Y-57865000D02*
X179157500Y-57855000D01*
X241057500Y-73080000D02*
X245627500Y-73080000D01*
X254257500Y-79230000D02*
X255157500Y-79230000D01*
X245627500Y-73080000D02*
X249742500Y-77195000D01*
X249742500Y-77195000D02*
X252222500Y-77195000D01*
X252222500Y-77195000D02*
X254257500Y-79230000D01*
X217127500Y-72135000D02*
X217157500Y-72105000D01*
X216007500Y-72135000D02*
X217127500Y-72135000D01*
X213737500Y-92705000D02*
X213767500Y-92735000D01*
X212557500Y-92705000D02*
X213737500Y-92705000D01*
X187971948Y-97485000D02*
X188158545Y-97298403D01*
X203057500Y-73080000D02*
X204172500Y-73080000D01*
X186947500Y-97485000D02*
X187971948Y-97485000D01*
X204172500Y-73080000D02*
X204327500Y-73235000D01*
X177707500Y-77035000D02*
X178977500Y-77035000D01*
X178977500Y-77035000D02*
X179157500Y-76855000D01*
X164582097Y-99296762D02*
X164582097Y-99829597D01*
X164582097Y-99829597D02*
X165207500Y-100455000D01*
X193512128Y-93695000D02*
X207247500Y-93695000D01*
X207247500Y-93695000D02*
X207657500Y-94105000D01*
X192529235Y-94677893D02*
X193512128Y-93695000D01*
D31*
X163343500Y-35700000D02*
X163343500Y-37433000D01*
X169713500Y-29330000D02*
X163343500Y-35700000D01*
X162057500Y-31652000D02*
X160803500Y-32906000D01*
X162057500Y-29033000D02*
X162057500Y-31652000D01*
X160803500Y-32906000D02*
X160803500Y-37433000D01*
X154473500Y-29330000D02*
X156028500Y-30885000D01*
X158205500Y-30885000D02*
X160057500Y-29033000D01*
X156028500Y-30885000D02*
X158205500Y-30885000D01*
X127177500Y-29330000D02*
X128701500Y-30854000D01*
X128701500Y-30854000D02*
X130836500Y-30854000D01*
X130836500Y-30854000D02*
X132797500Y-28893000D01*
M02*
