M48
; DRILL file {KiCad 7.0.7} date 2024 January 09, Tuesday 11:53:48
; FORMAT={-:-/ absolute / metric / decimal}
; #@! TF.CreationDate,2024-01-09T11:53:48+08:00
; #@! TF.GenerationSoftware,Kicad,Pcbnew,7.0.7
; #@! TF.FileFunction,MixedPlating,1,2
FMAT,2
METRIC
; #@! TA.AperFunction,Plated,PTH,ViaDrill
T1C0.400
; #@! TA.AperFunction,Plated,PTH,ComponentDrill
T2C0.813
; #@! TA.AperFunction,Plated,PTH,ComponentDrill
T3C1.000
; #@! TA.AperFunction,Plated,PTH,ComponentDrill
T4C1.092
; #@! TA.AperFunction,Plated,PTH,ComponentDrill
T5C1.300
; #@! TA.AperFunction,NonPlated,NPTH,ComponentDrill
T6C1.200
; #@! TA.AperFunction,NonPlated,NPTH,ComponentDrill
T7C1.900
; #@! TA.AperFunction,NonPlated,NPTH,ComponentDrill
T8C3.000
; #@! TA.AperFunction,NonPlated,NPTH,ComponentDrill
T9C4.100
%
G90
G05
T1
X13.008Y-35.205
X13.008Y-50.205
X13.008Y-54.205
X13.008Y-66.705
X13.008Y-69.205
X23.607Y-81.405
X24.008Y-62.505
X24.107Y-40.105
X24.307Y-43.57
X24.307Y-59.005
X24.403Y-41.61
X31.707Y-54.405
X31.965Y-50.195
X32.008Y-35.205
X32.108Y-69.205
X32.797Y-65.894
X33.807Y-39.205
X35.108Y-79.305
X35.407Y-60.405
X35.508Y-41.205
X37.108Y-81.355
X42.707Y-58.705
X42.707Y-77.705
X42.907Y-39.705
X50.307Y-35.105
X51.008Y-30.505
X51.008Y-45.505
X51.008Y-49.505
X51.008Y-64.505
X51.107Y-26.505
X52.577Y-61.175
X60.677Y-75.535
X60.707Y-56.655
X61.907Y-35.305
X61.907Y-77.205
X62.033Y-73.205
X62.108Y-37.955
X62.233Y-54.605
X62.387Y-36.247
X69.382Y-61.305
X69.382Y-68.405
X70.007Y-28.105
X70.007Y-43.105
X70.007Y-47.105
X70.007Y-62.105
X70.007Y-65.705
X70.407Y-59.705
X71.007Y-32.505
X73.307Y-34.105
X73.407Y-53.105
X73.407Y-72.105
X79.507Y-84.305
X80.807Y-32.605
X80.807Y-51.705
X80.807Y-70.705
X82.907Y-94.105
X89.007Y-30.505
X89.007Y-45.505
X89.007Y-49.505
X89.007Y-64.505
X89.007Y-68.505
X89.407Y-60.305
X90.307Y-92.705
X98.608Y-56.755
X98.807Y-75.705
X99.882Y-37.455
X99.907Y-73.305
X100.007Y-85.205
X100.444Y-35.003
X100.597Y-35.88
X100.858Y-54.905
X102.707Y-95.605
X108.007Y-32.805
X108.007Y-47.905
X108.007Y-51.805
X108.007Y-66.805
X108.007Y-70.805
X108.408Y-62.805
X109.563Y-36.805
X110.207Y-96.705
X111.307Y-57.805
X111.407Y-38.905
X111.407Y-76.905
X117.907Y-59.105
X118.608Y-56.405
X118.807Y-37.405
X118.807Y-75.405
X118.907Y-55.105
X122.607Y-99.005
X123.607Y-54.205
X124.607Y-69.005
X124.807Y-36.305
X124.807Y-70.805
X124.958Y-40.905
X126.297Y-77.305
X126.494Y-86.382
X127.041Y-62.096
X127.041Y-63.874
X127.041Y-65.652
X127.107Y-69.78
X127.953Y-78.96
X129.835Y-62.858
X131.107Y-82.78
X131.613Y-101.974
X131.613Y-105.276
X135.201Y-94.112
X137.107Y-80.78
X159.519Y-61.148
X159.857Y-93.846
X161.808Y-79.68
X161.839Y-63.874
X164.007Y-70.805
X165.207Y-100.455
X166.887Y-86.675
X167.111Y-85.628
X167.681Y-37.204
X169.206Y-65.144
X171.064Y-31.389
X171.787Y-60.895
X171.857Y-40.305
X171.934Y-36.205
X172.537Y-58.715
X172.707Y-52.045
X173.357Y-46.265
X174.297Y-63.015
X174.417Y-70.675
X174.507Y-32.805
X174.507Y-47.805
X174.507Y-66.905
X174.607Y-51.905
X175.232Y-58.415
X175.232Y-62.5
X177.707Y-77.035
X177.938Y-57.865
X178.038Y-38.905
X181.188Y-88.895
X185.338Y-56.385
X185.367Y-75.525
X186.947Y-97.485
X193.137Y-61.875
X193.507Y-30.405
X193.507Y-45.505
X193.507Y-49.305
X193.507Y-64.505
X193.517Y-68.325
X196.857Y-74.365
X196.907Y-55.365
X203.087Y-84.335
X204.327Y-73.235
X204.397Y-54.145
X204.438Y-35.185
X212.107Y-59.02
X212.507Y-28.005
X212.507Y-43.105
X212.507Y-47.105
X212.507Y-62.205
X212.558Y-65.985
X213.767Y-92.735
X215.897Y-53.155
X216.007Y-72.135
X216.047Y-34.105
X223.232Y-51.89
X223.267Y-70.725
X231.234Y-58.513
X231.507Y-30.305
X231.507Y-45.505
X231.607Y-49.505
X231.607Y-64.505
X234.907Y-74.355
X234.977Y-55.355
X242.277Y-54.295
X242.337Y-35.145
X249.998Y-64.1
X250.507Y-35.105
X250.507Y-50.305
X250.507Y-54.205
X250.507Y-69.205
X254.007Y-60.425
X254.167Y-41.355
X261.308Y-58.745
X261.327Y-77.755
X269.507Y-69.305
X269.548Y-66.55
X269.593Y-50.205
X269.608Y-35.205
X269.618Y-54.555
X272.977Y-60.175
X273.118Y-79.255
X280.317Y-39.965
X280.368Y-58.895
T2
X130.948Y-67.028
X133.488Y-67.028
X136.028Y-67.028
X138.569Y-67.028
X158.177Y-67.02
X160.718Y-67.02
X163.257Y-67.02
X165.797Y-67.02
T3
X132.797Y-28.893
X133.645Y-37.458
X134.797Y-28.893
X136.185Y-37.458
X136.797Y-28.893
X142.357Y-64.48
X142.357Y-69.48
X154.558Y-64.48
X154.558Y-69.48
X160.058Y-29.033
X160.803Y-37.433
X162.058Y-29.033
X163.344Y-37.433
X164.058Y-29.033
T4
X127.177Y-29.33
X127.177Y-31.87
X127.177Y-34.41
X127.177Y-36.95
X127.177Y-39.49
X127.177Y-42.03
X127.177Y-44.57
X127.177Y-47.11
X127.177Y-49.65
X127.177Y-52.19
X127.177Y-54.73
X127.177Y-57.27
X127.177Y-59.81
X142.417Y-29.33
X142.417Y-31.87
X142.417Y-34.41
X142.417Y-36.95
X142.417Y-39.49
X142.417Y-42.03
X142.417Y-44.57
X142.417Y-47.11
X142.417Y-49.65
X142.417Y-52.19
X142.417Y-54.73
X142.417Y-57.27
X142.417Y-59.81
X154.474Y-29.33
X154.474Y-31.87
X154.474Y-34.41
X154.474Y-36.95
X154.474Y-39.49
X154.474Y-42.03
X154.474Y-44.57
X154.474Y-47.11
X154.474Y-49.65
X154.474Y-52.19
X154.474Y-54.73
X154.474Y-57.27
X154.474Y-59.81
X169.713Y-29.33
X169.713Y-31.87
X169.713Y-34.41
X169.713Y-36.95
X169.713Y-39.49
X169.713Y-42.03
X169.713Y-44.57
X169.713Y-47.11
X169.713Y-49.65
X169.713Y-52.19
X169.713Y-54.73
X169.713Y-57.27
X169.713Y-59.81
T5
X139.857Y-63.48
X139.857Y-70.48
X157.058Y-63.48
X157.058Y-70.48
T6
X135.778Y-75.77
X142.778Y-75.77
X154.037Y-75.78
X161.037Y-75.78
T7
X15.027Y-35.78
X15.027Y-54.78
X15.027Y-73.78
X25.188Y-35.78
X25.188Y-54.78
X25.188Y-73.78
X34.027Y-35.78
X34.027Y-54.78
X34.027Y-73.78
X44.188Y-35.78
X44.188Y-54.78
X44.188Y-73.78
X53.027Y-31.03
X53.027Y-50.03
X53.027Y-69.03
X63.188Y-31.03
X63.188Y-50.03
X63.188Y-69.03
X72.028Y-28.655
X72.028Y-47.655
X72.028Y-66.655
X81.528Y-88.655
X82.188Y-28.655
X82.188Y-47.655
X82.188Y-66.655
X91.027Y-31.03
X91.027Y-50.03
X91.027Y-69.03
X91.688Y-88.655
X101.188Y-31.03
X101.188Y-50.03
X101.188Y-69.03
X102.701Y-90.09
X110.027Y-33.405
X110.027Y-52.405
X110.027Y-71.405
X112.514Y-92.72
X120.188Y-33.405
X120.188Y-52.405
X120.188Y-71.405
X127.317Y-99.554
X132.398Y-90.756
X164.325Y-90.751
X169.404Y-99.549
X176.528Y-33.405
X176.534Y-52.4
X176.534Y-71.4
X184.208Y-92.715
X186.688Y-33.405
X186.695Y-52.4
X186.695Y-71.4
X194.021Y-90.085
X195.534Y-31.025
X195.534Y-50.025
X195.534Y-69.025
X205.034Y-88.65
X205.694Y-31.025
X205.694Y-50.025
X205.694Y-69.025
X214.534Y-28.65
X214.534Y-47.65
X214.534Y-66.65
X215.194Y-88.65
X224.694Y-28.65
X224.694Y-47.65
X224.694Y-66.65
X233.534Y-31.025
X233.534Y-50.025
X233.534Y-69.025
X243.694Y-31.025
X243.694Y-50.025
X243.694Y-69.025
X252.534Y-35.775
X252.534Y-54.775
X252.534Y-73.775
X262.695Y-35.775
X262.695Y-54.775
X262.695Y-73.775
X271.534Y-35.775
X271.534Y-54.775
X271.534Y-73.775
X281.695Y-35.775
X281.695Y-54.775
X281.695Y-73.775
T8
X16.297Y-33.24
X16.297Y-52.24
X16.297Y-71.24
X22.647Y-30.7
X22.647Y-49.7
X22.647Y-68.7
X35.297Y-33.24
X35.297Y-52.24
X35.297Y-71.24
X41.648Y-30.7
X41.648Y-49.7
X41.648Y-68.7
X54.297Y-28.49
X54.297Y-47.49
X54.297Y-66.49
X60.647Y-25.95
X60.647Y-44.95
X60.647Y-63.95
X73.297Y-26.115
X73.297Y-45.115
X73.297Y-64.115
X79.647Y-23.575
X79.647Y-42.575
X79.647Y-61.575
X82.797Y-86.115
X89.147Y-83.575
X92.297Y-28.49
X92.297Y-47.49
X92.297Y-66.49
X98.647Y-25.95
X98.647Y-44.95
X98.647Y-63.95
X104.585Y-87.965
X111.297Y-30.865
X111.297Y-49.865
X111.297Y-68.865
X111.376Y-87.155
X117.647Y-28.325
X117.647Y-47.325
X117.647Y-66.325
X125.753Y-97.185
X126.728Y-90.415
X167.159Y-90.58
X172.534Y-94.81
X177.797Y-30.865
X177.804Y-49.86
X177.804Y-68.86
X184.147Y-28.325
X184.154Y-47.32
X184.154Y-66.32
X184.777Y-89.933
X190.253Y-85.836
X196.804Y-28.485
X196.804Y-47.485
X196.804Y-66.485
X203.154Y-25.945
X203.154Y-44.945
X203.154Y-63.945
X206.304Y-86.11
X212.654Y-83.57
X215.804Y-26.11
X215.804Y-45.11
X215.804Y-64.11
X222.154Y-23.57
X222.154Y-42.57
X222.154Y-61.57
X234.804Y-28.485
X234.804Y-47.485
X234.804Y-66.485
X241.154Y-25.945
X241.154Y-44.945
X241.154Y-63.945
X253.804Y-33.235
X253.804Y-52.235
X253.804Y-71.235
X260.154Y-30.695
X260.154Y-49.695
X260.154Y-68.695
X272.804Y-33.235
X272.804Y-52.235
X272.804Y-71.235
X279.154Y-30.695
X279.154Y-49.695
X279.154Y-68.695
T9
X20.107Y-35.78
X20.107Y-54.78
X20.107Y-73.78
X39.108Y-35.78
X39.108Y-54.78
X39.108Y-73.78
X58.107Y-31.03
X58.107Y-50.03
X58.107Y-69.03
X77.108Y-28.655
X77.108Y-47.655
X77.108Y-66.655
X86.608Y-88.655
X96.108Y-31.03
X96.108Y-50.03
X96.108Y-69.03
X107.608Y-91.405
X115.108Y-33.405
X115.108Y-52.405
X115.108Y-71.405
X129.857Y-95.155
X166.864Y-95.15
X181.607Y-33.405
X181.614Y-52.4
X181.614Y-71.4
X189.114Y-91.4
X200.614Y-31.025
X200.614Y-50.025
X200.614Y-69.025
X210.114Y-88.65
X219.614Y-28.65
X219.614Y-47.65
X219.614Y-66.65
X238.614Y-31.025
X238.614Y-50.025
X238.614Y-69.025
X257.614Y-35.775
X257.614Y-54.775
X257.614Y-73.775
X276.614Y-35.775
X276.614Y-54.775
X276.614Y-73.775
T3
G00X130.648Y-29.293
M15
G01X130.648Y-28.493
M16
G05
G00X132.727Y-73.67
M15
G01X132.227Y-73.67
M16
G05
G00X134.227Y-77.87
M15
G01X133.727Y-77.87
M16
G05
G00X138.227Y-77.87
M15
G01X137.727Y-77.87
M16
G05
G00X138.947Y-29.293
M15
G01X138.947Y-28.493
M16
G05
G00X141.227Y-77.87
M15
G01X140.727Y-77.87
M16
G05
G00X155.588Y-73.68
M15
G01X156.088Y-73.68
M16
G05
G00X157.907Y-29.433
M15
G01X157.907Y-28.633
M16
G05
G00X158.588Y-73.68
M15
G01X159.088Y-73.68
M16
G05
G00X162.588Y-73.68
M15
G01X163.088Y-73.68
M16
G05
G00X164.088Y-77.88
M15
G01X164.588Y-77.88
M16
G05
G00X166.207Y-29.433
M15
G01X166.207Y-28.633
M16
G05
T0
M30
